<?xml version="1.0" standalone="no"?>
<!DOCTYPE svg PUBLIC "-//W3C//DTD SVG 1.1//EN" "http://www.w3.org/Graphics/SVG/1.1/DTD/svg11.dtd" >
<svg xmlns="http://www.w3.org/2000/svg" xmlns:xlink="http://www.w3.org/1999/xlink" version="1.1">
<metadata>
Created by FontForge 20170731 at Fri May  5 14:18:50 2017
 By Aleksey,,,
Copyright (c) 2015, Cadson Demak (info@cadsondemak.com)
</metadata>
<defs>
<font id="Mitr-Medium" horiz-adv-x="0" >
  <font-face 
    font-family="Mitr Medium"
    font-weight="500"
    font-stretch="normal"
    units-per-em="1000"
    panose-1="0 0 6 0 0 0 0 0 0 0"
    ascent="750"
    descent="-250"
    x-height="480"
    cap-height="680"
    bbox="-641 -405 1310 1105"
    underline-thickness="50"
    underline-position="-150"
    unicode-range="U+000D-FB02"
  />
<missing-glyph horiz-adv-x="552" 
d="M70 714h411v-714h-411v714zM430 51v612h-309v-612h309z" />
    <glyph glyph-name="fi" unicode="fi" horiz-adv-x="583" 
d="M103.5 10.5q-10.5 10.5 -10.5 32.5v321h-40q-24 0 -33 10t-9 33v31q0 23 9 32.5t33 9.5h40v21q0 90 58 142t161 52q106 0 164 -41q11 -8 11 -16q0 -6 -5 -14l-32 -55q-6 -10 -13 -10q-3 0 -13 4q-38 22 -75 22q-94 0 -94 -84v-21h231q25 0 35.5 -11t10.5 -33v-393
q0 -22 -10.5 -32.5t-35.5 -10.5h-71q-25 0 -35.5 10.5t-10.5 32.5v321h-114v-321q0 -22 -10 -32.5t-35 -10.5h-72q-24 0 -34.5 10.5z" />
    <glyph glyph-name="fl" unicode="fl" horiz-adv-x="591" 
d="M103.5 10.5q-10.5 10.5 -10.5 32.5v321h-40q-24 0 -33 10t-9 33v31q0 23 9 32.5t33 9.5h40v21q0 91 58.5 142.5t163.5 51.5q61 0 112.5 -13t86.5 -37q15 -10 20.5 -19.5t5.5 -28.5v-554q0 -22 -10.5 -32.5t-35.5 -10.5h-71q-25 0 -35.5 10.5t-10.5 32.5v321h-122v-321
q0 -22 -10 -32.5t-35 -10.5h-72q-24 0 -34.5 10.5zM382 480v86q-20 13 -58 13q-35 0 -54 -20t-19 -58v-21h131z" />
    <glyph glyph-name="ru_lakkhangyaothai" unicode="&#xe24;&#xe45;" horiz-adv-x="894" 
d="M789 492q53 -48 53 -148v-461q0 -39 -40 -39h-85q-40 0 -40 39v452q0 47 -17 66.5t-60 19.5q-15 0 -39 -4q18 -42 18 -100v-430q0 -22 -10.5 -32.5t-35.5 -10.5h-74q-25 0 -35.5 10.5t-10.5 32.5v434q0 50 -23.5 74.5t-75.5 24.5q-66 0 -111 -35l12 -24q7 -14 10 -27
t3 -32v-153q0 -15 4.5 -20.5t16.5 -5.5h17q18 0 25 -7.5t7 -24.5v-59q0 -21 -10 -26.5t-42 -5.5h-121q-36 0 -49 14.5t-13 47.5v266l-23 56q-9 23 -9 33q0 16 15 28q48 40 117.5 67.5t151.5 27.5q98 0 158 -31q65 31 154 31q109 0 162 -48z" />
    <glyph glyph-name="lu_lakkhangyaothai" unicode="&#xe26;&#xe45;" horiz-adv-x="898" 
d="M793 492q53 -48 53 -148v-461q0 -39 -40 -39h-85q-40 0 -40 39v452q0 47 -17 66.5t-60 19.5q-21 0 -37 -4q18 -43 18 -96v-434q0 -23 -9 -33t-33 -10h-81q-24 0 -33 10t-9 33v434q0 50 -23.5 74.5t-75.5 24.5q-63 0 -108 -34l19 -28q11 -17 14.5 -31t3.5 -40v-245
q0 -24 -6.5 -33t-28.5 -9h-167q-18 0 -24.5 7t-6.5 25v59q0 17 6.5 24.5t24.5 7.5h21q9 0 12 3t3 13v186l-38 59q-9 15 -9 33q0 14 16 29q45 40 114 67t152 27q97 0 159 -31q65 31 153 31q109 0 162 -48z" />
    <glyph glyph-name=".notdef" horiz-adv-x="552" 
d="M70 714h411v-714h-411v714zM430 51v612h-309v-612h309z" />
    <glyph glyph-name=".null" 
 />
    <glyph glyph-name="nonmarkingreturn" unicode="&#xd;" horiz-adv-x="360" 
 />
    <glyph glyph-name="space" unicode=" " horiz-adv-x="360" 
 />
    <glyph glyph-name="exclam" unicode="!" horiz-adv-x="241" 
d="M55.5 194.5q-11.5 10.5 -11.5 32.5l-6 409q0 23 10 33.5t35 10.5h76q25 0 35 -10.5t10 -33.5l-7 -409q0 -22 -11.5 -32.5t-36.5 -10.5h-57q-25 0 -36.5 10.5zM49 11q-18 11 -18 35v22q0 25 17.5 35.5t55.5 10.5h32q38 0 56 -11t18 -35v-22q0 -24 -18 -35t-56 -11h-32
q-37 0 -55 11z" />
    <glyph glyph-name="quotedbl" unicode="&#x22;" horiz-adv-x="362" 
d="M48 494.5q-8 7.5 -9 25.5l-8 149q-1 19 6.5 25.5t28.5 6.5h53q21 0 28.5 -7t6.5 -25l-9 -149q-1 -18 -9 -25.5t-26 -7.5h-38q-16 0 -24 7.5zM224 494.5q-8 7.5 -9 25.5l-7 149q-1 18 6.5 25t27.5 7h53q21 0 29 -7t7 -25l-10 -149q-1 -19 -9 -26t-26 -7h-38q-16 0 -24 7.5
z" />
    <glyph glyph-name="numbersign" unicode="#" horiz-adv-x="807" 
d="M57 15q0 3 4 15l47 120h-39q-24 0 -31 8t-7 34v33q0 27 7.5 35t31.5 8h83l50 125h-76q-24 0 -31 8t-7 34v33q0 27 7.5 35t31.5 8h120l59 149q5 11 12.5 15.5t25.5 4.5h103q17 0 17 -15q0 -3 -4 -15l-55 -139h137l59 149q5 11 12.5 15.5t25.5 4.5h103q17 0 17 -15
q0 -3 -4 -15l-55 -139h36q24 0 31.5 -8t7.5 -35v-33q0 -26 -7 -34t-31 -8h-81l-50 -125h93q24 0 31.5 -8t7.5 -35v-33q0 -26 -7 -34t-31 -8h-139l-52 -130q-5 -11 -12.5 -15.5t-25.5 -4.5h-103q-17 0 -17 15q0 3 4 15l47 120h-137l-51 -130q-5 -11 -12.5 -15.5t-25.5 -4.5
h-103q-17 0 -17 15zM448 268l50 124h-137l-50 -124h137z" />
    <glyph glyph-name="dollar" unicode="$" horiz-adv-x="598" 
d="M237 -82.5q-10 10.5 -10 32.5v42q-53 6 -101.5 20t-78.5 35q-15 11 -15 20q0 6 5 14l41 65q6 10 13 10t15 -5q38 -22 86.5 -34.5t97.5 -12.5q61 0 86.5 17.5t25.5 59.5q0 28 -14.5 46t-41 30.5t-79.5 30.5q-64 24 -108 49t-73 65t-29 97q0 79 45.5 126t124.5 60v46
q0 23 10 33.5t35 10.5h62q25 0 35.5 -11t10.5 -33v-41q94 -10 156 -51q15 -12 15 -20q0 -6 -5 -14l-40 -64q-7 -10 -14 -10q-5 0 -14 6q-58 39 -149 39q-54 0 -81 -18.5t-27 -59.5q0 -29 16 -47t40.5 -29t87.5 -34q73 -28 115 -53.5t64.5 -63t22.5 -96.5q0 -75 -47.5 -123.5
t-139.5 -61.5v-40q0 -22 -10.5 -32.5t-35.5 -10.5h-62q-25 0 -35 10.5z" />
    <glyph glyph-name="percent" unicode="%" horiz-adv-x="767" 
d="M107.5 404q-35.5 20 -56 55t-20.5 80t20.5 80.5t56 55.5t78.5 20t78.5 -20t56 -55.5t20.5 -80.5t-20.5 -80t-56 -55t-78.5 -20t-78.5 20zM84.5 4.5q-4.5 4.5 -4.5 11.5q0 9 5 15l432 629q7 10 14 15t19 5h116q9 0 13.5 -4.5t4.5 -11.5q0 -9 -5 -15l-435 -633
q-6 -10 -11.5 -13t-17.5 -3h-117q-9 0 -13.5 4.5zM234.5 490q19.5 19 19.5 49t-19.5 49.5t-48.5 19.5t-48.5 -19.5t-19.5 -49.5t19.5 -49t48.5 -19t48.5 19zM502.5 5q-35.5 20 -56.5 55.5t-21 79.5q0 45 21 80.5t56.5 55t77.5 19.5q43 0 78.5 -19.5t56.5 -55t21 -80.5
q0 -44 -21 -79.5t-56.5 -55.5t-78.5 -20q-42 0 -77.5 20zM629 91q20 19 20 49t-20 49t-49 19q-28 0 -48 -19.5t-20 -48.5t20 -48.5t48 -19.5q29 0 49 19z" />
    <glyph glyph-name="ampersand" unicode="&#x26;" horiz-adv-x="723" 
d="M186 5q-67 20 -110.5 68t-43.5 125q0 53 23.5 97.5t70.5 68.5q-33 20 -51 56.5t-18 76.5q0 94 73.5 146t197.5 52q138 0 214 -62q9 -7 9 -17q0 -7 -5 -15l-36 -59q-7 -12 -15 -12q-4 0 -16 7q-51 37 -134 37q-67 0 -95.5 -18.5t-28.5 -62.5q0 -43 26 -58.5t79 -15.5h334
q24 0 33 -10t9 -33v-36q0 -23 -9 -33t-33 -10h-30v-52q0 -74 -35.5 -133t-103.5 -93t-163 -34q-75 0 -142 20zM476 254v43h-180q-101 0 -101 -92q0 -101 137 -101q144 0 144 150z" />
    <glyph glyph-name="quotesingle" unicode="'" horiz-adv-x="200" 
d="M48 494.5q-8 7.5 -9 25.5l-8 149q-1 19 6.5 25.5t28.5 6.5h68q21 0 28.5 -7t6.5 -25l-9 -149q-1 -18 -9 -25.5t-26 -7.5h-53q-16 0 -24 7.5z" />
    <glyph glyph-name="parenleft" unicode="(" horiz-adv-x="362" 
d="M136.5 -31q-50.5 65 -78 155.5t-27.5 191.5t27.5 191.5t78 155t118.5 90.5q30 12 51 12q39 0 39 -50q0 -31 -5.5 -43t-26.5 -29q-61 -48 -89.5 -130t-28.5 -197q0 -235 118 -327q21 -16 26.5 -28.5t5.5 -44.5q0 -50 -40 -50q-20 0 -50 12q-68 26 -118.5 91z" />
    <glyph glyph-name="parenright" unicode=")" horiz-adv-x="362" 
d="M57 -134q-40 0 -40 50q0 32 5.5 44.5t26.5 28.5q118 91 118 327q0 115 -28.5 197t-89.5 130q-22 16 -27 28t-5 44q0 50 39 50q21 0 51 -12q68 -26 118.5 -90.5t78 -155t27.5 -191.5t-27.5 -191.5t-78 -155.5t-118.5 -91q-30 -12 -50 -12z" />
    <glyph glyph-name="asterisk" unicode="*" horiz-adv-x="432" 
d="M309 378q-7 0 -15 9l-78 84l-80 -85q-7 -7 -13 -7t-11 5l-46 40q-8 6 -8 14q0 6 6 12l68 72l-89 38q-12 6 -12 14q0 3 2 9l27 54q5 9 12 9l9 -2l81 -36v82q0 24 23 24h62q23 0 23 -24v-83l80 35q6 3 10 3q8 0 12 -9l27 -54q2 -6 2 -9q0 -8 -12 -14l-89 -38l68 -72
q6 -6 6 -12q0 -8 -8 -14l-46 -40q-7 -5 -11 -5z" />
    <glyph glyph-name="plus" unicode="+" horiz-adv-x="470" 
d="M175.5 129q-7.5 8 -7.5 29v82h-94q-24 0 -33.5 7.5t-9.5 31.5v44q0 24 9.5 31.5t33.5 7.5h94v83q0 21 7.5 29t31.5 8h54q24 0 31.5 -8t7.5 -29v-83h96q24 0 33.5 -7.5t9.5 -31.5v-44q0 -24 -9.5 -31.5t-33.5 -7.5h-96v-82q0 -21 -7.5 -29t-31.5 -8h-54q-24 0 -31.5 8z
" />
    <glyph glyph-name="comma" unicode="," horiz-adv-x="256" 
d="M31 -102q0 3 2 11l52 172q6 19 14.5 25t28.5 6h66q31 0 31 -18q0 -9 -6 -24l-72 -169q-4 -10 -12 -15t-22 -5h-60q-22 0 -22 17z" />
    <glyph glyph-name="hyphen" unicode="-" horiz-adv-x="470" 
d="M39 249.5q-8 9.5 -8 29.5v44q0 20 8 29.5t30 9.5h332q21 0 29.5 -9.5t8.5 -29.5v-44q0 -20 -8.5 -29.5t-29.5 -9.5h-332q-22 0 -30 9.5z" />
    <glyph glyph-name="period" unicode="." horiz-adv-x="179" 
d="M44.5 14.5q-13.5 14.5 -13.5 35.5v20q0 22 13.5 36.5t34.5 14.5h21q21 0 34.5 -14.5t13.5 -36.5v-20q0 -21 -13.5 -35.5t-34.5 -14.5h-21q-21 0 -34.5 14.5z" />
    <glyph glyph-name="slash" unicode="/" horiz-adv-x="493" 
d="M31 14q0 9 4 17l258 629q8 20 29 20h124q16 0 16 -15q0 -7 -3 -16l-258 -629q-8 -20 -30 -20h-123q-17 0 -17 14z" />
    <glyph glyph-name="zero" unicode="0" horiz-adv-x="741" 
d="M116.5 76.5q-85.5 91.5 -85.5 263.5t85.5 263.5t254.5 91.5q168 0 253.5 -91.5t85.5 -263.5t-85.5 -263.5t-253.5 -91.5q-169 0 -254.5 91.5zM461 553q-37 23 -90 23q-91 0 -133.5 -58t-42.5 -178q0 -78 28 -121zM504 162q42 58 42 178q0 75 -27 123l-240 -338
q36 -21 92 -21q91 0 133 58z" />
    <glyph glyph-name="one" unicode="1" horiz-adv-x="488" 
d="M62.5 9.5q-9.5 9.5 -9.5 31.5v38q0 22 9.5 32t33.5 10h86v383l-71 -44q-5 -4 -13 -4q-10 0 -15 9l-47 72q-4 7 -4 13q0 10 11 16l173 104q9 6 17 8t23 2h47q24 0 34.5 -11t10.5 -33v-515h87q24 0 33 -9.5t9 -32.5v-38q0 -22 -9 -31.5t-33 -9.5h-339q-24 0 -33.5 9.5z" />
    <glyph glyph-name="two" unicode="2" horiz-adv-x="577" 
d="M34 40v46q0 62 46.5 120.5t145.5 119.5q70 42 97.5 61.5t41 42.5t13.5 58q0 43 -30 65.5t-86 22.5q-80 0 -150 -38q-10 -6 -17 -6t-14 11l-35 61q-6 9 -6 17q0 10 10 17q38 26 100.5 41.5t136.5 15.5q116 0 186 -51t70 -145q0 -76 -45.5 -128.5t-144.5 -109.5
q-62 -34 -103 -70.5t-47 -68.5h297q24 0 33 -10t9 -33v-37q0 -23 -9 -32.5t-33 -9.5h-427q-39 0 -39 40z" />
    <glyph glyph-name="three" unicode="3" horiz-adv-x="598" 
d="M145.5 -1q-63.5 14 -104.5 41q-10 7 -10 16t6 18l36 61q7 11 14 11q6 0 17 -6q30 -16 72 -26t88 -10q139 0 139 99q0 86 -106 86h-82q-24 0 -34.5 10t-10.5 33v35q0 22 10.5 32t34.5 10h75q47 0 70 23t23 60q0 84 -122 84q-82 0 -146 -35q-10 -6 -17 -6t-14 11l-35 60
q-6 9 -6 17q0 9 10 16q38 26 98.5 41t133.5 15q121 0 191.5 -53.5t70.5 -144.5q0 -45 -20 -83.5t-58 -61.5q49 -21 73.5 -61t24.5 -94q0 -96 -72 -154t-206 -58q-80 0 -143.5 14z" />
    <glyph glyph-name="four" unicode="4" horiz-adv-x="610" 
d="M342 9q-10 9 -10 31v102h-292q-29 0 -29 28v58q0 17 3 25.5t14 21.5l315 382q12 14 20.5 18.5t27.5 4.5h61q25 0 35 -10.5t10 -33.5v-373h60q24 0 33 -10t9 -33v-36q0 -23 -9 -32.5t-33 -9.5h-60v-102q0 -22 -10 -31t-35 -9h-75q-25 0 -35 9zM364 263v233l-186 -233h186z
" />
    <glyph glyph-name="five" unicode="5" horiz-adv-x="628" 
d="M149 1.5q-67 16.5 -108 45.5q-10 7 -10 16q0 8 6 17l36 62q6 11 14 11q5 0 17 -7q33 -19 78.5 -30.5t100.5 -11.5q72 0 110.5 30.5t38.5 91.5q0 68 -32.5 95t-100.5 27q-76 0 -127 -23q-22 -8 -44 -8q-33 0 -54 17.5t-19 50.5l16 256q2 20 11.5 29.5t32.5 9.5h406
q24 0 33.5 -10t9.5 -32v-37q0 -23 -9.5 -33t-33.5 -10h-314l-7 -115q24 7 58.5 11.5t67.5 4.5q129 0 200 -55t71 -178q0 -74 -38.5 -128.5t-108 -83.5t-159.5 -29q-75 0 -142 16.5z" />
    <glyph glyph-name="six" unicode="6" horiz-adv-x="643" 
d="M110.5 61q-79.5 76 -79.5 238q0 137 44.5 226t116 129.5t154.5 40.5q124 0 205 -55q10 -7 10 -16q0 -8 -6 -17l-34 -59q-7 -12 -14 -12q-5 0 -17 7q-28 17 -59.5 25t-71.5 8q-71 0 -111.5 -36t-60.5 -113q34 27 76.5 37.5t98.5 10.5q77 0 133.5 -28.5t86.5 -79.5t30 -115
q0 -132 -77.5 -199.5t-216.5 -67.5q-128 0 -207.5 76zM415.5 138.5q32.5 34.5 32.5 107.5q0 64 -33.5 97.5t-93.5 33.5q-53 0 -89 -33t-36 -100q0 -140 122 -140q65 0 97.5 34.5z" />
    <glyph glyph-name="seven" unicode="7" horiz-adv-x="596" 
d="M98 15q0 8 4 16l271 527h-312q-23 0 -31.5 9.5t-8.5 32.5v39q0 23 8.5 32t31.5 9h461q31 0 42 -9.5t11 -34.5q0 -24 -25 -72l-279 -546q-5 -10 -11.5 -14t-18.5 -4h-127q-16 0 -16 15z" />
    <glyph glyph-name="eight" unicode="8" horiz-adv-x="642" 
d="M108 40.5q-77 55.5 -77 156.5q0 53 27.5 95t76.5 62q-42 22 -64 56t-22 79q0 99 70.5 152.5t201.5 53.5t201 -53.5t70 -152.5q0 -92 -85 -135q49 -20 76.5 -62t27.5 -95q0 -101 -77 -156.5t-213 -55.5t-213 55.5zM401 428.5q27 18.5 27 60.5q0 46 -26 66.5t-81 20.5
t-81 -20.5t-26 -66.5q0 -42 27 -60.5t80 -18.5t80 18.5zM447 198q0 96 -126 96t-126 -96q0 -94 126 -94t126 94z" />
    <glyph glyph-name="nine" unicode="9" horiz-adv-x="640" 
d="M94 38q-9 6 -9 16q0 8 6 18l34 59q7 11 14 11t17 -6q58 -32 135 -32q76 0 117 36t53 111q-33 -26 -75 -37t-101 -11q-80 0 -137.5 29t-87 80.5t-29.5 116.5q0 134 76.5 200t217.5 66q128 0 206 -77.5t78 -237.5q0 -141 -42 -229.5t-111 -127t-154 -38.5q-129 0 -208 53z
M408.5 335q34.5 33 34.5 95q0 73 -30.5 109.5t-88.5 36.5q-65 0 -97 -34.5t-32 -109.5q0 -130 128 -130q51 0 85.5 33z" />
    <glyph glyph-name="colon" unicode=":" horiz-adv-x="203" 
d="M47 366q-16 18 -16 43v23q0 26 16 43.5t41 17.5h26q26 0 42 -17.5t16 -43.5v-23q0 -25 -16 -43t-42 -18h-26q-25 0 -41 18zM47 18q-16 18 -16 43v23q0 26 16 43.5t41 17.5h26q26 0 42 -17t16 -44v-23q0 -25 -16 -43t-42 -18h-26q-25 0 -41 18z" />
    <glyph glyph-name="semicolon" unicode=";" horiz-adv-x="258" 
d="M101 366q-16 18 -16 43v23q0 26 16 43.5t41 17.5h26q26 0 42 -17.5t16 -43.5v-23q0 -25 -16 -43t-42 -18h-26q-25 0 -41 18zM31 -102q0 3 2 11l52 172q6 19 14.5 25t28.5 6h66q31 0 31 -18q0 -9 -6 -24l-72 -169q-4 -10 -12 -15t-22 -5h-60q-22 0 -22 17z" />
    <glyph glyph-name="less" unicode="&#x3c;" horiz-adv-x="542" 
d="M48 216q-10 4 -13.5 10t-3.5 17v60q0 11 3.5 17t13.5 10l441 198q6 2 9 2q13 0 13 -14v-110q0 -12 -3.5 -16.5t-13.5 -8.5l-263 -107l263 -107q10 -4 13.5 -8.5t3.5 -16.5v-112q0 -14 -13 -14q-6 0 -9 2z" />
    <glyph glyph-name="equal" unicode="=" horiz-adv-x="463" 
d="M40 338.5q-9 9.5 -9 32.5v34q0 23 9 33t33 10h317q24 0 33 -10t9 -33v-34q0 -23 -9 -32.5t-33 -9.5h-317q-24 0 -33 9.5zM40 143.5q-9 9.5 -9 32.5v33q0 23 9 33t33 10h317q24 0 33 -10t9 -33v-33q0 -23 -9 -32.5t-33 -9.5h-317q-24 0 -33 9.5z" />
    <glyph glyph-name="greater" unicode="&#x3e;" horiz-adv-x="542" 
d="M43 16q-12 0 -12 14v103q0 11 3.5 16t13.5 9l269 116l-269 116q-10 4 -13.5 9t-3.5 16v101q0 14 12 14q3 0 9 -2l442 -198q9 -4 13 -10t4 -17v-60q0 -11 -4 -17t-13 -10l-442 -198q-6 -2 -9 -2z" />
    <glyph glyph-name="question" unicode="?" horiz-adv-x="553" 
d="M164.5 170.5q-10.5 10.5 -10.5 32.5v13q0 63 28.5 104.5t92.5 81.5q36 21 52.5 34t23.5 27t7 36q0 37 -27.5 57t-79.5 20q-82 0 -147 -43q-12 -7 -16 -7q-9 0 -15 11l-39 67q-4 7 -4 12q0 9 11 16q93 63 231 63q112 0 181 -51.5t69 -143.5q0 -60 -28 -99t-90 -74
q-49 -28 -67 -52t-18 -61v-11q0 -22 -10 -32.5t-35 -10.5h-75q-24 0 -34.5 10.5zM162.5 12.5q-15.5 12.5 -15.5 33.5v21q0 22 15.5 34.5t44.5 12.5h58q30 0 45.5 -12.5t15.5 -34.5v-21q0 -22 -15.5 -34t-45.5 -12h-58q-29 0 -44.5 12.5z" />
    <glyph glyph-name="at" unicode="@" horiz-adv-x="941" 
d="M232 -42q-96 47 -148.5 135t-52.5 207q0 136 57.5 229t161.5 139t245 46q130 0 223.5 -44t142.5 -126.5t49 -194.5q0 -123 -53.5 -187.5t-141.5 -64.5q-41 0 -68.5 21t-36.5 55q-27 -37 -70.5 -56.5t-97.5 -19.5q-97 1 -154.5 53.5t-57.5 146.5q0 116 70.5 178.5
t191.5 62.5q54 0 105.5 -19.5t83.5 -52.5v-229q0 -25 8.5 -35.5t28.5 -10.5q31 0 48 41.5t17 117.5q0 85 -40 144t-106.5 88t-143.5 29q-154 0 -244.5 -77t-90.5 -234q0 -91 38 -154.5t105 -96t153 -32.5q48 0 91.5 12t72.5 34q5 3 8 3t6 -6l31 -79q2 -6 2 -7q0 -5 -7 -9
q-36 -25 -90 -39.5t-113 -14.5q-127 0 -223 47zM532 226q32 23 32 63v118q-15 9 -36.5 14t-44.5 5q-60 0 -95.5 -33t-35.5 -92q0 -98 104 -98q44 0 76 23z" />
    <glyph glyph-name="A" unicode="A" horiz-adv-x="740" 
d="M32 17q0 7 3 16l259 617q7 17 15.5 23.5t24.5 6.5h73q16 0 24 -6.5t15 -23.5l259 -617q3 -9 3 -16q0 -17 -18 -17h-121q-14 0 -20.5 4.5t-11.5 16.5l-46 118h-243l-45 -118q-5 -12 -11.5 -16.5t-20.5 -4.5h-121q-18 0 -18 17zM453 254l-83 216l-84 -216h167z" />
    <glyph glyph-name="B" unicode="B" horiz-adv-x="659" 
d="M61.5 10.5q-10.5 10.5 -10.5 32.5v593q0 22 10.5 33t34.5 11h293q110 0 165 -50.5t55 -139.5q0 -47 -22.5 -84t-61.5 -53q103 -34 103 -151q0 -57 -26.5 -103t-80 -72.5t-132.5 -26.5h-293q-24 0 -34.5 10.5zM361 405q40 0 62 20t22 58q0 41 -20.5 58.5t-63.5 17.5h-145
v-154h145zM377 121q44 0 65.5 23.5t21.5 61.5q0 43 -25 64.5t-70 21.5h-153v-171h161z" />
    <glyph glyph-name="C" unicode="C" horiz-adv-x="678" 
d="M126.5 76.5q-95.5 91.5 -95.5 263.5q0 173 93.5 264t267.5 91q73 0 132.5 -14.5t100.5 -41.5q10 -7 10 -16q0 -8 -6 -17l-35 -61q-7 -11 -14 -11q-6 0 -17 6q-64 36 -151 36q-103 0 -160 -59.5t-57 -176.5q0 -118 59.5 -177t162.5 -59q94 0 158 36q11 6 17 6q7 0 14 -11
l39 -67q4 -7 4 -12q0 -6 -12 -15q-78 -56 -241 -56q-174 0 -269.5 91.5z" />
    <glyph glyph-name="D" unicode="D" horiz-adv-x="686" 
d="M61.5 10.5q-10.5 10.5 -10.5 32.5v593q0 22 10.5 33t34.5 11h210q171 0 260 -82t89 -258q0 -174 -90 -257t-259 -83h-210q-24 0 -34.5 10.5zM314 121q89 0 133 49.5t44 169.5t-44 169t-133 49h-98v-437h98z" />
    <glyph glyph-name="E" unicode="E" horiz-adv-x="574" 
d="M61.5 10.5q-10.5 10.5 -10.5 32.5v593q0 22 10.5 33t34.5 11h415q24 0 33 -9.5t9 -32.5v-37q0 -23 -9 -33t-33 -10h-295v-158h206q24 0 33 -9.5t9 -32.5v-35q0 -23 -9 -33t-33 -10h-206v-159h294q24 0 33 -10t9 -33v-36q0 -23 -9 -32.5t-33 -9.5h-414q-24 0 -34.5 10.5z
" />
    <glyph glyph-name="F" unicode="F" horiz-adv-x="564" 
d="M61.5 10.5q-10.5 10.5 -10.5 32.5v593q0 22 10.5 33t34.5 11h415q24 0 33 -9.5t9 -32.5v-37q0 -23 -9 -33t-33 -10h-295v-157h206q24 0 33 -9.5t9 -32.5v-37q0 -23 -9 -33t-33 -10h-206v-236q0 -22 -10 -32.5t-35 -10.5h-75q-24 0 -34.5 10.5z" />
    <glyph glyph-name="G" unicode="G" horiz-adv-x="703" 
d="M126.5 76.5q-95.5 91.5 -95.5 263.5t96 263.5t269 91.5q73 0 134 -14.5t101 -41.5q11 -7 11 -16q0 -4 -5 -14l-38 -64q-7 -11 -14 -11q-5 0 -16 6q-66 36 -152 36q-104 0 -163 -59t-59 -177q0 -119 55 -177t155 -58q32 0 63 5t50 14v154h-109q-24 0 -33 9.5t-9 32.5v36
q0 22 9 31.5t33 9.5h212q28 0 39.5 -13t11.5 -40v-254q0 -17 -4 -26t-16 -17q-97 -62 -256 -62q-174 0 -269.5 91.5z" />
    <glyph glyph-name="H" unicode="H" horiz-adv-x="711" 
d="M61.5 10.5q-10.5 10.5 -10.5 32.5v593q0 22 10.5 33t34.5 11h75q25 0 35 -10.5t10 -33.5v-234h278v234q0 22 10.5 33t35.5 11h74q25 0 35.5 -11t10.5 -33v-593q0 -22 -10.5 -32.5t-35.5 -10.5h-74q-25 0 -35.5 10.5t-10.5 32.5v238h-278v-238q0 -22 -10 -32.5t-35 -10.5
h-75q-24 0 -34.5 10.5z" />
    <glyph glyph-name="I" unicode="I" horiz-adv-x="267" 
d="M61.5 10.5q-10.5 10.5 -10.5 32.5v593q0 22 10.5 33t34.5 11h75q25 0 35 -10.5t10 -33.5v-593q0 -22 -10 -32.5t-35 -10.5h-75q-24 0 -34.5 10.5z" />
    <glyph glyph-name="J" unicode="J" horiz-adv-x="500" 
d="M21 40q-10 6 -10 16q0 8 6 17l36 61q8 12 15 12q6 0 16 -7q52 -35 114 -35q47 0 68.5 23.5t21.5 71.5v437q0 22 10.5 33t35.5 11h74q25 0 35.5 -11t10.5 -33v-437q0 -98 -58.5 -156t-171.5 -58q-120 0 -203 55z" />
    <glyph glyph-name="K" unicode="K" horiz-adv-x="647" 
d="M614 17q0 -17 -18 -17h-125q-12 0 -18.5 2.5t-12.5 9.5l-221 290l-3 4v-263q0 -22 -10 -32.5t-35 -10.5h-75q-24 0 -34.5 10.5t-10.5 32.5v593q0 22 10.5 33t34.5 11h75q25 0 35 -10.5t10 -33.5v-258l3 4l214 285q6 8 12.5 10.5t20.5 2.5h123q18 0 18 -17q0 -8 -6 -16
l-237 -305l244 -309q6 -7 6 -16z" />
    <glyph glyph-name="L" unicode="L" horiz-adv-x="551" 
d="M61.5 10.5q-10.5 10.5 -10.5 32.5v593q0 22 10.5 33t34.5 11h75q25 0 35 -10.5t10 -33.5v-515h282q24 0 33 -10t9 -33v-36q0 -23 -9 -32.5t-33 -9.5h-402q-24 0 -34.5 10.5z" />
    <glyph glyph-name="M" unicode="M" horiz-adv-x="777" 
d="M61.5 10.5q-10.5 10.5 -10.5 32.5v594q0 22 10.5 32.5t35.5 10.5h74q18 0 28 -4.5t16 -17.5l173 -408l174 408q6 13 16 17.5t28 4.5h74q25 0 35.5 -10.5t10.5 -32.5v-594q0 -22 -10.5 -32.5t-34.5 -10.5h-61q-25 0 -35.5 10.5t-10.5 32.5v378l-134 -299
q-10 -21 -19.5 -29.5t-32.5 -8.5q-22 0 -32.5 8.5t-19.5 29.5l-133 299v-378q0 -22 -10.5 -32.5t-35.5 -10.5h-61q-24 0 -34.5 10.5z" />
    <glyph glyph-name="N" unicode="N" horiz-adv-x="699" 
d="M61.5 10.5q-10.5 10.5 -10.5 32.5v594q0 22 10.5 32.5t35.5 10.5h62q17 0 25.5 -4.5t18.5 -17.5l280 -395v373q0 22 10.5 33t34.5 11h75q25 0 35 -10.5t10 -33.5v-593q0 -22 -10 -32.5t-35 -10.5h-63q-16 0 -24.5 4.5t-18.5 17.5l-281 394v-373q0 -22 -10 -32.5
t-35 -10.5h-75q-24 0 -34.5 10.5z" />
    <glyph glyph-name="O" unicode="O" horiz-adv-x="759" 
d="M120.5 78q-89.5 93 -89.5 262t89.5 262t259.5 93q169 0 258.5 -93t89.5 -262t-89.5 -262t-258.5 -93q-170 0 -259.5 93zM517.5 163.5q46.5 59.5 46.5 176.5t-46.5 176.5t-137.5 59.5q-92 0 -138.5 -59.5t-46.5 -176.5t46.5 -176.5t138.5 -59.5q91 0 137.5 59.5z" />
    <glyph glyph-name="P" unicode="P" horiz-adv-x="614" 
d="M61.5 10.5q-10.5 10.5 -10.5 32.5v593q0 22 10.5 33t34.5 11h250q257 0 257 -230q0 -229 -257 -229h-130v-178q0 -22 -10 -32.5t-35 -10.5h-75q-24 0 -34.5 10.5zM335 342q104 0 104 108t-104 108h-118v-216h118z" />
    <glyph glyph-name="Q" unicode="Q" horiz-adv-x="759" 
d="M374.5 -134q-57.5 47 -65.5 124q-136 18 -207 108.5t-71 241.5q0 169 89.5 262t259.5 93q169 0 258.5 -93t89.5 -262q0 -155 -76 -244.5t-221 -104.5q4 -34 31.5 -50.5t67.5 -16.5q51 0 91 26q7 4 11 4q6 0 10 -7l38 -60q4 -5 4 -11t-10 -13q-31 -22 -66 -33t-82 -11
q-94 0 -151.5 47zM517.5 163.5q46.5 59.5 46.5 176.5t-46.5 176.5t-137.5 59.5q-92 0 -138.5 -59.5t-46.5 -176.5t46.5 -176.5t138.5 -59.5q91 0 137.5 59.5z" />
    <glyph glyph-name="R" unicode="R" horiz-adv-x="634" 
d="M61.5 10.5q-10.5 10.5 -10.5 32.5v593q0 22 10.5 33t34.5 11h253q254 0 254 -222q0 -71 -30 -120.5t-89 -75.5l105 -230q3 -7 3 -14q0 -18 -21 -18h-111q-14 0 -21 3.5t-12 15.5l-92 220h-119v-196q0 -22 -10 -32.5t-35 -10.5h-75q-24 0 -34.5 10.5zM325 358
q57 0 85.5 24t28.5 76t-26 76t-78 24h-119v-200h109z" />
    <glyph glyph-name="S" unicode="S" horiz-adv-x="598" 
d="M162.5 1.5q-71.5 16.5 -115.5 46.5q-15 11 -15 20q0 6 5 14l41 65q6 10 13 10q6 0 15 -6q37 -21 85 -34t97 -13q58 0 86 18.5t28 58.5q0 27 -13.5 44t-40 30t-81.5 34q-64 24 -108.5 49t-73 64.5t-28.5 96.5q0 95 69 145.5t182 50.5q149 0 228 -56q15 -12 15 -20
q0 -6 -5 -14l-41 -65q-6 -10 -13 -10q-6 0 -15 6q-61 40 -148 40q-108 0 -108 -78q0 -26 12.5 -42.5t34.5 -28t69 -29.5l28 -11q73 -29 115 -54.5t64.5 -62.5t22.5 -95q0 -87 -65.5 -138.5t-189.5 -51.5q-78 0 -149.5 16.5z" />
    <glyph glyph-name="T" unicode="T" horiz-adv-x="601" 
d="M227.5 10.5q-10.5 10.5 -10.5 32.5v515h-164q-24 0 -33 9.5t-9 32.5v37q0 23 9 33t33 10h494q24 0 33.5 -10t9.5 -33v-37q0 -22 -9.5 -32t-33.5 -10h-164v-515q0 -22 -10.5 -32.5t-35.5 -10.5h-74q-25 0 -35.5 10.5z" />
    <glyph glyph-name="U" unicode="U" horiz-adv-x="716" 
d="M195 16q-71 31 -110 89.5t-39 137.5v393q0 22 10.5 33t34.5 11h75q25 0 35 -10.5t10 -33.5v-396q0 -65 39 -100.5t108 -35.5t107.5 35.5t38.5 100.5v396q0 22 10.5 33t34.5 11h75q25 0 35.5 -11t10.5 -33v-393q0 -79 -39.5 -137.5t-110 -89.5t-162.5 -31t-163 31z" />
    <glyph glyph-name="V" unicode="V" horiz-adv-x="727" 
d="M303 6q-8 6 -15 23l-253 618q-3 9 -3 16q0 17 18 17h120q14 0 21.5 -6t11.5 -17l160 -429l160 429q8 23 34 23h120q18 0 18 -17q0 -7 -3 -16l-252 -618q-7 -17 -15.5 -23t-24.5 -6h-73q-16 0 -24 6z" />
    <glyph glyph-name="W" unicode="W" horiz-adv-x="879" 
d="M201.5 6.5q-9.5 6.5 -13.5 22.5l-155 624q-2 8 -2 10q0 17 23 17h111q16 0 23 -5.5t9 -17.5l80 -373l100 320q5 14 12 19t22 5h56q15 0 22 -5t12 -19l101 -320l79 373q2 12 9 17.5t23 5.5h112q23 0 23 -17q0 -2 -2 -10l-156 -624q-4 -16 -13.5 -22.5t-26.5 -6.5h-72
q-17 0 -26 6.5t-14 22.5l-99 332l-98 -332q-5 -16 -14 -22.5t-26 -6.5h-73q-17 0 -26.5 6.5z" />
    <glyph glyph-name="X" unicode="X" horiz-adv-x="731" 
d="M36 4.5q-5 4.5 -5 12.5q0 9 6 16l237 316l-222 298q-6 8 -6 17q0 7 4.5 11.5t13.5 4.5h124q12 0 18.5 -3t11.5 -10l147 -196l147 196q6 7 12 10t18 3h125q9 0 13.5 -4.5t4.5 -11.5q0 -8 -6 -17l-223 -298l237 -316q6 -9 6 -16q0 -8 -5 -12.5t-14 -4.5h-124q-12 0 -18 2.5
t-11 9.5l-162 215l-161 -215q-5 -7 -11 -9.5t-18 -2.5h-125q-9 0 -14 4.5z" />
    <glyph glyph-name="Y" unicode="Y" horiz-adv-x="722" 
d="M288.5 10.5q-10.5 10.5 -10.5 32.5v189l-242 415q-5 8 -5 16q0 7 5.5 12t14.5 5h120q14 0 20 -4.5t12 -15.5l158 -277l158 277q6 11 12 15.5t19 4.5h121q9 0 14.5 -5t5.5 -12q0 -8 -5 -16l-242 -416v-188q0 -22 -10.5 -32.5t-35.5 -10.5h-75q-24 0 -34.5 10.5z" />
    <glyph glyph-name="Z" unicode="Z" horiz-adv-x="636" 
d="M38.5 9q-7.5 9 -7.5 32q0 22 5 36t21 36l329 445h-300q-24 0 -34.5 10.5t-10.5 32.5v37q0 22 10.5 32t34.5 10h478q23 0 31 -9.5t8 -31.5q0 -23 -5 -36t-22 -37l-327 -445h311q24 0 34.5 -10t10.5 -33v-36q0 -22 -10.5 -32t-34.5 -10h-491q-23 0 -30.5 9z" />
    <glyph glyph-name="bracketleft" unicode="[" horiz-adv-x="332" 
d="M41 -59.5q-10 10.5 -10 32.5v733q0 22 10.5 33t33.5 11h194q24 0 33 -9.5t9 -32.5v-37q0 -23 -9 -33t-33 -10h-73v-577h73q24 0 33 -10t9 -33v-36q0 -23 -9 -32.5t-33 -9.5h-194q-24 0 -34 10.5z" />
    <glyph glyph-name="backslash" unicode="\" horiz-adv-x="499" 
d="M309.5 5q-6.5 5 -10.5 15l-264 644q-4 12 -4 16q0 15 17 15h123q13 0 19.5 -5t10.5 -15l264 -644q4 -12 4 -16q0 -15 -17 -15h-124q-12 0 -18.5 5z" />
    <glyph glyph-name="bracketright" unicode="]" horiz-adv-x="332" 
d="M30 -60.5q-9 9.5 -9 32.5v36q0 23 9 33t33 10h72v577h-72q-24 0 -33 10t-9 33v37q0 23 9 32.5t33 9.5h194q23 0 33.5 -11t10.5 -33v-733q0 -22 -10 -32.5t-34 -10.5h-194q-24 0 -33 9.5z" />
    <glyph glyph-name="asciicircum" unicode="^" horiz-adv-x="622" 
d="M36 343.5q-5 4.5 -5 12.5q0 7 6 16l199 313q13 20 22 27t30 7h46q21 0 30.5 -7.5t21.5 -26.5l199 -313q5 -7 5 -16q0 -17 -19 -17h-106q-14 0 -21.5 4.5t-14.5 15.5l-118 199l-118 -199q-8 -11 -15.5 -15.5t-21.5 -4.5h-106q-9 0 -14 4.5z" />
    <glyph glyph-name="underscore" unicode="_" horiz-adv-x="529" 
d="M39 -127.5q-8 9.5 -8 29.5v44q0 20 8 29.5t30 9.5h391q21 0 29.5 -9.5t8.5 -29.5v-44q0 -20 -8.5 -29.5t-29.5 -9.5h-391q-22 0 -30 9.5z" />
    <glyph glyph-name="grave" unicode="`" horiz-adv-x="285" 
d="M122 561q-8 4 -15 16l-70 130q-6 11 -6 19q0 10 8.5 15t22.5 5h101q21 0 28 -5.5t13 -21.5l47 -128q3 -7 3 -13q0 -21 -29 -21h-78q-17 0 -25 4z" />
    <glyph glyph-name="a" unicode="a" horiz-adv-x="617" 
d="M88.5 45q-57.5 60 -57.5 169q0 84 39 147.5t109 98.5t162 35q71 0 125.5 -16t99.5 -46v-404q0 -17 -6.5 -23t-25.5 -6h-79q-11 0 -16.5 4t-8.5 13l-11 35q-30 -35 -73 -51t-104 -16q-96 0 -153.5 60zM379.5 124q32.5 25 32.5 68v175q-30 15 -72 15q-66 0 -105.5 -43.5
t-39.5 -121.5q0 -60 27 -89t81 -29q44 0 76.5 25z" />
    <glyph glyph-name="b" unicode="b" horiz-adv-x="620" 
d="M159.5 4q-67.5 19 -108.5 49v583q0 22 10.5 33t34.5 11h72q25 0 35 -10.5t10 -33.5v-178q23 18 60 27.5t77 9.5q116 0 177.5 -61.5t61.5 -174.5q0 -130 -73.5 -202t-216.5 -72q-72 0 -139.5 19zM392 138.5q33 39.5 33 118.5q0 64 -25.5 94t-83.5 30q-42 0 -72.5 -21.5
t-30.5 -62.5v-181q14 -8 35 -12.5t43 -4.5q68 0 101 39.5z" />
    <glyph glyph-name="c" unicode="c" horiz-adv-x="563" 
d="M106 50.5q-75 65.5 -75 188.5q0 76 34.5 134t99.5 90t153 32q65 0 111 -13t84 -39q10 -7 10 -16q0 -8 -6 -17l-34 -59q-7 -12 -14 -12q-5 0 -17 7q-29 18 -56 27t-65 9q-63 0 -99.5 -38.5t-36.5 -104.5q0 -70 36.5 -105t105.5 -35q38 0 66.5 9.5t55.5 26.5q12 7 17 7
q7 0 14 -12l37 -63q5 -8 5 -13q0 -8 -12 -16q-42 -27 -89.5 -40t-112.5 -13q-137 0 -212 65.5z" />
    <glyph glyph-name="d" unicode="d" horiz-adv-x="620" 
d="M31 242q0 75 28.5 132.5t83.5 89t131 31.5q43 0 77.5 -9.5t55.5 -27.5v178q0 23 10 33.5t35 10.5h72q24 0 34.5 -11t10.5 -33v-583q-41 -30 -107 -49t-139 -19q-292 0 -292 257zM407 116v183q0 41 -26 61.5t-70 20.5q-59 0 -87.5 -37.5t-28.5 -103.5q0 -76 33 -108.5
t99 -32.5q49 0 80 17z" />
    <glyph glyph-name="e" unicode="e" horiz-adv-x="596" 
d="M170.5 12.5q-64.5 27.5 -102 83t-37.5 137.5q0 128 70.5 195t201.5 67q129 0 195.5 -65t66.5 -185q0 -42 -38 -42h-340q0 -54 40.5 -83.5t111.5 -29.5q42 0 73 8.5t60 24.5q10 5 14 5q7 0 13 -11l29 -54q4 -7 4 -12q0 -8 -11 -16q-40 -26 -90 -38t-115 -12
q-81 0 -145.5 27.5zM417 289q0 50 -28 78t-85 28t-87 -28.5t-30 -77.5h230z" />
    <glyph glyph-name="f" unicode="f" horiz-adv-x="445" 
d="M103.5 10.5q-10.5 10.5 -10.5 32.5v321h-40q-24 0 -33 10t-9 33v31q0 23 9 32.5t33 9.5h40v26q0 90 48.5 139.5t146.5 49.5q99 0 155 -41q11 -8 11 -16q0 -6 -5 -14l-31 -51q-6 -10 -14 -10q-5 0 -12 4q-33 18 -66 18q-37 0 -52.5 -18t-15.5 -56v-31h104q24 0 33 -9.5
t9 -32.5v-31q0 -23 -9 -33t-33 -10h-104v-321q0 -22 -10 -32.5t-35 -10.5h-75q-24 0 -34.5 10.5z" />
    <glyph glyph-name="g" unicode="g" horiz-adv-x="620" 
d="M192 -158q-57 12 -88 32q-7 6 -7 13q0 5 3 10l36 61q3 5 6.5 8.5t7.5 3.5q2 0 12 -4q47 -24 133 -24q57 0 84.5 26t27.5 87q-48 -45 -135 -45q-116 0 -178.5 60t-62.5 171q0 124 75.5 189t220.5 65q70 0 135 -19.5t107 -48.5v-326q0 -123 -62 -197t-197 -74
q-61 0 -118 12zM380.5 150.5q26.5 23.5 26.5 66.5v150q-34 14 -89 14q-61 -1 -92 -31t-31 -100q0 -63 27.5 -93t85.5 -30q46 0 72.5 23.5z" />
    <glyph glyph-name="h" unicode="h" horiz-adv-x="601" 
d="M61.5 10.5q-10.5 10.5 -10.5 32.5v608q0 17 6 23t24 6h93q18 0 24.5 -6t6.5 -23v-213q65 57 169 57q82 0 131.5 -44.5t49.5 -132.5v-275q0 -22 -10.5 -32.5t-34.5 -10.5h-75q-25 0 -35.5 10.5t-10.5 32.5v265q0 39 -18 56t-55 17q-41 0 -70.5 -22.5t-29.5 -58.5v-257
q0 -22 -10 -32.5t-35 -10.5h-74q-25 0 -35.5 10.5z" />
    <glyph glyph-name="i" unicode="i" horiz-adv-x="281" 
d="M67 563q-16 16 -16 39v23q0 23 16 39t44 16h58q29 0 45 -16t16 -39v-23q0 -23 -16 -39t-45 -16h-58q-28 0 -44 16zM68 10.5q-10 10.5 -10 32.5v393q0 23 10 33.5t35 10.5h74q25 0 35.5 -11t10.5 -33v-393q0 -22 -10.5 -32.5t-35.5 -10.5h-74q-25 0 -35 10.5z" />
    <glyph glyph-name="j" unicode="j" horiz-adv-x="336" 
d="M122 563q-16 16 -16 39v23q0 23 16 39t44 16h58q29 0 45 -16t16 -39v-23q0 -23 -16 -39t-45 -16h-58q-28 0 -44 16zM-39.5 -156q-48.5 14 -82.5 39q-10 7 -10 16q0 8 6 17l36 61q7 12 15 12q4 0 15 -7q23 -16 45.5 -24.5t49.5 -8.5q43 0 60.5 20t17.5 62v405
q0 22 10.5 33t34.5 11h75q25 0 35.5 -11t10.5 -33v-408q0 -92 -54 -145t-158 -53q-58 0 -106.5 14z" />
    <glyph glyph-name="k" unicode="k" horiz-adv-x="579" 
d="M556 17q0 -7 -4.5 -12t-13.5 -5h-125q-12 0 -18.5 2.5t-12.5 9.5l-159 196q-3 3 -7 9v-174q0 -22 -10 -32.5t-35 -10.5h-75q-24 0 -34.5 10.5t-10.5 32.5v593q0 22 10.5 33t34.5 11h75q25 0 35 -10.5t10 -33.5v-356l7 8l154 179q6 8 12.5 10.5t19.5 2.5h124q8 0 13 -5
t5 -12q0 -9 -7 -16l-185 -199l191 -215q6 -7 6 -16z" />
    <glyph glyph-name="l" unicode="l" horiz-adv-x="267" 
d="M61.5 10.5q-10.5 10.5 -10.5 32.5v593q0 22 10.5 33t34.5 11h75q25 0 35 -10.5t10 -33.5v-593q0 -22 -10 -32.5t-35 -10.5h-75q-24 0 -34.5 10.5z" />
    <glyph glyph-name="m" unicode="m" horiz-adv-x="815" 
d="M61.5 10.5q-10.5 10.5 -10.5 32.5v408q0 17 6 23t24 6h74q12 0 17.5 -4t6.5 -14l4 -36q29 33 65 51t86 18q87 0 123 -69q56 69 154 69q74 0 116 -43.5t42 -131.5v-277q0 -22 -10.5 -32.5t-34.5 -10.5h-63q-25 0 -35 10.5t-10 32.5v267q0 38 -14.5 54.5t-43.5 16.5
q-33 0 -53.5 -22t-20.5 -58v-258q0 -22 -10.5 -32.5t-34.5 -10.5h-57q-25 0 -35.5 10.5t-10.5 32.5v271q0 34 -13.5 50.5t-41.5 16.5q-34 0 -55.5 -22.5t-21.5 -59.5v-256q0 -22 -10 -32.5t-35 -10.5h-62q-25 0 -35.5 10.5z" />
    <glyph glyph-name="n" unicode="n" horiz-adv-x="601" 
d="M61.5 10.5q-10.5 10.5 -10.5 32.5v408q0 17 6 23t24 6h80q12 0 18 -4t7 -14l3 -35q31 32 78 50t107 18q82 0 131.5 -44.5t49.5 -132.5v-275q0 -22 -10.5 -32.5t-34.5 -10.5h-75q-25 0 -35.5 10.5t-10.5 32.5v265q0 39 -17 56t-56 17q-42 0 -71 -22.5t-29 -58.5v-257
q0 -22 -10 -32.5t-35 -10.5h-74q-25 0 -35.5 10.5z" />
    <glyph glyph-name="o" unicode="o" horiz-adv-x="623" 
d="M104.5 53.5q-73.5 68.5 -73.5 186.5t73.5 186.5t206.5 68.5q134 0 207.5 -68.5t73.5 -186.5t-73.5 -186.5t-207.5 -68.5q-133 0 -206.5 68.5zM398 138q30 34 30 102q0 67 -30 101t-87 34q-56 0 -86 -34t-30 -101t30 -101.5t86 -34.5q57 0 87 34z" />
    <glyph glyph-name="p" unicode="p" horiz-adv-x="620" 
d="M61.5 -191.5q-10.5 10.5 -10.5 32.5v586q42 29 107.5 48.5t134.5 19.5q296 0 296 -256q0 -117 -63.5 -185.5t-177.5 -68.5q-42 0 -76.5 11t-58.5 33v-188q0 -22 -10 -32.5t-35 -10.5h-72q-24 0 -34.5 10.5zM396.5 136q28.5 38 28.5 106q0 75 -34 107t-103 32
q-48 0 -76 -14v-178q0 -43 27.5 -67t71.5 -24q57 0 85.5 38z" />
    <glyph glyph-name="q" unicode="q" horiz-adv-x="620" 
d="M417 -191.5q-10 10.5 -10 32.5v188q-24 -22 -58.5 -33t-76.5 -11q-115 0 -178 63.5t-63 176.5q0 129 76 199.5t220 70.5q70 0 135 -19.5t107 -48.5v-586q0 -22 -10.5 -32.5t-34.5 -10.5h-72q-25 0 -35 10.5zM379.5 122q27.5 24 27.5 67v178q-28 14 -76 14
q-65 0 -100.5 -38.5t-35.5 -114.5q0 -130 113 -130q44 0 71.5 24z" />
    <glyph glyph-name="r" unicode="r" horiz-adv-x="439" 
d="M61.5 10.5q-10.5 10.5 -10.5 32.5v408q0 17 6 23t24 6h80q12 0 17.5 -4t6.5 -14l4 -32q60 65 150 65q29 0 47.5 -4.5t32.5 -14.5q9 -7 9 -14q0 -3 -2 -9l-25 -75q-4 -12 -13 -12q-4 0 -10 3q-26 13 -60 13q-44 0 -73 -25t-29 -67v-247q0 -22 -10 -32.5t-35 -10.5h-74
q-25 0 -35.5 10.5z" />
    <glyph glyph-name="s" unicode="s" horiz-adv-x="529" 
d="M149 -2q-58 13 -102 38q-16 9 -16 18q0 5 5 13l35 62q6 10 12 10q7 0 15 -5q29 -17 72.5 -29t79.5 -12q44 0 63.5 9.5t19.5 32.5q0 15 -12.5 25.5t-34.5 18t-76 23.5q-83 25 -121 57t-38 91q0 71 59.5 108t159.5 37q118 0 201 -48q16 -9 16 -19q0 -6 -6 -15l-34 -54
q-6 -10 -12 -10q-5 0 -14 6q-25 14 -59 23t-68 9q-42 0 -63 -9.5t-21 -33.5q0 -20 23.5 -31.5t78.5 -26.5l55 -16q51 -17 79 -35t40 -42t12 -61q0 -64 -58 -105.5t-169 -41.5q-64 0 -122 13z" />
    <glyph glyph-name="t" unicode="t" horiz-adv-x="472" 
d="M148 35q-47 50 -47 138v191h-49q-24 0 -32 9t-8 32v33q0 23 8 32.5t32 9.5h49v40q0 22 9.5 43.5t27.5 53.5q8 14 15 18.5t25 4.5h46q23 0 32.5 -10t9.5 -32v-118h99q24 0 32 -9.5t8 -32.5v-33q0 -23 -8 -32t-32 -9h-99v-187q0 -39 14 -56t47 -17q20 0 33.5 5t30.5 16
q8 5 12 5q9 0 15 -11l37 -63q5 -8 5 -13q0 -7 -12 -15q-63 -43 -162 -43q-91 0 -138 50z" />
    <glyph glyph-name="u" unicode="u" horiz-adv-x="597" 
d="M95.5 31q-49.5 46 -49.5 137v268q0 22 10.5 33t34.5 11h75q25 0 35 -10.5t10 -33.5v-262q0 -39 19.5 -57t57.5 -18q41 0 66.5 22t25.5 60v255q0 22 10.5 33t35.5 11h74q25 0 35.5 -11t10.5 -33v-407q0 -17 -6 -23t-24 -6h-80q-23 0 -24 17l-4 37q-66 -69 -181 -69
q-82 0 -131.5 46z" />
    <glyph glyph-name="v" unicode="v" horiz-adv-x="616" 
d="M248.5 6.5q-8.5 6.5 -16.5 22.5l-197 418q-4 10 -4 15q0 8 5 13t14 5h115q14 0 21 -4.5t12 -18.5l110 -270l110 270q5 13 12 18t21 5h115q9 0 14 -5t5 -13q0 -5 -4 -15l-197 -418q-8 -17 -16 -23t-25 -6h-70q-16 0 -24.5 6.5z" />
    <glyph glyph-name="w" unicode="w" horiz-adv-x="775" 
d="M176.5 5q-6.5 5 -10.5 18l-133 435q-1 3 -1 8q0 14 18 14h104q13 0 18.5 -4t7.5 -14l70 -267l84 223q4 11 9.5 15.5t17.5 4.5h53q12 0 17.5 -4.5t9.5 -15.5l83 -223l71 267q2 10 7 14t18 4h105q23 0 17 -22l-134 -435q-4 -13 -10.5 -18t-19.5 -5h-78q-13 0 -19 5t-11 18
l-83 225l-83 -225q-5 -13 -11 -18t-19 -5h-77q-14 0 -20.5 5z" />
    <glyph glyph-name="x" unicode="x" horiz-adv-x="615" 
d="M36.5 5q-5.5 5 -5.5 12q0 9 7 16l177 211l-169 203q-6 8 -6 17q0 7 4.5 11.5t13.5 4.5h124q12 0 18 -3t12 -10l95 -112l96 112q6 7 12 10t18 3h124q9 0 13.5 -4.5t4.5 -11.5q0 -9 -6 -17l-170 -203l178 -211q7 -7 7 -16q0 -7 -5.5 -12t-14.5 -5h-124q-12 0 -17.5 2.5
t-11.5 9.5l-104 121l-103 -121q-6 -7 -11.5 -9.5t-17.5 -2.5h-124q-9 0 -14.5 5z" />
    <glyph glyph-name="y" unicode="y" horiz-adv-x="601" 
d="M44 -111q-9 7 -9 15q0 5 5 15l34 59q6 11 14 11q7 0 16 -6q16 -11 31 -16.5t35 -5.5q26 0 40.5 15.5t27.5 50.5l-198 420q-4 8 -4 16q0 17 18 17h116q14 0 21 -5t12 -17l110 -271l110 271q5 12 12 17t21 5h116q18 0 18 -17q0 -8 -4 -16l-187 -398q-37 -78 -65.5 -120.5
t-65 -63.5t-89.5 -21q-82 0 -135 45z" />
    <glyph glyph-name="z" unicode="z" horiz-adv-x="544" 
d="M40.5 7.5q-7.5 7.5 -7.5 25.5q0 36 8.5 54t36.5 46l222 225h-217q-24 0 -34.5 10.5t-10.5 32.5v37q0 22 10.5 32t34.5 10h386q19 0 26 -6.5t7 -24.5q0 -36 -9 -54.5t-35 -47.5l-211 -226h221q24 0 34.5 -10t10.5 -33v-36q0 -22 -10.5 -32t-34.5 -10h-399q-21 0 -28.5 7.5
z" />
    <glyph glyph-name="braceleft" unicode="{" horiz-adv-x="386" 
d="M123 -59.5q-10 10.5 -10 32.5v310h-60q-24 0 -33 9.5t-9 32.5v30q0 23 9 33t33 10h60v308q0 23 10 33.5t35 10.5h165q24 0 33 -9.5t9 -32.5v-31q0 -23 -9 -33t-33 -10h-48v-589h48q24 0 33 -10t9 -33v-30q0 -23 -9 -32.5t-33 -9.5h-165q-25 0 -35 10.5z" />
    <glyph glyph-name="bar" unicode="|" horiz-adv-x="227" 
d="M41.5 -79.5q-10.5 10.5 -10.5 32.5v773q0 22 10.5 33t34.5 11h75q25 0 35 -10.5t10 -33.5v-773q0 -22 -10 -32.5t-35 -10.5h-75q-24 0 -34.5 10.5z" />
    <glyph glyph-name="braceright" unicode="}" horiz-adv-x="386" 
d="M30 -60.5q-9 9.5 -9 32.5v30q0 23 9 33t33 10h48v589h-48q-24 0 -33 10t-9 33v31q0 23 9 32.5t33 9.5h165q25 0 35 -10.5t10 -33.5v-308h60q24 0 33 -10t9 -33v-30q0 -23 -9 -32.5t-33 -9.5h-60v-310q0 -22 -10 -32.5t-35 -10.5h-165q-24 0 -33 9.5z" />
    <glyph glyph-name="asciitilde" unicode="~" horiz-adv-x="614" 
d="M364 222q-25 9 -60 28q-31 16 -51 24t-44 8q-25 0 -38.5 -9.5t-34.5 -32.5q-12 -14 -27 -14q-19 0 -51 25q-26 20 -26 38q0 14 16 36q29 39 65 61t86 22q33 0 59.5 -10t60.5 -29q29 -16 47 -23.5t39 -7.5q25 0 39 9.5t34 32.5q12 15 27 15q18 0 50 -25q14 -11 20.5 -20
t6.5 -18q0 -14 -16 -36q-61 -83 -145 -83q-32 0 -57 9z" />
    <glyph glyph-name="uni00A0" unicode="&#xa0;" horiz-adv-x="360" 
 />
    <glyph glyph-name="exclamdown" unicode="&#xa1;" horiz-adv-x="241" 
d="M49 483q-18 11 -18 35v23q0 24 18 35t55 11h32q38 0 56 -11t18 -35v-23q0 -24 -18 -35t-56 -11h-32q-37 0 -55 11zM48 -82.5q-10 10.5 -10 33.5l6 409q0 22 11.5 32.5t36.5 10.5h57q25 0 36.5 -10.5t11.5 -32.5l7 -409q0 -23 -10 -33.5t-35 -10.5h-76q-25 0 -35 10.5z
" />
    <glyph glyph-name="cent" unicode="&#xa2;" horiz-adv-x="563" 
d="M247.5 -92.5q-10.5 10.5 -10.5 32.5v54q-99 16 -152.5 78.5t-53.5 166.5q0 97 55 163t151 83v54q0 22 10.5 33t35.5 11h62q25 0 35.5 -11t10.5 -33v-50q74 -12 122 -46q10 -7 10 -16q0 -8 -6 -17l-34 -59q-7 -12 -14 -12q-5 0 -17 7q-27 18 -54 27t-67 9q-62 0 -99 -38.5
t-37 -104.5q0 -69 37.5 -104.5t104.5 -35.5t122 36q12 7 17 7q7 0 14 -12l37 -63q5 -8 5 -13q0 -8 -12 -16q-57 -37 -129 -47v-51q0 -22 -10.5 -32.5t-35.5 -10.5h-62q-25 0 -35.5 10.5z" />
    <glyph glyph-name="sterling" unicode="&#xa3;" horiz-adv-x="567" 
d="M40 10q-9 10 -9 33v30q0 23 9 32.5t33 9.5q21 0 32.5 16t11.5 46v134h-40q-24 0 -33 10t-9 33v31q0 23 9 32.5t33 9.5h40v74q0 89 55 141.5t157 52.5q104 0 160 -41q11 -8 11 -16q0 -6 -5 -14l-31 -51q-6 -10 -14 -10q-5 0 -12 4q-33 18 -74 18q-39 0 -60.5 -19.5
t-21.5 -59.5v-79h116q24 0 33 -9.5t9 -32.5v-31q0 -23 -9 -33t-33 -10h-116v-110q0 -30 -6 -51t-21 -35h238q24 0 33.5 -10t9.5 -32v-30q0 -23 -9.5 -33t-33.5 -10h-420q-24 0 -33 10z" />
    <glyph glyph-name="currency" unicode="&#xa4;" horiz-adv-x="557" 
d="M119 67q-12 0 -23 11l-54 51q-11 10 -11 19q0 10 11 21l37 37q-29 48 -29 99q0 50 29 100l-37 37q-11 11 -11 20t11 20l54 51q11 11 23 11t22 -10l46 -41q44 22 92 22q47 0 91 -22l45 41q10 10 21 10q13 0 25 -12l53 -50q11 -10 11 -20q0 -9 -11 -20l-36 -37
q29 -46 29 -100q0 -51 -29 -99l36 -37q11 -11 11 -20q0 -10 -11 -20l-53 -51q-11 -11 -24 -11q-12 0 -22 10l-45 41q-41 -22 -91 -22q-51 0 -92 22l-46 -41q-10 -10 -22 -10zM342 241.5q26 26.5 26 63.5t-26 63.5t-63 26.5t-63.5 -26t-26.5 -64q0 -37 26.5 -63.5t63.5 -26.5
t63 26.5z" />
    <glyph glyph-name="yen" unicode="&#xa5;" horiz-adv-x="722" 
d="M288.5 10.5q-10.5 10.5 -10.5 32.5v36h-113q-19 0 -25.5 7t-6.5 29v25q0 22 6.5 29.5t25.5 7.5h113v47h-113q-19 0 -25.5 7t-6.5 29v24q0 23 6.5 30t25.5 7h60l-189 326q-5 8 -5 16q0 7 5.5 12t14.5 5h120q14 0 20 -4.5t12 -15.5l158 -279l158 279q5 10 11.5 15t19.5 5
h121q9 0 14.5 -5t5.5 -12q0 -8 -5 -16l-190 -326h50q19 0 25.5 -7t6.5 -30v-24q0 -22 -6.5 -29t-25.5 -7h-102v-47h102q19 0 25.5 -7.5t6.5 -29.5v-25q0 -22 -6.5 -29t-25.5 -7h-102v-36q0 -22 -10.5 -32.5t-35.5 -10.5h-75q-24 0 -34.5 10.5z" />
    <glyph glyph-name="brokenbar" unicode="&#xa6;" horiz-adv-x="227" 
d="M41.5 360.5q-10.5 10.5 -10.5 32.5v293q0 22 10.5 33t34.5 11h75q25 0 35 -10.5t10 -33.5v-293q0 -22 -10 -32.5t-35 -10.5h-75q-24 0 -34.5 10.5zM41.5 -208.5q-10.5 10.5 -10.5 32.5v293q0 22 10.5 33t34.5 11h75q25 0 35 -10.5t10 -33.5v-293q0 -22 -10 -32.5
t-35 -10.5h-75q-24 0 -34.5 10.5z" />
    <glyph glyph-name="section" unicode="&#xa7;" horiz-adv-x="598" 
d="M47 -95q-15 10 -15 21q0 6 5 14l40 64q6 10 13 10q6 0 15 -6q77 -45 183 -45q57 0 85.5 15t28.5 50q0 29 -21.5 44.5t-75.5 37.5l-58 24q-61 28 -97.5 49t-62.5 53.5t-26 78.5q0 35 5.5 59t18.5 48q-27 39 -27 92q0 55 31 96t87.5 63t131.5 22q149 0 228 -56
q15 -12 15 -20q0 -6 -5 -14l-41 -65q-6 -10 -13 -10q-6 0 -15 6q-61 40 -148 40q-54 0 -81 -16.5t-27 -54.5q0 -22 12 -37t32 -25t61 -25l47 -19q61 -26 99 -47.5t65.5 -59t27.5 -93.5q0 -47 -26 -80q15 -18 21.5 -40t6.5 -54q0 -83 -66.5 -132t-193.5 -49q-160 0 -260 61z
M437 187q0 6 -1 9q-4 33 -26.5 52.5t-73.5 39.5q-56 23 -86.5 36.5t-57.5 31.5q-2 -3 -2 -10q2 -27 12.5 -43.5t30 -28t61.5 -29.5l26 -11q77 -31 116 -54q1 2 1 7z" />
    <glyph glyph-name="dieresis" unicode="&#xa8;" horiz-adv-x="403" 
d="M46 563.5q-15 16.5 -15 40.5v22q0 24 15 40.5t39 16.5h23q24 0 39 -16.5t15 -40.5v-22q0 -24 -15 -40.5t-39 -16.5h-23q-24 0 -39 16.5zM256 563.5q-15 16.5 -15 40.5v22q0 24 15 40.5t39 16.5h23q24 0 39 -16.5t15 -40.5v-22q0 -24 -15 -40.5t-39 -16.5h-23
q-24 0 -39 16.5z" />
    <glyph glyph-name="copyright" unicode="&#xa9;" horiz-adv-x="784" 
d="M212 33q-83 48 -132 129.5t-49 177.5t49 177.5t132 129.5t180 48t180 -48t132 -129.5t49 -177.5t-49 -177.5t-132 -129.5t-180 -48t-180 48zM528 108q60 34 93.5 94.5t33.5 137.5q0 76 -33.5 136.5t-93.5 95t-136 34.5q-77 0 -137 -34.5t-93.5 -95t-33.5 -136.5
q0 -77 33.5 -137.5t93.5 -94.5t137 -34q76 0 136 34zM227.5 169.5q-60.5 59.5 -60.5 168.5q0 107 60.5 169t164.5 62q52 0 90 -11t66 -35q6 -6 6 -12q0 -5 -3 -11l-20 -40q-5 -8 -10 -8q-4 0 -11 5q-20 15 -44 22t-60 7q-62 0 -96 -39t-34 -109q0 -72 35 -108.5t99 -36.5
q34 0 57.5 7.5t45.5 22.5q7 5 11 5q5 0 10 -8l20 -40q3 -6 3 -12t-6 -11q-63 -47 -154 -47q-109 0 -169.5 59.5z" />
    <glyph glyph-name="ordfeminine" unicode="&#xaa;" horiz-adv-x="366" 
d="M61 394q-30 26 -30 71q0 49 32.5 75.5t88.5 26.5h95v8q0 51 -70 51q-35 0 -74 -17q-2 -1 -5 -1q-4 0 -7 5l-27 46q-1 1 -1 4q0 5 10 10q47 22 112 22q79 0 114.5 -32t35.5 -99v-174q0 -13 -15 -13h-52q-12 0 -15 13l-4 20q-37 -42 -109 -42q-49 0 -79 26zM225.5 450
q21.5 18 21.5 48v9h-74q-26 0 -38.5 -9t-12.5 -28q0 -38 48 -38q34 0 55.5 18z" />
    <glyph glyph-name="guillemotleft" unicode="&#xab;" horiz-adv-x="703" 
d="M277 18q-12 0 -29 17l-190 197q-17 18 -22 25t-5 16v19q0 8 4.5 15t12 15.5t10.5 11.5l190 197q17 17 29 17q10 0 21 -11l54 -54q14 -14 14 -23q0 -10 -14 -24l-154 -153l154 -154q14 -14 14 -23t-14 -23l-54 -54q-11 -11 -21 -11zM583 18q-12 0 -29 17l-190 197
q-17 18 -22 25t-5 16v19q0 8 4.5 15t12 15.5t10.5 11.5l190 197q17 17 29 17q10 0 21 -11l54 -54q14 -14 14 -24q0 -9 -14 -23l-154 -153l154 -154q14 -14 14 -23t-14 -23l-54 -54q-11 -11 -21 -11z" />
    <glyph glyph-name="logicalnot" unicode="&#xac;" horiz-adv-x="470" 
d="M317 124q-10 9 -10 33v83h-234q-24 0 -33 10t-9 33v36q0 23 9 33t33 10h323q24 0 33.5 -10t9.5 -33v-162q0 -24 -10.5 -33t-33.5 -9h-45q-23 0 -33 9z" />
    <glyph glyph-name="uni00AD" unicode="&#xad;" horiz-adv-x="470" 
d="M40 250q-9 10 -9 33v36q0 23 9 33t33 10h323q24 0 33.5 -10t9.5 -33v-36q0 -23 -9.5 -33t-33.5 -10h-323q-24 0 -33 10z" />
    <glyph glyph-name="registered" unicode="&#xae;" horiz-adv-x="784" 
d="M212 33q-83 48 -132 129.5t-49 177.5t49 177.5t132 129.5t180 48t180 -48t132 -129.5t49 -177.5t-49 -177.5t-132 -129.5t-180 -48t-180 48zM528 108q60 34 93.5 94.5t33.5 137.5q0 76 -33.5 136.5t-93.5 95t-136 34.5q-77 0 -137 -34.5t-93.5 -95t-33.5 -136.5
q0 -77 33.5 -137.5t93.5 -94.5t137 -34q76 0 136 34zM246 145.5q-7 6.5 -7 20.5v358q0 14 7 20.5t22 6.5h155q153 0 153 -134q0 -96 -86 -121l64 -137q3 -6 3 -10q0 -10 -13 -10h-66q-9 0 -13.5 2t-6.5 8l-57 134h-59v-117q0 -27 -28 -27h-46q-15 0 -22 6.5zM414 358
q35 0 50 14t15 45q0 32 -14.5 45.5t-48.5 13.5h-74v-118h72z" />
    <glyph glyph-name="macron" unicode="&#xaf;" horiz-adv-x="418" 
d="M40 591q-9 10 -9 33v36q0 23 9 33t33 10h271q24 0 33.5 -10t9.5 -33v-36q0 -23 -9.5 -33t-33.5 -10h-271q-24 0 -33 10z" />
    <glyph glyph-name="degree" unicode="&#xb0;" horiz-adv-x="337" 
d="M68 484.5q-37 35.5 -37 101.5q0 65 37 100.5t100 35.5q64 0 101 -35.5t37 -100.5q0 -66 -37.5 -101.5t-100.5 -35.5t-100 35.5zM206 546.5q14 13.5 14 39.5t-14 39.5t-38 13.5q-23 0 -37 -13.5t-14 -39.5t14 -39.5t37 -13.5q24 0 38 13.5z" />
    <glyph glyph-name="plusminus" unicode="&#xb1;" horiz-adv-x="462" 
d="M175.5 199q-7.5 8 -7.5 29v82h-94q-24 0 -33.5 7.5t-9.5 31.5v44q0 24 9.5 31.5t33.5 7.5h94v83q0 21 7.5 29t31.5 8h54q24 0 31.5 -8t7.5 -29v-83h96q24 0 33.5 -7.5t9.5 -31.5v-44q0 -24 -9.5 -31.5t-33.5 -7.5h-96v-82q0 -21 -7.5 -29t-31.5 -8h-54q-24 0 -31.5 8z
M35 9.5q-8 9.5 -8 29.5v43q0 20 8 29.5t30 9.5h332q21 0 29.5 -9.5t8.5 -29.5v-43q0 -20 -8 -29.5t-30 -9.5h-332q-22 0 -30 9.5z" />
    <glyph glyph-name="uni00B2" unicode="&#xb2;" horiz-adv-x="381" 
d="M33 310v31q0 37 27.5 69t87.5 70q37 22 53 34t22.5 23.5t6.5 29.5q0 21 -15.5 32.5t-45.5 11.5q-42 0 -88 -22q-6 -3 -10 -3q-3 0 -8 6l-24 48q-3 6 -3 10q0 5 6 9q24 16 65.5 26t89.5 10q68 0 109 -31t41 -85q0 -45 -21.5 -74t-75.5 -61q-36 -20 -55 -35.5t-25 -31.5
h156q13 0 18.5 -5.5t5.5 -19.5v-42q0 -13 -5.5 -18.5t-18.5 -5.5h-271q-22 0 -22 24z" />
    <glyph glyph-name="uni00B3" unicode="&#xb3;" horiz-adv-x="384" 
d="M99.5 288.5q-40.5 9.5 -62.5 24.5q-6 5 -6 10q0 3 3 9l24 45q3 6 8 6q3 0 9 -3q44 -22 84 -22q38 0 55 12t17 37q0 24 -12 34.5t-38 10.5h-41q-15 0 -21 5.5t-6 19.5v31q0 13 6 18.5t21 5.5h38q41 0 41 43q0 20 -13 30t-44 10q-24 0 -42 -5t-39 -16q-8 -4 -10 -4
q-4 0 -7 6l-23 45q-4 8 -4 11q0 5 5 8q23 16 60.5 25.5t79.5 9.5q74 0 117 -31.5t43 -85.5q0 -29 -10.5 -49t-34.5 -35q56 -24 56 -90q0 -57 -44 -91t-128 -34q-41 0 -81.5 9.5z" />
    <glyph glyph-name="acute" unicode="&#xb4;" horiz-adv-x="285" 
d="M31 577q0 7 3 14l46 126q7 17 14.5 23t29.5 6h97q15 0 23.5 -5t8.5 -15q0 -8 -6 -19l-65 -122q-9 -17 -18.5 -22.5t-33.5 -5.5h-71q-28 0 -28 20z" />
    <glyph glyph-name="uni00B5" unicode="&#xb5;" horiz-adv-x="562" 
d="M41.5 -166q-10.5 11 -10.5 33v569q0 25 11.5 34.5t40.5 9.5h68q24 0 34.5 -10.5t10.5 -33.5v-262q0 -36 20 -55.5t57 -19.5q46 0 69 21.5t23 60.5v255q0 27 14 35.5t52 8.5h54q25 0 35.5 -10.5t10.5 -33.5v-407q0 -17 -6 -23t-24 -6h-80q-12 0 -17.5 4t-6.5 13l-4 37
q-16 -35 -43.5 -52t-73.5 -17q-22 0 -44.5 4.5t-35.5 11.5v-134q0 -27 -13.5 -35.5t-51.5 -8.5h-55q-24 0 -34.5 11z" />
    <glyph glyph-name="paragraph" unicode="&#xb6;" horiz-adv-x="770" 
d="M255.5 -89.5q-10.5 10.5 -10.5 32.5v316q-101 0 -157.5 52t-56.5 149q0 114 65 167t208 53h392q24 0 33.5 -10t9.5 -33v-37q0 -22 -9.5 -32t-33.5 -10h-34v-615q0 -22 -10.5 -32.5t-35.5 -10.5h-73q-24 0 -34.5 10.5t-10.5 32.5v615h-88v-615q0 -22 -10.5 -32.5
t-35.5 -10.5h-73q-25 0 -35.5 10.5z" />
    <glyph glyph-name="periodcentered" unicode="&#xb7;" horiz-adv-x="179" 
d="M44.5 274q-13.5 15 -13.5 36v20q0 21 13.5 35.5t34.5 14.5h21q21 0 34.5 -14.5t13.5 -35.5v-20q0 -21 -13.5 -36t-34.5 -15h-21q-21 0 -34.5 15z" />
    <glyph glyph-name="cedilla" unicode="&#xb8;" horiz-adv-x="286" 
d="M83 -235q-26 5 -40 12q-9 5 -11 8t1 10l17 44q3 7 8 7q4 0 10 -3q22 -10 45 -10q19 0 27.5 6t8.5 19q0 17 -13 23t-43 6h-16q-8 0 -10.5 4.5t0.5 11.5l27 68q3 8 7.5 11t14.5 3h83q12 0 12 -8q0 -5 -2 -8l-23 -50q69 -9 69 -74q0 -38 -31 -61.5t-90 -23.5q-25 0 -51 5z
" />
    <glyph glyph-name="uni00B9" unicode="&#xb9;" horiz-adv-x="354" 
d="M59.5 292.5q-6.5 6.5 -6.5 21.5v28q0 15 6.5 21.5t22.5 6.5h58v197l-54 -34q-5 -3 -10 -3q-7 0 -12 8l-30 45q-3 5 -3 9q0 7 9 11l115 70q6 4 11.5 5.5t14.5 1.5h47q16 0 23 -7t7 -22v-281h58q15 0 21 -6.5t6 -21.5v-28q0 -15 -6 -21.5t-21 -6.5h-234q-16 0 -22.5 6.5z
" />
    <glyph glyph-name="ordmasculine" unicode="&#xba;" horiz-adv-x="413" 
d="M77 411.5q-46 43.5 -46 119.5q0 77 46 120.5t129 43.5t129.5 -43.5t46.5 -120.5q0 -76 -46.5 -119.5t-129.5 -43.5t-129 43.5zM257.5 467.5q18.5 21.5 18.5 63.5q0 43 -18.5 64t-51.5 21t-51 -21t-18 -64q0 -42 18.5 -63.5t50.5 -21.5q33 0 51.5 21.5z" />
    <glyph glyph-name="guillemotright" unicode="&#xbb;" horiz-adv-x="703" 
d="M44 83q-13 13 -13 22q0 11 14 24l153 154l-153 153q-14 13 -14 24q0 10 13 23l54 54q11 11 21 11q12 0 29 -17l190 -197q17 -18 22.5 -25.5t5.5 -16.5v-19q0 -8 -4.5 -14.5t-12 -14.5t-11.5 -12l-190 -197q-17 -17 -29 -17q-10 0 -21 11zM350 83q-13 13 -13 22
q0 11 14 24l153 154l-153 153q-14 13 -14 24q0 10 13 23l54 54q11 11 21 11q12 0 29 -17l190 -197q17 -18 22.5 -25.5t5.5 -16.5v-19q0 -8 -4.5 -14.5t-12 -14.5t-11.5 -12l-190 -197q-17 -17 -29 -17q-10 0 -21 11z" />
    <glyph glyph-name="onequarter" unicode="&#xbc;" horiz-adv-x="836" 
d="M39.5 292.5q-6.5 6.5 -6.5 21.5v28q0 15 6.5 21.5t22.5 6.5h58v197l-54 -34q-4 -3 -10 -3q-7 0 -12 8l-30 45q-3 5 -3 9q0 7 9 11l115 70q6 4 11.5 5.5t14.5 1.5h47q16 0 23 -7t7 -22v-281h58q15 0 21 -6.5t6 -21.5v-28q0 -15 -6 -21.5t-21 -6.5h-234q-16 0 -22.5 6.5z
M161.5 4.5q-4.5 4.5 -4.5 11.5t5 15l397 629q6 10 13.5 15t18.5 5h99q9 0 13.5 -4.5t4.5 -11.5t-5 -15l-400 -633q-7 -12 -18 -14t-37 -2h-73q-9 0 -13.5 4.5zM629 6q-7 6 -7 21v56h-172q-17 0 -17 16v28q0 17 3.5 26t15.5 24l163 201q8 10 16 13t29 3h61q15 0 20 -5.5
t5 -21.5v-203h32q16 0 22 -5.5t6 -20.5v-32q0 -14 -5.5 -18.5t-22.5 -4.5h-32v-56q0 -15 -7 -21t-24 -6h-62q-17 0 -24 6zM645 164v110l-85 -110h85z" />
    <glyph glyph-name="onehalf" unicode="&#xbd;" horiz-adv-x="892" 
d="M39.5 292.5q-6.5 6.5 -6.5 21.5v28q0 15 6.5 21.5t22.5 6.5h58v197l-54 -34q-4 -3 -10 -3q-7 0 -12 8l-30 45q-3 5 -3 9q0 7 9 11l115 70q6 4 11.5 5.5t14.5 1.5h47q16 0 23 -7t7 -22v-281h58q15 0 21 -6.5t6 -21.5v-28q0 -15 -6 -21.5t-21 -6.5h-234q-16 0 -22.5 6.5z
M161.5 4.5q-4.5 4.5 -4.5 11.5t5 15l397 629q6 10 13.5 15t18.5 5h99q9 0 13.5 -4.5t4.5 -11.5t-5 -15l-400 -633q-7 -12 -18 -14t-37 -2h-73q-9 0 -13.5 4.5zM543 24v31q0 37 27.5 69t87.5 70q37 22 53 34t22.5 23.5t6.5 29.5q0 21 -15.5 32.5t-45.5 11.5q-42 0 -88 -22
q-6 -3 -10 -3q-3 0 -8 6l-24 48q-3 6 -3 10q0 5 6 9q24 16 65.5 26t89.5 10q68 0 109 -31t41 -85q0 -45 -21.5 -74t-75.5 -61q-36 -20 -55 -35.5t-25 -31.5h156q13 0 18.5 -5.5t5.5 -19.5v-42q0 -13 -5.5 -18.5t-18.5 -5.5h-271q-22 0 -22 24z" />
    <glyph glyph-name="threequarters" unicode="&#xbe;" horiz-adv-x="854" 
d="M94.5 288.5q-40.5 9.5 -62.5 24.5q-6 5 -6 10q0 3 3 9l24 45q3 6 8 6q3 0 9 -3q44 -22 84 -22q38 0 55 12t17 37q0 24 -12 34.5t-38 10.5h-41q-15 0 -21 5.5t-6 19.5v31q0 13 6 18.5t21 5.5h38q41 0 41 43q0 20 -13 30t-44 10q-24 0 -42 -5t-39 -16q-8 -4 -10 -4
q-4 0 -7 6l-23 45q-4 8 -4 11q0 5 5 8q23 16 60.5 25.5t79.5 9.5q74 0 117 -31.5t43 -85.5q0 -29 -10.5 -49t-34.5 -35q56 -24 56 -90q0 -57 -44 -91t-128 -34q-41 0 -81.5 9.5zM161.5 4.5q-4.5 4.5 -4.5 11.5t5 15l397 629q6 10 13.5 15t18.5 5h99q9 0 13.5 -4.5t4.5 -11.5
t-5 -15l-400 -633q-7 -12 -18 -14t-37 -2h-73q-9 0 -13.5 4.5zM629 6q-7 6 -7 21v56h-172q-17 0 -17 16v28q0 17 3.5 26t15.5 24l163 201q8 10 16 13t29 3h61q15 0 20 -5.5t5 -21.5v-203h32q16 0 22 -5.5t6 -20.5v-32q0 -14 -5.5 -18.5t-22.5 -4.5h-32v-56q0 -15 -7 -21
t-24 -6h-62q-17 0 -24 6zM645 164v110l-85 -110h85z" />
    <glyph glyph-name="questiondown" unicode="&#xbf;" horiz-adv-x="553" 
d="M242.5 485q-15.5 12 -15.5 34v22q0 22 15.5 34t45.5 12h58q29 0 44.5 -12t15.5 -34v-22q0 -21 -15.5 -33.5t-44.5 -12.5h-58q-30 0 -45.5 12zM100 -57q-69 51 -69 143q0 61 28 99.5t90 74.5q49 28 67 51.5t18 61.5v11q0 22 10 32.5t35 10.5h75q24 0 34.5 -10.5
t10.5 -32.5v-14q0 -62 -28.5 -104t-92.5 -81q-36 -22 -52.5 -35t-23.5 -27t-7 -36q0 -37 27.5 -56.5t79.5 -19.5q82 0 147 43q12 7 16 7q8 0 15 -12l36 -61q6 -9 6 -17q0 -10 -10 -17q-85 -62 -231 -62q-112 0 -181 51z" />
    <glyph glyph-name="Agrave" unicode="&#xc0;" horiz-adv-x="740" 
d="M309.5 728.5q-9.5 5.5 -18.5 22.5l-66 122q-6 11 -6 18q0 10 9 15.5t24 5.5h96q23 0 31 -5.5t14 -23.5l46 -126q3 -7 3 -13q0 -21 -29 -21h-70q-24 0 -33.5 5.5zM32 17q0 7 3 16l259 617q7 17 15.5 23.5t24.5 6.5h73q16 0 24 -6.5t15 -23.5l259 -617q3 -9 3 -16
q0 -17 -18 -17h-121q-14 0 -20.5 4.5t-11.5 16.5l-46 118h-243l-45 -118q-5 -12 -11.5 -16.5t-20.5 -4.5h-121q-18 0 -18 17zM453 254l-83 216l-84 -216h167z" />
    <glyph glyph-name="Aacute" unicode="&#xc1;" horiz-adv-x="740" 
d="M301 743q0 7 3 14l45 126q6 17 14.5 23t30.5 6h97q15 0 23.5 -5t8.5 -15q0 -8 -6 -19l-65 -122q-9 -17 -19 -22.5t-34 -5.5h-70q-28 0 -28 20zM32 17q0 7 3 16l259 617q7 17 15.5 23.5t24.5 6.5h73q16 0 24 -6.5t15 -23.5l259 -617q3 -9 3 -16q0 -17 -18 -17h-121
q-14 0 -20.5 4.5t-11.5 16.5l-46 118h-243l-45 -118q-5 -12 -11.5 -16.5t-20.5 -4.5h-121q-18 0 -18 17zM453 254l-83 216l-84 -216h167z" />
    <glyph glyph-name="Acircumflex" unicode="&#xc2;" horiz-adv-x="740" 
d="M182 727q-7 5 -7 13q0 10 9 22l100 133q13 15 19.5 19.5t26.5 4.5h79q20 0 27.5 -4.5t18.5 -19.5l100 -133q9 -13 9 -22q0 -8 -6.5 -13t-19.5 -5h-61q-21 0 -30 5t-18 19l-59 88l-59 -88q-9 -14 -18 -19t-30 -5h-61q-13 0 -20 5zM32 17q0 7 3 16l259 617q7 17 15.5 23.5
t24.5 6.5h73q16 0 24 -6.5t15 -23.5l259 -617q3 -9 3 -16q0 -17 -18 -17h-121q-14 0 -20.5 4.5t-11.5 16.5l-46 118h-243l-45 -118q-5 -12 -11.5 -16.5t-20.5 -4.5h-121q-18 0 -18 17zM453 254l-83 216l-84 -216h167z" />
    <glyph glyph-name="Atilde" unicode="&#xc3;" horiz-adv-x="740" 
d="M423 737q-21 7 -49 21q-24 11 -40.5 17t-33.5 6q-19 0 -30.5 -7t-27.5 -25q-9 -11 -20 -11q-15 0 -44 23q-25 19 -25 35q0 12 12 28q28 37 54 55t64 18q29 0 52 -8t52 -22q22 -11 37 -16t30 -5q19 0 31 7.5t28 27.5q9 12 22 12q16 0 43 -21t27 -37q0 -11 -12 -28
q-28 -41 -55.5 -59t-70.5 -18q-23 0 -44 7zM32 17q0 7 3 16l259 617q7 17 15.5 23.5t24.5 6.5h73q16 0 24 -6.5t15 -23.5l259 -617q3 -9 3 -16q0 -17 -18 -17h-121q-14 0 -20.5 4.5t-11.5 16.5l-46 118h-243l-45 -118q-5 -12 -11.5 -16.5t-20.5 -4.5h-121q-18 0 -18 17z
M453 254l-83 216l-84 -216h167z" />
    <glyph glyph-name="Adieresis" unicode="&#xc4;" horiz-adv-x="740" 
d="M217 733.5q-15 16.5 -15 40.5v22q0 24 15 40.5t39 16.5h23q24 0 39 -16.5t15 -40.5v-22q0 -24 -15 -40.5t-39 -16.5h-23q-24 0 -39 16.5zM422.5 733.5q-15.5 16.5 -15.5 40.5v22q0 24 15.5 40.5t38.5 16.5h24q24 0 39 -16.5t15 -40.5v-22q0 -24 -15 -40.5t-39 -16.5h-24
q-23 0 -38.5 16.5zM32 17q0 7 3 16l259 617q7 17 15.5 23.5t24.5 6.5h73q16 0 24 -6.5t15 -23.5l259 -617q3 -9 3 -16q0 -17 -18 -17h-121q-14 0 -20.5 4.5t-11.5 16.5l-46 118h-243l-45 -118q-5 -12 -11.5 -16.5t-20.5 -4.5h-121q-18 0 -18 17zM453 254l-83 216l-84 -216
h167z" />
    <glyph glyph-name="Aring" unicode="&#xc5;" horiz-adv-x="740" 
d="M708 17q0 -17 -18 -17h-121q-14 0 -20.5 4.5t-11.5 16.5l-46 118h-243l-45 -118q-5 -12 -11.5 -16.5t-20.5 -4.5h-121q-18 0 -18 17q0 7 3 16l259 617l4 9q-22 16 -35 41.5t-13 54.5q0 50 35 85.5t85 35.5t85.5 -35.5t35.5 -85.5q0 -30 -13 -55t-36 -42l4 -8l259 -617
q3 -9 3 -16zM337.5 787.5q-13.5 -13.5 -13.5 -32.5t13.5 -32.5t32.5 -13.5t32.5 13.5t13.5 32.5t-13.5 32.5t-32.5 13.5t-32.5 -13.5zM453 254l-83 216l-84 -216h167z" />
    <glyph glyph-name="AE" unicode="&#xc6;" horiz-adv-x="891" 
d="M36 5q-5 5 -5 13q0 3 4 15l259 617q7 17 15 23.5t25 6.5h484q24 0 33 -9.5t9 -32.5v-37q0 -23 -9 -33t-33 -10h-264v-158h175q24 0 33 -9.5t9 -32.5v-35q0 -23 -9 -33t-33 -10h-175v-159h263q24 0 33.5 -10t9.5 -33v-36q0 -22 -9.5 -32t-33.5 -10h-372q-24 0 -34.5 10.5
t-10.5 32.5v98h-152l-46 -123q-4 -11 -9 -14.5t-19 -3.5h-124q-9 0 -14 5zM400 254v304h-6l-112 -304h118z" />
    <glyph glyph-name="Ccedilla" unicode="&#xc7;" horiz-adv-x="678" 
d="M649 56q0 -6 -12 -15q-64 -46 -186 -54q0 -1 -2 -7l-23 -50q69 -9 69 -74q0 -38 -31 -61.5t-90 -23.5q-25 0 -51 5t-40 12q-9 5 -11 8t1 10l17 44q3 7 8 7q4 0 10 -3q22 -10 45 -10q19 0 27.5 6t8.5 19q0 17 -13 23t-43 6h-16q-8 0 -10.5 4.5t0.5 11.5l27 68l3 6
q-146 15 -226 105t-80 247q0 173 93.5 264t267.5 91q73 0 132.5 -14.5t100.5 -41.5q10 -7 10 -16q0 -8 -6 -17l-35 -61q-7 -11 -14 -11q-6 0 -17 6q-64 36 -151 36q-103 0 -160 -59.5t-57 -176.5q0 -118 59.5 -177t162.5 -59q94 0 158 36q11 6 17 6q7 0 14 -11l39 -67
q4 -7 4 -12z" />
    <glyph glyph-name="Egrave" unicode="&#xc8;" horiz-adv-x="574" 
d="M259.5 752.5q-9.5 5.5 -18.5 22.5l-66 122q-6 11 -6 18q0 10 9 15.5t24 5.5h96q23 0 31 -5.5t14 -23.5l46 -126q3 -7 3 -13q0 -21 -29 -21h-70q-24 0 -33.5 5.5zM61.5 10.5q-10.5 10.5 -10.5 32.5v593q0 22 10.5 33t34.5 11h415q24 0 33 -9.5t9 -32.5v-37q0 -23 -9 -33
t-33 -10h-295v-158h206q24 0 33 -9.5t9 -32.5v-35q0 -23 -9 -33t-33 -10h-206v-159h294q24 0 33 -10t9 -33v-36q0 -23 -9 -32.5t-33 -9.5h-414q-24 0 -34.5 10.5z" />
    <glyph glyph-name="Eacute" unicode="&#xc9;" horiz-adv-x="574" 
d="M213 767q0 7 3 14l45 126q6 17 14.5 23t30.5 6h97q15 0 23.5 -5t8.5 -15q0 -8 -6 -19l-65 -122q-9 -17 -19 -22.5t-34 -5.5h-70q-28 0 -28 20zM61.5 10.5q-10.5 10.5 -10.5 32.5v593q0 22 10.5 33t34.5 11h415q24 0 33 -9.5t9 -32.5v-37q0 -23 -9 -33t-33 -10h-295v-158
h206q24 0 33 -9.5t9 -32.5v-35q0 -23 -9 -33t-33 -10h-206v-159h294q24 0 33 -10t9 -33v-36q0 -23 -9 -32.5t-33 -9.5h-414q-24 0 -34.5 10.5z" />
    <glyph glyph-name="Ecircumflex" unicode="&#xca;" horiz-adv-x="574" 
d="M112 751q-7 5 -7 13q0 10 9 22l100 133q13 15 19.5 19.5t26.5 4.5h79q20 0 27.5 -4.5t18.5 -19.5l100 -133q9 -13 9 -22q0 -8 -6.5 -13t-19.5 -5h-61q-21 0 -30 5t-18 19l-59 88l-59 -88q-9 -14 -18 -19t-30 -5h-61q-13 0 -20 5zM61.5 10.5q-10.5 10.5 -10.5 32.5v593
q0 22 10.5 33t34.5 11h415q24 0 33 -9.5t9 -32.5v-37q0 -23 -9 -33t-33 -10h-295v-158h206q24 0 33 -9.5t9 -32.5v-35q0 -23 -9 -33t-33 -10h-206v-159h294q24 0 33 -10t9 -33v-36q0 -23 -9 -32.5t-33 -9.5h-414q-24 0 -34.5 10.5z" />
    <glyph glyph-name="Edieresis" unicode="&#xcb;" horiz-adv-x="574" 
d="M146 760.5q-15 16.5 -15 40.5v22q0 24 15 40.5t39 16.5h23q24 0 39 -16.5t15 -40.5v-22q0 -24 -15 -40.5t-39 -16.5h-23q-24 0 -39 16.5zM351.5 760.5q-15.5 16.5 -15.5 40.5v22q0 24 15.5 40.5t38.5 16.5h24q24 0 39 -16.5t15 -40.5v-22q0 -24 -15 -40.5t-39 -16.5h-24
q-23 0 -38.5 16.5zM61.5 10.5q-10.5 10.5 -10.5 32.5v593q0 22 10.5 33t34.5 11h415q24 0 33 -9.5t9 -32.5v-37q0 -23 -9 -33t-33 -10h-295v-158h206q24 0 33 -9.5t9 -32.5v-35q0 -23 -9 -33t-33 -10h-206v-159h294q24 0 33 -10t9 -33v-36q0 -23 -9 -32.5t-33 -9.5h-414
q-24 0 -34.5 10.5z" />
    <glyph glyph-name="Igrave" unicode="&#xcc;" horiz-adv-x="267" 
d="M70.5 752.5q-9.5 5.5 -18.5 22.5l-66 122q-6 11 -6 18q0 10 9 15.5t24 5.5h96q23 0 31 -5.5t14 -23.5l46 -126q3 -7 3 -13q0 -21 -29 -21h-70q-24 0 -33.5 5.5zM61.5 10.5q-10.5 10.5 -10.5 32.5v593q0 22 10.5 33t34.5 11h75q25 0 35 -10.5t10 -33.5v-593
q0 -22 -10 -32.5t-35 -10.5h-75q-24 0 -34.5 10.5z" />
    <glyph glyph-name="Iacute" unicode="&#xcd;" horiz-adv-x="290" 
d="M70 767q0 7 3 14l45 126q6 17 14.5 23t30.5 6h97q15 0 23.5 -5t8.5 -15q0 -8 -6 -19l-65 -122q-9 -17 -19 -22.5t-34 -5.5h-70q-28 0 -28 20zM73.5 10.5q-10.5 10.5 -10.5 32.5v593q0 22 10.5 33t34.5 11h75q25 0 35 -10.5t10 -33.5v-593q0 -22 -10 -32.5t-35 -10.5h-75
q-24 0 -34.5 10.5z" />
    <glyph glyph-name="Icircumflex" unicode="&#xce;" horiz-adv-x="289" 
d="M-43 758q-7 5 -7 13q0 10 9 22l100 133q13 15 19.5 19.5t26.5 4.5h79q20 0 27.5 -4.5t18.5 -19.5l100 -133q9 -13 9 -22q0 -8 -6.5 -13t-19.5 -5h-61q-21 0 -30 5t-18 19l-59 88l-59 -88q-9 -14 -18 -19t-30 -5h-61q-13 0 -20 5zM73.5 10.5q-10.5 10.5 -10.5 32.5v593
q0 22 10.5 33t34.5 11h75q25 0 35 -10.5t10 -33.5v-593q0 -22 -10 -32.5t-35 -10.5h-75q-24 0 -34.5 10.5z" />
    <glyph glyph-name="Idieresis" unicode="&#xcf;" horiz-adv-x="277" 
d="M-15 720.5q-15 16.5 -15 40.5v22q0 24 15 40.5t39 16.5h23q24 0 39 -16.5t15 -40.5v-22q0 -24 -15 -40.5t-39 -16.5h-23q-24 0 -39 16.5zM190.5 720.5q-15.5 16.5 -15.5 40.5v22q0 24 15.5 40.5t38.5 16.5h24q24 0 39 -16.5t15 -40.5v-22q0 -24 -15 -40.5t-39 -16.5h-24
q-23 0 -38.5 16.5zM62.5 10.5q-10.5 10.5 -10.5 32.5v593q0 22 10.5 33t34.5 11h75q25 0 35 -10.5t10 -33.5v-593q0 -22 -10 -32.5t-35 -10.5h-75q-24 0 -34.5 10.5z" />
    <glyph glyph-name="Eth" unicode="&#xd0;" horiz-adv-x="729" 
d="M104 10.5q-10 10.5 -10 32.5v237h-43q-23 0 -31.5 9t-8.5 32v38q0 23 8.5 32.5t31.5 9.5h43v235q0 23 10 33.5t35 10.5h210q170 0 259.5 -82t89.5 -258q0 -173 -90 -256.5t-259 -83.5h-210q-25 0 -35 10.5zM357 121q89 0 133 49.5t44 169.5t-44 169t-133 49h-98v-157h120
q23 0 31.5 -9.5t8.5 -32.5v-38q0 -23 -8.5 -32t-31.5 -9h-120v-159h98z" />
    <glyph glyph-name="Ntilde" unicode="&#xd1;" horiz-adv-x="699" 
d="M399 761q-21 7 -49 21q-24 11 -40.5 17t-33.5 6q-19 0 -30.5 -7t-27.5 -25q-9 -11 -20 -11q-15 0 -44 23q-25 19 -25 35q0 12 12 28q28 37 54 55t64 18q29 0 52 -7.5t52 -22.5q22 -11 37 -16t30 -5q19 0 31 7.5t28 27.5q9 12 22 12q16 0 43 -21t27 -37q0 -11 -12 -28
q-28 -41 -55.5 -59t-70.5 -18q-23 0 -44 7zM61.5 10.5q-10.5 10.5 -10.5 32.5v594q0 22 10.5 32.5t35.5 10.5h62q17 0 25.5 -4.5t18.5 -17.5l280 -395v373q0 22 10.5 33t34.5 11h75q25 0 35 -10.5t10 -33.5v-593q0 -22 -10 -32.5t-35 -10.5h-63q-16 0 -24.5 4.5t-18.5 17.5
l-281 394v-373q0 -22 -10 -32.5t-35 -10.5h-75q-24 0 -34.5 10.5z" />
    <glyph glyph-name="Ograve" unicode="&#xd2;" horiz-adv-x="759" 
d="M332.5 752.5q-9.5 5.5 -18.5 22.5l-66 122q-6 11 -6 18q0 10 9 15.5t24 5.5h96q23 0 31 -5.5t14 -23.5l46 -126q3 -7 3 -13q0 -21 -29 -21h-70q-24 0 -33.5 5.5zM120.5 78q-89.5 93 -89.5 262t89.5 262t259.5 93q169 0 258.5 -93t89.5 -262t-89.5 -262t-258.5 -93
q-170 0 -259.5 93zM517.5 163.5q46.5 59.5 46.5 176.5t-46.5 176.5t-137.5 59.5q-92 0 -138.5 -59.5t-46.5 -176.5t46.5 -176.5t138.5 -59.5q91 0 137.5 59.5z" />
    <glyph glyph-name="Oacute" unicode="&#xd3;" horiz-adv-x="759" 
d="M307 767q0 7 3 14l45 126q6 17 14.5 23t30.5 6h97q15 0 23.5 -5t8.5 -15q0 -8 -6 -19l-65 -122q-9 -17 -19 -22.5t-34 -5.5h-70q-28 0 -28 20zM120.5 78q-89.5 93 -89.5 262t89.5 262t259.5 93q169 0 258.5 -93t89.5 -262t-89.5 -262t-258.5 -93q-170 0 -259.5 93z
M517.5 163.5q46.5 59.5 46.5 176.5t-46.5 176.5t-137.5 59.5q-92 0 -138.5 -59.5t-46.5 -176.5t46.5 -176.5t138.5 -59.5q91 0 137.5 59.5z" />
    <glyph glyph-name="Ocircumflex" unicode="&#xd4;" horiz-adv-x="759" 
d="M192 751q-7 5 -7 13q0 10 9 22l100 133q13 15 19.5 19.5t26.5 4.5h79q20 0 27.5 -4.5t18.5 -19.5l100 -133q9 -13 9 -22q0 -8 -6.5 -13t-19.5 -5h-61q-21 0 -30 5t-18 19l-59 88l-59 -88q-9 -14 -18 -19t-30 -5h-61q-13 0 -20 5zM120.5 78q-89.5 93 -89.5 262t89.5 262
t259.5 93q169 0 258.5 -93t89.5 -262t-89.5 -262t-258.5 -93q-170 0 -259.5 93zM517.5 163.5q46.5 59.5 46.5 176.5t-46.5 176.5t-137.5 59.5q-92 0 -138.5 -59.5t-46.5 -176.5t46.5 -176.5t138.5 -59.5q91 0 137.5 59.5z" />
    <glyph glyph-name="Otilde" unicode="&#xd5;" horiz-adv-x="759" 
d="M433 761q-21 7 -49 21q-24 11 -40.5 17t-33.5 6q-19 0 -30.5 -7t-27.5 -25q-9 -11 -20 -11q-15 0 -44 23q-25 19 -25 35q0 12 12 28q28 37 54 55t64 18q29 0 52 -7.5t52 -22.5q22 -11 37 -16t30 -5q19 0 31 7.5t28 27.5q9 12 22 12q16 0 43 -21t27 -37q0 -11 -12 -28
q-28 -41 -55.5 -59t-70.5 -18q-23 0 -44 7zM120.5 78q-89.5 93 -89.5 262t89.5 262t259.5 93q169 0 258.5 -93t89.5 -262t-89.5 -262t-258.5 -93q-170 0 -259.5 93zM517.5 163.5q46.5 59.5 46.5 176.5t-46.5 176.5t-137.5 59.5q-92 0 -138.5 -59.5t-46.5 -176.5t46.5 -176.5
t138.5 -59.5q91 0 137.5 59.5z" />
    <glyph glyph-name="Odieresis" unicode="&#xd6;" horiz-adv-x="759" 
d="M226 747.5q-15 16.5 -15 40.5v22q0 24 15 40.5t39 16.5h23q24 0 39 -16.5t15 -40.5v-22q0 -24 -15 -40.5t-39 -16.5h-23q-24 0 -39 16.5zM431.5 747.5q-15.5 16.5 -15.5 40.5v22q0 24 15.5 40.5t38.5 16.5h24q24 0 39 -16.5t15 -40.5v-22q0 -24 -15 -40.5t-39 -16.5h-24
q-23 0 -38.5 16.5zM120.5 78q-89.5 93 -89.5 262t89.5 262t259.5 93q169 0 258.5 -93t89.5 -262t-89.5 -262t-258.5 -93q-170 0 -259.5 93zM517.5 163.5q46.5 59.5 46.5 176.5t-46.5 176.5t-137.5 59.5q-92 0 -138.5 -59.5t-46.5 -176.5t46.5 -176.5t138.5 -59.5
q91 0 137.5 59.5z" />
    <glyph glyph-name="multiply" unicode="&#xd7;" horiz-adv-x="396" 
d="M121 133q-14 0 -28 16l-27 26q-16 16 -16 28t15 27l71 71l-71 71q-15 15 -15 28q0 12 15 27l27 27q16 16 28 16t27 -15l71 -72l72 72q15 15 26 15q14 0 28 -16l27 -27q16 -14 16 -28q0 -12 -15 -27l-71 -71l71 -71q15 -15 15 -27q0 -14 -16 -28l-27 -26q-15 -15 -27 -15
q-13 0 -27 14l-72 71l-71 -71q-15 -15 -26 -15z" />
    <glyph glyph-name="Oslash" unicode="&#xd8;" horiz-adv-x="759" 
d="M689.5 529q38.5 -79 38.5 -189q0 -169 -89.5 -262t-258.5 -93q-34 0 -71 5l-23 -56q-8 -20 -29 -20h-99q-17 0 -17 15q0 4 4 16l35 87q-73 42 -111 120.5t-38 187.5q0 169 89.5 262t259.5 93q39 0 68 -4l16 40q8 20 30 20h98q17 0 17 -14q0 -9 -4 -17l-29 -70
q75 -42 113.5 -121zM237 170l164 405q-7 1 -21 1q-92 0 -138.5 -59.5t-46.5 -176.5q0 -110 42 -170zM517.5 163.5q46.5 59.5 46.5 176.5q0 112 -43 172l-166 -407q8 -1 25 -1q91 0 137.5 59.5z" />
    <glyph glyph-name="Ugrave" unicode="&#xd9;" horiz-adv-x="716" 
d="M318.5 752.5q-9.5 5.5 -18.5 22.5l-66 122q-6 11 -6 18q0 10 9 15.5t24 5.5h96q23 0 31 -5.5t14 -23.5l46 -126q3 -7 3 -13q0 -21 -29 -21h-70q-24 0 -33.5 5.5zM195 16q-71 31 -110 89.5t-39 137.5v393q0 22 10.5 33t34.5 11h75q25 0 35 -10.5t10 -33.5v-396
q0 -65 39 -100.5t108 -35.5t107.5 35.5t38.5 100.5v396q0 22 10.5 33t34.5 11h75q25 0 35.5 -11t10.5 -33v-393q0 -79 -39.5 -137.5t-110 -89.5t-162.5 -31t-163 31z" />
    <glyph glyph-name="Uacute" unicode="&#xda;" horiz-adv-x="716" 
d="M289 767q0 7 3 14l45 126q6 17 14.5 23t30.5 6h97q15 0 23.5 -5t8.5 -15q0 -8 -6 -19l-65 -122q-9 -17 -19 -22.5t-34 -5.5h-70q-28 0 -28 20zM195 16q-71 31 -110 89.5t-39 137.5v393q0 22 10.5 33t34.5 11h75q25 0 35 -10.5t10 -33.5v-396q0 -65 39 -100.5t108 -35.5
t107.5 35.5t38.5 100.5v396q0 22 10.5 33t34.5 11h75q25 0 35.5 -11t10.5 -33v-393q0 -79 -39.5 -137.5t-110 -89.5t-162.5 -31t-163 31z" />
    <glyph glyph-name="Ucircumflex" unicode="&#xdb;" horiz-adv-x="716" 
d="M170 751q-7 5 -7 13q0 10 9 22l100 133q13 15 19.5 19.5t26.5 4.5h79q20 0 27.5 -4.5t18.5 -19.5l100 -133q9 -13 9 -22q0 -8 -6.5 -13t-19.5 -5h-61q-21 0 -30 5t-18 19l-59 88l-59 -88q-9 -14 -18 -19t-30 -5h-61q-13 0 -20 5zM195 16q-71 31 -110 89.5t-39 137.5v393
q0 22 10.5 33t34.5 11h75q25 0 35 -10.5t10 -33.5v-396q0 -65 39 -100.5t108 -35.5t107.5 35.5t38.5 100.5v396q0 22 10.5 33t34.5 11h75q25 0 35.5 -11t10.5 -33v-393q0 -79 -39.5 -137.5t-110 -89.5t-162.5 -31t-163 31z" />
    <glyph glyph-name="Udieresis" unicode="&#xdc;" horiz-adv-x="716" 
d="M205 747.5q-15 16.5 -15 40.5v22q0 24 15 40.5t39 16.5h23q24 0 39 -16.5t15 -40.5v-22q0 -24 -15 -40.5t-39 -16.5h-23q-24 0 -39 16.5zM410.5 747.5q-15.5 16.5 -15.5 40.5v22q0 24 15.5 40.5t38.5 16.5h24q24 0 39 -16.5t15 -40.5v-22q0 -24 -15 -40.5t-39 -16.5h-24
q-23 0 -38.5 16.5zM195 16q-71 31 -110 89.5t-39 137.5v393q0 22 10.5 33t34.5 11h75q25 0 35 -10.5t10 -33.5v-396q0 -65 39 -100.5t108 -35.5t107.5 35.5t38.5 100.5v396q0 22 10.5 33t34.5 11h75q25 0 35.5 -11t10.5 -33v-393q0 -79 -39.5 -137.5t-110 -89.5t-162.5 -31
t-163 31z" />
    <glyph glyph-name="Yacute" unicode="&#xdd;" horiz-adv-x="722" 
d="M297 767q0 7 3 14l45 126q6 17 14.5 23t30.5 6h97q15 0 23.5 -5t8.5 -15q0 -8 -6 -19l-65 -122q-9 -17 -19 -22.5t-34 -5.5h-70q-28 0 -28 20zM288.5 10.5q-10.5 10.5 -10.5 32.5v189l-242 415q-5 8 -5 16q0 7 5.5 12t14.5 5h120q14 0 20 -4.5t12 -15.5l158 -277l158 277
q6 11 12 15.5t19 4.5h121q9 0 14.5 -5t5.5 -12q0 -8 -5 -16l-242 -416v-188q0 -22 -10.5 -32.5t-35.5 -10.5h-75q-24 0 -34.5 10.5z" />
    <glyph glyph-name="Thorn" unicode="&#xde;" horiz-adv-x="634" 
d="M61.5 10.5q-10.5 10.5 -10.5 32.5v593q0 22 10.5 33t34.5 11h75q25 0 35 -10.5t10 -33.5v-66h130q257 0 257 -230q0 -229 -257 -229h-130v-68q0 -22 -10 -32.5t-35 -10.5h-75q-24 0 -34.5 10.5zM335 232q104 0 104 108t-104 108h-118v-216h118z" />
    <glyph glyph-name="germandbls" unicode="&#xdf;" horiz-adv-x="654" 
d="M249 26q-8 6 -8 15q0 5 3 11l40 68q6 9 12 9q2 0 10 -4q26 -18 68 -18q40 0 59 25.5t19 70.5q0 39 -15 59t-43.5 26.5t-75.5 6.5q-20 0 -29.5 7t-9.5 24v51q0 17 8 23.5t28 6.5q66 0 95.5 19t29.5 73q0 56 -26 79t-87 23q-116 0 -116 -112v-446q0 -22 -10.5 -32.5
t-35.5 -10.5h-72q-26 0 -36.5 10t-10.5 33v439q0 110 68.5 174t212.5 64q140 0 208.5 -56.5t68.5 -156.5q0 -54 -22.5 -95t-61.5 -57q53 -18 78 -61t25 -103q0 -97 -54.5 -151.5t-155.5 -54.5q-105 0 -164 41z" />
    <glyph glyph-name="agrave" unicode="&#xe0;" horiz-adv-x="617" 
d="M302.5 550.5q-9.5 5.5 -18.5 22.5l-66 122q-6 11 -6 18q0 10 9 15.5t24 5.5h96q23 0 31 -5.5t14 -23.5l46 -126q3 -7 3 -13q0 -21 -29 -21h-70q-24 0 -33.5 5.5zM88.5 45q-57.5 60 -57.5 169q0 84 39 147.5t109 98.5t162 35q71 0 125.5 -16t99.5 -46v-404q0 -17 -6.5 -23
t-25.5 -6h-79q-11 0 -16.5 4t-8.5 13l-11 35q-30 -35 -73 -51t-104 -16q-96 0 -153.5 60zM379.5 124q32.5 25 32.5 68v175q-30 15 -72 15q-66 0 -105.5 -43.5t-39.5 -121.5q0 -60 27 -89t81 -29q44 0 76.5 25z" />
    <glyph glyph-name="aacute" unicode="&#xe1;" horiz-adv-x="617" 
d="M253 565q0 7 3 14l45 126q6 17 14.5 23t30.5 6h97q15 0 23.5 -5t8.5 -15q0 -8 -6 -19l-65 -122q-9 -17 -19 -22.5t-34 -5.5h-70q-28 0 -28 20zM88.5 45q-57.5 60 -57.5 169q0 84 39 147.5t109 98.5t162 35q71 0 125.5 -16t99.5 -46v-404q0 -17 -6.5 -23t-25.5 -6h-79
q-11 0 -16.5 4t-8.5 13l-11 35q-30 -35 -73 -51t-104 -16q-96 0 -153.5 60zM379.5 124q32.5 25 32.5 68v175q-30 15 -72 15q-66 0 -105.5 -43.5t-39.5 -121.5q0 -60 27 -89t81 -29q44 0 76.5 25z" />
    <glyph glyph-name="acircumflex" unicode="&#xe2;" horiz-adv-x="617" 
d="M141 549q-7 5 -7 13q0 10 9 22l100 133q13 15 19.5 19.5t26.5 4.5h79q20 0 27.5 -4.5t18.5 -19.5l100 -133q9 -13 9 -22q0 -8 -6.5 -13t-19.5 -5h-61q-21 0 -30 5t-18 19l-59 88l-59 -88q-9 -14 -18 -19t-30 -5h-61q-13 0 -20 5zM88.5 45q-57.5 60 -57.5 169
q0 84 39 147.5t109 98.5t162 35q71 0 125.5 -16t99.5 -46v-404q0 -17 -6.5 -23t-25.5 -6h-79q-11 0 -16.5 4t-8.5 13l-11 35q-30 -35 -73 -51t-104 -16q-96 0 -153.5 60zM379.5 124q32.5 25 32.5 68v175q-30 15 -72 15q-66 0 -105.5 -43.5t-39.5 -121.5q0 -60 27 -89t81 -29
q44 0 76.5 25z" />
    <glyph glyph-name="atilde" unicode="&#xe3;" horiz-adv-x="626" 
d="M393 571q-21 7 -49 21q-24 11 -40.5 17t-33.5 6q-19 0 -30.5 -7t-27.5 -25q-9 -11 -20 -11q-15 0 -44 23q-25 19 -25 35q0 12 12 28q28 37 54 55t64 18q29 0 52 -7.5t52 -22.5q22 -11 37 -16t30 -5q19 0 31 7.5t28 27.5q9 12 22 12q16 0 43 -21t27 -37q0 -11 -12 -28
q-28 -41 -55.5 -59t-70.5 -18q-23 0 -44 7zM88.5 45q-57.5 60 -57.5 169q0 84 39 147.5t109 98.5t162 35q71 0 125.5 -16t99.5 -46v-404q0 -17 -6.5 -23t-25.5 -6h-79q-11 0 -16.5 4t-8.5 13l-11 35q-30 -35 -73 -51t-104 -16q-96 0 -153.5 60zM379.5 124q32.5 25 32.5 68
v175q-30 15 -72 15q-66 0 -105.5 -43.5t-39.5 -121.5q0 -60 27 -89t81 -29q44 0 76.5 25z" />
    <glyph glyph-name="adieresis" unicode="&#xe4;" horiz-adv-x="617" 
d="M187 557.5q-15 16.5 -15 40.5v22q0 24 15 40.5t39 16.5h23q24 0 39 -16.5t15 -40.5v-22q0 -24 -15 -40.5t-39 -16.5h-23q-24 0 -39 16.5zM392.5 557.5q-15.5 16.5 -15.5 40.5v22q0 24 15.5 40.5t38.5 16.5h24q24 0 39 -16.5t15 -40.5v-22q0 -24 -15 -40.5t-39 -16.5h-24
q-23 0 -38.5 16.5zM88.5 45q-57.5 60 -57.5 169q0 84 39 147.5t109 98.5t162 35q71 0 125.5 -16t99.5 -46v-404q0 -17 -6.5 -23t-25.5 -6h-79q-11 0 -16.5 4t-8.5 13l-11 35q-30 -35 -73 -51t-104 -16q-96 0 -153.5 60zM379.5 124q32.5 25 32.5 68v175q-30 15 -72 15
q-66 0 -105.5 -43.5t-39.5 -121.5q0 -60 27 -89t81 -29q44 0 76.5 25z" />
    <glyph glyph-name="aring" unicode="&#xe5;" horiz-adv-x="617" 
d="M255 579q-35 35 -35 85t35 85.5t85 35.5t85.5 -35.5t35.5 -85.5t-35.5 -85t-85.5 -35t-85 35zM372.5 631.5q13.5 13.5 13.5 32.5t-13.5 32.5t-32.5 13.5t-32.5 -13.5t-13.5 -32.5t13.5 -32.5t32.5 -13.5t32.5 13.5zM88.5 45q-57.5 60 -57.5 169q0 84 39 147.5t109 98.5
t162 35q71 0 125.5 -16t99.5 -46v-404q0 -17 -6.5 -23t-25.5 -6h-79q-11 0 -16.5 4t-8.5 13l-11 35q-30 -35 -73 -51t-104 -16q-96 0 -153.5 60zM379.5 124q32.5 25 32.5 68v175q-30 15 -72 15q-66 0 -105.5 -43.5t-39.5 -121.5q0 -60 27 -89t81 -29q44 0 76.5 25z" />
    <glyph glyph-name="ae" unicode="&#xe6;" horiz-adv-x="941" 
d="M86 23q-55 38 -55 115q0 155 204 155h142v15q0 40 -27 61.5t-96 21.5q-67 0 -124 -27q-8 -4 -14 -4q-9 0 -15 12l-27 52q-4 7 -4 13q0 8 11 15q72 43 187 43q140 0 192 -86q27 42 76 64t113 22q129 0 195 -65t66 -185q0 -42 -37 -42h-335q0 -53 39 -83t109 -30
q42 0 72.5 8.5t58.5 24.5q10 5 14 5q7 0 13 -11l29 -54q4 -7 4 -13q0 -8 -11 -15q-41 -26 -87.5 -38t-109.5 -12q-71 0 -125.5 24.5t-83.5 72.5q-36 -48 -94 -72.5t-131 -24.5q-94 0 -149 38zM764 289q0 106 -113 106t-113 -106h226zM345.5 114.5q31.5 24.5 31.5 72.5v20
h-126q-81 0 -81 -61q0 -56 83 -56q61 0 92.5 24.5z" />
    <glyph glyph-name="ccedilla" unicode="&#xe7;" horiz-adv-x="563" 
d="M532 54q0 -8 -12 -16q-67 -43 -152 -51q3 -5 -1 -12l-23 -50q69 -9 69 -74q0 -38 -31 -61.5t-90 -23.5q-25 0 -51 5t-40 12q-9 5 -11 8t1 10l17 44q3 7 8 7q4 0 10 -3q22 -10 45 -10q19 0 27.5 6t8.5 19q0 17 -13 23t-43 6h-16q-8 0 -10.5 4.5t0.5 11.5l27 68q3 8 8 11
q-110 14 -169.5 78t-59.5 173q0 76 34.5 134t99.5 90t153 32q65 0 111 -13t84 -39q10 -7 10 -16q0 -8 -6 -17l-34 -59q-7 -12 -14 -12q-5 0 -17 7q-29 18 -56 27t-65 9q-63 0 -99.5 -38.5t-36.5 -104.5q0 -70 36.5 -105t105.5 -35q38 0 66.5 9.5t55.5 26.5q12 7 17 7
q7 0 14 -12l37 -63q5 -8 5 -13z" />
    <glyph glyph-name="egrave" unicode="&#xe8;" horiz-adv-x="596" 
d="M262.5 550.5q-9.5 5.5 -18.5 22.5l-66 122q-6 11 -6 18q0 10 9 15.5t24 5.5h96q23 0 31 -5.5t14 -23.5l46 -126q3 -7 3 -13q0 -21 -29 -21h-70q-24 0 -33.5 5.5zM170.5 12.5q-64.5 27.5 -102 83t-37.5 137.5q0 128 70.5 195t201.5 67q129 0 195.5 -65t66.5 -185
q0 -42 -38 -42h-340q0 -54 40.5 -83.5t111.5 -29.5q42 0 73 8.5t60 24.5q10 5 14 5q7 0 13 -11l29 -54q4 -7 4 -12q0 -8 -11 -16q-40 -26 -90 -38t-115 -12q-81 0 -145.5 27.5zM417 289q0 50 -28 78t-85 28t-87 -28.5t-30 -77.5h230z" />
    <glyph glyph-name="eacute" unicode="&#xe9;" horiz-adv-x="596" 
d="M234 565q0 7 3 14l45 126q6 17 14.5 23t30.5 6h97q15 0 23.5 -5t8.5 -15q0 -8 -6 -19l-65 -122q-9 -17 -19 -22.5t-34 -5.5h-70q-28 0 -28 20zM170.5 12.5q-64.5 27.5 -102 83t-37.5 137.5q0 128 70.5 195t201.5 67q129 0 195.5 -65t66.5 -185q0 -42 -38 -42h-340
q0 -54 40.5 -83.5t111.5 -29.5q42 0 73 8.5t60 24.5q10 5 14 5q7 0 13 -11l29 -54q4 -7 4 -12q0 -8 -11 -16q-40 -26 -90 -38t-115 -12q-81 0 -145.5 27.5zM417 289q0 50 -28 78t-85 28t-87 -28.5t-30 -77.5h230z" />
    <glyph glyph-name="ecircumflex" unicode="&#xea;" horiz-adv-x="596" 
d="M127 549q-7 5 -7 13q0 10 9 22l100 133q13 15 19.5 19.5t26.5 4.5h79q20 0 27.5 -4.5t18.5 -19.5l100 -133q9 -13 9 -22q0 -8 -6.5 -13t-19.5 -5h-61q-21 0 -30 5t-18 19l-59 88l-59 -88q-9 -14 -18 -19t-30 -5h-61q-13 0 -20 5zM170.5 12.5q-64.5 27.5 -102 83
t-37.5 137.5q0 128 70.5 195t201.5 67q129 0 195.5 -65t66.5 -185q0 -42 -38 -42h-340q0 -54 40.5 -83.5t111.5 -29.5q42 0 73 8.5t60 24.5q10 5 14 5q7 0 13 -11l29 -54q4 -7 4 -12q0 -8 -11 -16q-40 -26 -90 -38t-115 -12q-81 0 -145.5 27.5zM417 289q0 50 -28 78t-85 28
t-87 -28.5t-30 -77.5h230z" />
    <glyph glyph-name="edieresis" unicode="&#xeb;" horiz-adv-x="596" 
d="M162 539.5q-15 16.5 -15 40.5v22q0 24 15 40.5t39 16.5h23q24 0 39 -16.5t15 -40.5v-22q0 -24 -15 -40.5t-39 -16.5h-23q-24 0 -39 16.5zM367.5 539.5q-15.5 16.5 -15.5 40.5v22q0 24 15.5 40.5t38.5 16.5h24q24 0 39 -16.5t15 -40.5v-22q0 -24 -15 -40.5t-39 -16.5h-24
q-23 0 -38.5 16.5zM170.5 12.5q-64.5 27.5 -102 83t-37.5 137.5q0 128 70.5 195t201.5 67q129 0 195.5 -65t66.5 -185q0 -42 -38 -42h-340q0 -54 40.5 -83.5t111.5 -29.5q42 0 73 8.5t60 24.5q10 5 14 5q7 0 13 -11l29 -54q4 -7 4 -12q0 -8 -11 -16q-40 -26 -90 -38
t-115 -12q-81 0 -145.5 27.5zM417 289q0 50 -28 78t-85 28t-87 -28.5t-30 -77.5h230z" />
    <glyph glyph-name="igrave" unicode="&#xec;" horiz-adv-x="285" 
d="M85.5 550.5q-9.5 5.5 -18.5 22.5l-66 122q-6 11 -6 18q0 10 9 15.5t24 5.5h96q23 0 31 -5.5t14 -23.5l46 -126q3 -7 3 -13q0 -21 -29 -21h-70q-24 0 -33.5 5.5zM70.5 10.5q-10.5 10.5 -10.5 32.5v393q0 22 10.5 33t34.5 11h75q25 0 35 -10.5t10 -33.5v-393
q0 -22 -10 -32.5t-35 -10.5h-75q-24 0 -34.5 10.5z" />
    <glyph glyph-name="iacute" unicode="&#xed;" horiz-adv-x="275" 
d="M58 565q0 7 3 14l45 126q6 17 14.5 23t30.5 6h97q15 0 23.5 -5t8.5 -15q0 -8 -6 -19l-65 -122q-9 -17 -19 -22.5t-34 -5.5h-70q-28 0 -28 20zM65.5 10.5q-10.5 10.5 -10.5 32.5v393q0 22 10.5 33t34.5 11h75q25 0 35 -10.5t10 -33.5v-393q0 -22 -10 -32.5t-35 -10.5h-75
q-24 0 -34.5 10.5z" />
    <glyph glyph-name="icircumflex" unicode="&#xee;" horiz-adv-x="285" 
d="M-46 537q-7 5 -7 13q0 10 9 22l100 133q13 15 19.5 19.5t26.5 4.5h79q20 0 27.5 -4.5t18.5 -19.5l100 -133q9 -13 9 -22q0 -8 -6.5 -13t-19.5 -5h-61q-21 0 -30 5t-18 19l-59 88l-59 -88q-9 -14 -18 -19t-30 -5h-61q-13 0 -20 5zM70.5 10.5q-10.5 10.5 -10.5 32.5v393
q0 22 10.5 33t34.5 11h75q25 0 35 -10.5t10 -33.5v-393q0 -22 -10 -32.5t-35 -10.5h-75q-24 0 -34.5 10.5z" />
    <glyph glyph-name="idieresis" unicode="&#xef;" horiz-adv-x="285" 
d="M-11 545.5q-15 16.5 -15 40.5v22q0 24 15 40.5t39 16.5h23q24 0 39 -16.5t15 -40.5v-22q0 -24 -15 -40.5t-39 -16.5h-23q-24 0 -39 16.5zM194.5 545.5q-15.5 16.5 -15.5 40.5v22q0 24 15.5 40.5t38.5 16.5h24q24 0 39 -16.5t15 -40.5v-22q0 -24 -15 -40.5t-39 -16.5h-24
q-23 0 -38.5 16.5zM70.5 10.5q-10.5 10.5 -10.5 32.5v393q0 22 10.5 33t34.5 11h75q25 0 35 -10.5t10 -33.5v-393q0 -22 -10 -32.5t-35 -10.5h-75q-24 0 -34.5 10.5z" />
    <glyph glyph-name="eth" unicode="&#xf0;" horiz-adv-x="673" 
d="M87 35.5q-56 50.5 -56 152.5q0 87 36.5 151.5t103.5 100t156 35.5q59 0 99 -16t71 -50q1 55 -7.5 88.5t-28.5 52.5l-31 -43q-7 -10 -17 -10h-89q-7 0 -9.5 4t0.5 9l49 68q-7 1 -20 1q-64 0 -129 -30q-12 -5 -17 -5q-8 0 -12 10l-23 60q-3 8 -3 13q0 12 14 20
q82 48 204 48q34 0 65 -6l12 17q7 10 18 10h89q7 0 9 -4t-1 -9l-36 -50q48 -31 75 -87t27 -137q0 -58 -15 -130q-35 -162 -130.5 -238t-223.5 -76q-124 0 -180 50.5zM393 145q41 41 54 118q2 9 2 25q0 43 -28 66.5t-73 23.5q-154 0 -154 -185q0 -44 25 -66.5t73 -22.5
q60 0 101 41z" />
    <glyph glyph-name="ntilde" unicode="&#xf1;" horiz-adv-x="601" 
d="M349 571q-21 7 -49 21q-24 11 -40.5 17t-33.5 6q-19 0 -30.5 -7t-27.5 -25q-9 -11 -20 -11q-15 0 -44 23q-25 19 -25 35q0 12 12 28q28 37 54 55t64 18q29 0 52 -8t52 -22q22 -11 37 -16t30 -5q19 0 31 7.5t28 27.5q9 12 22 12q16 0 43 -21t27 -37q0 -11 -12 -28
q-28 -41 -55.5 -59t-70.5 -18q-23 0 -44 7zM61.5 10.5q-10.5 10.5 -10.5 32.5v408q0 17 6 23t24 6h80q12 0 18 -4t7 -14l3 -35q31 32 78 50t107 18q82 0 131.5 -44.5t49.5 -132.5v-275q0 -22 -10.5 -32.5t-34.5 -10.5h-75q-25 0 -35.5 10.5t-10.5 32.5v265q0 39 -17 56
t-56 17q-42 0 -71 -22.5t-29 -58.5v-257q0 -22 -10 -32.5t-35 -10.5h-74q-25 0 -35.5 10.5z" />
    <glyph glyph-name="ograve" unicode="&#xf2;" horiz-adv-x="623" 
d="M258.5 550.5q-9.5 5.5 -18.5 22.5l-66 122q-6 11 -6 18q0 10 9 15.5t24 5.5h96q23 0 31 -5.5t14 -23.5l46 -126q3 -7 3 -13q0 -21 -29 -21h-70q-24 0 -33.5 5.5zM104.5 53.5q-73.5 68.5 -73.5 186.5t73.5 186.5t206.5 68.5q134 0 207.5 -68.5t73.5 -186.5t-73.5 -186.5
t-207.5 -68.5q-133 0 -206.5 68.5zM398 138q30 34 30 102q0 67 -30 101t-87 34q-56 0 -86 -34t-30 -101t30 -101.5t86 -34.5q57 0 87 34z" />
    <glyph glyph-name="oacute" unicode="&#xf3;" horiz-adv-x="623" 
d="M223 565q0 7 3 14l45 126q6 17 14.5 23t30.5 6h97q15 0 23.5 -5t8.5 -15q0 -8 -6 -19l-65 -122q-9 -17 -19 -22.5t-34 -5.5h-70q-28 0 -28 20zM104.5 53.5q-73.5 68.5 -73.5 186.5t73.5 186.5t206.5 68.5q134 0 207.5 -68.5t73.5 -186.5t-73.5 -186.5t-207.5 -68.5
q-133 0 -206.5 68.5zM398 138q30 34 30 102q0 67 -30 101t-87 34q-56 0 -86 -34t-30 -101t30 -101.5t86 -34.5q57 0 87 34z" />
    <glyph glyph-name="ocircumflex" unicode="&#xf4;" horiz-adv-x="623" 
d="M122 549q-7 5 -7 13q0 10 9 22l100 133q13 15 19.5 19.5t26.5 4.5h79q20 0 27.5 -4.5t18.5 -19.5l100 -133q9 -13 9 -22q0 -8 -6.5 -13t-19.5 -5h-61q-21 0 -30 5t-18 19l-59 88l-59 -88q-9 -14 -18 -19t-30 -5h-61q-13 0 -20 5zM104.5 53.5q-73.5 68.5 -73.5 186.5
t73.5 186.5t206.5 68.5q134 0 207.5 -68.5t73.5 -186.5t-73.5 -186.5t-207.5 -68.5q-133 0 -206.5 68.5zM398 138q30 34 30 102q0 67 -30 101t-87 34q-56 0 -86 -34t-30 -101t30 -101.5t86 -34.5q57 0 87 34z" />
    <glyph glyph-name="otilde" unicode="&#xf5;" horiz-adv-x="623" 
d="M364 565q-21 7 -49 21q-24 11 -40.5 17t-33.5 6q-19 0 -30.5 -7t-27.5 -25q-9 -11 -20 -11q-15 0 -44 23q-25 19 -25 35q0 12 12 28q28 37 54 55t64 18q29 0 52 -7.5t52 -22.5q22 -11 37 -16t30 -5q19 0 31 7.5t28 27.5q9 12 22 12q16 0 43 -21t27 -37q0 -11 -12 -28
q-28 -41 -55.5 -59t-70.5 -18q-23 0 -44 7zM104.5 53.5q-73.5 68.5 -73.5 186.5t73.5 186.5t206.5 68.5q134 0 207.5 -68.5t73.5 -186.5t-73.5 -186.5t-207.5 -68.5q-133 0 -206.5 68.5zM398 138q30 34 30 102q0 67 -30 101t-87 34q-56 0 -86 -34t-30 -101t30 -101.5
t86 -34.5q57 0 87 34z" />
    <glyph glyph-name="odieresis" unicode="&#xf6;" horiz-adv-x="623" 
d="M157 557.5q-15 16.5 -15 40.5v22q0 24 15 40.5t39 16.5h23q24 0 39 -16.5t15 -40.5v-22q0 -24 -15 -40.5t-39 -16.5h-23q-24 0 -39 16.5zM362.5 557.5q-15.5 16.5 -15.5 40.5v22q0 24 15.5 40.5t38.5 16.5h24q24 0 39 -16.5t15 -40.5v-22q0 -24 -15 -40.5t-39 -16.5h-24
q-23 0 -38.5 16.5zM104.5 53.5q-73.5 68.5 -73.5 186.5t73.5 186.5t206.5 68.5q134 0 207.5 -68.5t73.5 -186.5t-73.5 -186.5t-207.5 -68.5q-133 0 -206.5 68.5zM398 138q30 34 30 102q0 67 -30 101t-87 34q-56 0 -86 -34t-30 -101t30 -101.5t86 -34.5q57 0 87 34z" />
    <glyph glyph-name="divide" unicode="&#xf7;" horiz-adv-x="470" 
d="M186.5 412.5q-13.5 14.5 -13.5 35.5v21q0 21 13.5 35.5t34.5 14.5h21q21 0 34.5 -14.5t13.5 -35.5v-21q0 -21 -13.5 -35.5t-34.5 -14.5h-21q-21 0 -34.5 14.5zM39 249.5q-8 9.5 -8 29.5v44q0 20 8 29.5t30 9.5h332q21 0 29.5 -9.5t8.5 -29.5v-44q0 -20 -8.5 -29.5
t-29.5 -9.5h-332q-22 0 -30 9.5zM186.5 97.5q-13.5 14.5 -13.5 35.5v21q0 21 13.5 35.5t34.5 14.5h21q21 0 34.5 -14.5t13.5 -35.5v-21q0 -21 -13.5 -35.5t-34.5 -14.5h-21q-21 0 -34.5 14.5z" />
    <glyph glyph-name="oslash" unicode="&#xf8;" horiz-adv-x="623" 
d="M561 372q31 -57 31 -132q0 -118 -73.5 -186.5t-207.5 -68.5q-23 0 -34 1l-21 -52q-8 -20 -29 -20h-99q-17 0 -17 15q0 4 4 16l32 78q-57 31 -86.5 87t-29.5 130q0 118 73.5 186.5t206.5 68.5q19 0 29 -1l24 59q8 20 30 20h98q17 0 17 -14q0 -9 -4 -17l-34 -82
q59 -31 90 -88zM207 169l84 205q-96 -12 -96 -134q0 -42 12 -71zM402 143q26 34 26 97q0 47 -15 78l-87 -213q50 4 76 38z" />
    <glyph glyph-name="ugrave" unicode="&#xf9;" horiz-adv-x="597" 
d="M261.5 550.5q-9.5 5.5 -18.5 22.5l-66 122q-6 11 -6 18q0 10 9 15.5t24 5.5h96q23 0 31 -5.5t14 -23.5l46 -126q3 -7 3 -13q0 -21 -29 -21h-70q-24 0 -33.5 5.5zM95.5 31q-49.5 46 -49.5 137v268q0 22 10.5 33t34.5 11h75q25 0 35 -10.5t10 -33.5v-262q0 -39 19.5 -57
t57.5 -18q41 0 66.5 22t25.5 60v255q0 22 10.5 33t35.5 11h74q25 0 35.5 -11t10.5 -33v-407q0 -17 -6 -23t-24 -6h-80q-23 0 -24 17l-4 37q-66 -69 -181 -69q-82 0 -131.5 46z" />
    <glyph glyph-name="uacute" unicode="&#xfa;" horiz-adv-x="597" 
d="M216 565q0 7 3 14l45 126q6 17 14.5 23t30.5 6h97q15 0 23.5 -5t8.5 -15q0 -8 -6 -19l-65 -122q-9 -17 -19 -22.5t-34 -5.5h-70q-28 0 -28 20zM95.5 31q-49.5 46 -49.5 137v268q0 22 10.5 33t34.5 11h75q25 0 35 -10.5t10 -33.5v-262q0 -39 19.5 -57t57.5 -18
q41 0 66.5 22t25.5 60v255q0 22 10.5 33t35.5 11h74q25 0 35.5 -11t10.5 -33v-407q0 -17 -6 -23t-24 -6h-80q-23 0 -24 17l-4 37q-66 -69 -181 -69q-82 0 -131.5 46z" />
    <glyph glyph-name="ucircumflex" unicode="&#xfb;" horiz-adv-x="597" 
d="M107 549q-7 5 -7 13q0 10 9 22l100 133q13 15 19.5 19.5t26.5 4.5h79q20 0 27.5 -4.5t18.5 -19.5l100 -133q9 -13 9 -22q0 -8 -6.5 -13t-19.5 -5h-61q-21 0 -30 5t-18 19l-59 88l-59 -88q-9 -14 -18 -19t-30 -5h-61q-13 0 -20 5zM95.5 31q-49.5 46 -49.5 137v268
q0 22 10.5 33t34.5 11h75q25 0 35 -10.5t10 -33.5v-262q0 -39 19.5 -57t57.5 -18q41 0 66.5 22t25.5 60v255q0 22 10.5 33t35.5 11h74q25 0 35.5 -11t10.5 -33v-407q0 -17 -6 -23t-24 -6h-80q-23 0 -24 17l-4 37q-66 -69 -181 -69q-82 0 -131.5 46z" />
    <glyph glyph-name="udieresis" unicode="&#xfc;" horiz-adv-x="597" 
d="M146 562.5q-15 16.5 -15 40.5v22q0 24 15 40.5t39 16.5h23q24 0 39 -16.5t15 -40.5v-22q0 -24 -15 -40.5t-39 -16.5h-23q-24 0 -39 16.5zM351.5 562.5q-15.5 16.5 -15.5 40.5v22q0 24 15.5 40.5t38.5 16.5h24q24 0 39 -16.5t15 -40.5v-22q0 -24 -15 -40.5t-39 -16.5h-24
q-23 0 -38.5 16.5zM95.5 31q-49.5 46 -49.5 137v268q0 22 10.5 33t34.5 11h75q25 0 35 -10.5t10 -33.5v-262q0 -39 19.5 -57t57.5 -18q41 0 66.5 22t25.5 60v255q0 22 10.5 33t35.5 11h74q25 0 35.5 -11t10.5 -33v-407q0 -17 -6 -23t-24 -6h-80q-23 0 -24 17l-4 37
q-66 -69 -181 -69q-82 0 -131.5 46z" />
    <glyph glyph-name="yacute" unicode="&#xfd;" horiz-adv-x="601" 
d="M232 577q0 7 3 14l45 126q6 17 14.5 23t30.5 6h97q15 0 23.5 -5t8.5 -15q0 -8 -6 -19l-65 -122q-9 -17 -19 -22.5t-34 -5.5h-70q-28 0 -28 20zM44 -111q-9 7 -9 15q0 5 5 15l34 59q6 11 14 11q7 0 16 -6q16 -11 31 -16.5t35 -5.5q26 0 40.5 15.5t27.5 50.5l-198 420
q-4 8 -4 16q0 17 18 17h116q14 0 21 -5t12 -17l110 -271l110 271q5 12 12 17t21 5h116q18 0 18 -17q0 -8 -4 -16l-187 -398q-37 -78 -65.5 -120.5t-65 -63.5t-89.5 -21q-82 0 -135 45z" />
    <glyph glyph-name="thorn" unicode="&#xfe;" horiz-adv-x="620" 
d="M61.5 -191.5q-10.5 10.5 -10.5 32.5v810q0 22 10.5 33t34.5 11h72q25 0 35 -10.5t10 -33.5v-171q19 7 45 11t50 4q135 0 208 -64.5t73 -191.5q0 -117 -63.5 -185.5t-177.5 -68.5q-42 0 -77 10t-58 30v-184q0 -22 -10 -32.5t-35 -10.5h-72q-24 0 -34.5 10.5zM397 136
q28 38 28 106q0 75 -33.5 107t-102.5 32q-48 0 -76 -14v-178q0 -43 27.5 -67t71.5 -24q57 0 85 38z" />
    <glyph glyph-name="ydieresis" unicode="&#xff;" horiz-adv-x="601" 
d="M157 557.5q-15 16.5 -15 40.5v22q0 24 15 40.5t39 16.5h23q24 0 39 -16.5t15 -40.5v-22q0 -24 -15 -40.5t-39 -16.5h-23q-24 0 -39 16.5zM362.5 557.5q-15.5 16.5 -15.5 40.5v22q0 24 15.5 40.5t38.5 16.5h24q24 0 39 -16.5t15 -40.5v-22q0 -24 -15 -40.5t-39 -16.5h-24
q-23 0 -38.5 16.5zM44 -111q-9 7 -9 15q0 5 5 15l34 59q6 11 14 11q7 0 16 -6q16 -11 31 -16.5t35 -5.5q26 0 40.5 15.5t27.5 50.5l-198 420q-4 8 -4 16q0 17 18 17h116q14 0 21 -5t12 -17l110 -271l110 271q5 12 12 17t21 5h116q18 0 18 -17q0 -8 -4 -16l-187 -398
q-37 -78 -65.5 -120.5t-65 -63.5t-89.5 -21q-82 0 -135 45z" />
    <glyph glyph-name="Amacron" unicode="&#x100;" horiz-adv-x="740" 
d="M202 775q-9 10 -9 33v36q0 23 9 33t33 10h271q24 0 33 -10t9 -33v-36q0 -23 -9 -33t-33 -10h-271q-24 0 -33 10zM32 17q0 7 3 16l259 617q7 17 15.5 23.5t24.5 6.5h73q16 0 24 -6.5t15 -23.5l259 -617q3 -9 3 -16q0 -17 -18 -17h-121q-14 0 -20.5 4.5t-11.5 16.5l-46 118
h-243l-45 -118q-5 -12 -11.5 -16.5t-20.5 -4.5h-121q-18 0 -18 17zM453 254l-83 216l-84 -216h167z" />
    <glyph glyph-name="amacron" unicode="&#x101;" horiz-adv-x="617" 
d="M170 573q-9 10 -9 33v36q0 23 9 33t33 10h271q24 0 33 -10t9 -33v-36q0 -23 -9 -33t-33 -10h-271q-24 0 -33 10zM88.5 45q-57.5 60 -57.5 169q0 84 39 147.5t109 98.5t162 35q71 0 125.5 -16t99.5 -46v-404q0 -17 -6.5 -23t-25.5 -6h-79q-11 0 -16.5 4t-8.5 13l-11 35
q-30 -35 -73 -51t-104 -16q-96 0 -153.5 60zM379.5 124q32.5 25 32.5 68v175q-30 15 -72 15q-66 0 -105.5 -43.5t-39.5 -121.5q0 -60 27 -89t81 -29q44 0 76.5 25z" />
    <glyph glyph-name="Abreve" unicode="&#x102;" horiz-adv-x="740" 
d="M238 796.5q-45 46.5 -45 121.5q0 8 4.5 13t11.5 5h87q10 0 13.5 -4.5t3.5 -14.5q0 -62 57 -62t57 62q0 10 3.5 14.5t13.5 4.5h87q7 0 11.5 -5t4.5 -13q0 -75 -45.5 -121.5t-131.5 -46.5q-87 0 -132 46.5zM32 17q0 7 3 16l259 617q7 17 15.5 23.5t24.5 6.5h73
q16 0 24 -6.5t15 -23.5l259 -617q3 -9 3 -16q0 -17 -18 -17h-121q-14 0 -20.5 4.5t-11.5 16.5l-46 118h-243l-45 -118q-5 -12 -11.5 -16.5t-20.5 -4.5h-121q-18 0 -18 17zM453 254l-83 216l-84 -216h167z" />
    <glyph glyph-name="abreve" unicode="&#x103;" horiz-adv-x="617" 
d="M207 600.5q-45 46.5 -45 121.5q0 8 4.5 13t11.5 5h87q10 0 13.5 -4.5t3.5 -14.5q0 -62 57 -62t57 62q0 10 3.5 14.5t13.5 4.5h87q7 0 11.5 -5t4.5 -13q0 -75 -45.5 -121.5t-131.5 -46.5q-87 0 -132 46.5zM88.5 45q-57.5 60 -57.5 169q0 84 39 147.5t109 98.5t162 35
q71 0 125.5 -16t99.5 -46v-404q0 -17 -6.5 -23t-25.5 -6h-79q-11 0 -16.5 4t-8.5 13l-11 35q-30 -35 -73 -51t-104 -16q-96 0 -153.5 60zM379.5 124q32.5 25 32.5 68v175q-30 15 -72 15q-66 0 -105.5 -43.5t-39.5 -121.5q0 -60 27 -89t81 -29q44 0 76.5 25z" />
    <glyph glyph-name="Aogonek" unicode="&#x104;" horiz-adv-x="740" 
d="M708 17q0 -17 -18 -17h-36q4 -5 -2 -11q-36 -42 -48 -63t-12 -42q0 -27 24 -27q14 0 22 4q4 2 6 2q5 0 8 -7l18 -39q2 -4 2 -6q0 -6 -12 -11q-28 -14 -88 -14q-46 0 -70 23.5t-24 59.5q0 28 14.5 57t46.5 66q10 10 13 11q-9 4 -15 18l-46 118h-243l-45 -118
q-5 -12 -11.5 -16.5t-20.5 -4.5h-121q-18 0 -18 17q0 7 3 16l259 617q7 17 15.5 23.5t24.5 6.5h73q16 0 24 -6.5t15 -23.5l259 -617q3 -9 3 -16zM453 254l-83 216l-84 -216h167z" />
    <glyph glyph-name="aogonek" unicode="&#x105;" horiz-adv-x="617" 
d="M567 -185q0 -6 -12 -11q-28 -14 -88 -14q-46 0 -70 23.5t-24 59.5q0 28 14.5 57t46.5 66l6 7q-7 3 -10 14l-11 35q-30 -35 -73 -51t-104 -16q-96 0 -153.5 60t-57.5 169q0 84 39 147.5t109 98.5t162 35q71 0 125.5 -16t99.5 -46v-404q0 -12 -3.5 -18.5t-12.5 -8.5
q2 -5 -3 -9q-36 -42 -48 -63t-12 -42q0 -27 24 -27q14 0 22 4q4 2 6 2q5 0 8 -7l18 -39q2 -4 2 -6zM412 367q-30 15 -72 15q-66 0 -105.5 -43.5t-39.5 -121.5q0 -60 27 -89t81 -29q44 0 76.5 25t32.5 68v175z" />
    <glyph glyph-name="Cacute" unicode="&#x106;" horiz-adv-x="678" 
d="M302 767q0 7 3 14l45 126q6 17 14.5 23t30.5 6h97q15 0 23.5 -5t8.5 -15q0 -8 -6 -19l-65 -122q-9 -17 -19 -22.5t-34 -5.5h-70q-28 0 -28 20zM126.5 76.5q-95.5 91.5 -95.5 263.5q0 173 93.5 264t267.5 91q73 0 132.5 -14.5t100.5 -41.5q10 -7 10 -16q0 -8 -6 -17
l-35 -61q-7 -11 -14 -11q-6 0 -17 6q-64 36 -151 36q-103 0 -160 -59.5t-57 -176.5q0 -118 59.5 -177t162.5 -59q94 0 158 36q11 6 17 6q7 0 14 -11l39 -67q4 -7 4 -12q0 -6 -12 -15q-78 -56 -241 -56q-174 0 -269.5 91.5z" />
    <glyph glyph-name="cacute" unicode="&#x107;" horiz-adv-x="563" 
d="M227 565q0 7 3 14l45 126q6 17 14.5 23t30.5 6h97q15 0 23.5 -5t8.5 -15q0 -8 -6 -19l-65 -122q-9 -17 -19 -22.5t-34 -5.5h-70q-28 0 -28 20zM106 50.5q-75 65.5 -75 188.5q0 76 34.5 134t99.5 90t153 32q65 0 111 -13t84 -39q10 -7 10 -16q0 -8 -6 -17l-34 -59
q-7 -12 -14 -12q-5 0 -17 7q-29 18 -56 27t-65 9q-63 0 -99.5 -38.5t-36.5 -104.5q0 -70 36.5 -105t105.5 -35q38 0 66.5 9.5t55.5 26.5q12 7 17 7q7 0 14 -12l37 -63q5 -8 5 -13q0 -8 -12 -16q-42 -27 -89.5 -40t-112.5 -13q-137 0 -212 65.5z" />
    <glyph glyph-name="Ccircumflex" unicode="&#x108;" horiz-adv-x="678" 
d="M190 739q-7 5 -7 13q0 10 9 22l100 133q13 15 19.5 19.5t26.5 4.5h79q20 0 27.5 -4.5t18.5 -19.5l100 -133q9 -13 9 -22q0 -8 -6.5 -13t-19.5 -5h-61q-21 0 -30 5t-18 19l-59 88l-59 -88q-9 -14 -18 -19t-30 -5h-61q-13 0 -20 5zM126.5 76.5q-95.5 91.5 -95.5 263.5
q0 173 93.5 264t267.5 91q73 0 132.5 -14.5t100.5 -41.5q10 -7 10 -16q0 -8 -6 -17l-35 -61q-7 -11 -14 -11q-6 0 -17 6q-64 36 -151 36q-103 0 -160 -59.5t-57 -176.5q0 -118 59.5 -177t162.5 -59q94 0 158 36q11 6 17 6q7 0 14 -11l39 -67q4 -7 4 -12q0 -6 -12 -15
q-78 -56 -241 -56q-174 0 -269.5 91.5z" />
    <glyph glyph-name="ccircumflex" unicode="&#x109;" horiz-adv-x="563" 
d="M122 549q-7 5 -7 13q0 10 9 22l100 133q13 15 19.5 19.5t26.5 4.5h79q20 0 27.5 -4.5t18.5 -19.5l100 -133q9 -13 9 -22q0 -8 -6.5 -13t-19.5 -5h-61q-21 0 -30 5t-18 19l-59 88l-59 -88q-9 -14 -18 -19t-30 -5h-61q-13 0 -20 5zM106 50.5q-75 65.5 -75 188.5
q0 76 34.5 134t99.5 90t153 32q65 0 111 -13t84 -39q10 -7 10 -16q0 -8 -6 -17l-34 -59q-7 -12 -14 -12q-5 0 -17 7q-29 18 -56 27t-65 9q-63 0 -99.5 -38.5t-36.5 -104.5q0 -70 36.5 -105t105.5 -35q38 0 66.5 9.5t55.5 26.5q12 7 17 7q7 0 14 -12l37 -63q5 -8 5 -13
q0 -8 -12 -16q-42 -27 -89.5 -40t-112.5 -13q-137 0 -212 65.5z" />
    <glyph glyph-name="Cdotaccent" unicode="&#x10a;" horiz-adv-x="678" 
d="M325 777.5q-15 16.5 -15 40.5v22q0 24 15 40.5t39 16.5h24q23 0 38.5 -16.5t15.5 -40.5v-22q0 -24 -15 -40.5t-39 -16.5h-24q-24 0 -39 16.5zM126.5 76.5q-95.5 91.5 -95.5 263.5q0 173 93.5 264t267.5 91q73 0 132.5 -14.5t100.5 -41.5q10 -7 10 -16q0 -8 -6 -17
l-35 -61q-7 -11 -14 -11q-6 0 -17 6q-64 36 -151 36q-103 0 -160 -59.5t-57 -176.5q0 -118 59.5 -177t162.5 -59q94 0 158 36q11 6 17 6q7 0 14 -11l39 -67q4 -7 4 -12q0 -6 -12 -15q-78 -56 -241 -56q-174 0 -269.5 91.5z" />
    <glyph glyph-name="cdotaccent" unicode="&#x10b;" horiz-adv-x="563" 
d="M258 575.5q-15 16.5 -15 40.5v22q0 24 15 40.5t39 16.5h24q23 0 38.5 -16.5t15.5 -40.5v-22q0 -24 -15 -40.5t-39 -16.5h-24q-24 0 -39 16.5zM106 50.5q-75 65.5 -75 188.5q0 76 34.5 134t99.5 90t153 32q65 0 111 -13t84 -39q10 -7 10 -16q0 -8 -6 -17l-34 -59
q-7 -12 -14 -12q-5 0 -17 7q-29 18 -56 27t-65 9q-63 0 -99.5 -38.5t-36.5 -104.5q0 -70 36.5 -105t105.5 -35q38 0 66.5 9.5t55.5 26.5q12 7 17 7q7 0 14 -12l37 -63q5 -8 5 -13q0 -8 -12 -16q-42 -27 -89.5 -40t-112.5 -13q-137 0 -212 65.5z" />
    <glyph glyph-name="Ccaron" unicode="&#x10c;" horiz-adv-x="678" 
d="M330 756.5q-7 4.5 -19 19.5l-100 133q-10 13 -10 23q0 16 24 16h65q21 0 29.5 -4.5t17.5 -17.5l60 -89l59 89q9 13 17.5 17.5t29.5 4.5h65q24 0 24 -16q0 -10 -10 -23l-100 -133q-11 -15 -18.5 -19.5t-27.5 -4.5h-79q-20 0 -27 4.5zM126.5 76.5q-95.5 91.5 -95.5 263.5
q0 173 93.5 264t267.5 91q73 0 132.5 -14.5t100.5 -41.5q10 -7 10 -16q0 -8 -6 -17l-35 -61q-7 -11 -14 -11q-6 0 -17 6q-64 36 -151 36q-103 0 -160 -59.5t-57 -176.5q0 -118 59.5 -177t162.5 -59q94 0 158 36q11 6 17 6q7 0 14 -11l39 -67q4 -7 4 -12q0 -6 -12 -15
q-78 -56 -241 -56q-174 0 -269.5 91.5z" />
    <glyph glyph-name="ccaron" unicode="&#x10d;" horiz-adv-x="563" 
d="M238 554.5q-7 4.5 -19 19.5l-100 133q-10 13 -10 23q0 16 24 16h65q21 0 29.5 -4.5t17.5 -17.5l60 -89l59 89q9 13 17.5 17.5t29.5 4.5h65q24 0 24 -16q0 -10 -10 -23l-100 -133q-11 -15 -18.5 -19.5t-27.5 -4.5h-79q-20 0 -27 4.5zM106 50.5q-75 65.5 -75 188.5
q0 76 34.5 134t99.5 90t153 32q65 0 111 -13t84 -39q10 -7 10 -16q0 -8 -6 -17l-34 -59q-7 -12 -14 -12q-5 0 -17 7q-29 18 -56 27t-65 9q-63 0 -99.5 -38.5t-36.5 -104.5q0 -70 36.5 -105t105.5 -35q38 0 66.5 9.5t55.5 26.5q12 7 17 7q7 0 14 -12l37 -63q5 -8 5 -13
q0 -8 -12 -16q-42 -27 -89.5 -40t-112.5 -13q-137 0 -212 65.5z" />
    <glyph glyph-name="Dcaron" unicode="&#x10e;" horiz-adv-x="686" 
d="M242 756.5q-7 4.5 -19 19.5l-100 133q-10 13 -10 23q0 16 24 16h65q21 0 29.5 -4.5t17.5 -17.5l60 -89l59 89q9 13 17.5 17.5t29.5 4.5h65q24 0 24 -16q0 -10 -10 -23l-100 -133q-11 -15 -18.5 -19.5t-27.5 -4.5h-79q-20 0 -27 4.5zM61.5 10.5q-10.5 10.5 -10.5 32.5v593
q0 22 10.5 33t34.5 11h210q171 0 260 -82t89 -258q0 -174 -90 -257t-259 -83h-210q-24 0 -34.5 10.5zM314 121q89 0 133 49.5t44 169.5t-44 169t-133 49h-98v-437h98z" />
    <glyph glyph-name="dcaron" unicode="&#x10f;" horiz-adv-x="785" 
d="M603 584q0 6 3 13l46 126q7 17 14.5 23t30.5 6h84q15 0 24 -5.5t9 -15.5q0 -7 -6 -18l-66 -122q-9 -17 -18.5 -22.5t-33.5 -5.5h-58q-29 0 -29 21zM31 242q0 75 28.5 132.5t83.5 89t131 31.5q43 0 77.5 -9.5t55.5 -27.5v178q0 23 10 33.5t35 10.5h72q24 0 34.5 -11
t10.5 -33v-583q-41 -30 -107 -49t-139 -19q-292 0 -292 257zM407 116v183q0 41 -26 61.5t-70 20.5q-59 0 -87.5 -37.5t-28.5 -103.5q0 -76 33 -108.5t99 -32.5q49 0 80 17z" />
    <glyph glyph-name="Dcroat" unicode="&#x110;" horiz-adv-x="719" 
d="M94 10.5q-10 10.5 -10 32.5v237h-41q-24 0 -33 9.5t-9 32.5v36q0 23 9 33t33 10h41v235q0 23 10 33.5t35 10.5h210q170 0 259.5 -82t89.5 -258q0 -173 -90 -256.5t-259 -83.5h-210q-25 0 -35 10.5zM347 121q89 0 133 49.5t44 169.5t-44 169t-133 49h-98v-157h117
q24 0 33.5 -10t9.5 -33v-36q0 -22 -9.5 -32t-33.5 -10h-117v-159h98z" />
    <glyph glyph-name="dcroat" unicode="&#x111;" horiz-adv-x="632" 
d="M31 242q0 75 28.5 132.5t83.5 89t131 31.5q43 0 77.5 -9.5t55.5 -27.5v68h-107q-19 0 -26 6.5t-7 25.5v37q0 19 7 26t26 7h107v8q0 23 10 33.5t35 10.5h72q24 0 34.5 -11t10.5 -33v-8h29q19 0 26 -7t7 -26v-37q0 -19 -7 -25.5t-27 -6.5h-28v-473q-41 -30 -107 -49
t-139 -19q-292 0 -292 257zM407 116v183q0 41 -26 61.5t-70 20.5q-59 0 -87.5 -37.5t-28.5 -103.5q0 -76 33 -108.5t99 -32.5q49 0 80 17z" />
    <glyph glyph-name="Emacron" unicode="&#x112;" horiz-adv-x="574" 
d="M125 775q-9 10 -9 33v36q0 23 9 33t33 10h271q24 0 33 -10t9 -33v-36q0 -23 -9 -33t-33 -10h-271q-24 0 -33 10zM61.5 10.5q-10.5 10.5 -10.5 32.5v593q0 22 10.5 33t34.5 11h415q24 0 33 -9.5t9 -32.5v-37q0 -23 -9 -33t-33 -10h-295v-158h206q24 0 33 -9.5t9 -32.5v-35
q0 -23 -9 -33t-33 -10h-206v-159h294q24 0 33 -10t9 -33v-36q0 -23 -9 -32.5t-33 -9.5h-414q-24 0 -34.5 10.5z" />
    <glyph glyph-name="emacron" unicode="&#x113;" horiz-adv-x="596" 
d="M145 585q-9 10 -9 33v36q0 23 9 33t33 10h271q24 0 33 -10t9 -33v-36q0 -23 -9 -33t-33 -10h-271q-24 0 -33 10zM170.5 12.5q-64.5 27.5 -102 83t-37.5 137.5q0 128 70.5 195t201.5 67q129 0 195.5 -65t66.5 -185q0 -42 -38 -42h-340q0 -54 40.5 -83.5t111.5 -29.5
q42 0 73 8.5t60 24.5q10 5 14 5q7 0 13 -11l29 -54q4 -7 4 -12q0 -8 -11 -16q-40 -26 -90 -38t-115 -12q-81 0 -145.5 27.5zM417 289q0 50 -28 78t-85 28t-87 -28.5t-30 -77.5h230z" />
    <glyph glyph-name="Ebreve" unicode="&#x114;" horiz-adv-x="574" 
d="M177 796.5q-45 46.5 -45 121.5q0 8 4.5 13t11.5 5h87q10 0 13.5 -4.5t3.5 -14.5q0 -62 57 -62t57 62q0 10 3.5 14.5t13.5 4.5h87q7 0 11.5 -5t4.5 -13q0 -75 -45.5 -121.5t-131.5 -46.5q-87 0 -132 46.5zM61.5 10.5q-10.5 10.5 -10.5 32.5v593q0 22 10.5 33t34.5 11h415
q24 0 33 -9.5t9 -32.5v-37q0 -23 -9 -33t-33 -10h-295v-158h206q24 0 33 -9.5t9 -32.5v-35q0 -23 -9 -33t-33 -10h-206v-159h294q24 0 33 -10t9 -33v-36q0 -23 -9 -32.5t-33 -9.5h-414q-24 0 -34.5 10.5z" />
    <glyph glyph-name="ebreve" unicode="&#x115;" horiz-adv-x="596" 
d="M177 594.5q-45 46.5 -45 121.5q0 8 4.5 13t11.5 5h87q10 0 13.5 -4.5t3.5 -14.5q0 -62 57 -62t57 62q0 10 3.5 14.5t13.5 4.5h87q7 0 11.5 -5t4.5 -13q0 -75 -45.5 -121.5t-131.5 -46.5q-87 0 -132 46.5zM170.5 12.5q-64.5 27.5 -102 83t-37.5 137.5q0 128 70.5 195
t201.5 67q129 0 195.5 -65t66.5 -185q0 -42 -38 -42h-340q0 -54 40.5 -83.5t111.5 -29.5q42 0 73 8.5t60 24.5q10 5 14 5q7 0 13 -11l29 -54q4 -7 4 -12q0 -8 -11 -16q-40 -26 -90 -38t-115 -12q-81 0 -145.5 27.5zM417 289q0 50 -28 78t-85 28t-87 -28.5t-30 -77.5h230z
" />
    <glyph glyph-name="Edotaccent" unicode="&#x116;" horiz-adv-x="574" 
d="M254 777.5q-15 16.5 -15 40.5v22q0 24 15 40.5t39 16.5h24q23 0 38.5 -16.5t15.5 -40.5v-22q0 -24 -15 -40.5t-39 -16.5h-24q-24 0 -39 16.5zM61.5 10.5q-10.5 10.5 -10.5 32.5v593q0 22 10.5 33t34.5 11h415q24 0 33 -9.5t9 -32.5v-37q0 -23 -9 -33t-33 -10h-295v-158
h206q24 0 33 -9.5t9 -32.5v-35q0 -23 -9 -33t-33 -10h-206v-159h294q24 0 33 -10t9 -33v-36q0 -23 -9 -32.5t-33 -9.5h-414q-24 0 -34.5 10.5z" />
    <glyph glyph-name="edotaccent" unicode="&#x117;" horiz-adv-x="596" 
d="M262 575.5q-15 16.5 -15 40.5v22q0 24 15 40.5t39 16.5h24q23 0 38.5 -16.5t15.5 -40.5v-22q0 -24 -15 -40.5t-39 -16.5h-24q-24 0 -39 16.5zM170.5 12.5q-64.5 27.5 -102 83t-37.5 137.5q0 128 70.5 195t201.5 67q129 0 195.5 -65t66.5 -185q0 -42 -38 -42h-340
q0 -54 40.5 -83.5t111.5 -29.5q42 0 73 8.5t60 24.5q10 5 14 5q7 0 13 -11l29 -54q4 -7 4 -12q0 -8 -11 -16q-40 -26 -90 -38t-115 -12q-81 0 -145.5 27.5zM417 289q0 50 -28 78t-85 28t-87 -28.5t-30 -77.5h230z" />
    <glyph glyph-name="Eogonek" unicode="&#x118;" horiz-adv-x="574" 
d="M216 558v-158h206q24 0 33 -9.5t9 -32.5v-35q0 -23 -9 -33t-33 -10h-206v-159h294q24 0 33 -10t9 -33v-36q0 -22 -8.5 -31.5t-30.5 -10.5v-2q0 -4 -3 -8q-36 -42 -48 -63t-12 -42q0 -27 24 -27q14 0 22 4q4 2 6 2q5 0 8 -7l18 -39q2 -4 2 -6q0 -6 -12 -11
q-28 -14 -88 -14q-46 0 -70 23.5t-24 59.5q0 28 14.5 57t46.5 66l7 7h-308q-24 0 -34.5 10.5t-10.5 32.5v593q0 22 10.5 33t34.5 11h415q24 0 33 -9.5t9 -32.5v-37q0 -23 -9 -33t-33 -10h-295z" />
    <glyph glyph-name="eogonek" unicode="&#x119;" horiz-adv-x="596" 
d="M527 203h-340q0 -54 40.5 -83.5t111.5 -29.5q42 0 73 8.5t60 24.5q10 5 14 5q7 0 13 -11l29 -54q4 -7 4 -12q0 -6 -5 -11l-2 -3q-36 -42 -48 -63t-12 -42q0 -27 24 -27q14 0 22 4q4 2 6 2q5 0 8 -7l18 -39q2 -4 2 -6q0 -6 -12 -11q-28 -14 -88 -14q-46 0 -70 23.5
t-24 59.5t22 70q-36 -2 -57 -2q-81 0 -145.5 27.5t-102 83t-37.5 137.5q0 128 70.5 195t201.5 67q129 0 195.5 -65t66.5 -185q0 -42 -38 -42zM417 289q0 50 -28 78t-85 28t-87 -28.5t-30 -77.5h230z" />
    <glyph glyph-name="Ecaron" unicode="&#x11a;" horiz-adv-x="574" 
d="M240 756.5q-7 4.5 -19 19.5l-100 133q-10 13 -10 23q0 16 24 16h65q21 0 29.5 -4.5t17.5 -17.5l60 -89l59 89q9 13 17.5 17.5t29.5 4.5h65q24 0 24 -16q0 -10 -10 -23l-100 -133q-11 -15 -18.5 -19.5t-27.5 -4.5h-79q-20 0 -27 4.5zM61.5 10.5q-10.5 10.5 -10.5 32.5v593
q0 22 10.5 33t34.5 11h415q24 0 33 -9.5t9 -32.5v-37q0 -23 -9 -33t-33 -10h-295v-158h206q24 0 33 -9.5t9 -32.5v-35q0 -23 -9 -33t-33 -10h-206v-159h294q24 0 33 -10t9 -33v-36q0 -23 -9 -32.5t-33 -9.5h-414q-24 0 -34.5 10.5z" />
    <glyph glyph-name="ecaron" unicode="&#x11b;" horiz-adv-x="596" 
d="M248 554.5q-7 4.5 -19 19.5l-100 133q-10 13 -10 23q0 16 24 16h65q21 0 29.5 -4.5t17.5 -17.5l60 -89l59 89q9 13 17.5 17.5t29.5 4.5h65q24 0 24 -16q0 -10 -10 -23l-100 -133q-11 -15 -18.5 -19.5t-27.5 -4.5h-79q-20 0 -27 4.5zM170.5 12.5q-64.5 27.5 -102 83
t-37.5 137.5q0 128 70.5 195t201.5 67q129 0 195.5 -65t66.5 -185q0 -42 -38 -42h-340q0 -54 40.5 -83.5t111.5 -29.5q42 0 73 8.5t60 24.5q10 5 14 5q7 0 13 -11l29 -54q4 -7 4 -12q0 -8 -11 -16q-40 -26 -90 -38t-115 -12q-81 0 -145.5 27.5zM417 289q0 50 -28 78t-85 28
t-87 -28.5t-30 -77.5h230z" />
    <glyph glyph-name="Gcircumflex" unicode="&#x11c;" horiz-adv-x="703" 
d="M208 727q-7 5 -7 13q0 10 9 22l100 133q13 15 19.5 19.5t26.5 4.5h79q20 0 27.5 -4.5t18.5 -19.5l100 -133q9 -13 9 -22q0 -8 -6.5 -13t-19.5 -5h-61q-21 0 -30 5t-18 19l-59 88l-59 -88q-9 -14 -18 -19t-30 -5h-61q-13 0 -20 5zM126.5 76.5q-95.5 91.5 -95.5 263.5
t96 263.5t269 91.5q73 0 134 -14.5t101 -41.5q11 -7 11 -16q0 -4 -5 -14l-38 -64q-7 -11 -14 -11q-5 0 -16 6q-66 36 -152 36q-104 0 -163 -59t-59 -177q0 -119 55 -177t155 -58q32 0 63 5t50 14v154h-109q-24 0 -33 9.5t-9 32.5v36q0 22 9 31.5t33 9.5h212q28 0 39.5 -13
t11.5 -40v-254q0 -17 -4 -26t-16 -17q-97 -62 -256 -62q-174 0 -269.5 91.5z" />
    <glyph glyph-name="gcircumflex" unicode="&#x11d;" horiz-adv-x="620" 
d="M133 549q-7 5 -7 13q0 10 9 22l100 133q13 15 19.5 19.5t26.5 4.5h79q20 0 27.5 -4.5t18.5 -19.5l100 -133q9 -13 9 -22q0 -8 -6.5 -13t-19.5 -5h-61q-21 0 -30 5t-18 19l-59 88l-59 -88q-9 -14 -18 -19t-30 -5h-61q-13 0 -20 5zM192 -158q-57 12 -88 32q-7 6 -7 13
q0 5 3 10l36 61q3 5 6.5 8.5t7.5 3.5q2 0 12 -4q47 -24 133 -24q57 0 84.5 26t27.5 87q-48 -45 -135 -45q-116 0 -178.5 60t-62.5 171q0 124 75.5 189t220.5 65q70 0 135 -19.5t107 -48.5v-326q0 -123 -62 -197t-197 -74q-61 0 -118 12zM380.5 150.5q26.5 23.5 26.5 66.5
v150q-34 14 -89 14q-61 -1 -92 -31t-31 -100q0 -63 27.5 -93t85.5 -30q46 0 72.5 23.5z" />
    <glyph glyph-name="Gbreve" unicode="&#x11e;" horiz-adv-x="703" 
d="M259 772.5q-45 46.5 -45 121.5q0 8 4.5 13t11.5 5h87q10 0 13.5 -4.5t3.5 -14.5q0 -62 57 -62t57 62q0 10 3.5 14.5t13.5 4.5h87q7 0 11.5 -5t4.5 -13q0 -75 -45.5 -121.5t-131.5 -46.5q-87 0 -132 46.5zM126.5 76.5q-95.5 91.5 -95.5 263.5t96 263.5t269 91.5
q73 0 134 -14.5t101 -41.5q11 -7 11 -16q0 -4 -5 -14l-38 -64q-7 -11 -14 -11q-5 0 -16 6q-66 36 -152 36q-104 0 -163 -59t-59 -177q0 -119 55 -177t155 -58q32 0 63 5t50 14v154h-109q-24 0 -33 9.5t-9 32.5v36q0 22 9 31.5t33 9.5h212q28 0 39.5 -13t11.5 -40v-254
q0 -17 -4 -26t-16 -17q-97 -62 -256 -62q-174 0 -269.5 91.5z" />
    <glyph glyph-name="gbreve" unicode="&#x11f;" horiz-adv-x="620" 
d="M190 588.5q-45 46.5 -45 121.5q0 8 4.5 13t11.5 5h87q10 0 13.5 -4.5t3.5 -14.5q0 -62 57 -62t57 62q0 10 3.5 14.5t13.5 4.5h87q7 0 11.5 -5t4.5 -13q0 -75 -45.5 -121.5t-131.5 -46.5q-87 0 -132 46.5zM192 -158q-57 12 -88 32q-7 6 -7 13q0 5 3 10l36 61q3 5 6.5 8.5
t7.5 3.5q2 0 12 -4q47 -24 133 -24q57 0 84.5 26t27.5 87q-48 -45 -135 -45q-116 0 -178.5 60t-62.5 171q0 124 75.5 189t220.5 65q70 0 135 -19.5t107 -48.5v-326q0 -123 -62 -197t-197 -74q-61 0 -118 12zM380.5 150.5q26.5 23.5 26.5 66.5v150q-34 14 -89 14
q-61 -1 -92 -31t-31 -100q0 -63 27.5 -93t85.5 -30q46 0 72.5 23.5z" />
    <glyph glyph-name="Gdotaccent" unicode="&#x120;" horiz-adv-x="703" 
d="M339 761.5q-15 16.5 -15 40.5v22q0 24 15 40.5t39 16.5h24q23 0 38.5 -16.5t15.5 -40.5v-22q0 -24 -15 -40.5t-39 -16.5h-24q-24 0 -39 16.5zM126.5 76.5q-95.5 91.5 -95.5 263.5t96 263.5t269 91.5q73 0 134 -14.5t101 -41.5q11 -7 11 -16q0 -4 -5 -14l-38 -64
q-7 -11 -14 -11q-5 0 -16 6q-66 36 -152 36q-104 0 -163 -59t-59 -177q0 -119 55 -177t155 -58q32 0 63 5t50 14v154h-109q-24 0 -33 9.5t-9 32.5v36q0 22 9 31.5t33 9.5h212q28 0 39.5 -13t11.5 -40v-254q0 -17 -4 -26t-16 -17q-97 -62 -256 -62q-174 0 -269.5 91.5z" />
    <glyph glyph-name="gdotaccent" unicode="&#x121;" horiz-adv-x="620" 
d="M276 572.5q-15 16.5 -15 40.5v22q0 24 15 40.5t39 16.5h24q23 0 38.5 -16.5t15.5 -40.5v-22q0 -24 -15 -40.5t-39 -16.5h-24q-24 0 -39 16.5zM192 -158q-57 12 -88 32q-7 6 -7 13q0 5 3 10l36 61q3 5 6.5 8.5t7.5 3.5q2 0 12 -4q47 -24 133 -24q57 0 84.5 26t27.5 87
q-48 -45 -135 -45q-116 0 -178.5 60t-62.5 171q0 124 75.5 189t220.5 65q70 0 135 -19.5t107 -48.5v-326q0 -123 -62 -197t-197 -74q-61 0 -118 12zM380.5 150.5q26.5 23.5 26.5 66.5v150q-34 14 -89 14q-61 -1 -92 -31t-31 -100q0 -63 27.5 -93t85.5 -30q46 0 72.5 23.5z
" />
    <glyph glyph-name="Gcommaaccent" unicode="&#x122;" horiz-adv-x="703" 
d="M126.5 76.5q-95.5 91.5 -95.5 263.5t96 263.5t269 91.5q73 0 134 -14.5t101 -41.5q11 -7 11 -16q0 -4 -5 -14l-38 -64q-7 -11 -14 -11q-5 0 -16 6q-66 36 -152 36q-104 0 -163 -59t-59 -177q0 -119 55 -177t155 -58q32 0 63 5t50 14v154h-109q-24 0 -33 9.5t-9 32.5v36
q0 22 9 31.5t33 9.5h212q28 0 39.5 -13t11.5 -40v-254q0 -17 -4 -26t-16 -17q-97 -62 -256 -62q-174 0 -269.5 91.5zM302 -234q0 4 2 12l46 155q5 19 14 25t29 6h66q31 0 31 -18q0 -10 -6 -23l-66 -154q-4 -10 -12 -15t-22 -5h-60q-22 0 -22 17z" />
    <glyph glyph-name="gcommaaccent" unicode="&#x123;" horiz-adv-x="620" 
d="M258 587q0 10 6 23l66 154q4 10 12 15t22 5h60q22 0 22 -17q0 -4 -2 -12l-46 -155q-5 -19 -14 -25t-29 -6h-66q-31 0 -31 18zM192 -158q-57 12 -88 32q-7 6 -7 13q0 5 3 10l36 61q3 5 6.5 8.5t7.5 3.5q2 0 12 -4q47 -24 133 -24q57 0 84.5 26t27.5 87q-48 -45 -135 -45
q-116 0 -178.5 60t-62.5 171q0 124 75.5 189t220.5 65q70 0 135 -19.5t107 -48.5v-326q0 -123 -62 -197t-197 -74q-61 0 -118 12zM380.5 150.5q26.5 23.5 26.5 66.5v150q-34 14 -89 14q-61 -1 -92 -31t-31 -100q0 -63 27.5 -93t85.5 -30q46 0 72.5 23.5z" />
    <glyph glyph-name="Hcircumflex" unicode="&#x124;" horiz-adv-x="711" 
d="M167 751q-7 5 -7 13q0 10 9 22l100 133q13 15 19.5 19.5t26.5 4.5h79q20 0 27.5 -4.5t18.5 -19.5l100 -133q9 -13 9 -22q0 -8 -6.5 -13t-19.5 -5h-61q-21 0 -30 5t-18 19l-59 88l-59 -88q-9 -14 -18 -19t-30 -5h-61q-13 0 -20 5zM61.5 10.5q-10.5 10.5 -10.5 32.5v593
q0 22 10.5 33t34.5 11h75q25 0 35 -10.5t10 -33.5v-234h278v234q0 22 10.5 33t35.5 11h74q25 0 35.5 -11t10.5 -33v-593q0 -22 -10.5 -32.5t-35.5 -10.5h-74q-25 0 -35.5 10.5t-10.5 32.5v238h-278v-238q0 -22 -10 -32.5t-35 -10.5h-75q-24 0 -34.5 10.5z" />
    <glyph glyph-name="hcircumflex" unicode="&#x125;" horiz-adv-x="601" 
d="M75 733q-7 5 -7 13q0 10 9 22l100 133q13 15 19.5 19.5t26.5 4.5h79q20 0 27.5 -4.5t18.5 -19.5l100 -133q9 -13 9 -22q0 -8 -6.5 -13t-19.5 -5h-61q-21 0 -30 5t-18 19l-59 88l-59 -88q-9 -14 -18 -19t-30 -5h-61q-13 0 -20 5zM61.5 10.5q-10.5 10.5 -10.5 32.5v608
q0 17 6 23t24 6h93q18 0 24.5 -6t6.5 -23v-213q65 57 169 57q82 0 131.5 -44.5t49.5 -132.5v-275q0 -22 -10.5 -32.5t-34.5 -10.5h-75q-25 0 -35.5 10.5t-10.5 32.5v265q0 39 -18 56t-55 17q-41 0 -70.5 -22.5t-29.5 -58.5v-257q0 -22 -10 -32.5t-35 -10.5h-74
q-25 0 -35.5 10.5z" />
    <glyph glyph-name="Hbar" unicode="&#x126;" horiz-adv-x="725" 
d="M726.5 580.5q6.5 -6.5 6.5 -24.5v-40q0 -18 -6.5 -24t-25.5 -6h-13v-443q0 -22 -10.5 -32.5t-35.5 -10.5h-74q-25 0 -35.5 10.5t-10.5 32.5v238h-278v-238q0 -22 -10 -32.5t-35 -10.5h-75q-24 0 -34.5 10.5t-10.5 32.5v443h-17q-19 0 -25.5 6t-6.5 24v40q0 18 6.5 24.5
t25.5 6.5h17v49q0 22 10.5 33t34.5 11h75q25 0 35 -10.5t10 -33.5v-49h278v49q0 22 10.5 33t35.5 11h74q25 0 35.5 -11t10.5 -33v-49h13q19 0 25.5 -6.5zM522 486h-278v-84h278v84z" />
    <glyph glyph-name="hbar" unicode="&#x127;" horiz-adv-x="650" 
d="M554.5 450.5q49.5 -44.5 49.5 -132.5v-275q0 -22 -10.5 -32.5t-35.5 -10.5h-74q-25 0 -35.5 10.5t-10.5 32.5v265q0 39 -18 56t-56 17q-40 0 -69.5 -22.5t-29.5 -58.5v-257q0 -22 -10.5 -32.5t-34.5 -10.5h-75q-25 0 -35.5 10.5t-10.5 32.5v476h-46q-25 0 -33.5 7
t-8.5 29v31q0 22 8.5 29.5t33.5 7.5h46v28q0 17 6.5 23t24.5 6h79q18 0 24 -6t6 -23v-28h67q25 0 34 -7.5t9 -29.5v-31q0 -21 -9 -28.5t-34 -7.5h-67v-92q32 31 79 49.5t105 18.5q82 0 131.5 -44.5z" />
    <glyph glyph-name="Itilde" unicode="&#x128;" horiz-adv-x="267" 
d="M178 737q-21 7 -49 21q-24 11 -40.5 17t-33.5 6q-19 0 -30.5 -7t-27.5 -25q-9 -11 -20 -11q-15 0 -44 23q-25 19 -25 35q0 12 12 28q28 37 54 55t64 18q29 0 52 -8t52 -22q22 -11 37 -16t30 -5q19 0 31 7.5t28 27.5q9 12 22 12q16 0 43 -21t27 -37q0 -11 -12 -28
q-28 -41 -55.5 -59t-70.5 -18q-23 0 -44 7zM61.5 10.5q-10.5 10.5 -10.5 32.5v593q0 22 10.5 33t34.5 11h75q25 0 35 -10.5t10 -33.5v-593q0 -22 -10 -32.5t-35 -10.5h-75q-24 0 -34.5 10.5z" />
    <glyph glyph-name="itilde" unicode="&#x129;" horiz-adv-x="285" 
d="M191 571q-21 7 -49 21q-24 11 -40.5 17t-33.5 6q-19 0 -30.5 -7t-27.5 -25q-9 -11 -20 -11q-15 0 -44 23q-25 19 -25 35q0 12 12 28q28 37 54 55t64 18q29 0 52 -7.5t52 -22.5q22 -11 37 -16t30 -5q19 0 31 7.5t28 27.5q9 12 22 12q16 0 43 -21t27 -37q0 -11 -12 -28
q-28 -41 -55.5 -59t-70.5 -18q-23 0 -44 7zM70.5 10.5q-10.5 10.5 -10.5 32.5v393q0 22 10.5 33t34.5 11h75q25 0 35 -10.5t10 -33.5v-393q0 -22 -10 -32.5t-35 -10.5h-75q-24 0 -34.5 10.5z" />
    <glyph glyph-name="Imacron" unicode="&#x12a;" horiz-adv-x="267" 
d="M-33 761.5q-9 9.5 -9 32.5v37q0 23 9 33t33 10h271q24 0 33.5 -10t9.5 -33v-37q0 -22 -9.5 -32t-33.5 -10h-271q-24 0 -33 9.5zM61 10.5q-10 10.5 -10 32.5v593q0 23 10 33.5t35 10.5h74q25 0 35.5 -11t10.5 -33v-593q0 -22 -10.5 -32.5t-35.5 -10.5h-74q-25 0 -35 10.5z
" />
    <glyph glyph-name="imacron" unicode="&#x12b;" horiz-adv-x="285" 
d="M-23 585q-9 10 -9 33v36q0 23 9 33t33 10h271q24 0 33 -10t9 -33v-36q0 -23 -9 -33t-33 -10h-271q-24 0 -33 10zM70.5 10.5q-10.5 10.5 -10.5 32.5v393q0 22 10.5 33t34.5 11h75q25 0 35 -10.5t10 -33.5v-393q0 -22 -10 -32.5t-35 -10.5h-75q-24 0 -34.5 10.5z" />
    <glyph glyph-name="Ibreve" unicode="&#x12c;" horiz-adv-x="305" 
d="M20 793.5q-45 46.5 -45 121.5q0 8 4.5 13t11.5 5h87q10 0 13.5 -4.5t3.5 -14.5q0 -62 57 -62t57 62q0 10 3.5 14.5t13.5 4.5h87q7 0 11.5 -5t4.5 -13q0 -75 -45.5 -121.5t-131.5 -46.5q-87 0 -132 46.5zM79.5 10.5q-10.5 10.5 -10.5 32.5v593q0 22 10.5 33t34.5 11h75
q25 0 35 -10.5t10 -33.5v-593q0 -22 -10 -32.5t-35 -10.5h-75q-24 0 -34.5 10.5z" />
    <glyph glyph-name="ibreve" unicode="&#x12d;" horiz-adv-x="286" 
d="M10 606.5q-45 46.5 -45 121.5q0 8 4.5 13t11.5 5h87q10 0 13.5 -4.5t3.5 -14.5q0 -62 57 -62t57 62q0 10 3.5 14.5t13.5 4.5h87q7 0 11.5 -5t4.5 -13q0 -75 -45.5 -121.5t-131.5 -46.5q-87 0 -132 46.5zM70.5 10.5q-10.5 10.5 -10.5 32.5v393q0 22 10.5 33t35.5 11h74
q25 0 35.5 -11t10.5 -33v-393q0 -22 -10.5 -32.5t-35.5 -10.5h-74q-25 0 -35.5 10.5z" />
    <glyph glyph-name="Iogonek" unicode="&#x12e;" horiz-adv-x="267" 
d="M210.5 16q-5.5 -10 -19.5 -14q0 -5 -3 -8q-36 -42 -48 -63t-12 -42q0 -27 24 -27q14 0 22 4q4 2 6 2q5 0 8 -7l18 -39q2 -4 2 -6q0 -6 -12 -11q-28 -14 -88 -14q-46 0 -70 23.5t-24 59.5q0 28 14.5 57t46.5 66l4 5q-28 6 -28 41v593q0 22 10.5 33t34.5 11h75
q25 0 35 -10.5t10 -33.5v-593q0 -17 -5.5 -27z" />
    <glyph glyph-name="iogonek" unicode="&#x12f;" horiz-adv-x="299" 
d="M223 664q16 -16 16 -39v-23q0 -23 -16 -39t-45 -16h-58q-28 0 -44 16t-16 39v23q0 23 16 39t44 16h58q29 0 45 -16zM221.5 469q10.5 -11 10.5 -33v-393q0 -35 -29 -41q0 -4 -3 -8q-36 -42 -48 -63t-12 -42q0 -27 24 -27q14 0 22 4q4 2 6 2q5 0 8 -7l18 -39q2 -4 2 -6
q0 -6 -12 -11q-28 -14 -88 -14q-46 0 -70 23.5t-24 59.5q0 28 14.5 57t46.5 66l5 5q-14 4 -19.5 14t-5.5 27v393q0 23 10 33.5t35 10.5h74q25 0 35.5 -11z" />
    <glyph glyph-name="Idotaccent" unicode="&#x130;" horiz-adv-x="267" 
d="M86 753.5q-15 16.5 -15 40.5v22q0 24 15 40.5t39 16.5h24q23 0 38.5 -16.5t15.5 -40.5v-22q0 -24 -15 -40.5t-39 -16.5h-24q-24 0 -39 16.5zM61.5 10.5q-10.5 10.5 -10.5 32.5v593q0 22 10.5 33t34.5 11h75q25 0 35 -10.5t10 -33.5v-593q0 -22 -10 -32.5t-35 -10.5h-75
q-24 0 -34.5 10.5z" />
    <glyph glyph-name="dotlessi" unicode="&#x131;" horiz-adv-x="267" 
d="M61.5 10.5q-10.5 10.5 -10.5 32.5v393q0 22 10.5 33t34.5 11h75q25 0 35 -10.5t10 -33.5v-393q0 -22 -10 -32.5t-35 -10.5h-75q-24 0 -34.5 10.5z" />
    <glyph glyph-name="IJ" unicode="&#x132;" horiz-adv-x="724" 
d="M61.5 10.5q-10.5 10.5 -10.5 32.5v593q0 22 10.5 33t34.5 11h75q25 0 35 -10.5t10 -33.5v-593q0 -22 -10 -32.5t-35 -10.5h-75q-24 0 -34.5 10.5zM240 40q-10 6 -10 16q0 8 6 17l36 61q8 12 15 12q6 0 16 -7q52 -35 114 -35q47 0 68.5 23.5t21.5 71.5v437q0 22 10.5 33
t35.5 11h74q25 0 35.5 -11t10.5 -33v-437q0 -98 -58.5 -156t-171.5 -58q-120 0 -203 55z" />
    <glyph glyph-name="ij" unicode="&#x133;" horiz-adv-x="529" 
d="M61 563q-16 16 -16 39v23q0 23 16 39t44 16h58q29 0 45 -16t16 -39v-23q0 -23 -16 -39t-45 -16h-58q-28 0 -44 16zM315 563q-16 16 -16 39v23q0 23 16 39t44 16h58q29 0 45 -16t16 -39v-23q0 -23 -16 -39t-45 -16h-58q-28 0 -44 16zM62 10.5q-10 10.5 -10 32.5v393
q0 23 10 33.5t35 10.5h74q25 0 35.5 -11t10.5 -33v-393q0 -22 -10.5 -32.5t-35.5 -10.5h-74q-25 0 -35 10.5zM72 -153q-10 7 -10 16q0 8 6 17l35 61q8 12 15 12q6 0 16 -7q23 -16 45 -24.5t49 -8.5q42 0 60 20t18 62v441q0 22 10.5 33t35.5 11h74q25 0 35.5 -11t10.5 -33
v-444q0 -92 -53.5 -145t-158.5 -53q-116 0 -188 53z" />
    <glyph glyph-name="Jcircumflex" unicode="&#x134;" horiz-adv-x="570" 
d="M186 751q-7 5 -7 13q0 10 9 22l100 133q13 15 19.5 19.5t26.5 4.5h79q20 0 27.5 -4.5t18.5 -19.5l100 -133q9 -13 9 -22q0 -8 -6.5 -13t-19.5 -5h-61q-21 0 -30 5t-18 19l-59 88l-59 -88q-9 -14 -18 -19t-30 -5h-61q-13 0 -20 5zM21 40q-10 6 -10 16q0 8 6 17l36 61
q8 12 15 12q6 0 16 -7q52 -35 114 -35q47 0 68.5 23.5t21.5 71.5v437q0 22 10.5 33t35.5 11h74q25 0 35.5 -11t10.5 -33v-437q0 -98 -58.5 -156t-171.5 -58q-120 0 -203 55z" />
    <glyph glyph-name="jcircumflex" unicode="&#x135;" horiz-adv-x="394" 
d="M10 561q-7 5 -7 13q0 10 9 22l100 133q13 15 19.5 19.5t26.5 4.5h79q20 0 27.5 -4.5t18.5 -19.5l100 -133q9 -13 9 -22q0 -8 -6.5 -13t-19.5 -5h-61q-21 0 -30 5t-18 19l-59 88l-59 -88q-9 -14 -18 -19t-30 -5h-61q-13 0 -20 5zM-39.5 -156q-48.5 14 -82.5 39
q-10 7 -10 16q0 8 6 17l36 61q7 12 15 12q4 0 15 -7q24 -16 46 -24.5t49 -8.5q42 0 60 20t18 62v405q0 22 10.5 33t34.5 11h75q25 0 35.5 -11t10.5 -33v-408q0 -92 -54 -145t-158 -53q-58 0 -106.5 14z" />
    <glyph glyph-name="Kcommaaccent" unicode="&#x136;" horiz-adv-x="647" 
d="M614 17q0 -17 -18 -17h-125q-12 0 -18.5 2.5t-12.5 9.5l-221 290l-3 4v-263q0 -22 -10 -32.5t-35 -10.5h-75q-24 0 -34.5 10.5t-10.5 32.5v593q0 22 10.5 33t34.5 11h75q25 0 35 -10.5t10 -33.5v-258l3 4l214 285q6 8 12.5 10.5t20.5 2.5h123q18 0 18 -17q0 -8 -6 -16
l-237 -305l244 -309q6 -7 6 -16zM388 -54q0 -10 -6 -23l-66 -154q-4 -10 -12 -15t-22 -5h-60q-22 0 -22 17q0 4 2 12l46 155q5 19 14 25t29 6h66q31 0 31 -18z" />
    <glyph glyph-name="kcommaaccent" unicode="&#x137;" horiz-adv-x="579" 
d="M556 17q0 -7 -4.5 -12t-13.5 -5h-125q-12 0 -18.5 2.5t-12.5 9.5l-159 196q-3 3 -7 9v-174q0 -22 -10 -32.5t-35 -10.5h-75q-24 0 -34.5 10.5t-10.5 32.5v593q0 22 10.5 33t34.5 11h75q25 0 35 -10.5t10 -33.5v-356l7 8l154 179q6 8 12.5 10.5t19.5 2.5h124q8 0 13 -5
t5 -12q0 -9 -7 -16l-185 -199l191 -215q6 -7 6 -16zM370 -54q0 -10 -6 -23l-66 -154q-4 -10 -12 -15t-22 -5h-60q-22 0 -22 17q0 4 2 12l46 155q5 19 14 25t29 6h66q31 0 31 -18z" />
    <glyph glyph-name="kgreenlandic" unicode="&#x138;" horiz-adv-x="575" 
d="M556 17q0 -7 -4.5 -12t-13.5 -5h-125q-12 0 -18.5 2.5t-12.5 9.5l-159 196q-3 3 -7 9v-174q0 -27 -14 -35t-55 -8h-51q-27 0 -36 14.5t-9 43.5v378q0 28 14 36t55 8h51q25 0 35 -10.5t10 -33.5v-156l7 8l154 179q6 8 12.5 10.5t19.5 2.5h124q8 0 13 -5t5 -12q0 -9 -7 -16
l-185 -199l191 -215q6 -7 6 -16z" />
    <glyph glyph-name="Lacute" unicode="&#x139;" horiz-adv-x="551" 
d="M81 743q0 7 3 14l45 126q6 17 14.5 23t30.5 6h97q15 0 23.5 -5t8.5 -15q0 -8 -6 -19l-65 -122q-9 -17 -19 -22.5t-34 -5.5h-70q-28 0 -28 20zM61.5 10.5q-10.5 10.5 -10.5 32.5v593q0 22 10.5 33t34.5 11h75q25 0 35 -10.5t10 -33.5v-515h282q24 0 33 -10t9 -33v-36
q0 -23 -9 -32.5t-33 -9.5h-402q-24 0 -34.5 10.5z" />
    <glyph glyph-name="lacute" unicode="&#x13a;" horiz-adv-x="295" 
d="M61 784q0 7 3 14l45 126q6 17 14.5 23t30.5 6h97q15 0 23.5 -5t8.5 -15q0 -8 -6 -19l-65 -122q-9 -17 -19 -22.5t-34 -5.5h-70q-28 0 -28 20zM61.5 10.5q-10.5 10.5 -10.5 32.5v593q0 22 10.5 33t34.5 11h75q25 0 35 -10.5t10 -33.5v-593q0 -22 -10 -32.5t-35 -10.5h-75
q-24 0 -34.5 10.5z" />
    <glyph glyph-name="Lcommaaccent" unicode="&#x13b;" horiz-adv-x="551" 
d="M61.5 10.5q-10.5 10.5 -10.5 32.5v593q0 22 10.5 33t34.5 11h75q25 0 35 -10.5t10 -33.5v-515h282q24 0 33 -10t9 -33v-36q0 -23 -9 -32.5t-33 -9.5h-402q-24 0 -34.5 10.5zM187 -234q0 4 2 12l46 155q5 19 14 25t29 6h66q31 0 31 -18q0 -10 -6 -23l-66 -154
q-4 -10 -12 -15t-22 -5h-60q-22 0 -22 17z" />
    <glyph glyph-name="lcommaaccent" unicode="&#x13c;" horiz-adv-x="298" 
d="M69.5 10.5q-10.5 10.5 -10.5 32.5v593q0 22 10.5 33t34.5 11h75q25 0 35 -10.5t10 -33.5v-593q0 -22 -10 -32.5t-35 -10.5h-75q-24 0 -34.5 10.5zM14 -234q0 4 2 12l46 155q5 19 14 25t29 6h66q31 0 31 -18q0 -10 -6 -23l-66 -154q-4 -10 -12 -15t-22 -5h-60
q-22 0 -22 17z" />
    <glyph glyph-name="Lcaron" unicode="&#x13d;" horiz-adv-x="575" 
d="M339 529q0 4 2 12l46 155q5 19 14 25t29 6h66q31 0 31 -18q0 -9 -6 -23l-66 -154q-4 -10 -12 -15t-22 -5h-60q-22 0 -22 17zM61.5 10.5q-10.5 10.5 -10.5 32.5v593q0 22 10.5 33t34.5 11h75q25 0 35 -10.5t10 -33.5v-515h282q24 0 33 -10t9 -33v-36q0 -23 -9 -32.5
t-33 -9.5h-402q-24 0 -34.5 10.5z" />
    <glyph glyph-name="lcaron" unicode="&#x13e;" horiz-adv-x="476" 
d="M286 575q0 4 2 12l46 155q5 19 14 25t29 6h66q31 0 31 -18q0 -9 -6 -23l-66 -154q-4 -10 -12 -15t-22 -5h-60q-22 0 -22 17zM61.5 10.5q-10.5 10.5 -10.5 32.5v593q0 22 10.5 33t34.5 11h75q25 0 35 -10.5t10 -33.5v-593q0 -22 -10 -32.5t-35 -10.5h-75q-24 0 -34.5 10.5
z" />
    <glyph glyph-name="Ldot" unicode="&#x13f;" horiz-adv-x="551" 
d="M61.5 10.5q-10.5 10.5 -10.5 32.5v593q0 22 10.5 33t34.5 11h75q25 0 35 -10.5t10 -33.5v-515h282q24 0 33 -10t9 -33v-36q0 -23 -9 -32.5t-33 -9.5h-402q-24 0 -34.5 10.5zM332 295.5q-15 16.5 -15 40.5v22q0 24 15 40.5t39 16.5h23q24 0 39 -16.5t15 -40.5v-22
q0 -24 -15 -40.5t-39 -16.5h-23q-24 0 -39 16.5z" />
    <glyph glyph-name="ldot" unicode="&#x140;" horiz-adv-x="409" 
d="M61.5 10.5q-10.5 10.5 -10.5 32.5v593q0 22 10.5 33t34.5 11h75q25 0 35 -10.5t10 -33.5v-593q0 -22 -10 -32.5t-35 -10.5h-75q-24 0 -34.5 10.5zM292 281.5q-15 16.5 -15 40.5v22q0 24 15 40.5t39 16.5h23q24 0 39 -16.5t15 -40.5v-22q0 -24 -15 -40.5t-39 -16.5h-23
q-24 0 -39 16.5z" />
    <glyph glyph-name="Lslash" unicode="&#x141;" horiz-adv-x="635" 
d="M615 111q9 -10 9 -33v-36q0 -23 -9 -32.5t-33 -9.5h-402q-25 0 -35 10.5t-10 32.5v188l-63 -36q-10 -5 -15 -5q-8 0 -15 11l-36 61q-5 8 -5 14q0 10 13 16l121 69v275q0 23 10 33.5t35 10.5h74q25 0 35.5 -11t10.5 -33v-181l58 33q8 5 13 5q8 0 17 -13l37 -61q4 -5 4 -11
q0 -9 -14 -17l-115 -66v-204h282q24 0 33 -10z" />
    <glyph glyph-name="lslash" unicode="&#x142;" horiz-adv-x="409" 
d="M408 401q0 -9 -14 -17l-111 -64v-277q0 -22 -10.5 -32.5t-35.5 -10.5h-74q-25 0 -35.5 10.5t-10.5 32.5v182l-44 -25q-10 -5 -14 -5q-9 0 -16 11l-37 60q-5 8 -5 14q0 10 13 16l103 59v281q0 22 10.5 33t35.5 11h74q25 0 35.5 -11t10.5 -33v-186l53 30q8 5 13 5
q8 0 17 -13l38 -60q4 -5 4 -11z" />
    <glyph glyph-name="Nacute" unicode="&#x143;" horiz-adv-x="699" 
d="M271 755q0 7 3 14l45 126q6 17 14.5 23t30.5 6h97q15 0 23.5 -5t8.5 -15q0 -8 -6 -19l-65 -122q-9 -17 -19 -22.5t-34 -5.5h-70q-28 0 -28 20zM61.5 10.5q-10.5 10.5 -10.5 32.5v594q0 22 10.5 32.5t35.5 10.5h62q17 0 25.5 -4.5t18.5 -17.5l280 -395v373q0 22 10.5 33
t34.5 11h75q25 0 35 -10.5t10 -33.5v-593q0 -22 -10 -32.5t-35 -10.5h-63q-16 0 -24.5 4.5t-18.5 17.5l-281 394v-373q0 -22 -10 -32.5t-35 -10.5h-75q-24 0 -34.5 10.5z" />
    <glyph glyph-name="nacute" unicode="&#x144;" horiz-adv-x="601" 
d="M235 577q0 7 3 14l45 126q6 17 14.5 23t30.5 6h97q15 0 23.5 -5t8.5 -15q0 -8 -6 -19l-65 -122q-9 -17 -19 -22.5t-34 -5.5h-70q-28 0 -28 20zM61.5 10.5q-10.5 10.5 -10.5 32.5v408q0 17 6 23t24 6h80q12 0 18 -4t7 -14l3 -35q31 32 78 50t107 18q82 0 131.5 -44.5
t49.5 -132.5v-275q0 -22 -10.5 -32.5t-34.5 -10.5h-75q-25 0 -35.5 10.5t-10.5 32.5v265q0 39 -17 56t-56 17q-42 0 -71 -22.5t-29 -58.5v-257q0 -22 -10 -32.5t-35 -10.5h-74q-25 0 -35.5 10.5z" />
    <glyph glyph-name="Ncommaaccent" unicode="&#x145;" horiz-adv-x="699" 
d="M61.5 10.5q-10.5 10.5 -10.5 32.5v594q0 22 10.5 32.5t35.5 10.5h62q17 0 25.5 -4.5t18.5 -17.5l280 -395v373q0 22 10.5 33t34.5 11h75q25 0 35 -10.5t10 -33.5v-593q0 -22 -10 -32.5t-35 -10.5h-63q-16 0 -24.5 4.5t-18.5 17.5l-281 394v-373q0 -22 -10 -32.5
t-35 -10.5h-75q-24 0 -34.5 10.5zM249 -234q0 4 2 12l46 155q5 19 14 25t29 6h66q31 0 31 -18q0 -10 -6 -23l-66 -154q-4 -10 -12 -15t-22 -5h-60q-22 0 -22 17z" />
    <glyph glyph-name="ncommaaccent" unicode="&#x146;" horiz-adv-x="601" 
d="M61.5 10.5q-10.5 10.5 -10.5 32.5v408q0 17 6 23t24 6h80q12 0 18 -4t7 -14l3 -35q31 32 78 50t107 18q82 0 131.5 -44.5t49.5 -132.5v-275q0 -22 -10.5 -32.5t-34.5 -10.5h-75q-25 0 -35.5 10.5t-10.5 32.5v265q0 39 -17 56t-56 17q-42 0 -71 -22.5t-29 -58.5v-257
q0 -22 -10 -32.5t-35 -10.5h-74q-25 0 -35.5 10.5zM215 -234q0 4 2 12l46 155q5 19 14 25t29 6h66q31 0 31 -18q0 -10 -6 -23l-66 -154q-4 -10 -12 -15t-22 -5h-60q-22 0 -22 17z" />
    <glyph glyph-name="Ncaron" unicode="&#x147;" horiz-adv-x="699" 
d="M283 744.5q-7 4.5 -19 19.5l-100 133q-10 13 -10 23q0 16 24 16h65q21 0 29.5 -4.5t17.5 -17.5l60 -89l59 89q9 13 17.5 17.5t29.5 4.5h65q24 0 24 -16q0 -10 -10 -23l-100 -133q-11 -15 -18.5 -19.5t-27.5 -4.5h-79q-20 0 -27 4.5zM61.5 10.5q-10.5 10.5 -10.5 32.5v594
q0 22 10.5 32.5t35.5 10.5h62q17 0 25.5 -4.5t18.5 -17.5l280 -395v373q0 22 10.5 33t34.5 11h75q25 0 35 -10.5t10 -33.5v-593q0 -22 -10 -32.5t-35 -10.5h-63q-16 0 -24.5 4.5t-18.5 17.5l-281 394v-373q0 -22 -10 -32.5t-35 -10.5h-75q-24 0 -34.5 10.5z" />
    <glyph glyph-name="ncaron" unicode="&#x148;" horiz-adv-x="601" 
d="M248 548.5q-7 4.5 -19 19.5l-100 133q-10 13 -10 23q0 16 24 16h65q21 0 29.5 -4.5t17.5 -17.5l60 -89l59 89q9 13 17.5 17.5t29.5 4.5h65q24 0 24 -16q0 -10 -10 -23l-100 -133q-11 -15 -18.5 -19.5t-27.5 -4.5h-79q-20 0 -27 4.5zM61.5 10.5q-10.5 10.5 -10.5 32.5v408
q0 17 6 23t24 6h80q12 0 18 -4t7 -14l3 -35q31 32 78 50t107 18q82 0 131.5 -44.5t49.5 -132.5v-275q0 -22 -10.5 -32.5t-34.5 -10.5h-75q-25 0 -35.5 10.5t-10.5 32.5v265q0 39 -17 56t-56 17q-42 0 -71 -22.5t-29 -58.5v-257q0 -22 -10 -32.5t-35 -10.5h-74
q-25 0 -35.5 10.5z" />
    <glyph glyph-name="napostrophe" unicode="&#x149;" horiz-adv-x="687" 
d="M0 529q0 4 2 12l46 155q5 19 14 25t29 6h66q31 0 31 -18q0 -9 -6 -23l-66 -154q-4 -10 -12 -15t-22 -5h-60q-22 0 -22 17zM147.5 10.5q-10.5 10.5 -10.5 32.5v408q0 17 6 23t24 6h80q12 0 18 -4t7 -14l3 -35q31 32 78 50t107 18q82 0 131.5 -44.5t49.5 -132.5v-275
q0 -22 -10.5 -32.5t-34.5 -10.5h-75q-25 0 -35.5 10.5t-10.5 32.5v265q0 39 -17 56t-56 17q-42 0 -71 -22.5t-29 -58.5v-257q0 -22 -10 -32.5t-35 -10.5h-74q-25 0 -35.5 10.5z" />
    <glyph glyph-name="Eng" unicode="&#x14a;" horiz-adv-x="699" 
d="M215 -192q-10 6 -10 16q0 8 6 17l36 61q8 12 16 12q6 0 15 -6q22 -15 52 -24t63 -9q47 0 68.5 24t21.5 72v71l-267 374v-373q0 -22 -10 -32.5t-35 -10.5h-75q-24 0 -34.5 10.5t-10.5 32.5v594q0 22 10.5 32.5t35.5 10.5h62q17 0 25.5 -4.5t18.5 -17.5l280 -395v373
q0 22 10.5 33t34.5 11h75q25 0 35 -10.5t10 -33.5v-666q0 -98 -58 -156t-171 -58q-124 0 -204 52z" />
    <glyph glyph-name="eng" unicode="&#x14b;" horiz-adv-x="601" 
d="M238 -247q-48 14 -83 39q-10 7 -10 16t6 18l35 60q8 12 16 12q5 0 15 -7q23 -16 45 -24.5t49 -8.5q42 0 60 20t18 62v369q0 38 -18.5 55t-54.5 17q-41 0 -70.5 -22.5t-29.5 -58.5v-257q0 -22 -10 -32.5t-35 -10.5h-74q-25 0 -35.5 10.5t-10.5 32.5v408q0 17 6 23t24 6h80
q12 0 17.5 -4t6.5 -14l4 -35q31 31 79 49.5t106 18.5q82 0 131.5 -44.5t49.5 -132.5v-380q0 -93 -53.5 -146t-158.5 -53q-57 0 -105 14z" />
    <glyph glyph-name="Omacron" unicode="&#x14c;" horiz-adv-x="759" 
d="M212 763q-9 10 -9 33v36q0 23 9 33t33 10h271q24 0 33 -10t9 -33v-36q0 -23 -9 -33t-33 -10h-271q-24 0 -33 10zM120.5 78q-89.5 93 -89.5 262t89.5 262t259.5 93q169 0 258.5 -93t89.5 -262t-89.5 -262t-258.5 -93q-170 0 -259.5 93zM517.5 163.5q46.5 59.5 46.5 176.5
t-46.5 176.5t-137.5 59.5q-92 0 -138.5 -59.5t-46.5 -176.5t46.5 -176.5t138.5 -59.5q91 0 137.5 59.5z" />
    <glyph glyph-name="omacron" unicode="&#x14d;" horiz-adv-x="623" 
d="M142 585q-9 10 -9 33v36q0 23 9 33t33 10h271q24 0 33 -10t9 -33v-36q0 -23 -9 -33t-33 -10h-271q-24 0 -33 10zM104.5 53.5q-73.5 68.5 -73.5 186.5t73.5 186.5t206.5 68.5q134 0 207.5 -68.5t73.5 -186.5t-73.5 -186.5t-207.5 -68.5q-133 0 -206.5 68.5zM398 138
q30 34 30 102q0 67 -30 101t-87 34q-56 0 -86 -34t-30 -101t30 -101.5t86 -34.5q57 0 87 34z" />
    <glyph glyph-name="Obreve" unicode="&#x14e;" horiz-adv-x="759" 
d="M248 784.5q-45 46.5 -45 121.5q0 8 4.5 13t11.5 5h87q10 0 13.5 -4.5t3.5 -14.5q0 -62 57 -62t57 62q0 10 3.5 14.5t13.5 4.5h87q7 0 11.5 -5t4.5 -13q0 -75 -45.5 -121.5t-131.5 -46.5q-87 0 -132 46.5zM120.5 78q-89.5 93 -89.5 262t89.5 262t259.5 93q169 0 258.5 -93
t89.5 -262t-89.5 -262t-258.5 -93q-170 0 -259.5 93zM517.5 163.5q46.5 59.5 46.5 176.5t-46.5 176.5t-137.5 59.5q-92 0 -138.5 -59.5t-46.5 -176.5t46.5 -176.5t138.5 -59.5q91 0 137.5 59.5z" />
    <glyph glyph-name="obreve" unicode="&#x14f;" horiz-adv-x="623" 
d="M178 594.5q-45 46.5 -45 121.5q0 8 4.5 13t11.5 5h87q10 0 13.5 -4.5t3.5 -14.5q0 -62 57 -62t57 62q0 10 3.5 14.5t13.5 4.5h87q7 0 11.5 -5t4.5 -13q0 -75 -45.5 -121.5t-131.5 -46.5q-87 0 -132 46.5zM104.5 53.5q-73.5 68.5 -73.5 186.5t73.5 186.5t206.5 68.5
q134 0 207.5 -68.5t73.5 -186.5t-73.5 -186.5t-207.5 -68.5q-133 0 -206.5 68.5zM398 138q30 34 30 102q0 67 -30 101t-87 34q-56 0 -86 -34t-30 -101t30 -101.5t86 -34.5q57 0 87 34z" />
    <glyph glyph-name="Ohungarumlaut" unicode="&#x150;" horiz-adv-x="759" 
d="M214.5 746.5q-7.5 5.5 -7.5 14.5q0 4 4 14l62 126q9 17 16.5 23t28.5 6h85q15 0 24 -5.5t9 -15.5q0 -8 -7 -18l-82 -122q-13 -18 -21.5 -23t-31.5 -5h-58q-14 0 -21.5 5.5zM435.5 746.5q-7.5 5.5 -7.5 15.5q0 6 3 13l63 126q9 18 16 23.5t29 5.5h84q15 0 24.5 -5.5
t9.5 -15.5q0 -8 -7 -18l-83 -122q-12 -17 -20.5 -22.5t-31.5 -5.5h-58q-14 0 -21.5 5.5zM120.5 78q-89.5 93 -89.5 262t89.5 262t259.5 93q169 0 258.5 -93t89.5 -262t-89.5 -262t-258.5 -93q-170 0 -259.5 93zM517.5 163.5q46.5 59.5 46.5 176.5t-46.5 176.5t-137.5 59.5
q-92 0 -138.5 -59.5t-46.5 -176.5t46.5 -176.5t138.5 -59.5q91 0 137.5 59.5z" />
    <glyph glyph-name="ohungarumlaut" unicode="&#x151;" horiz-adv-x="623" 
d="M120.5 550.5q-7.5 5.5 -7.5 14.5q0 4 4 14l62 126q9 17 16.5 23t28.5 6h85q15 0 24 -5.5t9 -15.5q0 -8 -7 -18l-82 -122q-13 -18 -21.5 -23t-31.5 -5h-58q-14 0 -21.5 5.5zM341.5 550.5q-7.5 5.5 -7.5 15.5q0 6 3 13l63 126q9 18 16 23.5t29 5.5h84q15 0 24.5 -5.5
t9.5 -15.5q0 -8 -7 -18l-83 -122q-12 -17 -20.5 -22.5t-31.5 -5.5h-58q-14 0 -21.5 5.5zM104.5 53.5q-73.5 68.5 -73.5 186.5t73.5 186.5t206.5 68.5q134 0 207.5 -68.5t73.5 -186.5t-73.5 -186.5t-207.5 -68.5q-133 0 -206.5 68.5zM398 138q30 34 30 102q0 67 -30 101
t-87 34q-56 0 -86 -34t-30 -101t30 -101.5t86 -34.5q57 0 87 34z" />
    <glyph glyph-name="OE" unicode="&#x152;" horiz-adv-x="1166" 
d="M120.5 78q-89.5 93 -89.5 262t89.5 262t259.5 93q67 0 115.5 -20t72.5 -54v15q0 22 10.5 33t34.5 11h415q24 0 33 -9.5t9 -32.5v-37q0 -23 -9 -33t-33 -10h-295v-158h206q24 0 33 -9.5t9 -32.5v-35q0 -23 -9 -33t-33 -10h-206v-159h294q24 0 33 -10t9 -33v-36
q0 -23 -9 -32.5t-33 -9.5h-414q-24 0 -34.5 10.5t-10.5 32.5v14q-25 -37 -76 -54.5t-112 -17.5q-170 0 -259.5 93zM517.5 163.5q46.5 59.5 46.5 176.5t-46.5 176.5t-137.5 59.5q-92 0 -138.5 -59.5t-46.5 -176.5t46.5 -176.5t138.5 -59.5q91 0 137.5 59.5z" />
    <glyph glyph-name="oe" unicode="&#x153;" horiz-adv-x="1000" 
d="M104.5 53.5q-73.5 68.5 -73.5 186.5t73.5 186.5t206.5 68.5q68 0 117 -21t83 -71q33 51 81 71.5t115 20.5q129 0 195.5 -65t66.5 -185q0 -42 -38 -42h-340q0 -54 40.5 -83.5t111.5 -29.5q42 0 73 8.5t60 24.5q10 5 14 5q7 0 13 -11l29 -54q4 -7 4 -12q0 -8 -11 -16
q-40 -26 -90 -38t-115 -12q-66 0 -117.5 21t-88.5 73q-34 -51 -84 -72.5t-119 -21.5q-133 0 -206.5 68.5zM821 289q0 50 -28 78t-85 28t-87 -28.5t-30 -77.5h230zM398 138q30 34 30 102q0 67 -30 101t-87 34q-56 0 -86 -34t-30 -101t30 -101.5t86 -34.5q57 0 87 34z" />
    <glyph glyph-name="Racute" unicode="&#x154;" horiz-adv-x="634" 
d="M236 755q0 7 3 14l45 126q6 17 14.5 23t30.5 6h97q15 0 23.5 -5t8.5 -15q0 -8 -6 -19l-65 -122q-9 -17 -19 -22.5t-34 -5.5h-70q-28 0 -28 20zM61.5 10.5q-10.5 10.5 -10.5 32.5v593q0 22 10.5 33t34.5 11h253q254 0 254 -222q0 -71 -30 -120.5t-89 -75.5l105 -230
q3 -7 3 -14q0 -18 -21 -18h-111q-14 0 -21 3.5t-12 15.5l-92 220h-119v-196q0 -22 -10 -32.5t-35 -10.5h-75q-24 0 -34.5 10.5zM325 358q57 0 85.5 24t28.5 76t-26 76t-78 24h-119v-200h109z" />
    <glyph glyph-name="racute" unicode="&#x155;" horiz-adv-x="439" 
d="M123 577q0 7 3 14l45 126q6 17 14.5 23t30.5 6h97q15 0 23.5 -5t8.5 -15q0 -8 -6 -19l-65 -122q-9 -17 -19 -22.5t-34 -5.5h-70q-28 0 -28 20zM61.5 10.5q-10.5 10.5 -10.5 32.5v408q0 17 6 23t24 6h80q12 0 17.5 -4t6.5 -14l4 -32q60 65 150 65q29 0 47.5 -4.5
t32.5 -14.5q9 -7 9 -14q0 -3 -2 -9l-25 -75q-4 -12 -13 -12q-4 0 -10 3q-26 13 -60 13q-44 0 -73 -25t-29 -67v-247q0 -22 -10 -32.5t-35 -10.5h-74q-25 0 -35.5 10.5z" />
    <glyph glyph-name="Rcommaaccent" unicode="&#x156;" horiz-adv-x="634" 
d="M61.5 10.5q-10.5 10.5 -10.5 32.5v593q0 22 10.5 33t34.5 11h253q254 0 254 -222q0 -71 -30 -120.5t-89 -75.5l105 -230q3 -7 3 -14q0 -18 -21 -18h-111q-14 0 -21 3.5t-12 15.5l-92 220h-119v-196q0 -22 -10 -32.5t-35 -10.5h-75q-24 0 -34.5 10.5zM325 358
q57 0 85.5 24t28.5 76t-26 76t-78 24h-119v-200h109zM216 -234q0 4 2 12l46 155q5 19 14 25t29 6h66q31 0 31 -18q0 -10 -6 -23l-66 -154q-4 -10 -12 -15t-22 -5h-60q-22 0 -22 17z" />
    <glyph glyph-name="rcommaaccent" unicode="&#x157;" horiz-adv-x="439" 
d="M61.5 10.5q-10.5 10.5 -10.5 32.5v408q0 17 6 23t24 6h80q12 0 17.5 -4t6.5 -14l4 -32q60 65 150 65q29 0 47.5 -4.5t32.5 -14.5q9 -7 9 -14q0 -3 -2 -9l-25 -75q-4 -12 -13 -12q-4 0 -10 3q-26 13 -60 13q-44 0 -73 -25t-29 -67v-247q0 -22 -10 -32.5t-35 -10.5h-74
q-25 0 -35.5 10.5zM5 -234q0 4 2 12l46 155q5 19 14 25t29 6h66q31 0 31 -18q0 -10 -6 -23l-66 -154q-4 -10 -12 -15t-22 -5h-60q-22 0 -22 17z" />
    <glyph glyph-name="Rcaron" unicode="&#x158;" horiz-adv-x="634" 
d="M257 744.5q-7 4.5 -19 19.5l-100 133q-10 13 -10 23q0 16 24 16h65q21 0 29.5 -4.5t17.5 -17.5l60 -89l59 89q9 13 17.5 17.5t29.5 4.5h65q24 0 24 -16q0 -10 -10 -23l-100 -133q-11 -15 -18.5 -19.5t-27.5 -4.5h-79q-20 0 -27 4.5zM61.5 10.5q-10.5 10.5 -10.5 32.5v593
q0 22 10.5 33t34.5 11h253q254 0 254 -222q0 -71 -30 -120.5t-89 -75.5l105 -230q3 -7 3 -14q0 -18 -21 -18h-111q-14 0 -21 3.5t-12 15.5l-92 220h-119v-196q0 -22 -10 -32.5t-35 -10.5h-75q-24 0 -34.5 10.5zM325 358q57 0 85.5 24t28.5 76t-26 76t-78 24h-119v-200h109z
" />
    <glyph glyph-name="rcaron" unicode="&#x159;" horiz-adv-x="439" 
d="M155 554.5q-7 4.5 -19 19.5l-100 133q-10 13 -10 23q0 16 24 16h65q21 0 29.5 -4.5t17.5 -17.5l60 -89l59 89q9 13 17.5 17.5t29.5 4.5h65q24 0 24 -16q0 -10 -10 -23l-100 -133q-11 -15 -18.5 -19.5t-27.5 -4.5h-79q-20 0 -27 4.5zM61.5 10.5q-10.5 10.5 -10.5 32.5v408
q0 17 6 23t24 6h80q12 0 17.5 -4t6.5 -14l4 -32q60 65 150 65q29 0 47.5 -4.5t32.5 -14.5q9 -7 9 -14q0 -3 -2 -9l-25 -75q-4 -12 -13 -12q-4 0 -10 3q-26 13 -60 13q-44 0 -73 -25t-29 -67v-247q0 -22 -10 -32.5t-35 -10.5h-74q-25 0 -35.5 10.5z" />
    <glyph glyph-name="Sacute" unicode="&#x15a;" horiz-adv-x="598" 
d="M254 755q0 7 3 14l45 126q6 17 14.5 23t30.5 6h97q15 0 23.5 -5t8.5 -15q0 -8 -6 -19l-65 -122q-9 -17 -19 -22.5t-34 -5.5h-70q-28 0 -28 20zM162.5 1.5q-71.5 16.5 -115.5 46.5q-15 11 -15 20q0 6 5 14l41 65q6 10 13 10q6 0 15 -6q37 -21 85 -34t97 -13q58 0 86 18.5
t28 58.5q0 27 -13.5 44t-40 30t-81.5 34q-64 24 -108.5 49t-73 64.5t-28.5 96.5q0 95 69 145.5t182 50.5q149 0 228 -56q15 -12 15 -20q0 -6 -5 -14l-41 -65q-6 -10 -13 -10q-6 0 -15 6q-61 40 -148 40q-108 0 -108 -78q0 -26 12.5 -42.5t34.5 -28t69 -29.5l28 -11
q73 -29 115 -54.5t64.5 -62.5t22.5 -95q0 -87 -65.5 -138.5t-189.5 -51.5q-78 0 -149.5 16.5z" />
    <glyph glyph-name="sacute" unicode="&#x15b;" horiz-adv-x="529" 
d="M201 565q0 7 3 14l45 126q6 17 14.5 23t30.5 6h97q15 0 23.5 -5t8.5 -15q0 -8 -6 -19l-65 -122q-9 -17 -19 -22.5t-34 -5.5h-70q-28 0 -28 20zM149 -2q-58 13 -102 38q-16 9 -16 18q0 5 5 13l35 62q6 10 12 10q7 0 15 -5q29 -17 72.5 -29t79.5 -12q44 0 63.5 9.5
t19.5 32.5q0 15 -12.5 25.5t-34.5 18t-76 23.5q-83 25 -121 57t-38 91q0 71 59.5 108t159.5 37q118 0 201 -48q16 -9 16 -19q0 -6 -6 -15l-34 -54q-6 -10 -12 -10q-5 0 -14 6q-25 14 -59 23t-68 9q-42 0 -63 -9.5t-21 -33.5q0 -20 23.5 -31.5t78.5 -26.5l55 -16
q51 -17 79 -35t40 -42t12 -61q0 -64 -58 -105.5t-169 -41.5q-64 0 -122 13z" />
    <glyph glyph-name="Scircumflex" unicode="&#x15c;" horiz-adv-x="598" 
d="M120 739q-7 5 -7 13q0 10 9 22l100 133q13 15 19.5 19.5t26.5 4.5h79q20 0 27.5 -4.5t18.5 -19.5l100 -133q9 -13 9 -22q0 -8 -6.5 -13t-19.5 -5h-61q-21 0 -30 5t-18 19l-59 88l-59 -88q-9 -14 -18 -19t-30 -5h-61q-13 0 -20 5zM162.5 1.5q-71.5 16.5 -115.5 46.5
q-15 11 -15 20q0 6 5 14l41 65q6 10 13 10q6 0 15 -6q37 -21 85 -34t97 -13q58 0 86 18.5t28 58.5q0 27 -13.5 44t-40 30t-81.5 34q-64 24 -108.5 49t-73 64.5t-28.5 96.5q0 95 69 145.5t182 50.5q149 0 228 -56q15 -12 15 -20q0 -6 -5 -14l-41 -65q-6 -10 -13 -10
q-6 0 -15 6q-61 40 -148 40q-108 0 -108 -78q0 -26 12.5 -42.5t34.5 -28t69 -29.5l28 -11q73 -29 115 -54.5t64.5 -62.5t22.5 -95q0 -87 -65.5 -138.5t-189.5 -51.5q-78 0 -149.5 16.5z" />
    <glyph glyph-name="scircumflex" unicode="&#x15d;" horiz-adv-x="529" 
d="M83 549q-7 5 -7 13q0 10 9 22l100 133q13 15 19.5 19.5t26.5 4.5h79q20 0 27.5 -4.5t18.5 -19.5l100 -133q9 -13 9 -22q0 -8 -6.5 -13t-19.5 -5h-61q-21 0 -30 5t-18 19l-59 88l-59 -88q-9 -14 -18 -19t-30 -5h-61q-13 0 -20 5zM149 -2q-58 13 -102 38q-16 9 -16 18
q0 5 5 13l35 62q6 10 12 10q7 0 15 -5q29 -17 72.5 -29t79.5 -12q44 0 63.5 9.5t19.5 32.5q0 15 -12.5 25.5t-34.5 18t-76 23.5q-83 25 -121 57t-38 91q0 71 59.5 108t159.5 37q118 0 201 -48q16 -9 16 -19q0 -6 -6 -15l-34 -54q-6 -10 -12 -10q-5 0 -14 6q-25 14 -59 23
t-68 9q-42 0 -63 -9.5t-21 -33.5q0 -20 23.5 -31.5t78.5 -26.5l55 -16q51 -17 79 -35t40 -42t12 -61q0 -64 -58 -105.5t-169 -41.5q-64 0 -122 13z" />
    <glyph glyph-name="Scedilla" unicode="&#x15e;" horiz-adv-x="598" 
d="M386 -16l-23 -50q69 -9 69 -74q0 -38 -31.5 -61.5t-90.5 -23.5q-25 0 -51 5t-40 12q-9 5 -11 8t1 10l18 44q3 7 8 7q4 0 10 -3q17 -10 44 -10q19 0 27.5 6t8.5 19q0 17 -13 23t-43 6h-16q-8 0 -10.5 4.5t0.5 11.5l27 68q-66 4 -125.5 20t-97.5 42q-15 11 -15 20q0 6 5 14
l41 65q6 10 13 10q6 0 15 -6q36 -22 84.5 -34.5t97.5 -12.5q58 0 86 18.5t28 58.5q0 27 -13.5 44t-40 30t-81.5 34q-64 24 -108.5 49t-73 64.5t-28.5 96.5q0 95 69 145.5t182 50.5q146 0 228 -56q15 -12 15 -20q0 -6 -5 -14l-41 -65q-6 -10 -13 -10q-6 0 -15 6
q-58 40 -148 40q-108 0 -108 -78q0 -26 12.5 -42.5t34.5 -28t69 -29.5l28 -11q73 -29 115 -54.5t64.5 -62.5t22.5 -95q0 -72 -45.5 -120.5t-133.5 -63.5q0 -1 -2 -7z" />
    <glyph glyph-name="scedilla" unicode="&#x15f;" horiz-adv-x="529" 
d="M335 -16l-23 -50q69 -9 69 -74q0 -38 -31 -61.5t-90 -23.5q-25 0 -51 5t-40 12q-9 5 -11 8t1 10l17 44q3 7 9 7q4 0 9 -3q19 -10 45 -10q19 0 27.5 6t8.5 19q0 17 -13 23t-43 6h-16q-8 0 -10.5 4.5t0.5 11.5l27 68v1q-103 8 -173 49q-16 9 -16 18q0 5 5 13l35 62
q6 10 12 10q7 0 15 -5q29 -17 72.5 -29t79.5 -12q44 0 63.5 9.5t19.5 32.5q0 15 -12.5 25.5t-34.5 18t-76 23.5q-83 25 -121 57t-38 91q0 71 59.5 108t159.5 37q120 0 201 -48q16 -9 16 -19q0 -6 -6 -15l-34 -54q-6 -10 -12 -10q-5 0 -14 6q-25 14 -59 23t-68 9
q-42 0 -63 -9.5t-21 -33.5q0 -20 23.5 -31.5t78.5 -26.5l55 -16q51 -17 79 -35t40 -42t12 -61q0 -53 -41 -91.5t-120 -50.5q0 -2 -2 -6z" />
    <glyph glyph-name="Scaron" unicode="&#x160;" horiz-adv-x="598" 
d="M249 756.5q-7 4.5 -19 19.5l-100 133q-10 13 -10 23q0 16 24 16h65q21 0 29.5 -4.5t17.5 -17.5l60 -89l59 89q9 13 17.5 17.5t29.5 4.5h65q24 0 24 -16q0 -10 -10 -23l-100 -133q-11 -15 -18.5 -19.5t-27.5 -4.5h-79q-20 0 -27 4.5zM162.5 1.5q-71.5 16.5 -115.5 46.5
q-15 11 -15 20q0 6 5 14l41 65q6 10 13 10q6 0 15 -6q37 -21 85 -34t97 -13q58 0 86 18.5t28 58.5q0 27 -13.5 44t-40 30t-81.5 34q-64 24 -108.5 49t-73 64.5t-28.5 96.5q0 95 69 145.5t182 50.5q149 0 228 -56q15 -12 15 -20q0 -6 -5 -14l-41 -65q-6 -10 -13 -10
q-6 0 -15 6q-61 40 -148 40q-108 0 -108 -78q0 -26 12.5 -42.5t34.5 -28t69 -29.5l28 -11q73 -29 115 -54.5t64.5 -62.5t22.5 -95q0 -87 -65.5 -138.5t-189.5 -51.5q-78 0 -149.5 16.5z" />
    <glyph glyph-name="scaron" unicode="&#x161;" horiz-adv-x="529" 
d="M205 548.5q-7 4.5 -19 19.5l-100 133q-10 13 -10 23q0 16 24 16h65q21 0 29.5 -4.5t17.5 -17.5l60 -89l59 89q9 13 17.5 17.5t29.5 4.5h65q24 0 24 -16q0 -10 -10 -23l-100 -133q-11 -15 -18.5 -19.5t-27.5 -4.5h-79q-20 0 -27 4.5zM149 -2q-58 13 -102 38q-16 9 -16 18
q0 5 5 13l35 62q6 10 12 10q7 0 15 -5q29 -17 72.5 -29t79.5 -12q44 0 63.5 9.5t19.5 32.5q0 15 -12.5 25.5t-34.5 18t-76 23.5q-83 25 -121 57t-38 91q0 71 59.5 108t159.5 37q118 0 201 -48q16 -9 16 -19q0 -6 -6 -15l-34 -54q-6 -10 -12 -10q-5 0 -14 6q-25 14 -59 23
t-68 9q-42 0 -63 -9.5t-21 -33.5q0 -20 23.5 -31.5t78.5 -26.5l55 -16q51 -17 79 -35t40 -42t12 -61q0 -64 -58 -105.5t-169 -41.5q-64 0 -122 13z" />
    <glyph glyph-name="uni0162" unicode="&#x162;" horiz-adv-x="601" 
d="M580.5 670q9.5 -10 9.5 -33v-37q0 -22 -9.5 -32t-33.5 -10h-164v-515q0 -28 -18 -38q4 -1 4 -6l-2 -8l-23 -50q69 -9 69 -74q0 -38 -31 -61.5t-90 -23.5q-25 0 -51 5t-40 12q-9 5 -11 8t1 10l17 44q3 7 8 7q4 0 10 -3q22 -10 45 -10q19 0 27.5 6t8.5 19q0 17 -13 23
t-43 6h-16q-8 0 -10.5 4.5t0.5 11.5l27 68l3 7q-21 1 -29.5 11.5t-8.5 31.5v515h-164q-24 0 -33 9.5t-9 32.5v37q0 23 9 33t33 10h494q24 0 33.5 -10z" />
    <glyph glyph-name="uni0163" unicode="&#x163;" horiz-adv-x="472" 
d="M460 43q0 -7 -12 -15q-47 -32 -109 -40q1 -3 -2 -9l-23 -50q69 -9 69 -74q0 -38 -31 -61.5t-90 -23.5q-25 0 -51 5t-40 12q-9 5 -11 8t1 10l17 44q3 7 8 7q4 0 10 -3q22 -10 45 -10q19 0 27.5 6t8.5 19q0 17 -13 23t-43 6h-16q-8 0 -10.5 4.5t0.5 11.5l27 68q3 8 6 10
q-63 15 -95 62t-32 120v191h-49q-24 0 -32 9t-8 32v33q0 23 8 32.5t32 9.5h49v40q0 22 9.5 43.5t27.5 53.5q8 14 15 18.5t25 4.5h46q23 0 32.5 -10t9.5 -32v-118h99q24 0 32 -9.5t8 -32.5v-33q0 -23 -8 -32t-32 -9h-99v-187q0 -39 14 -56t47 -17q20 0 33.5 5t30.5 16
q8 5 12 5q9 0 15 -11l37 -63q5 -8 5 -13z" />
    <glyph glyph-name="Tcaron" unicode="&#x164;" horiz-adv-x="601" 
d="M236 744.5q-7 4.5 -19 19.5l-100 133q-10 13 -10 23q0 16 24 16h65q21 0 29.5 -4.5t17.5 -17.5l60 -89l59 89q9 13 17.5 17.5t29.5 4.5h65q24 0 24 -16q0 -10 -10 -23l-100 -133q-11 -15 -18.5 -19.5t-27.5 -4.5h-79q-20 0 -27 4.5zM227.5 10.5q-10.5 10.5 -10.5 32.5
v515h-164q-24 0 -33 9.5t-9 32.5v37q0 23 9 33t33 10h494q24 0 33.5 -10t9.5 -33v-37q0 -22 -9.5 -32t-33.5 -10h-164v-515q0 -22 -10.5 -32.5t-35.5 -10.5h-74q-25 0 -35.5 10.5z" />
    <glyph glyph-name="tcaron" unicode="&#x165;" horiz-adv-x="535" 
d="M335 610q0 4 2 12l46 155q5 19 14 25t29 6h66q31 0 31 -18q0 -9 -6 -23l-66 -154q-4 -10 -12 -15t-22 -5h-60q-22 0 -22 17zM148 35q-47 50 -47 138v191h-49q-24 0 -32 9t-8 32v33q0 23 8 32.5t32 9.5h49v40q0 22 9.5 43.5t27.5 53.5q8 14 15 18.5t25 4.5h46
q23 0 32.5 -10t9.5 -32v-118h99q24 0 32 -9.5t8 -32.5v-33q0 -23 -8 -32t-32 -9h-99v-187q0 -39 14 -56t47 -17q20 0 33.5 5t30.5 16q8 5 12 5q9 0 15 -11l37 -63q5 -8 5 -13q0 -7 -12 -15q-63 -43 -162 -43q-91 0 -138 50z" />
    <glyph glyph-name="Tbar" unicode="&#x166;" horiz-adv-x="601" 
d="M580.5 670q9.5 -10 9.5 -33v-37q0 -22 -9.5 -32t-33.5 -10h-164v-126h52q24 0 33.5 -10t9.5 -33v-36q0 -23 -9.5 -33t-33.5 -10h-52v-267q0 -22 -10.5 -32.5t-35.5 -10.5h-74q-25 0 -35.5 10.5t-10.5 32.5v267h-53q-24 0 -33 10t-9 33v36q0 23 9 33t33 10h53v126h-164
q-24 0 -33 9.5t-9 32.5v37q0 23 9 33t33 10h494q24 0 33.5 -10z" />
    <glyph glyph-name="tbar" unicode="&#x167;" horiz-adv-x="472" 
d="M460 43q0 -7 -12 -15q-63 -43 -162 -43q-91 0 -138 50t-47 138v1h-36q-24 0 -31 7t-7 30v52q0 23 7.5 30t30.5 7h36v64h-49q-24 0 -32 9t-8 32v33q0 23 8 32.5t32 9.5h49v40q0 22 9.5 43.5t27.5 53.5q8 14 15 18.5t25 4.5h46q23 0 32.5 -10t9.5 -32v-118h99q24 0 32 -9.5
t8 -32.5v-33q0 -23 -8 -32t-32 -9h-99v-64h88q23 0 30.5 -7t7.5 -30v-52q0 -23 -7 -30t-31 -7h-88q1 -37 15 -53.5t46 -16.5q20 0 33.5 5t30.5 16q8 5 12 5q9 0 15 -11l37 -63q5 -8 5 -13z" />
    <glyph glyph-name="Utilde" unicode="&#x168;" horiz-adv-x="716" 
d="M422 749q-21 7 -49 21q-24 11 -40.5 17t-33.5 6q-19 0 -30.5 -7t-27.5 -25q-9 -11 -20 -11q-15 0 -44 23q-25 19 -25 35q0 12 12 28q28 37 54 55t64 18q29 0 52 -8t52 -22q22 -11 37 -16t30 -5q19 0 31 7.5t28 27.5q9 12 22 12q16 0 43 -21t27 -37q0 -11 -12 -28
q-28 -41 -55.5 -59t-70.5 -18q-23 0 -44 7zM195 16q-71 31 -110 89.5t-39 137.5v393q0 22 10.5 33t34.5 11h75q25 0 35 -10.5t10 -33.5v-396q0 -65 39 -100.5t108 -35.5t107.5 35.5t38.5 100.5v396q0 22 10.5 33t34.5 11h75q25 0 35.5 -11t10.5 -33v-393q0 -79 -39.5 -137.5
t-110 -89.5t-162.5 -31t-163 31z" />
    <glyph glyph-name="utilde" unicode="&#x169;" horiz-adv-x="597" 
d="M352 571q-21 7 -49 21q-24 11 -40.5 17t-33.5 6q-19 0 -30.5 -7t-27.5 -25q-9 -11 -20 -11q-15 0 -44 23q-25 19 -25 35q0 12 12 28q28 37 54 55t64 18q29 0 52 -7.5t52 -22.5q22 -11 37 -16t30 -5q19 0 31 7.5t28 27.5q9 12 22 12q16 0 43 -21t27 -37q0 -11 -12 -28
q-28 -41 -55.5 -59t-70.5 -18q-23 0 -44 7zM95.5 31q-49.5 46 -49.5 137v268q0 22 10.5 33t34.5 11h75q25 0 35 -10.5t10 -33.5v-262q0 -39 19.5 -57t57.5 -18q41 0 66.5 22t25.5 60v255q0 22 10.5 33t35.5 11h74q25 0 35.5 -11t10.5 -33v-407q0 -17 -6 -23t-24 -6h-80
q-23 0 -24 17l-4 37q-66 -69 -181 -69q-82 0 -131.5 46z" />
    <glyph glyph-name="Umacron" unicode="&#x16a;" horiz-adv-x="716" 
d="M192 763q-9 10 -9 33v36q0 23 9 33t33 10h271q24 0 33 -10t9 -33v-36q0 -23 -9 -33t-33 -10h-271q-24 0 -33 10zM195 16q-71 31 -110 89.5t-39 137.5v393q0 22 10.5 33t34.5 11h75q25 0 35 -10.5t10 -33.5v-396q0 -65 39 -100.5t108 -35.5t107.5 35.5t38.5 100.5v396
q0 22 10.5 33t34.5 11h75q25 0 35.5 -11t10.5 -33v-393q0 -79 -39.5 -137.5t-110 -89.5t-162.5 -31t-163 31z" />
    <glyph glyph-name="umacron" unicode="&#x16b;" horiz-adv-x="597" 
d="M116 585q-9 10 -9 33v36q0 23 9 33t33 10h271q24 0 33 -10t9 -33v-36q0 -23 -9 -33t-33 -10h-271q-24 0 -33 10zM95.5 31q-49.5 46 -49.5 137v268q0 22 10.5 33t34.5 11h75q25 0 35 -10.5t10 -33.5v-262q0 -39 19.5 -57t57.5 -18q41 0 66.5 22t25.5 60v255q0 22 10.5 33
t35.5 11h74q25 0 35.5 -11t10.5 -33v-407q0 -17 -6 -23t-24 -6h-80q-23 0 -24 17l-4 37q-66 -69 -181 -69q-82 0 -131.5 46z" />
    <glyph glyph-name="Ubreve" unicode="&#x16c;" horiz-adv-x="716" 
d="M226 784.5q-45 46.5 -45 121.5q0 8 4.5 13t11.5 5h87q10 0 13.5 -4.5t3.5 -14.5q0 -62 57 -62t57 62q0 10 3.5 14.5t13.5 4.5h87q7 0 11.5 -5t4.5 -13q0 -75 -45.5 -121.5t-131.5 -46.5q-87 0 -132 46.5zM195 16q-71 31 -110 89.5t-39 137.5v393q0 22 10.5 33t34.5 11h75
q25 0 35 -10.5t10 -33.5v-396q0 -65 39 -100.5t108 -35.5t107.5 35.5t38.5 100.5v396q0 22 10.5 33t34.5 11h75q25 0 35.5 -11t10.5 -33v-393q0 -79 -39.5 -137.5t-110 -89.5t-162.5 -31t-163 31z" />
    <glyph glyph-name="ubreve" unicode="&#x16d;" horiz-adv-x="597" 
d="M163 594.5q-45 46.5 -45 121.5q0 8 4.5 13t11.5 5h87q10 0 13.5 -4.5t3.5 -14.5q0 -62 57 -62t57 62q0 10 3.5 14.5t13.5 4.5h87q7 0 11.5 -5t4.5 -13q0 -75 -45.5 -121.5t-131.5 -46.5q-87 0 -132 46.5zM95.5 31q-49.5 46 -49.5 137v268q0 22 10.5 33t34.5 11h75
q25 0 35 -10.5t10 -33.5v-262q0 -39 19.5 -57t57.5 -18q41 0 66.5 22t25.5 60v255q0 22 10.5 33t35.5 11h74q25 0 35.5 -11t10.5 -33v-407q0 -17 -6 -23t-24 -6h-80q-23 0 -24 17l-4 37q-66 -69 -181 -69q-82 0 -131.5 46z" />
    <glyph glyph-name="Uring" unicode="&#x16e;" horiz-adv-x="716" 
d="M273 757q-35 35 -35 85t35 85.5t85 35.5t85.5 -35.5t35.5 -85.5t-35.5 -85t-85.5 -35t-85 35zM390.5 809.5q13.5 13.5 13.5 32.5t-13.5 32.5t-32.5 13.5t-32.5 -13.5t-13.5 -32.5t13.5 -32.5t32.5 -13.5t32.5 13.5zM195 16q-71 31 -110 89.5t-39 137.5v393q0 22 10.5 33
t34.5 11h75q25 0 35 -10.5t10 -33.5v-396q0 -65 39 -100.5t108 -35.5t107.5 35.5t38.5 100.5v396q0 22 10.5 33t34.5 11h75q25 0 35.5 -11t10.5 -33v-393q0 -79 -39.5 -137.5t-110 -89.5t-162.5 -31t-163 31z" />
    <glyph glyph-name="uring" unicode="&#x16f;" horiz-adv-x="597" 
d="M210 567q-35 35 -35 85t35 85.5t85 35.5t85.5 -35.5t35.5 -85.5t-35.5 -85t-85.5 -35t-85 35zM327.5 619.5q13.5 13.5 13.5 32.5t-13.5 32.5t-32.5 13.5t-32.5 -13.5t-13.5 -32.5t13.5 -32.5t32.5 -13.5t32.5 13.5zM95.5 31q-49.5 46 -49.5 137v268q0 22 10.5 33t34.5 11
h75q25 0 35 -10.5t10 -33.5v-262q0 -39 19.5 -57t57.5 -18q41 0 66.5 22t25.5 60v255q0 22 10.5 33t35.5 11h74q25 0 35.5 -11t10.5 -33v-407q0 -17 -6 -23t-24 -6h-80q-23 0 -24 17l-4 37q-66 -69 -181 -69q-82 0 -131.5 46z" />
    <glyph glyph-name="Uhungarumlaut" unicode="&#x170;" horiz-adv-x="716" 
d="M195.5 746.5q-7.5 5.5 -7.5 14.5q0 4 4 14l62 126q9 17 16.5 23t28.5 6h85q15 0 24 -5.5t9 -15.5q0 -8 -7 -18l-82 -122q-13 -18 -21.5 -23t-31.5 -5h-58q-14 0 -21.5 5.5zM416.5 746.5q-7.5 5.5 -7.5 15.5q0 6 3 13l63 126q9 18 16 23.5t29 5.5h84q15 0 24.5 -5.5
t9.5 -15.5q0 -8 -7 -18l-83 -122q-12 -17 -20.5 -22.5t-31.5 -5.5h-58q-14 0 -21.5 5.5zM195 16q-71 31 -110 89.5t-39 137.5v393q0 22 10.5 33t34.5 11h75q25 0 35 -10.5t10 -33.5v-396q0 -65 39 -100.5t108 -35.5t107.5 35.5t38.5 100.5v396q0 22 10.5 33t34.5 11h75
q25 0 35.5 -11t10.5 -33v-393q0 -79 -39.5 -137.5t-110 -89.5t-162.5 -31t-163 31z" />
    <glyph glyph-name="uhungarumlaut" unicode="&#x171;" horiz-adv-x="606" 
d="M112.5 556.5q-7.5 5.5 -7.5 14.5q0 4 4 14l62 126q9 17 16.5 23t28.5 6h85q15 0 24 -5.5t9 -15.5q0 -8 -7 -18l-82 -122q-13 -18 -21.5 -23t-31.5 -5h-58q-14 0 -21.5 5.5zM333.5 556.5q-7.5 5.5 -7.5 15.5q0 6 3 13l63 126q9 18 16 23.5t29 5.5h84q15 0 24.5 -5.5
t9.5 -15.5q0 -8 -7 -18l-83 -122q-12 -17 -20.5 -22.5t-31.5 -5.5h-58q-14 0 -21.5 5.5zM95.5 31q-49.5 46 -49.5 137v268q0 22 10.5 33t34.5 11h75q25 0 35 -10.5t10 -33.5v-262q0 -39 19.5 -57t57.5 -18q41 0 66.5 22t25.5 60v255q0 22 10.5 33t35.5 11h74q25 0 35.5 -11
t10.5 -33v-407q0 -17 -6 -23t-24 -6h-80q-23 0 -24 17l-4 37q-66 -69 -181 -69q-82 0 -131.5 46z" />
    <glyph glyph-name="Uogonek" unicode="&#x172;" horiz-adv-x="716" 
d="M659.5 669q10.5 -11 10.5 -33v-393q0 -103 -66 -170t-177 -83l-3 -5q-36 -42 -48 -63t-12 -42q0 -27 24 -27q14 0 22 4q4 2 6 2q5 0 8 -7l18 -39q2 -4 2 -6q0 -6 -12 -11q-28 -14 -88 -14q-46 0 -70 23.5t-24 59.5q0 27 14 56.5t46 65.5q-121 12 -192.5 79.5t-71.5 176.5
v393q0 22 10.5 33t34.5 11h75q25 0 35 -10.5t10 -33.5v-396q0 -65 39 -100.5t108 -35.5t107.5 35.5t38.5 100.5v396q0 22 10.5 33t34.5 11h75q25 0 35.5 -11z" />
    <glyph glyph-name="uogonek" unicode="&#x173;" horiz-adv-x="597" 
d="M535.5 469q10.5 -11 10.5 -33v-407q0 -17 -6 -23t-24 -6h-1q0 -3 -3 -6q-36 -42 -48 -63t-12 -42q0 -27 24 -27q14 0 22 4q4 2 6 2q5 0 8 -7l18 -39q2 -4 2 -6q0 -6 -12 -11q-28 -14 -88 -14q-46 0 -70 23.5t-24 59.5q0 28 14.5 57t46.5 66l6 6t9 6q-2 4 -2 8l-4 37
q-66 -69 -181 -69q-82 0 -131.5 46t-49.5 137v268q0 22 10.5 33t34.5 11h75q25 0 35 -10.5t10 -33.5v-262q0 -39 19.5 -57t57.5 -18q41 0 66.5 22t25.5 60v255q0 22 10.5 33t35.5 11h74q25 0 35.5 -11z" />
    <glyph glyph-name="Wcircumflex" unicode="&#x174;" horiz-adv-x="879" 
d="M251 739q-7 5 -7 13q0 10 9 22l100 133q13 15 19.5 19.5t26.5 4.5h79q20 0 27.5 -4.5t18.5 -19.5l100 -133q9 -13 9 -22q0 -8 -6.5 -13t-19.5 -5h-61q-21 0 -30 5t-18 19l-59 88l-59 -88q-9 -14 -18 -19t-30 -5h-61q-13 0 -20 5zM201.5 6.5q-9.5 6.5 -13.5 22.5l-155 624
q-2 8 -2 10q0 17 23 17h111q16 0 23 -5.5t9 -17.5l80 -373l100 320q5 14 12 19t22 5h56q15 0 22 -5t12 -19l101 -320l79 373q2 12 9 17.5t23 5.5h112q23 0 23 -17q0 -2 -2 -10l-156 -624q-4 -16 -13.5 -22.5t-26.5 -6.5h-72q-17 0 -26 6.5t-14 22.5l-99 332l-98 -332
q-5 -16 -14 -22.5t-26 -6.5h-73q-17 0 -26.5 6.5z" />
    <glyph glyph-name="wcircumflex" unicode="&#x175;" horiz-adv-x="775" 
d="M200 549q-7 5 -7 13q0 10 9 22l100 133q13 15 19.5 19.5t26.5 4.5h79q20 0 27.5 -4.5t18.5 -19.5l100 -133q9 -13 9 -22q0 -8 -6.5 -13t-19.5 -5h-61q-21 0 -30 5t-18 19l-59 88l-59 -88q-9 -14 -18 -19t-30 -5h-61q-13 0 -20 5zM176.5 5q-6.5 5 -10.5 18l-133 435
q-1 3 -1 8q0 14 18 14h104q13 0 18.5 -4t7.5 -14l70 -267l84 223q4 11 9.5 15.5t17.5 4.5h53q12 0 17.5 -4.5t9.5 -15.5l83 -223l71 267q2 10 7 14t18 4h105q23 0 17 -22l-134 -435q-4 -13 -10.5 -18t-19.5 -5h-78q-13 0 -19 5t-11 18l-83 225l-83 -225q-5 -13 -11 -18
t-19 -5h-77q-14 0 -20.5 5z" />
    <glyph glyph-name="Ycircumflex" unicode="&#x176;" horiz-adv-x="722" 
d="M173 739q-7 5 -7 13q0 10 9 22l100 133q13 15 19.5 19.5t26.5 4.5h79q20 0 27.5 -4.5t18.5 -19.5l100 -133q9 -13 9 -22q0 -8 -6.5 -13t-19.5 -5h-61q-21 0 -30 5t-18 19l-59 88l-59 -88q-9 -14 -18 -19t-30 -5h-61q-13 0 -20 5zM288.5 10.5q-10.5 10.5 -10.5 32.5v189
l-242 415q-5 8 -5 16q0 7 5.5 12t14.5 5h120q14 0 20 -4.5t12 -15.5l158 -277l158 277q6 11 12 15.5t19 4.5h121q9 0 14.5 -5t5.5 -12q0 -8 -5 -16l-242 -416v-188q0 -22 -10.5 -32.5t-35.5 -10.5h-75q-24 0 -34.5 10.5z" />
    <glyph glyph-name="ycircumflex" unicode="&#x177;" horiz-adv-x="601" 
d="M119 549q-7 5 -7 13q0 10 9 22l100 133q13 15 19.5 19.5t26.5 4.5h79q20 0 27.5 -4.5t18.5 -19.5l100 -133q9 -13 9 -22q0 -8 -6.5 -13t-19.5 -5h-61q-21 0 -30 5t-18 19l-59 88l-59 -88q-9 -14 -18 -19t-30 -5h-61q-13 0 -20 5zM44 -111q-9 7 -9 15q0 5 5 15l34 59
q6 11 14 11q7 0 16 -6q16 -11 31 -16.5t35 -5.5q26 0 40.5 15.5t27.5 50.5l-198 420q-4 8 -4 16q0 17 18 17h116q14 0 21 -5t12 -17l110 -271l110 271q5 12 12 17t21 5h116q18 0 18 -17q0 -8 -4 -16l-187 -398q-37 -78 -65.5 -120.5t-65 -63.5t-89.5 -21q-82 0 -135 45z" />
    <glyph glyph-name="Ydieresis" unicode="&#x178;" horiz-adv-x="722" 
d="M218 747.5q-15 16.5 -15 40.5v22q0 24 15 40.5t39 16.5h23q24 0 39 -16.5t15 -40.5v-22q0 -24 -15 -40.5t-39 -16.5h-23q-24 0 -39 16.5zM423.5 747.5q-15.5 16.5 -15.5 40.5v22q0 24 15.5 40.5t38.5 16.5h24q24 0 39 -16.5t15 -40.5v-22q0 -24 -15 -40.5t-39 -16.5h-24
q-23 0 -38.5 16.5zM288.5 10.5q-10.5 10.5 -10.5 32.5v189l-242 415q-5 8 -5 16q0 7 5.5 12t14.5 5h120q14 0 20 -4.5t12 -15.5l158 -277l158 277q6 11 12 15.5t19 4.5h121q9 0 14.5 -5t5.5 -12q0 -8 -5 -16l-242 -416v-188q0 -22 -10.5 -32.5t-35.5 -10.5h-75
q-24 0 -34.5 10.5z" />
    <glyph glyph-name="Zacute" unicode="&#x179;" horiz-adv-x="636" 
d="M284 755q0 7 3 14l45 126q6 17 14.5 23t30.5 6h97q15 0 23.5 -5t8.5 -15q0 -8 -6 -19l-65 -122q-9 -17 -19 -22.5t-34 -5.5h-70q-28 0 -28 20zM38.5 9q-7.5 9 -7.5 32q0 22 5 36t21 36l329 445h-300q-24 0 -34.5 10.5t-10.5 32.5v37q0 22 10.5 32t34.5 10h478
q23 0 31 -9.5t8 -31.5q0 -23 -5 -36t-22 -37l-327 -445h311q24 0 34.5 -10t10.5 -33v-36q0 -22 -10.5 -32t-34.5 -10h-491q-23 0 -30.5 9z" />
    <glyph glyph-name="zacute" unicode="&#x17a;" horiz-adv-x="544" 
d="M228 577q0 7 3 14l45 126q6 17 14.5 23t30.5 6h97q15 0 23.5 -5t8.5 -15q0 -8 -6 -19l-65 -122q-9 -17 -19 -22.5t-34 -5.5h-70q-28 0 -28 20zM40.5 7.5q-7.5 7.5 -7.5 25.5q0 36 8.5 54t36.5 46l222 225h-217q-24 0 -34.5 10.5t-10.5 32.5v37q0 22 10.5 32t34.5 10h386
q19 0 26 -6.5t7 -24.5q0 -36 -9 -54.5t-35 -47.5l-211 -226h221q24 0 34.5 -10t10.5 -33v-36q0 -22 -10.5 -32t-34.5 -10h-399q-21 0 -28.5 7.5z" />
    <glyph glyph-name="Zdotaccent" unicode="&#x17b;" horiz-adv-x="636" 
d="M288 765.5q-15 16.5 -15 40.5v22q0 24 15 40.5t39 16.5h24q23 0 38.5 -16.5t15.5 -40.5v-22q0 -24 -15 -40.5t-39 -16.5h-24q-24 0 -39 16.5zM38.5 9q-7.5 9 -7.5 32q0 22 5 36t21 36l329 445h-300q-24 0 -34.5 10.5t-10.5 32.5v37q0 22 10.5 32t34.5 10h478
q23 0 31 -9.5t8 -31.5q0 -23 -5 -36t-22 -37l-327 -445h311q24 0 34.5 -10t10.5 -33v-36q0 -22 -10.5 -32t-34.5 -10h-491q-23 0 -30.5 9z" />
    <glyph glyph-name="zdotaccent" unicode="&#x17c;" horiz-adv-x="544" 
d="M231 575.5q-15 16.5 -15 40.5v22q0 24 15 40.5t39 16.5h24q23 0 38.5 -16.5t15.5 -40.5v-22q0 -24 -15 -40.5t-39 -16.5h-24q-24 0 -39 16.5zM40.5 7.5q-7.5 7.5 -7.5 25.5q0 36 8.5 54t36.5 46l222 225h-217q-24 0 -34.5 10.5t-10.5 32.5v37q0 22 10.5 32t34.5 10h386
q19 0 26 -6.5t7 -24.5q0 -36 -9 -54.5t-35 -47.5l-211 -226h221q24 0 34.5 -10t10.5 -33v-36q0 -22 -10.5 -32t-34.5 -10h-399q-21 0 -28.5 7.5z" />
    <glyph glyph-name="Zcaron" unicode="&#x17d;" horiz-adv-x="636" 
d="M259 756.5q-7 4.5 -19 19.5l-100 133q-10 13 -10 23q0 16 24 16h65q21 0 29.5 -4.5t17.5 -17.5l60 -89l59 89q9 13 17.5 17.5t29.5 4.5h65q24 0 24 -16q0 -10 -10 -23l-100 -133q-11 -15 -18.5 -19.5t-27.5 -4.5h-79q-20 0 -27 4.5zM38.5 9q-7.5 9 -7.5 32q0 22 5 36
t21 36l329 445h-300q-24 0 -34.5 10.5t-10.5 32.5v37q0 22 10.5 32t34.5 10h478q23 0 31 -9.5t8 -31.5q0 -23 -5 -36t-22 -37l-327 -445h311q24 0 34.5 -10t10.5 -33v-36q0 -22 -10.5 -32t-34.5 -10h-491q-23 0 -30.5 9z" />
    <glyph glyph-name="zcaron" unicode="&#x17e;" horiz-adv-x="544" 
d="M212 554.5q-7 4.5 -19 19.5l-100 133q-10 13 -10 23q0 16 24 16h65q21 0 29.5 -4.5t17.5 -17.5l60 -89l59 89q9 13 17.5 17.5t29.5 4.5h65q24 0 24 -16q0 -10 -10 -23l-100 -133q-11 -15 -18.5 -19.5t-27.5 -4.5h-79q-20 0 -27 4.5zM40.5 7.5q-7.5 7.5 -7.5 25.5
q0 36 8.5 54t36.5 46l222 225h-217q-24 0 -34.5 10.5t-10.5 32.5v37q0 22 10.5 32t34.5 10h386q19 0 26 -6.5t7 -24.5q0 -36 -9 -54.5t-35 -47.5l-211 -226h221q24 0 34.5 -10t10.5 -33v-36q0 -22 -10.5 -32t-34.5 -10h-399q-21 0 -28.5 7.5z" />
    <glyph glyph-name="uni018F" unicode="&#x18f;" horiz-adv-x="704" 
d="M31 334q0 42 37 42h449q0 102 -48.5 151t-156.5 49q-86 0 -165 -38q-12 -6 -18 -6q-7 0 -13 10l-35 61q-6 11 -6 18q0 10 9 16q42 29 107.5 43.5t144.5 14.5q167 0 252 -96.5t85 -256.5q0 -168 -81 -262.5t-246 -94.5q-315 0 -315 349zM472.5 150.5q44.5 46.5 44.5 126.5
h-338q0 -82 41.5 -127.5t125.5 -45.5q82 0 126.5 46.5z" />
    <glyph glyph-name="florin" unicode="&#x192;" horiz-adv-x="562" 
d="M-94 -135q-10 7 -10 15q0 5 6 14l37 52q7 10 15 10q3 0 11 -4q31 -18 64 -18q36 0 53.5 18t21.5 55l37 357h-48q-24 0 -33 10t-9 33v31q0 23 9 32.5t33 9.5h60l3 26q9 89 63.5 139t152.5 50t150 -41q9 -7 9 -15q0 -7 -6 -15l-36 -51q-7 -10 -14 -10q-6 0 -13 4
q-31 18 -65 18q-36 0 -52.5 -16.5t-21.5 -53.5l-4 -35h84q24 0 33 -9.5t9 -32.5v-31q0 -23 -9 -33t-33 -10h-96l-37 -352q-9 -89 -63 -138.5t-152 -49.5q-95 0 -149 41z" />
    <glyph glyph-name="Ohorn" unicode="&#x1a0;" horiz-adv-x="807" 
d="M120.5 78q-89.5 93 -89.5 262t89.5 262t259.5 93q143 0 230 -69q32 5 46 26t14 66q0 18 5 24.5t18 6.5h87q15 0 20.5 -6.5t5.5 -24.5q0 -77 -28 -124.5t-89 -67.5q39 -76 39 -186q0 -169 -89.5 -262t-258.5 -93q-170 0 -259.5 93zM517.5 163.5q46.5 59.5 46.5 176.5
t-46.5 176.5t-137.5 59.5q-92 0 -138.5 -59.5t-46.5 -176.5t46.5 -176.5t138.5 -59.5q91 0 137.5 59.5z" />
    <glyph glyph-name="ohorn" unicode="&#x1a1;" horiz-adv-x="710" 
d="M104.5 53.5q-73.5 68.5 -73.5 186.5t73.5 186.5t206.5 68.5q65 0 117 -18t88 -51q31 5 44 26.5t13 65.5q0 18 5 24.5t18 6.5h87q15 0 20.5 -6.5t5.5 -24.5q0 -81 -30.5 -129t-98.5 -66q12 -39 12 -83q0 -118 -73.5 -186.5t-207.5 -68.5q-133 0 -206.5 68.5zM398 138
q30 34 30 102q0 67 -30 101t-87 34q-56 0 -86 -34t-30 -101t30 -101.5t86 -34.5q57 0 87 34z" />
    <glyph glyph-name="Uhorn" unicode="&#x1af;" horiz-adv-x="865" 
d="M195 16q-71 31 -110 89.5t-39 137.5v393q0 22 10.5 33t34.5 11h75q25 0 35 -10.5t10 -33.5v-396q0 -67 40 -101.5t107 -34.5q65 0 105.5 34.5t40.5 101.5v396q0 22 10.5 33t34.5 11h75q25 0 35 -10.5t10 -33.5v-13q33 6 46.5 28t13.5 67q0 18 5 24.5t18 6.5h87
q14 0 19.5 -6.5t5.5 -24.5q0 -96 -46.5 -148.5t-147.5 -60.5v-266q0 -79 -39.5 -137.5t-110 -89.5t-162.5 -31t-163 31z" />
    <glyph glyph-name="uhorn" unicode="&#x1b0;" horiz-adv-x="732" 
d="M94 32q-48 46 -48 136v268q0 22 10.5 33t34.5 11h75q24 0 34.5 -11t10.5 -33v-262q0 -39 19.5 -57t57.5 -18q41 0 66.5 22t25.5 60v255q0 22 10.5 33t34.5 11h75q24 0 34.5 -11t10.5 -33q29 0 39.5 18.5t10.5 63.5q0 21 11.5 26.5t25.5 5t18 -0.5h55q15 0 20.5 -6.5
t5.5 -24.5q0 -95 -43 -145.5t-142 -60.5v-283q0 -17 -6 -23t-24 -6h-80q-12 0 -17.5 4t-6.5 13l-4 37q-49 -56 -137 -64q-32 -4 -48 -4q-81 0 -129 46z" />
    <glyph glyph-name="uni01CD" unicode="&#x1cd;" horiz-adv-x="740" 
d="M303 744.5q-7 4.5 -19 19.5l-100 133q-10 13 -10 23q0 16 24 16h65q21 0 29.5 -4.5t17.5 -17.5l60 -89l59 89q9 13 17.5 17.5t29.5 4.5h65q24 0 24 -16q0 -10 -10 -23l-100 -133q-11 -15 -18.5 -19.5t-27.5 -4.5h-79q-20 0 -27 4.5zM32 17q0 7 3 16l259 617
q7 17 15.5 23.5t24.5 6.5h73q16 0 24 -6.5t15 -23.5l259 -617q3 -9 3 -16q0 -17 -18 -17h-121q-14 0 -20.5 4.5t-11.5 16.5l-46 118h-243l-45 -118q-5 -12 -11.5 -16.5t-20.5 -4.5h-121q-18 0 -18 17zM453 254l-83 216l-84 -216h167z" />
    <glyph glyph-name="uni01CE" unicode="&#x1ce;" horiz-adv-x="617" 
d="M294 566.5q-7 4.5 -19 19.5l-100 133q-10 13 -10 23q0 16 24 16h65q21 0 29.5 -4.5t17.5 -17.5l60 -89l59 89q9 13 17.5 17.5t29.5 4.5h65q24 0 24 -16q0 -10 -10 -23l-100 -133q-11 -15 -18.5 -19.5t-27.5 -4.5h-79q-20 0 -27 4.5zM88.5 45q-57.5 60 -57.5 169
q0 84 39 147.5t109 98.5t162 35q71 0 125.5 -16t99.5 -46v-404q0 -17 -6.5 -23t-25.5 -6h-79q-11 0 -16.5 4t-8.5 13l-11 35q-30 -35 -73 -51t-104 -16q-96 0 -153.5 60zM379.5 124q32.5 25 32.5 68v175q-30 15 -72 15q-66 0 -105.5 -43.5t-39.5 -121.5q0 -60 27 -89t81 -29
q44 0 76.5 25z" />
    <glyph glyph-name="uni01CF" unicode="&#x1cf;" horiz-adv-x="325" 
d="M85 744.5q-7 4.5 -19 19.5l-100 133q-10 13 -10 23q0 16 24 16h65q21 0 29.5 -4.5t17.5 -17.5l60 -89l59 89q9 13 17.5 17.5t29.5 4.5h65q24 0 24 -16q0 -10 -10 -23l-100 -133q-11 -15 -18.5 -19.5t-27.5 -4.5h-79q-20 0 -27 4.5zM90.5 10.5q-10.5 10.5 -10.5 32.5v593
q0 22 10.5 33t34.5 11h75q25 0 35 -10.5t10 -33.5v-593q0 -22 -10 -32.5t-35 -10.5h-75q-24 0 -34.5 10.5z" />
    <glyph glyph-name="uni01D0" unicode="&#x1d0;" horiz-adv-x="285" 
d="M75.5 572.5q-7.5 4.5 -18.5 19.5l-100 133q-10 13 -10 22q0 17 27 17h61q21 0 30.5 -5t18.5 -18l58 -88l59 88q9 13 18.5 18t29.5 5h61q13 0 20 -5t7 -13q0 -9 -9 -21l-100 -133q-12 -15 -19 -19.5t-27 -4.5h-79q-20 0 -27.5 4.5zM70.5 10.5q-10.5 10.5 -10.5 32.5v393
q0 22 10.5 33t34.5 11h75q25 0 35 -10.5t10 -33.5v-393q0 -22 -10 -32.5t-35 -10.5h-75q-24 0 -34.5 10.5z" />
    <glyph glyph-name="uni01D1" unicode="&#x1d1;" horiz-adv-x="759" 
d="M313 744.5q-7 4.5 -19 19.5l-100 133q-10 13 -10 23q0 16 24 16h65q21 0 29.5 -4.5t17.5 -17.5l60 -89l59 89q9 13 17.5 17.5t29.5 4.5h65q24 0 24 -16q0 -10 -10 -23l-100 -133q-11 -15 -18.5 -19.5t-27.5 -4.5h-79q-20 0 -27 4.5zM120.5 78q-89.5 93 -89.5 262
t89.5 262t259.5 93q169 0 258.5 -93t89.5 -262t-89.5 -262t-258.5 -93q-170 0 -259.5 93zM517.5 163.5q46.5 59.5 46.5 176.5t-46.5 176.5t-137.5 59.5q-92 0 -138.5 -59.5t-46.5 -176.5t46.5 -176.5t138.5 -59.5q91 0 137.5 59.5z" />
    <glyph glyph-name="uni01D2" unicode="&#x1d2;" horiz-adv-x="623" 
d="M243 548.5q-7 4.5 -19 19.5l-100 133q-10 13 -10 23q0 16 24 16h65q21 0 29.5 -4.5t17.5 -17.5l60 -89l59 89q9 13 17.5 17.5t29.5 4.5h65q24 0 24 -16q0 -10 -10 -23l-100 -133q-11 -15 -18.5 -19.5t-27.5 -4.5h-79q-20 0 -27 4.5zM104.5 53.5q-73.5 68.5 -73.5 186.5
t73.5 186.5t206.5 68.5q134 0 207.5 -68.5t73.5 -186.5t-73.5 -186.5t-207.5 -68.5q-133 0 -206.5 68.5zM398 138q30 34 30 102q0 67 -30 101t-87 34q-56 0 -86 -34t-30 -101t30 -101.5t86 -34.5q57 0 87 34z" />
    <glyph glyph-name="uni01D3" unicode="&#x1d3;" horiz-adv-x="716" 
d="M291 744.5q-7 4.5 -19 19.5l-100 133q-10 13 -10 23q0 16 24 16h65q21 0 29.5 -4.5t17.5 -17.5l60 -89l59 89q9 13 17.5 17.5t29.5 4.5h65q24 0 24 -16q0 -10 -10 -23l-100 -133q-11 -15 -18.5 -19.5t-27.5 -4.5h-79q-20 0 -27 4.5zM195 16q-71 31 -110 89.5t-39 137.5
v393q0 22 10.5 33t34.5 11h75q25 0 35 -10.5t10 -33.5v-396q0 -65 39 -100.5t108 -35.5t107.5 35.5t38.5 100.5v396q0 22 10.5 33t34.5 11h75q25 0 35.5 -11t10.5 -33v-393q0 -79 -39.5 -137.5t-110 -89.5t-162.5 -31t-163 31z" />
    <glyph glyph-name="uni01D4" unicode="&#x1d4;" horiz-adv-x="597" 
d="M229 548.5q-7 4.5 -19 19.5l-100 133q-10 13 -10 23q0 16 24 16h65q21 0 29.5 -4.5t17.5 -17.5l60 -89l59 89q9 13 17.5 17.5t29.5 4.5h65q24 0 24 -16q0 -10 -10 -23l-100 -133q-11 -15 -18.5 -19.5t-27.5 -4.5h-79q-20 0 -27 4.5zM95.5 31q-49.5 46 -49.5 137v268
q0 22 10.5 33t34.5 11h75q25 0 35 -10.5t10 -33.5v-262q0 -39 19.5 -57t57.5 -18q41 0 66.5 22t25.5 60v255q0 22 10.5 33t35.5 11h74q25 0 35.5 -11t10.5 -33v-407q0 -17 -6 -23t-24 -6h-80q-23 0 -24 17l-4 37q-66 -69 -181 -69q-82 0 -131.5 46z" />
    <glyph glyph-name="uni01D5" unicode="&#x1d5;" horiz-adv-x="716" 
d="M189 948q-9 10 -9 33v36q0 23 9 33t33 10h271q24 0 33 -10t9 -33v-36q0 -23 -9 -33t-33 -10h-271q-24 0 -33 10zM208 767.5q-15 16.5 -15 40.5v22q0 24 15 40.5t39 16.5h23q24 0 39 -16.5t15 -40.5v-22q0 -24 -15 -40.5t-39 -16.5h-23q-24 0 -39 16.5zM413.5 767.5
q-15.5 16.5 -15.5 40.5v22q0 24 15.5 40.5t38.5 16.5h24q24 0 39 -16.5t15 -40.5v-22q0 -24 -15 -40.5t-39 -16.5h-24q-23 0 -38.5 16.5zM195 16q-71 31 -110 89.5t-39 137.5v393q0 22 10.5 33t34.5 11h75q25 0 35 -10.5t10 -33.5v-396q0 -65 39 -100.5t108 -35.5
t107.5 35.5t38.5 100.5v396q0 22 10.5 33t34.5 11h75q25 0 35.5 -11t10.5 -33v-393q0 -79 -39.5 -137.5t-110 -89.5t-162.5 -31t-163 31z" />
    <glyph glyph-name="uni01D6" unicode="&#x1d6;" horiz-adv-x="597" 
d="M128 743q-9 10 -9 33v36q0 23 9 33t33 10h271q24 0 33 -10t9 -33v-36q0 -23 -9 -33t-33 -10h-271q-24 0 -33 10zM147 572.5q-15 16.5 -15 40.5v22q0 24 15 40.5t39 16.5h23q24 0 39 -16.5t15 -40.5v-22q0 -24 -15 -40.5t-39 -16.5h-23q-24 0 -39 16.5zM352.5 572.5
q-15.5 16.5 -15.5 40.5v22q0 24 15.5 40.5t38.5 16.5h24q24 0 39 -16.5t15 -40.5v-22q0 -24 -15 -40.5t-39 -16.5h-24q-23 0 -38.5 16.5zM95.5 31q-49.5 46 -49.5 137v268q0 22 10.5 33t34.5 11h75q25 0 35 -10.5t10 -33.5v-262q0 -39 19.5 -57t57.5 -18q41 0 66.5 22
t25.5 60v255q0 22 10.5 33t35.5 11h74q25 0 35.5 -11t10.5 -33v-407q0 -17 -6 -23t-24 -6h-80q-23 0 -24 17l-4 37q-66 -69 -181 -69q-82 0 -131.5 46z" />
    <glyph glyph-name="uni01D7" unicode="&#x1d7;" horiz-adv-x="716" 
d="M320 937q0 5 4 17l34 94q5 15 10.5 19t23.5 4h49q24 0 24 -14q0 -8 -6 -19l-51 -93q-7 -12 -12.5 -16t-17.5 -4h-41q-17 0 -17 12zM204 772.5q-15 16.5 -15 40.5v22q0 24 15 40.5t39 16.5h23q24 0 39 -16.5t15 -40.5v-22q0 -24 -15 -40.5t-39 -16.5h-23q-24 0 -39 16.5z
M414 772.5q-15 16.5 -15 40.5v22q0 24 15 40.5t39 16.5h23q24 0 39 -16.5t15 -40.5v-22q0 -24 -15 -40.5t-39 -16.5h-23q-24 0 -39 16.5zM195 16q-71 31 -110 89.5t-39 137.5v393q0 22 10.5 33t34.5 11h75q25 0 35 -10.5t10 -33.5v-396q0 -65 39 -100.5t108 -35.5
t107.5 35.5t38.5 100.5v396q0 22 10.5 33t34.5 11h75q25 0 35.5 -11t10.5 -33v-393q0 -79 -39.5 -137.5t-110 -89.5t-162.5 -31t-163 31z" />
    <glyph glyph-name="uni01D8" unicode="&#x1d8;" horiz-adv-x="597" 
d="M276 741q0 5 4 17l34 94q5 15 10.5 19t23.5 4h49q24 0 24 -14q0 -8 -6 -19l-51 -93q-7 -12 -12.5 -16t-17.5 -4h-41q-17 0 -17 12zM160 566.5q-15 16.5 -15 40.5v22q0 24 15 40.5t39 16.5h23q24 0 39 -16.5t15 -40.5v-22q0 -24 -15 -40.5t-39 -16.5h-23q-24 0 -39 16.5z
M370 566.5q-15 16.5 -15 40.5v22q0 24 15 40.5t39 16.5h23q24 0 39 -16.5t15 -40.5v-22q0 -24 -15 -40.5t-39 -16.5h-23q-24 0 -39 16.5zM95.5 31q-49.5 46 -49.5 137v268q0 22 10.5 33t34.5 11h75q25 0 35 -10.5t10 -33.5v-262q0 -39 19.5 -57t57.5 -18q41 0 66.5 22
t25.5 60v255q0 22 10.5 33t35.5 11h74q25 0 35.5 -11t10.5 -33v-407q0 -17 -6 -23t-24 -6h-80q-23 0 -24 17l-4 37q-66 -69 -181 -69q-82 0 -131.5 46z" />
    <glyph glyph-name="uni01D9" unicode="&#x1d9;" horiz-adv-x="716" 
d="M298 933.5q-8 4.5 -19 19.5l-98 112q-11 13 -11 22q0 8 7 13t20 5h56q20 0 28.5 -4.5t18.5 -17.5l58 -73l58 73q11 13 19.5 17.5t27.5 4.5h56q13 0 20 -5t7 -13q0 -11 -10 -22l-98 -112q-12 -15 -20 -19.5t-27 -4.5h-65q-20 0 -28 4.5zM204 772.5q-15 16.5 -15 40.5v22
q0 24 15 40.5t39 16.5h23q24 0 39 -16.5t15 -40.5v-22q0 -24 -15 -40.5t-39 -16.5h-23q-24 0 -39 16.5zM414 772.5q-15 16.5 -15 40.5v22q0 24 15 40.5t39 16.5h23q24 0 39 -16.5t15 -40.5v-22q0 -24 -15 -40.5t-39 -16.5h-23q-24 0 -39 16.5zM195 16q-71 31 -110 89.5
t-39 137.5v393q0 22 10.5 33t34.5 11h75q25 0 35 -10.5t10 -33.5v-396q0 -65 39 -100.5t108 -35.5t107.5 35.5t38.5 100.5v396q0 22 10.5 33t34.5 11h75q25 0 35.5 -11t10.5 -33v-393q0 -79 -39.5 -137.5t-110 -89.5t-162.5 -31t-163 31z" />
    <glyph glyph-name="uni01DA" unicode="&#x1da;" horiz-adv-x="597" 
d="M223 715.5q-8 4.5 -19 19.5l-98 112q-11 13 -11 22q0 8 7 13t20 5h56q20 0 28.5 -4.5t18.5 -17.5l58 -73l58 73q11 13 19.5 17.5t27.5 4.5h56q13 0 20 -5t7 -13q0 -11 -10 -22l-98 -112q-12 -15 -20 -19.5t-27 -4.5h-65q-20 0 -28 4.5zM133 564.5q-15 16.5 -15 40.5v22
q0 24 15 40.5t39 16.5h23q24 0 39 -16.5t15 -40.5v-22q0 -24 -15 -40.5t-39 -16.5h-23q-24 0 -39 16.5zM343 564.5q-15 16.5 -15 40.5v22q0 24 15 40.5t39 16.5h23q24 0 39 -16.5t15 -40.5v-22q0 -24 -15 -40.5t-39 -16.5h-23q-24 0 -39 16.5zM95.5 31q-49.5 46 -49.5 137
v268q0 22 10.5 33t34.5 11h75q25 0 35 -10.5t10 -33.5v-262q0 -39 19.5 -57t57.5 -18q41 0 66.5 22t25.5 60v255q0 22 10.5 33t35.5 11h74q25 0 35.5 -11t10.5 -33v-407q0 -17 -6 -23t-24 -6h-80q-23 0 -24 17l-4 37q-66 -69 -181 -69q-82 0 -131.5 46z" />
    <glyph glyph-name="uni01DB" unicode="&#x1db;" horiz-adv-x="716" 
d="M323.5 929q-5.5 4 -12.5 16l-51 93q-6 11 -6 19q0 14 24 14h49q18 0 23.5 -4t10.5 -19l34 -94q4 -12 4 -17q0 -12 -17 -12h-41q-12 0 -17.5 4zM204 772.5q-15 16.5 -15 40.5v22q0 24 15 40.5t39 16.5h23q24 0 39 -16.5t15 -40.5v-22q0 -24 -15 -40.5t-39 -16.5h-23
q-24 0 -39 16.5zM414 772.5q-15 16.5 -15 40.5v22q0 24 15 40.5t39 16.5h23q24 0 39 -16.5t15 -40.5v-22q0 -24 -15 -40.5t-39 -16.5h-23q-24 0 -39 16.5zM195 16q-71 31 -110 89.5t-39 137.5v393q0 22 10.5 33t34.5 11h75q25 0 35 -10.5t10 -33.5v-396q0 -65 39 -100.5
t108 -35.5t107.5 35.5t38.5 100.5v396q0 22 10.5 33t34.5 11h75q25 0 35.5 -11t10.5 -33v-393q0 -79 -39.5 -137.5t-110 -89.5t-162.5 -31t-163 31z" />
    <glyph glyph-name="uni01DC" unicode="&#x1dc;" horiz-adv-x="597" 
d="M258.5 733q-5.5 4 -12.5 16l-51 93q-6 11 -6 19q0 14 24 14h49q18 0 23.5 -4t10.5 -19l34 -94q4 -12 4 -17q0 -12 -17 -12h-41q-12 0 -17.5 4zM139 566.5q-15 16.5 -15 40.5v22q0 24 15 40.5t39 16.5h23q24 0 39 -16.5t15 -40.5v-22q0 -24 -15 -40.5t-39 -16.5h-23
q-24 0 -39 16.5zM349 566.5q-15 16.5 -15 40.5v22q0 24 15 40.5t39 16.5h23q24 0 39 -16.5t15 -40.5v-22q0 -24 -15 -40.5t-39 -16.5h-23q-24 0 -39 16.5zM95.5 31q-49.5 46 -49.5 137v268q0 22 10.5 33t34.5 11h75q25 0 35 -10.5t10 -33.5v-262q0 -39 19.5 -57t57.5 -18
q41 0 66.5 22t25.5 60v255q0 22 10.5 33t35.5 11h74q25 0 35.5 -11t10.5 -33v-407q0 -17 -6 -23t-24 -6h-80q-23 0 -24 17l-4 37q-66 -69 -181 -69q-82 0 -131.5 46z" />
    <glyph glyph-name="Gcaron" unicode="&#x1e6;" horiz-adv-x="703" 
d="M332 744.5q-7 4.5 -19 19.5l-100 133q-10 13 -10 23q0 16 24 16h65q21 0 29.5 -4.5t17.5 -17.5l60 -89l59 89q9 13 17.5 17.5t29.5 4.5h65q24 0 24 -16q0 -10 -10 -23l-100 -133q-11 -15 -18.5 -19.5t-27.5 -4.5h-79q-20 0 -27 4.5zM126.5 76.5q-95.5 91.5 -95.5 263.5
t96 263.5t269 91.5q73 0 134 -14.5t101 -41.5q11 -7 11 -16q0 -4 -5 -14l-38 -64q-7 -11 -14 -11q-5 0 -16 6q-66 36 -152 36q-104 0 -163 -59t-59 -177q0 -119 55 -177t155 -58q32 0 63 5t50 14v154h-109q-24 0 -33 9.5t-9 32.5v36q0 22 9 31.5t33 9.5h212q28 0 39.5 -13
t11.5 -40v-254q0 -17 -4 -26t-16 -17q-97 -62 -256 -62q-174 0 -269.5 91.5z" />
    <glyph glyph-name="gcaron" unicode="&#x1e7;" horiz-adv-x="620" 
d="M260 548.5q-7 4.5 -19 19.5l-100 133q-10 13 -10 23q0 16 24 16h65q21 0 29.5 -4.5t17.5 -17.5l60 -89l59 89q9 13 17.5 17.5t29.5 4.5h65q24 0 24 -16q0 -10 -10 -23l-100 -133q-11 -15 -18.5 -19.5t-27.5 -4.5h-79q-20 0 -27 4.5zM192 -158q-57 12 -88 32q-7 6 -7 13
q0 5 3 10l36 61q3 5 6.5 8.5t7.5 3.5q2 0 12 -4q47 -24 133 -24q57 0 84.5 26t27.5 87q-48 -45 -135 -45q-116 0 -178.5 60t-62.5 171q0 124 75.5 189t220.5 65q70 0 135 -19.5t107 -48.5v-326q0 -123 -62 -197t-197 -74q-61 0 -118 12zM380.5 150.5q26.5 23.5 26.5 66.5
v150q-34 14 -89 14q-61 -1 -92 -31t-31 -100q0 -63 27.5 -93t85.5 -30q46 0 72.5 23.5z" />
    <glyph glyph-name="Aringacute" unicode="&#x1fa;" horiz-adv-x="740" 
d="M299 919q0 7 3 14l45 126q6 17 14.5 23t30.5 6h97q15 0 23.5 -5t8.5 -15q0 -8 -6 -19l-65 -122q-9 -17 -19 -22.5t-34 -5.5h-70q-28 0 -28 20zM708 17q0 -17 -18 -17h-121q-14 0 -20.5 4.5t-11.5 16.5l-46 118h-243l-45 -118q-5 -12 -11.5 -16.5t-20.5 -4.5h-121
q-18 0 -18 17q0 7 3 16l259 617l4 9q-22 16 -35 41.5t-13 54.5q0 50 35 85.5t85 35.5t85.5 -35.5t35.5 -85.5q0 -30 -13 -55t-36 -42l4 -8l259 -617q3 -9 3 -16zM337.5 787.5q-13.5 -13.5 -13.5 -32.5t13.5 -32.5t32.5 -13.5t32.5 13.5t13.5 32.5t-13.5 32.5t-32.5 13.5
t-32.5 -13.5zM453 254l-83 216l-84 -216h167z" />
    <glyph glyph-name="aringacute" unicode="&#x1fb;" horiz-adv-x="617" 
d="M254 828q0 5 3 11l45 101q7 13 15 18t30 5h97q14 0 23 -4.5t9 -11.5q0 -6 -6 -15l-65 -98q-9 -14 -19 -18t-34 -4h-70q-28 0 -28 16zM251 569q-35 35 -35 85t35 85.5t85 35.5t85.5 -35.5t35.5 -85.5t-35.5 -85t-85.5 -35t-85 35zM368.5 621.5q13.5 13.5 13.5 32.5
t-13.5 32.5t-32.5 13.5t-32.5 -13.5t-13.5 -32.5t13.5 -32.5t32.5 -13.5t32.5 13.5zM88.5 45q-57.5 60 -57.5 169q0 84 39 147.5t109 98.5t162 35q71 0 125.5 -16t99.5 -46v-404q0 -17 -6.5 -23t-25.5 -6h-79q-11 0 -16.5 4t-8.5 13l-11 35q-30 -35 -73 -51t-104 -16
q-96 0 -153.5 60zM379.5 124q32.5 25 32.5 68v175q-30 15 -72 15q-66 0 -105.5 -43.5t-39.5 -121.5q0 -60 27 -89t81 -29q44 0 76.5 25z" />
    <glyph glyph-name="AEacute" unicode="&#x1fc;" horiz-adv-x="894" 
d="M426 743q0 7 3 14l45 126q6 17 14.5 23t30.5 6h97q15 0 23.5 -5t8.5 -15q0 -8 -6 -19l-65 -122q-9 -17 -19 -22.5t-34 -5.5h-70q-28 0 -28 20zM36 5q-5 5 -5 13q0 3 4 15l259 617q7 17 15 23.5t25 6.5h484q24 0 33 -9.5t9 -32.5v-37q0 -23 -9 -33t-33 -10h-264v-158h175
q24 0 33 -9.5t9 -32.5v-35q0 -23 -9 -33t-33 -10h-175v-159h263q24 0 33.5 -10t9.5 -33v-36q0 -22 -9.5 -32t-33.5 -10h-372q-24 0 -34.5 10.5t-10.5 32.5v98h-152l-46 -123q-4 -11 -9 -14.5t-19 -3.5h-124q-9 0 -14 5zM400 254v304h-6l-112 -304h118z" />
    <glyph glyph-name="aeacute" unicode="&#x1fd;" horiz-adv-x="941" 
d="M382 577q0 7 3 14l45 126q6 17 14.5 23t30.5 6h97q15 0 23.5 -5t8.5 -15q0 -8 -6 -19l-65 -122q-9 -17 -19 -22.5t-34 -5.5h-70q-28 0 -28 20zM86 23q-55 38 -55 115q0 155 204 155h142v15q0 40 -27 61.5t-96 21.5q-67 0 -124 -27q-8 -4 -14 -4q-9 0 -15 12l-27 52
q-4 7 -4 13q0 8 11 15q72 43 187 43q140 0 192 -86q27 42 76 64t113 22q129 0 195 -65t66 -185q0 -42 -37 -42h-335q0 -53 39 -83t109 -30q42 0 72.5 8.5t58.5 24.5q10 5 14 5q7 0 13 -11l29 -54q4 -7 4 -13q0 -8 -11 -15q-41 -26 -87.5 -38t-109.5 -12q-71 0 -125.5 24.5
t-83.5 72.5q-36 -48 -94 -72.5t-131 -24.5q-94 0 -149 38zM764 289q0 106 -113 106t-113 -106h226zM345.5 114.5q31.5 24.5 31.5 72.5v20h-126q-81 0 -81 -61q0 -56 83 -56q61 0 92.5 24.5z" />
    <glyph glyph-name="Oslashacute" unicode="&#x1fe;" horiz-adv-x="759" 
d="M283 743q0 7 3 14l45 126q6 17 14.5 23t30.5 6h97q15 0 23.5 -5t8.5 -15q0 -8 -6 -19l-65 -122q-9 -17 -19 -22.5t-34 -5.5h-70q-28 0 -28 20zM689.5 529q38.5 -79 38.5 -189q0 -169 -89.5 -262t-258.5 -93q-34 0 -71 5l-23 -56q-8 -20 -29 -20h-99q-17 0 -17 15
q0 4 4 16l35 87q-73 42 -111 120.5t-38 187.5q0 169 89.5 262t259.5 93q39 0 68 -4l16 40q8 20 30 20h98q17 0 17 -14q0 -9 -4 -17l-29 -70q75 -42 113.5 -121zM237 170l164 405q-7 1 -21 1q-92 0 -138.5 -59.5t-46.5 -176.5q0 -110 42 -170zM517.5 163.5
q46.5 59.5 46.5 176.5q0 112 -43 172l-166 -407q8 -1 25 -1q91 0 137.5 59.5z" />
    <glyph glyph-name="oslashacute" unicode="&#x1ff;" horiz-adv-x="623" 
d="M258 602q0 7 3 14l45 126q6 17 14.5 23t30.5 6h97q15 0 23.5 -5t8.5 -15q0 -8 -6 -19l-65 -122q-9 -17 -19 -22.5t-34 -5.5h-70q-28 0 -28 20zM561 372q31 -57 31 -132q0 -118 -73.5 -186.5t-207.5 -68.5q-23 0 -34 1l-21 -52q-8 -20 -29 -20h-99q-17 0 -17 15q0 4 4 16
l32 78q-57 31 -86.5 87t-29.5 130q0 118 73.5 186.5t206.5 68.5q19 0 29 -1l24 59q8 20 30 20h98q17 0 17 -14q0 -9 -4 -17l-34 -82q59 -31 90 -88zM207 169l84 205q-96 -12 -96 -134q0 -42 12 -71zM402 143q26 34 26 97q0 47 -15 78l-87 -213q50 4 76 38z" />
    <glyph glyph-name="Scommaaccent" unicode="&#x218;" horiz-adv-x="598" 
d="M162.5 1q-72.5 16 -115.5 46q-15 11 -15 20q0 6 5 14l40 64q6 10 13 10q6 0 15 -6q35 -20 84.5 -32.5t98.5 -12.5q58 0 86 18.5t28 58.5q0 28 -14.5 46t-41.5 31t-79 31q-63 23 -107.5 48t-73.5 65t-29 97q0 97 67 146.5t179 49.5q152 0 233 -56q15 -12 15 -20
q0 -6 -5 -14l-40 -64q-7 -10 -14 -10q-5 0 -14 6q-61 39 -149 39q-108 0 -108 -78q0 -29 16 -47t41.5 -29.5t86.5 -34.5q74 -28 115.5 -53t64 -62.5t22.5 -96.5q0 -87 -64.5 -138.5t-190.5 -51.5q-77 0 -149.5 16zM186 -250q0 4 2 12l49 163q5 19 13.5 25t29.5 6h66
q31 0 31 -18q0 -10 -6 -23l-69 -162q-5 -10 -12.5 -15t-21.5 -5h-60q-22 0 -22 17z" />
    <glyph glyph-name="scommaaccent" unicode="&#x219;" horiz-adv-x="529" 
d="M149 -2q-58 13 -102 38q-16 9 -16 18q0 5 5 13l34 62q6 10 13 10q5 0 15 -5q28 -16 74 -28.5t83 -12.5q78 0 78 42q0 22 -25 34t-98 34q-84 25 -121.5 56.5t-37.5 90.5q0 71 59.5 108t159.5 37q120 0 201 -48q16 -9 16 -19q0 -6 -6 -15l-34 -54q-6 -10 -12 -10
q-5 0 -14 6q-25 14 -59 23t-68 9q-84 0 -84 -43q0 -20 23 -31.5t77 -26.5q41 -11 57 -17q52 -17 79.5 -34.5t39.5 -41t12 -61.5q0 -65 -57.5 -106t-169.5 -41q-64 0 -122 13zM163 -249q0 3 2 11l49 163q6 19 14.5 25t28.5 6h66q31 0 31 -18q0 -10 -6 -23l-69 -162
q-5 -10 -12.5 -15t-21.5 -5h-60q-22 0 -22 18z" />
    <glyph glyph-name="uni021A" unicode="&#x21a;" horiz-adv-x="601" 
d="M227.5 10.5q-10.5 10.5 -10.5 32.5v515h-164q-24 0 -33 9.5t-9 32.5v37q0 23 9 33t33 10h494q24 0 33.5 -10t9.5 -33v-37q0 -22 -9.5 -32t-33.5 -10h-164v-515q0 -22 -10.5 -32.5t-35.5 -10.5h-74q-25 0 -35.5 10.5zM184 -234q0 4 2 12l46 155q5 19 14 25t29 6h66
q31 0 31 -18q0 -10 -6 -23l-66 -154q-4 -10 -12 -15t-22 -5h-60q-22 0 -22 17z" />
    <glyph glyph-name="uni021B" unicode="&#x21b;" horiz-adv-x="472" 
d="M148 35q-47 50 -47 138v191h-49q-24 0 -32 9t-8 32v33q0 23 8 32.5t32 9.5h49v40q0 22 9.5 43.5t27.5 53.5q8 14 15 18.5t25 4.5h46q23 0 32.5 -10t9.5 -32v-118h99q24 0 32 -9.5t8 -32.5v-33q0 -23 -8 -32t-32 -9h-99v-187q0 -39 14 -56t47 -17q20 0 33.5 5t30.5 16
q8 5 12 5q9 0 15 -11l37 -63q5 -8 5 -13q0 -7 -12 -15q-63 -43 -162 -43q-91 0 -138 50zM163 -234q0 4 2 12l46 155q5 19 14 25t29 6h66q31 0 31 -18q0 -10 -6 -23l-66 -154q-4 -10 -12 -15t-22 -5h-60q-22 0 -22 17z" />
    <glyph glyph-name="uni0237" unicode="&#x237;" horiz-adv-x="331" 
d="M-39.5 -156q-48.5 14 -82.5 39q-10 7 -10 16q0 8 6 17l36 61q7 12 15 12q4 0 15 -7q24 -16 46 -24.5t49 -8.5q42 0 60 20t18 62v405q0 22 10.5 33t34.5 11h75q25 0 35.5 -11t10.5 -33v-408q0 -92 -54 -145t-158 -53q-58 0 -106.5 14z" />
    <glyph glyph-name="uni0251" unicode="&#x251;" horiz-adv-x="617" 
d="M88.5 45q-57.5 60 -57.5 169q0 84 39 147.5t109 98.5t162 35q71 0 125.5 -16t99.5 -46v-404q0 -17 -6.5 -23t-25.5 -6h-79q-11 0 -16.5 4t-8.5 13l-11 35q-30 -35 -73 -51t-104 -16q-96 0 -153.5 60zM379.5 124q32.5 25 32.5 68v175q-30 15 -72 15q-66 0 -105.5 -43.5
t-39.5 -121.5q0 -60 27 -89t81 -29q44 0 76.5 25z" />
    <glyph glyph-name="uni0259" unicode="&#x259;" horiz-adv-x="596" 
d="M97 50q-66 65 -66 185q0 42 37 42h341q0 54 -41 83.5t-112 29.5q-42 0 -72.5 -8.5t-59.5 -24.5q-10 -5 -14 -5q-7 0 -13 11l-29 53q-4 7 -4 13q0 9 11 16q41 26 90.5 38t113.5 12q81 0 145.5 -27.5t102.5 -83.5t38 -138q0 -127 -71 -194t-202 -67q-129 0 -195 65z
M379 112.5q30 28.5 30 77.5h-230q0 -50 28 -78t85 -28t87 28.5z" />
    <glyph glyph-name="uni02BB" unicode="&#x2bb;" horiz-adv-x="256" 
d="M31 473q0 10 6 23l72 170q4 10 12 15t22 5h60q22 0 22 -17q0 -4 -2 -12l-52 -171q-6 -19 -14.5 -25t-28.5 -6h-66q-31 0 -31 18z" />
    <glyph glyph-name="uni02BC" unicode="&#x2bc;" horiz-adv-x="256" 
d="M31 472q0 4 2 12l52 171q6 19 14.5 25t28.5 6h66q31 0 31 -18q0 -9 -6 -23l-72 -170q-4 -10 -12 -15t-22 -5h-60q-22 0 -22 17z" />
    <glyph glyph-name="uni02BE" unicode="&#x2be;" 
d="M-71 547.5q-5 4.5 -5 11.5v67q0 10 4.5 13.5t14.5 3.5q23 0 34 7.5t11 27.5q0 21 -11 28.5t-34 7.5q-10 0 -14.5 3.5t-4.5 13.5v67q0 7 5 11.5t13 4.5q74 0 113.5 -30t39.5 -106q0 -75 -40.5 -105t-112.5 -30q-8 0 -13 4.5z" />
    <glyph glyph-name="uni02BF" unicode="&#x2bf;" 
d="M-39.5 573q-40.5 30 -40.5 105q0 76 39 106t114 30q8 0 13 -4.5t5 -11.5v-67q0 -10 -4.5 -13.5t-14.5 -3.5q-23 0 -34.5 -7.5t-11.5 -28.5q0 -20 11.5 -27.5t34.5 -7.5q10 0 14.5 -3.5t4.5 -13.5v-67q0 -7 -5 -11.5t-13 -4.5q-72 0 -112.5 30z" />
    <glyph glyph-name="circumflex" unicode="&#x2c6;" horiz-adv-x="453" 
d="M38.5 561q-6.5 5 -6.5 13q0 10 9 22l100 133q11 15 18.5 19.5t27.5 4.5h79q20 0 26.5 -4.5t19.5 -19.5l100 -133q9 -13 9 -22q0 -8 -7 -13t-20 -5h-61q-21 0 -30 5t-18 19l-59 88l-58 -88q-9 -14 -18.5 -19t-30.5 -5h-61q-13 0 -19.5 5z" />
    <glyph glyph-name="caron" unicode="&#x2c7;" horiz-adv-x="453" 
d="M159.5 572.5q-7.5 4.5 -18.5 19.5l-100 133q-10 13 -10 22q0 17 27 17h61q21 0 30.5 -5t18.5 -18l58 -88l59 88q9 13 18.5 18t29.5 5h61q13 0 20 -5t7 -13q0 -9 -9 -21l-100 -133q-12 -15 -19 -19.5t-27 -4.5h-79q-20 0 -27.5 4.5z" />
    <glyph glyph-name="uni02C8" unicode="&#x2c8;" 
d="M-54 564q-11 10 -11 34v100q0 24 11 34t34 10h39q23 0 34.5 -10t11.5 -34v-100q0 -24 -11.5 -34t-34.5 -10h-39q-23 0 -34 10z" />
    <glyph glyph-name="uni02C9" unicode="&#x2c9;" horiz-adv-x="235" 
d="M-51 591q-9 10 -9 33v36q0 23 9 33t33 10h272q24 0 33 -10t9 -33v-36q0 -23 -9 -33t-33 -10h-272q-24 0 -33 10z" />
    <glyph glyph-name="uni02CA" unicode="&#x2ca;" 
d="M-95 583q0 7 3 14l46 126q6 17 14 23t30 6h97q15 0 23.5 -5t8.5 -15q0 -8 -6 -19l-65 -122q-9 -17 -18.5 -22.5t-33.5 -5.5h-71q-28 0 -28 20z" />
    <glyph glyph-name="uni02CB" unicode="&#x2cb;" 
d="M-32.5 568.5q-9.5 5.5 -18.5 22.5l-66 122q-6 11 -6 18q0 10 9 15.5t24 5.5h96q23 0 31 -5.5t14 -23.5l46 -126q3 -7 3 -13q0 -21 -29 -21h-70q-24 0 -33.5 5.5z" />
    <glyph glyph-name="uni02CC" unicode="&#x2cc;" 
d="M-54 -214.5q-11 9.5 -11 33.5v101q0 24 11 34t34 10h39q23 0 34.5 -10t11.5 -34v-101q0 -24 -11 -33.5t-35 -9.5h-39q-23 0 -34 9.5z" />
    <glyph glyph-name="breve" unicode="&#x2d8;" horiz-adv-x="416" 
d="M76 612.5q-45 46.5 -45 121.5q0 8 4.5 13t11.5 5h87q10 0 13.5 -4.5t3.5 -14.5q0 -62 57 -62t57 62q0 10 3.5 14.5t13.5 4.5h87q7 0 11.5 -5t4.5 -13q0 -75 -45.5 -121.5t-131.5 -46.5q-87 0 -132 46.5z" />
    <glyph glyph-name="dotaccent" unicode="&#x2d9;" horiz-adv-x="193" 
d="M46 593.5q-15 16.5 -15 40.5v22q0 24 15 40.5t39 16.5h23q24 0 39 -16.5t15 -40.5v-22q0 -24 -15 -40.5t-39 -16.5h-23q-24 0 -39 16.5z" />
    <glyph glyph-name="ring" unicode="&#x2da;" horiz-adv-x="302" 
d="M65 578.5q-35 34.5 -35 85.5t35.5 86t85.5 35t85.5 -35t35.5 -86t-35 -85.5t-86 -34.5t-86 34.5zM184 631.5q13 13.5 13 32.5t-13.5 32.5t-32.5 13.5q-20 0 -33.5 -13.5t-13.5 -32.5q0 -20 13.5 -33t33.5 -13t33 13.5z" />
    <glyph glyph-name="ogonek" unicode="&#x2db;" horiz-adv-x="256" 
d="M56 -211.5q-25 22.5 -25 60.5q0 28 14.5 57t46.5 66q7 8 11.5 10.5t13.5 2.5h78q9 0 12 -5t-2 -11q-37 -43 -49 -63.5t-12 -41.5q0 -13 6.5 -20t17.5 -7q15 0 23 4q4 2 6 2q4 0 7 -7l19 -39q1 -2 1 -6q0 -6 -10 -10q-31 -15 -84 -15q-49 0 -74 22.5z" />
    <glyph glyph-name="tilde" unicode="&#x2dc;" horiz-adv-x="505" 
d="M299 571.5q-21 7.5 -48 20.5q-26 12 -41.5 17.5t-32.5 5.5q-19 0 -30.5 -6.5t-27.5 -25.5q-9 -11 -21 -11q-15 0 -44 23q-24 20 -24 35q0 12 12 28q27 37 53 55t64 18q29 0 52.5 -7.5t51.5 -21.5q21 -11 36.5 -16.5t31.5 -5.5q18 0 30.5 7.5t28.5 27.5q9 12 22 12
q15 0 42 -21q27 -20 27 -37q0 -11 -11 -28q-29 -41 -56.5 -59t-70.5 -18q-23 0 -44 7.5z" />
    <glyph glyph-name="hungarumlaut" unicode="&#x2dd;" horiz-adv-x="513" 
d="M38.5 568.5q-7.5 5.5 -7.5 14.5q0 4 4 14l63 126q8 17 15.5 23t28.5 6h85q15 0 24 -5.5t9 -15.5q0 -8 -7 -18l-82 -122q-13 -18 -21 -23t-31 -5h-59q-14 0 -21.5 5.5zM259.5 568.5q-7.5 5.5 -7.5 14.5q0 7 4 14l62 126q9 17 16.5 23t28.5 6h85q15 0 24 -5.5t9 -15.5
q0 -8 -7 -18l-82 -122q-12 -18 -21 -23t-32 -5h-58q-14 0 -21.5 5.5z" />
    <glyph glyph-name="gravecomb" unicode="&#x300;" 
d="M-160.5 562.5q-9.5 5.5 -18.5 22.5l-66 122q-6 11 -6 18q0 10 9 15.5t24 5.5h96q23 0 31 -5.5t14 -23.5l46 -126q3 -7 3 -13q0 -21 -29 -21h-70q-24 0 -33.5 5.5z" />
    <glyph glyph-name="acutecomb" unicode="&#x301;" 
d="M-217 577q0 7 3 14l45 126q6 17 14.5 23t30.5 6h97q15 0 23.5 -5t8.5 -15q0 -8 -6 -19l-65 -122q-9 -17 -19 -22.5t-34 -5.5h-70q-28 0 -28 20z" />
    <glyph glyph-name="uni0302" unicode="&#x302;" 
d="M-188 561q-7 5 -7 13q0 10 9 22l100 133q13 15 19.5 19.5t26.5 4.5h79q20 0 27.5 -4.5t18.5 -19.5l100 -133q9 -13 9 -22q0 -8 -6.5 -13t-19.5 -5h-61q-21 0 -30 5t-18 19l-59 88l-59 -88q-9 -14 -18 -19t-30 -5h-61q-13 0 -20 5z" />
    <glyph glyph-name="tildecomb" unicode="&#x303;" 
d="M-70 571q-21 7 -49 21q-24 11 -40.5 17t-33.5 6q-19 0 -30.5 -7t-27.5 -25q-9 -11 -20 -11q-15 0 -44 23q-25 19 -25 35q0 12 12 28q28 37 54 55t64 18q29 0 52 -7.5t52 -22.5q22 -11 37 -16t30 -5q19 0 31 7.5t28 27.5q9 12 22 12q16 0 43 -21t27 -37q0 -11 -12 -28
q-28 -41 -55.5 -59t-70.5 -18q-23 0 -44 7z" />
    <glyph glyph-name="uni0304" unicode="&#x304;" 
d="M-168 585q-9 10 -9 33v36q0 23 9 33t33 10h271q24 0 33 -10t9 -33v-36q0 -23 -9 -33t-33 -10h-271q-24 0 -33 10z" />
    <glyph glyph-name="uni0306" unicode="&#x306;" 
d="M-132 606.5q-45 46.5 -45 121.5q0 8 4.5 13t11.5 5h87q10 0 13.5 -4.5t3.5 -14.5q0 -62 57 -62t57 62q0 10 3.5 14.5t13.5 4.5h87q7 0 11.5 -5t4.5 -13q0 -75 -45.5 -121.5t-131.5 -46.5q-87 0 -132 46.5z" />
    <glyph glyph-name="uni0307" unicode="&#x307;" 
d="M-51 587.5q-15 16.5 -15 40.5v22q0 24 15 40.5t39 16.5h24q23 0 38.5 -16.5t15.5 -40.5v-22q0 -24 -15 -40.5t-39 -16.5h-24q-24 0 -39 16.5z" />
    <glyph glyph-name="uni0308" unicode="&#x308;" 
d="M-152 557.5q-15 16.5 -15 40.5v22q0 24 15 40.5t39 16.5h23q24 0 39 -16.5t15 -40.5v-22q0 -24 -15 -40.5t-39 -16.5h-23q-24 0 -39 16.5zM53.5 557.5q-15.5 16.5 -15.5 40.5v22q0 24 15.5 40.5t38.5 16.5h24q24 0 39 -16.5t15 -40.5v-22q0 -24 -15 -40.5t-39 -16.5h-24
q-23 0 -38.5 16.5z" />
    <glyph glyph-name="hookabovecomb" unicode="&#x309;" 
d="M-178 574v48q0 16 8 23.5t28 7.5q29 0 41.5 7.5t12.5 24.5q0 28 -44 28q-19 0 -35 -5t-36 -14q-7 -3 -11 3l-24 54q-1 2 -1 6q0 3 5 7q20 14 53.5 22t65.5 8q68 0 102.5 -26.5t34.5 -76.5q0 -45 -27.5 -71.5t-67.5 -26.5v-19q0 -23 -23 -23h-59q-23 0 -23 23z" />
    <glyph glyph-name="uni030A" unicode="&#x30a;" 
d="M-85 579q-35 35 -35 85t35 85.5t85 35.5t85.5 -35.5t35.5 -85.5t-35.5 -85t-85.5 -35t-85 35zM32.5 631.5q13.5 13.5 13.5 32.5t-13.5 32.5t-32.5 13.5t-32.5 -13.5t-13.5 -32.5t13 -32.5t33 -13.5q19 0 32.5 13.5z" />
    <glyph glyph-name="uni030B" unicode="&#x30b;" 
d="M-223.5 568.5q-7.5 5.5 -7.5 14.5q0 4 4 14l62 126q9 17 16.5 23t28.5 6h85q15 0 24 -5.5t9 -15.5q0 -8 -7 -18l-82 -122q-13 -18 -21.5 -23t-31.5 -5h-58q-14 0 -21.5 5.5zM-2.5 568.5q-7.5 5.5 -7.5 15.5q0 6 3 13l63 126q9 18 16 23.5t29 5.5h84q15 0 24.5 -5.5
t9.5 -15.5q0 -8 -7 -18l-83 -122q-12 -17 -20.5 -22.5t-31.5 -5.5h-58q-14 0 -21.5 5.5z" />
    <glyph glyph-name="uni030C" unicode="&#x30c;" 
d="M-67 566.5q-7 4.5 -19 19.5l-100 133q-10 13 -10 23q0 16 24 16h65q21 0 29.5 -4.5t17.5 -17.5l60 -89l59 89q9 13 17.5 17.5t29.5 4.5h65q24 0 24 -16q0 -10 -10 -23l-100 -133q-11 -15 -18.5 -19.5t-27.5 -4.5h-79q-20 0 -27 4.5z" />
    <glyph glyph-name="uni031B" unicode="&#x31b;" 
d="M-125 620q44 0 67.5 8.5t33.5 29.5t10 60q0 18 5 24.5t18 6.5h87q14 0 19.5 -6.5t5.5 -24.5q0 -107 -55.5 -158t-190.5 -51v111z" />
    <glyph glyph-name="dotbelowcomb" unicode="&#x323;" 
d="M-170.5 -178.5q-15.5 16.5 -15.5 40.5v22q0 24 15.5 40.5t38.5 16.5h24q24 0 39 -16.5t15 -40.5v-22q0 -24 -15 -40.5t-39 -16.5h-24q-23 0 -38.5 16.5z" />
    <glyph glyph-name="uni0324" unicode="&#x324;" 
d="M-154.5 -178.5q-15.5 16.5 -15.5 40.5v22q0 24 15.5 40.5t38.5 16.5h24q23 0 38.5 -16.5t15.5 -40.5v-22q0 -24 -15 -40.5t-39 -16.5h-24q-23 0 -38.5 16.5zM54 -178.5q-15 16.5 -15 40.5v22q0 24 15 40.5t39 16.5h23q24 0 39 -16.5t15 -40.5v-22q0 -24 -15 -40.5
t-39 -16.5h-23q-24 0 -39 16.5z" />
    <glyph glyph-name="uni0326" unicode="&#x326;" 
d="M-57 -257l2 12l51 171q6 19 14.5 25t28.5 6h66q31 0 31 -18q0 -10 -6 -23l-72 -170q-4 -10 -11.5 -15t-21.5 -5h-60q-22 0 -22 17z" />
    <glyph glyph-name="uni0327" unicode="&#x327;" 
d="M-51 -235q-26 5 -40 12q-9 5 -11 8t1 10l17 44q3 7 8 7q4 0 10 -3q22 -10 45 -10q19 0 27.5 6t8.5 19q0 17 -13 23t-43 6h-16q-8 0 -10.5 4.5t0.5 11.5l27 68q3 8 7.5 11t14.5 3h83q12 0 12 -8q0 -5 -2 -8l-23 -50q69 -9 69 -74q0 -38 -31 -61.5t-90 -23.5q-25 0 -51 5z
" />
    <glyph glyph-name="uni0328" unicode="&#x328;" 
d="M-98 -210.5q-24 23.5 -24 59.5q0 28 14.5 57t46.5 66q7 8 11.5 10.5t13.5 2.5h78q9 0 12 -5t-2 -11q-36 -42 -48 -63t-12 -42q0 -27 24 -27q14 0 22 4q4 2 6 2q5 0 8 -7l18 -39q2 -4 2 -6q0 -6 -12 -11q-28 -14 -88 -14q-46 0 -70 23.5z" />
    <glyph glyph-name="uni032E" unicode="&#x32e;" 
d="M-132 -176.5q-45 46.5 -45 121.5q0 8 4.5 13t11.5 5h87q10 0 13.5 -4.5t3.5 -14.5q0 -62 57 -62t57 62q0 10 3.5 14.5t13.5 4.5h87q7 0 11.5 -5t4.5 -13q0 -75 -45.5 -121.5t-131.5 -46.5q-87 0 -132 46.5z" />
    <glyph glyph-name="uni0331" unicode="&#x331;" 
d="M-159 -164.5q-9 9.5 -9 32.5v25q0 23 9 33t33 10h252q24 0 33 -10t9 -33v-25q0 -23 -9 -32.5t-33 -9.5h-252q-24 0 -33 9.5z" />
    <glyph glyph-name="uni0394" unicode="&#x394;" horiz-adv-x="764" 
d="M31 26q0 7 5 19l280 653q6 13 11.5 17.5t17.5 4.5h75q12 0 18 -5t11 -17l279 -653q5 -12 5 -19q0 -26 -34 -26h-634q-34 0 -34 26zM530 122l-148 353l-149 -353h297z" />
    <glyph glyph-name="uni03A9" unicode="&#x3a9;" horiz-adv-x="752" 
d="M39.5 10q-8.5 10 -8.5 32v38q0 23 9 33t32 10h95q-58 35 -94 99t-36 143q0 95 36 169t112 117.5t191 43.5t191 -43.5t112 -118t36 -168.5q0 -80 -36 -143.5t-95 -98.5h96q23 0 32 -10t9 -33v-38q0 -22 -9 -32t-32 -10h-209q-31 0 -42 10t-11 36v35q0 18 6 31.5t26 30.5
q52 45 76.5 93.5t24.5 128.5q0 101 -46 156t-130 55q-83 0 -128.5 -55t-45.5 -156q0 -80 24.5 -127.5t76.5 -94.5q19 -17 25.5 -31t6.5 -31v-35q0 -26 -11.5 -36t-42.5 -10h-209q-23 0 -31.5 10z" />
    <glyph glyph-name="uni03BC" unicode="&#x3bc;" horiz-adv-x="562" 
d="M41.5 -166q-10.5 11 -10.5 33v569q0 25 11.5 34.5t40.5 9.5h68q24 0 34.5 -10.5t10.5 -33.5v-262q0 -36 20 -55.5t57 -19.5q46 0 69 21.5t23 60.5v255q0 27 14 35.5t52 8.5h54q25 0 35.5 -10.5t10.5 -33.5v-407q0 -17 -6 -23t-24 -6h-80q-12 0 -17.5 4t-6.5 13l-4 37
q-16 -35 -43.5 -52t-73.5 -17q-22 0 -44.5 4.5t-35.5 11.5v-134q0 -27 -13.5 -35.5t-51.5 -8.5h-55q-24 0 -34.5 11z" />
    <glyph glyph-name="pi" unicode="&#x3c0;" horiz-adv-x="719" 
d="M416 35q-47 50 -47 138v185h-117v-315q0 -26 -13.5 -34.5t-50.5 -8.5h-50q-25 0 -35.5 10.5t-10.5 32.5v315h-29q-24 0 -33 9.5t-9 32.5v33q0 26 8 36.5t34 10.5h500q25 0 33.5 -10.5t8.5 -36.5v-33q0 -23 -9 -32.5t-33 -9.5h-29v-181q0 -39 14 -56t47 -17q20 0 33.5 5
t30.5 16q8 5 12 5q9 0 15 -11l37 -63q5 -8 5 -13q0 -7 -12 -15q-63 -43 -162 -43q-91 0 -138 50z" />
    <glyph glyph-name="uni0E01" unicode="&#xe01;" horiz-adv-x="631" 
d="M73 10.5q-10 10.5 -10 32.5v285l-23 56q-9 23 -9 33q0 16 15 28q48 40 117.5 67.5t151.5 27.5q140 0 202 -60.5t62 -162.5v-274q0 -22 -10.5 -32.5t-35.5 -10.5h-74q-25 0 -35.5 10.5t-10.5 32.5v278q0 50 -23.5 74.5t-75.5 24.5q-66 0 -111 -35l12 -24q7 -14 10 -27
t3 -32v-259q0 -22 -10.5 -32.5t-35.5 -10.5h-74q-25 0 -35 10.5z" />
    <glyph glyph-name="uni0E02" unicode="&#xe02;" horiz-adv-x="585" 
d="M100.5 35.5q-66.5 50.5 -66.5 138.5v47q0 102 79 152v16q0 8 -4.5 10.5t-15.5 2.5h-31q-17 0 -24 7.5t-7 24.5v59q0 17 7 24.5t24 7.5h135q35 0 48.5 -14.5t13.5 -47.5v-76q0 -28 -17 -42q-24 -19 -34 -42t-10 -60v-66q0 -66 86 -66q45 0 64.5 17t19.5 49v304
q0 23 10 33.5t35 10.5h75q25 0 35 -10.5t10 -33.5v-289q0 -96 -64 -151.5t-185 -55.5q-117 0 -183.5 50.5z" />
    <glyph glyph-name="uni0E03" unicode="&#xe03;" horiz-adv-x="593" 
d="M157 7q-56 22 -85.5 61.5t-29.5 91.5v36q0 59 34 104t89 70v27q0 20 -16 20t-25 -16v-7q0 -23 -22 -23h-47q-23 0 -23 23v108q0 23 23 23h59q23 0 23 -23v-5q32 28 77 28q35 0 53.5 -20t18.5 -55v-81q0 -16 -4 -25.5t-16 -17.5q-30 -21 -45 -44t-15 -61v-46q0 -71 84 -71
q86 0 86 73v304q0 22 10.5 33t34.5 11h75q25 0 35 -10.5t10 -33.5v-295q0 -59 -29.5 -104.5t-86.5 -71t-135 -25.5q-77 0 -133 22z" />
    <glyph glyph-name="uni0E04" unicode="&#xe04;" horiz-adv-x="626" 
d="M61.5 10.5q-10.5 10.5 -10.5 32.5v287q0 99 67.5 154.5t193.5 55.5t194 -55.5t68 -154.5v-287q0 -22 -10.5 -32.5t-35.5 -10.5h-75q-24 0 -34.5 10.5t-10.5 32.5v286q0 92 -96 92t-96 -92v-85q29 38 77 38h35q11 0 15.5 -4.5t4.5 -15.5v-77q0 -13 -5 -18.5t-16 -5.5h-39
q-32 0 -52 -25t-20 -61v-32q0 -22 -10 -32.5t-35 -10.5h-75q-24 0 -34.5 10.5z" />
    <glyph glyph-name="uni0E05" unicode="&#xe05;" horiz-adv-x="626" 
d="M61.5 10.5q-10.5 10.5 -10.5 32.5v353q0 68 36.5 106t111.5 38q36 0 66 -13t48 -35q18 22 47.5 35t65.5 13q148 0 148 -144v-353q0 -22 -10.5 -32.5t-35.5 -10.5h-75q-24 0 -34.5 10.5t-10.5 32.5v328q0 27 -8 38.5t-31 11.5q-14 0 -22.5 -6t-15.5 -17q-5 -6 -8.5 -8.5
t-10.5 -2.5q-12 0 -19 11q-2 2 -7.5 9t-13 10.5t-17.5 3.5q-22 0 -30.5 -12t-8.5 -38v-127q29 38 77 38h35q11 0 15.5 -4.5t4.5 -15.5v-77q0 -13 -5 -18.5t-16 -5.5h-39q-32 0 -52 -25t-20 -61v-32q0 -22 -10 -32.5t-35 -10.5h-75q-24 0 -34.5 10.5z" />
    <glyph glyph-name="uni0E06" unicode="&#xe06;" horiz-adv-x="607" 
d="M180 56l-2 -33q-1 -23 -29 -23h-71q-20 0 -28.5 9.5t-8.5 29.5v154q0 60 32.5 106t90.5 71v27q0 20 -17 20q-7 0 -14 -4.5t-10 -11.5v-7q0 -23 -22 -23h-47q-23 0 -23 31v100q0 23 23 23h59q23 0 23 -23v-5q30 28 76 28q34 0 52 -18.5t19 -51.5v-74q0 -20 -4.5 -33
t-15.5 -22q-30 -24 -43 -45.5t-13 -60.5v-38q0 -33 30 -57.5t73 -24.5q41 0 60.5 19t19.5 59v303q0 22 10.5 33t35.5 11h74q25 0 35 -10.5t10 -33.5v-308q0 -92 -52.5 -140t-141.5 -48q-117 0 -181 71z" />
    <glyph glyph-name="uni0E07" unicode="&#xe07;" horiz-adv-x="612" 
d="M171 20q-51 35 -76 113l-58 183q-4 14 -4 18q0 15 18 21l92 31q14 4 17 4q8 0 13 -6t10 -19l64 -200q11 -35 27 -48.5t53 -13.5q49 0 70 40t21 126q0 80 -19.5 115.5t-64.5 35.5q-16 0 -31 -6.5t-19 -7.5q-8 -2 -10 -2q-10 0 -16 14l-25 71q-2 8 -2 10q0 7 11 14
q53 27 125 27q104 0 159.5 -73t55.5 -199q0 -138 -68.5 -210.5t-197.5 -72.5q-94 0 -145 35z" />
    <glyph glyph-name="uni0E08" unicode="&#xe08;" horiz-adv-x="585" 
d="M151.5 29.5q-50.5 44.5 -50.5 111.5v32h-32q-18 0 -25 7t-7 25v56q0 17 7 24.5t25 7.5h123q25 0 35 -10.5t10 -32.5v-83q0 -33 16 -48t52 -15q44 0 64.5 36.5t20.5 117.5q0 87 -36 125t-114 38q-74 0 -136 -31q-14 -6 -17 -6q-9 0 -16 13l-34 60q-5 10 -5 17q0 10 11 17
q40 24 101 36.5t130 12.5q151 0 216 -73t65 -209q0 -138 -66 -205.5t-184 -67.5q-103 0 -153.5 44.5z" />
    <glyph glyph-name="uni0E09" unicode="&#xe09;" horiz-adv-x="603" 
d="M97.5 32.5q-51.5 47.5 -51.5 140.5v86q0 22 10.5 33t34.5 11h75q25 0 35.5 -11t10.5 -33v-81q0 -40 19.5 -59.5t62.5 -19.5t67.5 24.5t24.5 61.5v93q0 76 -35.5 109.5t-109.5 33.5q-69 0 -137 -33q-10 -6 -17 -6q-9 0 -16 13l-34 62q-6 9 -6 17q0 10 12 17q40 23 101 36
t130 13q147 0 212 -65.5t65 -187.5v-248q0 -39 -38 -39h-67q-14 0 -20.5 5.5t-8.5 17.5l-4 32q-29 -36 -69.5 -53t-105.5 -17q-89 0 -140.5 47.5z" />
    <glyph glyph-name="uni0E0A" unicode="&#xe0a;" horiz-adv-x="592" 
d="M107.5 35.5q-66.5 50.5 -66.5 138.5v47q0 102 79 152v16q0 8 -4.5 10.5t-15.5 2.5h-31q-17 0 -24 7.5t-7 24.5v59q0 17 7 24.5t24 7.5h135q35 0 48.5 -14.5t13.5 -47.5v-76q0 -28 -17 -42q-24 -19 -34 -42t-10 -60v-66q0 -66 86 -66q45 0 64.5 17t19.5 49v75
q0 31 -9.5 46.5t-31.5 30.5q-8 5 -11 11t-3 15v32q0 9 4 15.5t13 14.5q25 23 33.5 39.5t8.5 54.5q0 16 6.5 22.5t22.5 6.5h115q11 0 14.5 -4t3.5 -15q0 -58 -18 -93t-62 -57q44 -19 61.5 -52t17.5 -83v-44q0 -96 -64 -151.5t-185 -55.5q-117 0 -183.5 50.5z" />
    <glyph glyph-name="uni0E0B" unicode="&#xe0b;" horiz-adv-x="592" 
d="M156 7q-56 22 -85.5 61.5t-29.5 91.5v36q0 59 34 104t89 70v27q0 20 -16 20t-25 -16v-7q0 -23 -22 -23h-47q-23 0 -23 23v108q0 23 23 23h59q23 0 23 -23v-5q32 28 77 28q35 0 53.5 -20t18.5 -55v-81q0 -16 -4 -25.5t-16 -17.5q-30 -21 -45 -44t-15 -61v-46q0 -71 84 -71
q86 0 86 73v75q0 31 -9.5 46.5t-31.5 30.5q-8 5 -11 11t-3 15v32q0 9 4 15.5t13 14.5q25 23 33.5 39.5t8.5 54.5q0 16 6.5 22.5t22.5 6.5h115q11 0 14.5 -4t3.5 -15q0 -58 -18 -93t-62 -57q44 -19 61.5 -52t17.5 -83v-50q0 -59 -29.5 -104.5t-86.5 -71t-135 -25.5
q-77 0 -133 22z" />
    <glyph glyph-name="uni0E0C" unicode="&#xe0c;" horiz-adv-x="954" 
d="M611 3q-42 18 -73 53l-2 -33q-1 -23 -29 -23h-69q-38 0 -38 39l-1 282q0 52 -19 75.5t-70 23.5q-62 0 -107 -35l12 -24q7 -14 10 -27t3 -32v-153q0 -15 4.5 -20.5t16.5 -5.5h17q18 0 25 -7.5t7 -24.5v-59q0 -21 -10 -26.5t-42 -5.5h-121q-36 0 -49 14.5t-13 47.5v266
l-23 56q-9 23 -9 33q0 16 15 28q49 41 116.5 68t148.5 27q139 0 196.5 -59.5t57.5 -163.5v-135q0 -34 27.5 -58t69.5 -24q41 0 57.5 18.5t16.5 59.5v303q0 22 10.5 33t35.5 11h75q24 0 34.5 -11t10.5 -33v-308q0 -93 -50 -140.5t-138 -47.5q-61 0 -103 18z" />
    <glyph glyph-name="uni0E0D" unicode="&#xe0d;" horiz-adv-x="960" 
d="M524.5 -123.5q-48.5 11.5 -91.5 37.5q-11 7 -11 17q0 7 5 17l34 60q7 13 16 13q3 0 17 -6q62 -31 136 -31q58 0 86.5 24t33.5 71q-35 -21 -103 -21q-130 0 -189 53t-59 155v55q0 52 -19 75.5t-70 23.5q-62 0 -107 -35l12 -24q7 -14 10 -27t3 -32v-153q0 -15 4.5 -20.5
t16.5 -5.5h17q18 0 25 -7.5t7 -24.5v-59q0 -21 -10 -26.5t-42 -5.5h-121q-36 0 -49 14.5t-13 47.5v266l-23 56q-9 23 -9 33q0 16 15 28q49 41 116.5 68t148.5 27q139 0 196.5 -59.5t57.5 -163.5v-52q0 -46 20 -67t69 -21t68.5 21t19.5 67v216q0 22 10.5 33t34.5 11h75
q25 0 35.5 -11t10.5 -33v-311q0 -108 -28 -175t-88.5 -98.5t-158.5 -31.5q-60 0 -108.5 11.5z" />
    <glyph glyph-name="uni0E0E" unicode="&#xe0e;" horiz-adv-x="644" 
d="M459.5 -183.5q-10.5 3.5 -29.5 13.5q-30 15 -52 19.5t-58 4.5q-64 0 -118 -39q-5 -4 -10 -4q-7 0 -16 12l-52 66q-5 6 -5 11q0 7 11 15q36 27 82.5 43t99.5 16q37 0 63 -5t52 -17v369q0 50 -23.5 74.5t-75.5 24.5q-63 0 -108 -34l19 -28q11 -17 14.5 -31t3.5 -40v-245
q0 -24 -6.5 -33t-28.5 -9h-167q-18 0 -24.5 7t-6.5 25v59q0 17 6.5 24.5t24.5 7.5h21q9 0 12 3t3 13v186l-38 59q-9 15 -9 33q0 14 16 29q45 40 114 67t152 27q139 0 202.5 -59.5t63.5 -159.5v-472q0 -19 -9 -27.5t-28 -8.5h-72q-13 0 -23.5 3.5z" />
    <glyph glyph-name="uni0E0F" unicode="&#xe0f;" horiz-adv-x="644" 
d="M365 -183q-35 13 -58 43q-14 -28 -38.5 -39t-58.5 -11h-68q-10 0 -15 4.5t-5 15.5v84q0 19 19 19h69q23 0 34 5t18 17q6 12 9.5 14.5t12.5 2.5h34q9 0 12.5 -2.5t9.5 -14.5q8 -15 18 -22t28 -7q21 0 31 9.5t10 33.5v352q0 50 -23.5 74.5t-75.5 24.5q-63 0 -108 -34
l19 -28q11 -17 14.5 -31t3.5 -40v-245q0 -24 -6.5 -33t-28.5 -9h-167q-18 0 -24.5 7t-6.5 25v59q0 17 6.5 24.5t24.5 7.5h21q9 0 12 3t3 13v186l-38 59q-9 15 -9 33q0 14 16 29q45 40 114 67t152 27q139 0 202.5 -59.5t63.5 -159.5v-372q0 -62 -36 -103.5t-103 -41.5
q-53 0 -88 13z" />
    <glyph glyph-name="uni0E10" unicode="&#xe10;" horiz-adv-x="602" 
d="M298 -138q-27 -47 -105 -47h-78q-10 0 -15 4.5t-5 15.5v66q0 19 19 19h85q23 0 34 4t18 17q6 10 10 13t13 3h36q9 0 13 -3t10 -13q9 -15 20.5 -22t30.5 -7q22 0 31.5 7.5t9.5 26.5q0 17 -8 29t-26 23q-38 -13 -86 -13q-103 0 -153.5 42.5t-50.5 109.5v36h-32q-18 0 -25 7
t-7 25v56q0 17 7 24.5t25 7.5h123q25 0 35 -10.5t10 -32.5v-83q0 -33 16 -48t52 -15q44 0 64.5 36.5t20.5 117.5q0 87 -35 125t-115 38q-73 0 -137 -30q-11 -6 -17 -6q-9 0 -16 13l-33 59q-5 10 -5 16q0 12 13 19q39 23 99.5 35.5t129.5 12.5t118 -16q28 18 57 31.5t47 18.5
q15 4 27 4q18 0 24 -16l23 -64q2 -5 2 -12q0 -12 -16 -19l-54 -23q53 -61 53 -186q0 -147 -77 -216q77 -44 77 -120q0 -50 -34 -83t-89 -33q-94 0 -134 56z" />
    <glyph glyph-name="uni0E11" unicode="&#xe11;" horiz-adv-x="604" 
d="M71.5 10.5q-10.5 10.5 -10.5 32.5v153q0 61 26.5 107t76.5 71v23q0 20 -17 20q-7 0 -14 -4.5t-10 -11.5v-7q0 -23 -22 -23h-47q-23 0 -23 23v108q0 23 23 23h59q23 0 23 -23v-5q30 28 73 28q42 0 59 -29q52 44 126 44q76 0 117 -42.5t41 -124.5v-330q0 -22 -10.5 -32.5
t-34.5 -10.5h-73q-25 0 -35.5 10.5t-10.5 32.5v320q0 52 -51 52q-34 0 -57 -21v-37q0 -22 -2.5 -32t-12.5 -20q-21 -21 -29.5 -41t-8.5 -54v-167q0 -22 -10.5 -32.5t-34.5 -10.5h-75q-25 0 -35.5 10.5z" />
    <glyph glyph-name="uni0E12" unicode="&#xe12;" horiz-adv-x="977" 
d="M85.5 56.5q-54.5 71.5 -54.5 188.5q0 141 52.5 218t142.5 77q32 0 57.5 -13t40.5 -35q18 22 47.5 35t65.5 13q76 0 112.5 -41t36.5 -110v-207q0 -35 26 -58.5t69 -23.5q42 0 60 19.5t18 58.5v303q0 22 10.5 33t35.5 11h74q25 0 35.5 -11t10.5 -33v-308q0 -92 -52.5 -140
t-140.5 -48q-60 0 -101 18t-70 53l-2 -30q-2 -14 -9 -20t-22 -6h-69q-20 0 -27 8t-7 28v335q0 24 -9.5 36.5t-33.5 12.5q-22 0 -39 -24q-9 -11 -20 -11q-14 0 -22 11q-2 3 -7.5 10.5t-12 11t-15.5 3.5q-33 0 -52 -43.5t-19 -132.5q0 -72 22 -113t64 -41q26 0 49 9q6 2 7 2
q10 0 13 -14l14 -62q1 -3 1 -8q0 -8 -15 -15q-44 -18 -108 -18q-102 0 -156.5 71.5z" />
    <glyph glyph-name="uni0E13" unicode="&#xe13;" horiz-adv-x="954" 
d="M449 32.5q-50 47.5 -50 140.5v148q0 52 -19 75.5t-70 23.5q-62 0 -107 -35l12 -24q7 -14 10 -27t3 -32v-153q0 -15 4.5 -20.5t16.5 -5.5h17q18 0 25 -7.5t7 -24.5v-59q0 -21 -10 -26.5t-42 -5.5h-121q-36 0 -49 14.5t-13 47.5v266l-23 56q-9 23 -9 33q0 16 15 28
q49 41 116.5 68t148.5 27q139 0 196.5 -59.5t57.5 -163.5v-139q0 -41 16.5 -59.5t57.5 -18.5q42 0 69.5 24t27.5 58v299q0 22 10.5 33t34.5 11h75q25 0 35.5 -11t10.5 -33l-1 -442q0 -39 -38 -39h-69q-28 0 -29 23l-2 33q-31 -35 -73 -53t-103 -18q-88 0 -138 47.5z" />
    <glyph glyph-name="uni0E14" unicode="&#xe14;" horiz-adv-x="652" 
d="M87 57q-56 72 -56 188q0 144 76 219.5t221 75.5q139 0 205.5 -62.5t66.5 -164.5v-270q0 -22 -10.5 -32.5t-35.5 -10.5h-75q-24 0 -34.5 10.5t-10.5 32.5v267q0 54 -25 82t-81 28q-67 0 -100 -42.5t-33 -136.5q0 -70 24 -110t67 -40q23 0 49 10q6 2 7 2q10 0 13 -14
l16 -63q1 -3 1 -7q0 -5 -3.5 -8.5t-11.5 -7.5q-43 -18 -112 -18q-102 0 -158 72z" />
    <glyph glyph-name="uni0E15" unicode="&#xe15;" horiz-adv-x="652" 
d="M85.5 56.5q-54.5 71.5 -54.5 188.5q0 93 25.5 159.5t71 101t104.5 34.5q63 0 96 -48q17 22 48.5 35t67.5 13q78 0 117 -39t39 -107v-351q0 -22 -10.5 -32.5t-35.5 -10.5h-75q-24 0 -34.5 10.5t-10.5 32.5v328q0 24 -9.5 36.5t-33.5 12.5q-27 0 -44 -24q-9 -11 -20 -11
q-12 0 -21 11q-10 12 -17.5 18t-20.5 6q-34 0 -53.5 -43.5t-19.5 -131.5q0 -72 22 -113t64 -41q26 0 49 9q6 2 7 2q10 0 13 -14l14 -62q1 -3 1 -8q0 -8 -15 -15q-44 -18 -108 -18q-102 0 -156.5 71.5z" />
    <glyph glyph-name="uni0E16" unicode="&#xe16;" horiz-adv-x="631" 
d="M76 14.5q-13 14.5 -13 47.5v266l-23 56q-9 23 -9 33q0 16 15 28q48 40 117.5 67.5t151.5 27.5q140 0 202 -60.5t62 -162.5v-274q0 -22 -10.5 -32.5t-35.5 -10.5h-74q-25 0 -35.5 10.5t-10.5 32.5v278q0 50 -23.5 74.5t-75.5 24.5q-66 0 -111 -35l12 -24q7 -14 10 -27
t3 -32v-153q0 -15 4.5 -20.5t16.5 -5.5h17q18 0 25 -7.5t7 -24.5v-59q0 -21 -10 -26.5t-42 -5.5h-121q-36 0 -49 14.5z" />
    <glyph glyph-name="uni0E17" unicode="&#xe17;" horiz-adv-x="623" 
d="M61.5 10.5q-10.5 10.5 -10.5 32.5v443q0 39 38 39h69q14 0 21 -5.5t8 -18.5l2 -32q64 71 185 71q89 0 143 -48t54 -141v-308q0 -22 -10.5 -32.5t-34.5 -10.5h-75q-25 0 -35.5 10.5t-10.5 32.5v303q0 41 -20.5 60t-62.5 19q-48 0 -77 -24t-29 -59v-299q0 -22 -10 -32.5
t-35 -10.5h-74q-25 0 -35.5 10.5z" />
    <glyph glyph-name="uni0E18" unicode="&#xe18;" horiz-adv-x="552" 
d="M95.5 31.5q-62.5 46.5 -62.5 137.5v27q0 17 5 23t21 6h89q17 0 22.5 -6t5.5 -23v-27q0 -76 92 -76q45 0 67 18.5t22 51.5q0 38 -24 55t-88 30q-108 21 -160.5 53t-52.5 96q0 72 61.5 107.5t174.5 35.5q134 0 222 -43q19 -9 19 -21q0 -6 -5 -14l-34 -57q-7 -12 -13 -12
q-5 0 -15 5q-27 13 -71.5 22.5t-78.5 9.5q-52 0 -75 -8.5t-23 -30.5q0 -21 25 -32t90 -26q8 -1 37 -8q97 -23 136 -62.5t39 -109.5q0 -48 -28 -86t-83.5 -60t-135.5 -22q-116 0 -178.5 46.5z" />
    <glyph glyph-name="uni0E19" unicode="&#xe19;" horiz-adv-x="623" 
d="M104.5 33q-53.5 48 -53.5 140v308q0 23 10 33.5t35 10.5h74q25 0 35.5 -11t10.5 -33v-303q0 -40 20.5 -59t62.5 -19q43 0 74.5 24.5t31.5 57.5v299q0 22 10.5 33t34.5 11h75q25 0 35.5 -11t10.5 -33v-442q0 -39 -39 -39h-69q-28 0 -29 23l-2 33q-64 -71 -185 -71
q-89 0 -142.5 48z" />
    <glyph glyph-name="uni0E1A" unicode="&#xe1a;" horiz-adv-x="633" 
d="M117.5 39q-66.5 54 -66.5 154v288q0 22 10.5 33t34.5 11h75q25 0 35 -10.5t10 -33.5v-289q0 -45 25 -66.5t75 -21.5t74.5 21.5t24.5 66.5v289q0 22 10.5 33t34.5 11h75q25 0 35.5 -11t10.5 -33v-288q0 -100 -66.5 -154t-198.5 -54t-198.5 54z" />
    <glyph glyph-name="uni0E1B" unicode="&#xe1b;" horiz-adv-x="633" 
d="M117.5 39q-66.5 54 -66.5 154v288q0 22 10.5 33t34.5 11h75q25 0 35 -10.5t10 -33.5v-289q0 -45 25 -66.5t75 -21.5t74.5 21.5t24.5 66.5v464q0 22 10.5 33t34.5 11h75q25 0 35.5 -11t10.5 -33v-463q0 -100 -66.5 -154t-198.5 -54t-198.5 54z" />
    <glyph glyph-name="uni0E1C" unicode="&#xe1c;" horiz-adv-x="629" 
d="M51 32v449q0 22 10.5 33t34.5 11h131q19 0 26 -7t7 -25v-43q0 -18 -7.5 -25.5t-25.5 -7.5h-41v-221l92 159q6 10 14 14.5t21 4.5q16 0 22.5 -3.5t12.5 -14.5l92 -160v285q0 24 9.5 34t34.5 10h49q25 0 34.5 -10t9.5 -34v-449q0 -32 -33 -32h-60q-23 0 -32.5 8t-22.5 31
l-116 199l-125 -216q-9 -16 -19 -19t-42 -3h-43q-33 0 -33 32z" />
    <glyph glyph-name="uni0E1D" unicode="&#xe1d;" horiz-adv-x="629" 
d="M51 32v449q0 22 10.5 33t34.5 11h131q19 0 26 -7t7 -25v-43q0 -18 -7.5 -25.5t-25.5 -7.5h-41v-221l92 159q6 10 14 14.5t21 4.5q16 0 22.5 -3.5t12.5 -14.5l92 -160v455q0 24 9.5 34t34.5 10h49q25 0 34.5 -10t9.5 -34v-619q0 -32 -33 -32h-60q-23 0 -32.5 8t-22.5 31
l-116 199l-125 -216q-9 -16 -19 -19t-42 -3h-43q-33 0 -33 32z" />
    <glyph glyph-name="uni0E1E" unicode="&#xe1e;" horiz-adv-x="692" 
d="M144 6q-7 6 -11 22l-110 467q-1 4 -1 11q0 19 22 19h87q17 0 23.5 -6t9.5 -22l57 -271l70 223q4 13 10.5 18.5t19.5 5.5h50q13 0 19.5 -5.5t10.5 -18.5l74 -223l53 271q3 16 9.5 22t23.5 6h87q22 0 22 -19q0 -7 -1 -11l-110 -467q-4 -16 -11 -22t-22 -6h-73
q-13 0 -19.5 5t-10.5 18l-77 254l-78 -254q-4 -13 -10.5 -18t-19.5 -5h-72q-15 0 -22 6z" />
    <glyph glyph-name="uni0E1F" unicode="&#xe1f;" horiz-adv-x="689" 
d="M144 6q-7 6 -11 22l-110 467q-1 4 -1 11q0 19 22 19h87q17 0 23.5 -6t9.5 -22l57 -271l70 223q4 13 10.5 18.5t19.5 5.5h50q13 0 19.5 -5.5t10.5 -18.5l74 -223l82 426q3 16 9.5 22t23.5 6h87q22 0 22 -19q0 -7 -1 -11l-139 -622q-4 -16 -11 -22t-22 -6h-73q-13 0 -20 5
t-10 18l-77 254l-78 -254q-4 -13 -10.5 -18t-19.5 -5h-72q-15 0 -22 6z" />
    <glyph glyph-name="uni0E20" unicode="&#xe20;" horiz-adv-x="637" 
d="M23.5 7q-6.5 7 -6.5 25v59q0 17 6.5 24.5t24.5 7.5h21q9 0 12 3t3 13v186l-38 59q-9 15 -9 33q0 14 16 29q45 40 114 67t152 27q139 0 202.5 -59.5t63.5 -159.5v-278q0 -23 -9 -33t-33 -10h-81q-24 0 -33 10t-9 33v278q0 50 -23.5 74.5t-75.5 24.5q-63 0 -108 -34l19 -28
q11 -17 14.5 -31t3.5 -40v-245q0 -24 -6.5 -33t-28.5 -9h-167q-18 0 -24.5 7z" />
    <glyph glyph-name="uni0E21" unicode="&#xe21;" horiz-adv-x="623" 
d="M189 56l-2 -33q-1 -23 -29 -23h-69q-38 0 -38 39v442q0 22 10.5 33t35.5 11h74q25 0 35 -10.5t10 -33.5v-299q0 -33 31.5 -57.5t74.5 -24.5q42 0 62.5 19t20.5 59v303q0 22 10.5 33t35.5 11h75q24 0 34.5 -11t10.5 -33v-308q0 -92 -54 -140t-143 -48q-121 0 -185 71z" />
    <glyph glyph-name="uni0E22" unicode="&#xe22;" horiz-adv-x="616" 
d="M103 28.5q-72 43.5 -72 129.5q0 92 73 122q-35 19 -52 47t-17 70q0 39 20.5 72t58 52t84.5 19q69 0 114 -25q12 -7 12 -17q0 -3 -2 -11l-18 -53q-5 -11 -13 -11q-4 0 -9 3q-10 6 -18 8.5t-20 2.5q-24 0 -37.5 -14.5t-13.5 -39.5q0 -30 17 -44t53 -14h21q11 0 16 -5t5 -16
v-50q0 -23 -23 -23h-17q-38 0 -55 -14.5t-17 -48.5q0 -64 102 -64q56 0 81 28t25 89v260q0 22 10.5 33t34.5 11h72q25 0 35.5 -11t10.5 -33v-260q0 -236 -269 -236q-120 0 -192 43.5z" />
    <glyph glyph-name="uni0E23" unicode="&#xe23;" horiz-adv-x="534" 
d="M50 30q-19 10 -19 20q0 6 4 13l35 66q6 9 11 9q3 0 17 -6q29 -15 73 -26t81 -11q43 0 65 10.5t22 36.5q0 18 -14 31t-39.5 23.5t-80.5 29.5q-81 28 -119 63.5t-38 94.5q0 73 62 114.5t167 41.5q65 0 110.5 -10t87.5 -32q18 -9 18 -21q0 -5 -5 -15l-32 -54q-7 -12 -13 -12
q-5 0 -15 5q-26 14 -60 21.5t-71 7.5q-46 0 -67.5 -10.5t-21.5 -36.5q0 -24 25.5 -38.5t88.5 -37.5l37 -13q55 -20 86 -39.5t45 -46t14 -66.5q0 -71 -60.5 -114t-172.5 -43q-132 0 -221 45z" />
    <glyph glyph-name="uni0E24" unicode="&#xe24;" horiz-adv-x="631" 
d="M423.5 -145.5q-10.5 10.5 -10.5 32.5v434q0 50 -23.5 74.5t-75.5 24.5q-66 0 -111 -35l12 -24q7 -14 10 -27t3 -32v-153q0 -15 4.5 -20.5t16.5 -5.5h17q18 0 25 -7.5t7 -24.5v-59q0 -21 -10 -26.5t-42 -5.5h-121q-36 0 -49 14.5t-13 47.5v266l-23 56q-9 23 -9 33
q0 16 15 28q48 40 117.5 67.5t151.5 27.5q140 0 202 -60.5t62 -162.5v-430q0 -22 -10.5 -32.5t-35.5 -10.5h-74q-25 0 -35.5 10.5z" />
    <glyph glyph-name="uni0E25" unicode="&#xe25;" horiz-adv-x="621" 
d="M79.5 27.5q-48.5 42.5 -48.5 115.5q0 92 61 131t172 39h140v19q0 46 -28 67.5t-98 21.5q-34 0 -70.5 -8.5t-64.5 -22.5q-14 -6 -17 -6q-9 0 -16 13l-34 60q-5 10 -5 17q0 10 11 17q40 24 99.5 36.5t125.5 12.5q135 0 198.5 -55t63.5 -167v-275q0 -22 -10.5 -32.5
t-35.5 -10.5h-74q-24 0 -34.5 10.5t-10.5 32.5v159h-138q-43 0 -62 -12.5t-19 -44.5q0 -30 15.5 -42t47.5 -12q23 0 49 10q6 2 7 2q10 0 13 -14l16 -63q1 -3 1 -7q0 -5 -3.5 -8.5t-11.5 -7.5q-43 -18 -111 -18q-80 0 -128.5 42.5z" />
    <glyph glyph-name="uni0E26" unicode="&#xe26;" horiz-adv-x="637" 
d="M429 -146q-9 10 -9 33v434q0 50 -23.5 74.5t-75.5 24.5q-63 0 -108 -34l19 -28q11 -17 14.5 -31t3.5 -40v-245q0 -24 -6.5 -33t-28.5 -9h-167q-18 0 -24.5 7t-6.5 25v59q0 17 6.5 24.5t24.5 7.5h21q9 0 12 3t3 13v186l-38 59q-9 15 -9 33q0 14 16 29q45 40 114 67t152 27
q139 0 202.5 -59.5t63.5 -159.5v-434q0 -23 -9 -33t-33 -10h-81q-24 0 -33 10z" />
    <glyph glyph-name="uni0E27" unicode="&#xe27;" horiz-adv-x="554" 
d="M114.5 -3q-48.5 12 -90.5 36q-13 7 -13 19q0 6 5 16l34 59q7 13 15 13q3 0 17 -6q31 -15 61 -22.5t66 -7.5q72 0 111 36t39 121t-37 122t-110 37q-72 0 -125 -30q-10 -6 -17 -6q-9 0 -16 13l-33 59q-5 10 -5 17q0 11 13 18q42 24 90 36.5t112 12.5q144 0 218.5 -70
t74.5 -209q0 -137 -76.5 -206.5t-218.5 -69.5q-66 0 -114.5 12z" />
    <glyph glyph-name="uni0E28" unicode="&#xe28;" horiz-adv-x="629" 
d="M61.5 10.5q-10.5 10.5 -10.5 32.5v287q0 99 67.5 154.5t193.5 55.5q59 0 109 -14q27 17 54.5 30t45.5 18q15 4 26 4q10 0 15.5 -3.5t8.5 -12.5l23 -64q3 -7 3 -12q0 -12 -16 -19l-46 -20q21 -24 30 -52.5t9 -64.5v-287q0 -22 -10.5 -32.5t-35.5 -10.5h-75
q-24 0 -34.5 10.5t-10.5 32.5v286q0 92 -96 92t-96 -92v-85q29 38 77 38h35q11 0 15.5 -4.5t4.5 -15.5v-77q0 -13 -5 -18.5t-16 -5.5h-39q-32 0 -52 -25t-20 -61v-32q0 -22 -10 -32.5t-35 -10.5h-75q-24 0 -34.5 10.5z" />
    <glyph glyph-name="uni0E29" unicode="&#xe29;" horiz-adv-x="643" 
d="M117.5 39q-66.5 54 -66.5 154v288q0 22 10.5 33t34.5 11h75q25 0 35 -10.5t10 -33.5v-289q0 -45 25 -66.5t75 -21.5t74.5 21.5t24.5 66.5v52h-51q-19 0 -27 10t-8 32v33q0 22 7.5 32t27.5 10h51v120q0 22 10.5 33t34.5 11h75q25 0 35.5 -11t10.5 -33v-120h22
q19 0 26.5 -10t7.5 -32v-33q0 -22 -8 -32t-27 -10h-21v-51q0 -100 -66.5 -154t-198.5 -54t-198.5 54z" />
    <glyph glyph-name="uni0E2A" unicode="&#xe2a;" horiz-adv-x="620" 
d="M79.5 27.5q-48.5 42.5 -48.5 115.5q0 92 61 131t172 39h140v19q0 46 -28 67.5t-98 21.5q-34 0 -70.5 -8.5t-64.5 -22.5q-14 -6 -17 -6q-9 0 -16 13l-34 60q-5 10 -5 17q0 10 11 17q40 24 99.5 36.5t125.5 12.5q62 0 108 -12q37 23 69 36t48 13q14 0 20.5 -3t9.5 -12
l24 -64q2 -8 2 -12q0 -12 -16 -19l-42 -18q20 -23 29.5 -53.5t9.5 -77.5v-275q0 -22 -10.5 -32.5t-35.5 -10.5h-74q-24 0 -34.5 10.5t-10.5 32.5v159h-138q-43 0 -62 -12.5t-19 -44.5q0 -30 15.5 -42t47.5 -12q23 0 49 10q6 2 7 2q10 0 13 -14l16 -63q1 -3 1 -7
q0 -5 -3.5 -8.5t-11.5 -7.5q-43 -18 -111 -18q-80 0 -128.5 42.5z" />
    <glyph glyph-name="uni0E2B" unicode="&#xe2b;" horiz-adv-x="602" 
d="M61.5 10.5q-10.5 10.5 -10.5 32.5v438q0 22 10.5 33t34.5 11h74q25 0 35.5 -11t10.5 -33v-115h106q36 0 49 18t13 53v44q0 22 10.5 33t34.5 11h75q25 0 35.5 -11t10.5 -33v-48q0 -99 -72 -124q38 -14 55 -47t17 -77v-142q0 -22 -10.5 -32.5t-35.5 -10.5h-75
q-24 0 -34.5 10.5t-10.5 32.5v133q0 34 -13.5 51t-45.5 17h-109v-201q0 -22 -10.5 -32.5t-35.5 -10.5h-74q-24 0 -34.5 10.5z" />
    </font>
</defs>
</svg>
