<svg xmlns="http://www.w3.org/2000/svg" viewBox="0 0 2605.25 668.1"><defs><style>.cls-1{isolation:isolate;}.cls-2{fill:#f2bb13;}.cls-3{fill:#fb5f5f;}.cls-4{fill:#38adef;}.cls-5{fill:#fff;}.cls-6{fill:#333;opacity:0.2;mix-blend-mode:overlay;}</style></defs><title>ProjectStack-logo-white</title><g class="cls-1"><g id="Layer_1" data-name="Layer 1"><polygon class="cls-2" points="258.94 173.56 517.87 389.11 258.94 604.65 0 389.11 258.94 173.56"/><polygon class="cls-3" points="258.94 86.78 517.87 302.33 258.94 517.87 0 302.33 258.94 86.78"/><polygon class="cls-4" points="258.94 0 517.87 215.55 258.94 431.09 0 215.55 258.94 0"/><path class="cls-4" d="M1306.38,623.47H612.68a6.79,6.79,0,0,1-4.52-1.72L499.33,525a6.81,6.81,0,0,1,0-10.17l108.83-96.73a6.79,6.79,0,0,1,4.52-1.72h693.7a6.77,6.77,0,0,1,4.52,1.72l108.83,96.73a6.81,6.81,0,0,1,0,10.17L1310.9,621.75A6.77,6.77,0,0,1,1306.38,623.47Z"/><path class="cls-5" d="M572.85,333.14V31.93c0-9.73,4.84-14.59,14.57-14.59H714.71q54.88,0,82.59,28.19T825,124.72q0,51-27.7,78.93t-83.08,27.94H617.05V333.14c0,4.84-1.14,8.5-3.4,10.93s-6,3.64-11.17,3.64H587.42C577.69,347.71,572.85,342.84,572.85,333.14Zm141.37-137q34,0,50.52-17.73t16.53-53.67q0-36.45-16.53-54.19T714.22,52.8H617.05V196.12Z"/><path class="cls-5" d="M879.4,333.14V31.93c0-9.73,4.84-14.59,14.57-14.59h130.19q50.53,0,79,25.26t28.43,74.33q0,34-17.52,58.06t-50,35.23l56.81,127.29a14.77,14.77,0,0,1,1,4.36c0,3.9-2.41,5.84-7.27,5.84h-25.78c-3.56,0-6.21-.56-8-1.7s-3.32-3.48-4.62-7l-53.93-123.42H923.6V333.14c0,4.84-1.14,8.5-3.4,10.93s-6,3.64-11.17,3.64H894C884.24,347.71,879.4,342.84,879.4,333.14ZM1011,180.58q39.86,0,58.31-14.82t18.47-48.83q0-33.51-16.29-48.81T1020.76,52.8H923.6V180.58Z"/><path class="cls-5" d="M1228.73,309.57q-42.76-45.42-42.74-127t42.74-127q42.75-45.43,120.45-45.43,77.27,0,120,45.43t42.78,127q0,81.63-42.78,127t-120,45.43Q1271.51,355,1228.73,309.57Zm208.65-24.05q31.32-35.47,31.32-103t-31.32-103q-31.37-35.46-88.2-35.47-57.3,0-88.63,35.47t-31.35,103q0,67.54,31.35,103T1349.18,321Q1406,321,1437.38,285.52Z"/><path class="cls-5" d="M724.09,584q-11.21-2.52-17.9-7.11-2.13-1.47-2.13-2.61a3.06,3.06,0,0,1,.66-2l5.39-8.5c.66-1,1.25-1.47,1.8-1.47a4.46,4.46,0,0,1,2.13.82,56.88,56.88,0,0,0,14.06,5.8,60.69,60.69,0,0,0,16.18,2.21q11.12,0,16.76-3.68t5.64-11.85a13.11,13.11,0,0,0-2.13-7.85,17.26,17.26,0,0,0-6.21-5.07q-4.08-2.12-13.24-5.72l-3.76-1.47a147.61,147.61,0,0,1-17.58-8.18A35.29,35.29,0,0,1,712.24,517q-4.59-6.37-4.58-15.53,0-14.87,11.36-23t29.84-8.09a79,79,0,0,1,19.54,2.13,41.47,41.47,0,0,1,14.3,6.53c1.31,1,2,1.91,2,2.78a2.83,2.83,0,0,1-.65,1.8l-5.23,8.5c-.65,1-1.2,1.47-1.64,1.47a4.71,4.71,0,0,1-2.12-1Q764.55,486,749,486q-10.29,0-15.53,3.76t-5.23,11.94a13.44,13.44,0,0,0,2.21,8.09,17.38,17.38,0,0,0,6.46,5.15q4.25,2.13,13.73,5.72l4.09,1.64A134.61,134.61,0,0,1,773.38,531a30.11,30.11,0,0,1,10.39,10q3.68,6,3.67,15.28,0,14.07-10.54,22.16t-30,8.09A103,103,0,0,1,724.09,584Z"/><path class="cls-5" d="M834.86,582.58a6,6,0,0,1-1.47-4.41V488.9H804.77c-2.18,0-3.67-.43-4.49-1.3s-1.23-2.35-1.23-4.42v-4.41a6.72,6.72,0,0,1,1.23-4.5c.82-.92,2.31-1.39,4.49-1.39h78.15c2.18,0,3.71.47,4.58,1.39a6.45,6.45,0,0,1,1.31,4.5v4.41c0,2.07-.44,3.54-1.31,4.42s-2.4,1.3-4.58,1.3H854.31v89.27a6.19,6.19,0,0,1-1.39,4.41q-1.38,1.49-4.82,1.48h-8.5Q836.33,584.06,834.86,582.58Z"/><path class="cls-5" d="M884.07,581.6a5.35,5.35,0,0,1,.49-2.12l43.16-102.35a8.07,8.07,0,0,1,2.12-3.35,5.19,5.19,0,0,1,3.27-.9h9a5.14,5.14,0,0,1,3.35.9,8.74,8.74,0,0,1,2,3.35l43.16,102.35a5.35,5.35,0,0,1,.49,2.12c0,1.64-.92,2.46-2.78,2.46H974.15a5.76,5.76,0,0,1-3-.58,5.28,5.28,0,0,1-1.72-2.37l-9.32-22.89H915l-9.16,22.89a5.43,5.43,0,0,1-1.72,2.37,5.81,5.81,0,0,1-3,.58H886.84C885,584.06,884.07,583.24,884.07,581.6ZM954.86,543l-17.33-42.84L920.2,543Z"/><path class="cls-5" d="M1016.33,571.47q-15.21-15-15.21-43t15-43q15-15,42.76-15a87.53,87.53,0,0,1,20.6,2.29,51.53,51.53,0,0,1,16,6.54,2.68,2.68,0,0,1,1.47,2.12,4.44,4.44,0,0,1-.82,2.29l-4.58,7.85c-.65,1-1.25,1.47-1.79,1.47a6.27,6.27,0,0,1-2.29-.82q-10.31-6.21-26.32-6.21-18.48,0-28.94,10.63t-10.47,31.88q0,21.59,10.79,32.13t29.11,10.54q17,0,28-6.38a6.78,6.78,0,0,1,2.13-.81c.65,0,1.31.49,2,1.47l5.07,8.5a4,4,0,0,1,.49,1.63q0,1-1.8,2.13-12.59,8.84-38.09,8.83Q1031.53,586.51,1016.33,571.47Z"/><path class="cls-5" d="M1122.68,582.58a6.19,6.19,0,0,1-1.39-4.41V478.93a6.47,6.47,0,0,1,1.39-4.58c.92-1,2.48-1.47,4.66-1.47H1136q3.27,0,4.74,1.47a6.26,6.26,0,0,1,1.48,4.58v99.24a6.24,6.24,0,0,1-1.39,4.41q-1.39,1.49-4.83,1.48h-8.66C1125.16,584.06,1123.6,583.57,1122.68,582.58Zm65.88,1.15a4.89,4.89,0,0,1-1.88-1.47l-39.4-47.41a17.4,17.4,0,0,1-2.12-3.11,7.65,7.65,0,0,1-.66-3.43,7.33,7.33,0,0,1,.58-3.27,21.68,21.68,0,0,1,2.2-3.27l38.42-46.93a4.38,4.38,0,0,1,2-1.63,10.5,10.5,0,0,1,3.1-.33h15a2.43,2.43,0,0,1,1.8.66,2.19,2.19,0,0,1,.65,1.63,3.11,3.11,0,0,1-1,2.29l-42.34,50.85,43.32,51.17a3.12,3.12,0,0,1,1,2.29,2.19,2.19,0,0,1-.66,1.63,2.42,2.42,0,0,1-1.8.66h-15.53A8.32,8.32,0,0,1,1188.56,583.73Z"/><polygon class="cls-6" points="258.94 431.09 52.13 258.94 0 302.33 258.94 517.87 517.87 302.33 465.75 258.94 258.94 431.09"/><polygon class="cls-6" points="258.94 0 517.87 215.55 258.94 431.09 0 215.55 258.94 0"/><path class="cls-5" d="M1524.52,333.61c-2.57-1.6-3.87-3.4-3.87-5.34a11.34,11.34,0,0,1,1.46-4.86l10.68-17.49c1.3-2.57,2.92-3.88,4.86-3.88a7.81,7.81,0,0,1,4.86,1.94q12.16,7.77,29.89,12.39a144.31,144.31,0,0,0,36.65,4.61q28.17,0,41.32-15.06t13.12-46.14V31.93q0-14.59,15.07-14.59h14.55c5.18,0,8.93,1.22,11.19,3.65s3.4,6.07,3.4,10.94V259.28q0,43.74-24.56,69.73t-74.09,26Q1562,355,1524.52,333.61Z"/><path class="cls-5" d="M1779.1,333.14V31.93q0-14.59,14.59-14.59H1995.8q7.77,0,10.91,2.92c2.1,1.94,3.17,5.34,3.17,10.2v8.27c0,5.18-1.07,8.81-3.17,10.93S2001,52.8,1995.8,52.8H1823.34V164.55H1953c5.18,0,8.94,1,11.19,3.17s3.4,5.57,3.4,10.43v7.77q0,7.29-3.4,10.7c-2.25,2.27-6,3.4-11.19,3.4H1823.34V312.24H1995.8q7.77,0,10.91,3.16c2.1,2.1,3.17,5.76,3.17,10.94v8.24c0,4.86-1.07,8.26-3.17,10.22s-5.73,2.91-10.91,2.91H1793.69Q1779.1,347.71,1779.1,333.14Z"/><path class="cls-5" d="M2081.56,309.81q-44-45.19-44-127.29t43.69-127.29q43.77-45.15,124.38-45.17A257.71,257.71,0,0,1,2264,16.37q27.17,6.31,45.66,18.46c2.57,1.62,3.88,3.4,3.88,5.34a11.29,11.29,0,0,1-1.46,4.86l-10.2,17c-1.31,2.61-2.73,3.9-4.35,3.9a7.83,7.83,0,0,1-4.87-1.94q-14.58-8.75-36-14.33t-47.61-5.6q-59.71,0-94,34.26t-34.23,104.2q0,70.93,35,104.7T2210.05,321q29.11,0,50.53-5.1a134.73,134.73,0,0,0,38.35-15.3,8.41,8.41,0,0,1,5.38-1.94c1.62,0,3,1.13,4.35,3.4l10.71,18.47a6.47,6.47,0,0,1,1.42,3.87,3.76,3.76,0,0,1-1.18,2.69,21.36,21.36,0,0,1-3.64,2.67Q2278.08,355,2206.14,355,2125.55,355,2081.56,309.81Z"/><path class="cls-5" d="M2456.84,333.14V52.8H2367q-7.77,0-10.91-2.9c-2.13-1.94-3.16-5.34-3.16-10.21V31.43c0-4.86,1-8.42,3.16-10.69s5.73-3.4,10.91-3.4h224c5.18,0,8.89,1.14,11.19,3.4s3.4,5.83,3.4,10.69v8.26c0,4.87-1.15,8.27-3.4,10.21s-6,2.9-11.19,2.9h-89.87V333.14c0,4.84-1.14,8.5-3.4,10.93s-6,3.64-11.19,3.64H2471.9Q2456.84,347.71,2456.84,333.14Z"/><path class="cls-5" d="M1458.43,626.35a4,4,0,0,1-.9-2.85v-64a4.17,4.17,0,0,1,.9-2.95,4,4,0,0,1,3-1h27q13,0,19.24,6.17t6.27,17.65q0,11.38-6.27,17.5t-19.24,6.11H1471V623.5a4,4,0,0,1-.89,2.85,4.19,4.19,0,0,1-3.11.95h-5.59A4,4,0,0,1,1458.43,626.35Zm29.35-33.51q6.42,0,9.59-3.32t3.16-10.07q0-6.86-3.16-10.17t-9.59-3.32H1471v26.88Z"/><path class="cls-5" d="M1526.72,621.66q-7.42-7.21-7.43-19.66t7.43-19.65q7.44-7.22,21.13-7.22t21.19,7.22q7.47,7.21,7.48,19.65T1569,621.66q-7.49,7.22-21.19,7.22T1526.72,621.66Zm32.52-7c2.59-2.88,3.9-7.09,3.9-12.65s-1.31-9.64-3.9-12.48-6.4-4.27-11.39-4.27-8.69,1.42-11.33,4.27-4,7-4,12.48,1.32,9.68,4,12.6,6.41,4.37,11.33,4.37S1556.64,617.53,1559.24,614.65Z"/><path class="cls-5" d="M1597.49,626.82a3.47,3.47,0,0,1-1-1.73l-14.34-46.17a2.75,2.75,0,0,1-.1-.84c0-.91.56-1.37,1.69-1.37h8.11a2.92,2.92,0,0,1,1.79.42,2.46,2.46,0,0,1,.74,1.48l9.17,32.25,10.43-27.72a4.15,4.15,0,0,1,1-1.53,2.51,2.51,0,0,1,1.69-.47h4.53a2.46,2.46,0,0,1,1.63.42,3.92,3.92,0,0,1,.9,1.58L1634,610.86l9.27-32.25a3.6,3.6,0,0,1,.74-1.48,2.66,2.66,0,0,1,1.79-.42h8.12c1.12,0,1.68.46,1.68,1.37a2.75,2.75,0,0,1-.1.84L1641,625.09a3.51,3.51,0,0,1-1,1.79,3.2,3.2,0,0,1-1.85.42h-6.11a2.47,2.47,0,0,1-1.69-.48,4.88,4.88,0,0,1-1-1.73l-10.54-28.36-10.54,28.36a4.47,4.47,0,0,1-1.1,1.73,2.69,2.69,0,0,1-1.74.48h-6A3.13,3.13,0,0,1,1597.49,626.82Z"/><path class="cls-5" d="M1675.59,626.09a23.5,23.5,0,0,1-10.59-8.65q-4-5.85-4-14.59,0-13.61,7.28-20.66t20.65-7.06q13.29,0,20.08,6.85t6.8,19.81q0,3.69-3.38,3.69H1673.8q0,7,4.84,10.7c3.24,2.49,7.73,3.74,13.5,3.74a29.63,29.63,0,0,0,15-3.79,2.6,2.6,0,0,1,1.16-.42c.49,0,.88.31,1.16.94l2.53,4.54a2.59,2.59,0,0,1,.31,1.16,1.74,1.74,0,0,1-.94,1.37,33.81,33.81,0,0,1-9.33,3.89,47,47,0,0,1-11.54,1.27A38,38,0,0,1,1675.59,626.09Zm28-28.41q0-6.52-3.63-10.22t-10.91-3.69q-7.38,0-11.33,3.8a13.35,13.35,0,0,0-4,10.11Z"/><path class="cls-5" d="M1731.13,626.35a3.87,3.87,0,0,1-1-2.85V579.56a3.47,3.47,0,0,1,.53-2.22,2.87,2.87,0,0,1,2.21-.63h6a2.5,2.5,0,0,1,1.68.47,2.42,2.42,0,0,1,.64,1.64l.31,3.79a20.21,20.21,0,0,1,16.34-7.48q4.63,0,7.06,1.58a1.87,1.87,0,0,1,.79.9,1.69,1.69,0,0,1,0,1.1l-1.9,6.33c-.21.7-.6,1.05-1.16,1.05l-.84-.21a13.84,13.84,0,0,0-5.8-1.16,13.07,13.07,0,0,0-8.85,3,10.25,10.25,0,0,0-3.48,8.17V623.5a4,4,0,0,1-.9,2.85,4.15,4.15,0,0,1-3.1.95h-5.49A4.19,4.19,0,0,1,1731.13,626.35Z"/><path class="cls-5" d="M1790.46,626.09a23.6,23.6,0,0,1-10.59-8.65q-3.94-5.85-3.95-14.59,0-13.61,7.27-20.66t20.66-7.06q13.28,0,20.08,6.85t6.79,19.81q0,3.69-3.37,3.69h-38.68q0,7,4.85,10.7t13.49,3.74a29.58,29.58,0,0,0,15-3.79,2.64,2.64,0,0,1,1.16-.42c.5,0,.88.31,1.16.94l2.53,4.54a2.61,2.61,0,0,1,.32,1.16,1.75,1.75,0,0,1-1,1.37,33.68,33.68,0,0,1-9.33,3.89,46.93,46.93,0,0,1-11.54,1.27A38,38,0,0,1,1790.46,626.09Zm28-28.41q0-6.52-3.64-10.22T1804,583.77q-7.38,0-11.33,3.8a13.38,13.38,0,0,0-3.95,10.11Z"/><path class="cls-5" d="M1843,601.9a30.75,30.75,0,0,1,3-14,22.39,22.39,0,0,1,8.8-9.43,26.28,26.28,0,0,1,13.55-3.37q11.06,0,16,5V559.53a4,4,0,0,1,.94-2.95,4.23,4.23,0,0,1,3.06-1h5.27a4.22,4.22,0,0,1,3.06,1,4,4,0,0,1,1,2.95V622a34.2,34.2,0,0,1-10.75,4.9,50.24,50.24,0,0,1-14,2Q1842.94,628.88,1843,601.9Zm41.42,14.86v-21.5q0-5.16-3.59-7.8a15.24,15.24,0,0,0-9.27-2.63q-7.69,0-11.49,4.63t-3.79,12.76q0,9.06,4.21,13.06t12.75,4Q1880.26,619.29,1884.37,616.76Z"/><path class="cls-5" d="M1970.05,626.93a34,34,0,0,1-10.86-4.9v-62.5a4.17,4.17,0,0,1,.9-2.95,4,4,0,0,1,3-1h5.38a4.19,4.19,0,0,1,3,1,4,4,0,0,1,1,2.95v20.55a18.4,18.4,0,0,1,7.17-3.69,34.48,34.48,0,0,1,9.48-1.26q11.91,0,18.34,6.53t6.43,18.34q0,13.71-7.53,21.29t-22.29,7.59A50.92,50.92,0,0,1,1970.05,626.93Zm26.29-12.33q4.17-4.7,4.17-14.28,0-8-3.32-11.75t-11.12-3.74a17,17,0,0,0-9.49,2.68,8.81,8.81,0,0,0-4.11,7.85v21.4a15,15,0,0,0,4.85,1.84,27.66,27.66,0,0,0,6.11.69Q1992.18,619.29,1996.34,614.6Z"/><path class="cls-5" d="M2028.33,642.58a18.46,18.46,0,0,1-5.8-3.16,2,2,0,0,1-.84-1.37,1.82,1.82,0,0,1,.42-1.16l3-5.06c.42-.7.85-1.05,1.27-1.05a2.12,2.12,0,0,1,1.26.63,13.61,13.61,0,0,0,3.43,1.9,12.22,12.22,0,0,0,4.16.63,6.21,6.21,0,0,0,5-2.06,24.29,24.29,0,0,0,3.69-6.9l-21.29-45.32a4.81,4.81,0,0,1-.42-1.47c0-1,.56-1.48,1.69-1.48h9a3.7,3.7,0,0,1,2,.42,3.78,3.78,0,0,1,1.16,1.58l14.12,33.1,14.12-33.1a2.8,2.8,0,0,1,3.16-2h9c1.13,0,1.69.49,1.69,1.48a4.81,4.81,0,0,1-.42,1.47l-19.82,42.26a133.59,133.59,0,0,1-6.9,13.07,20.06,20.06,0,0,1-6.32,6.59,16.61,16.61,0,0,1-8.8,2.16A22.66,22.66,0,0,1,2028.33,642.58Z"/><path class="cls-5" d="M2154.16,626.35a3.87,3.87,0,0,1-.94-2.85V566h-18.45a3.94,3.94,0,0,1-2.9-.84,4.15,4.15,0,0,1-.79-2.85v-2.84a4.37,4.37,0,0,1,.79-2.9,3.77,3.77,0,0,1,2.9-.9h50.38a3.94,3.94,0,0,1,2.95.9,4.15,4.15,0,0,1,.84,2.9v2.84a4,4,0,0,1-.84,2.85,4.13,4.13,0,0,1-2.95.84h-18.44V623.5a4,4,0,0,1-.9,2.85,4.17,4.17,0,0,1-3.11.95h-5.48A4.22,4.22,0,0,1,2154.16,626.35Z"/><path class="cls-5" d="M2202.12,626.35a3.83,3.83,0,0,1-.95-2.85v-65a3.49,3.49,0,0,1,.53-2.22,2.85,2.85,0,0,1,2.21-.63h7.27a3.09,3.09,0,0,1,2.27.63,3.34,3.34,0,0,1,.58,2.22v23.61a22.45,22.45,0,0,1,8.11-5.22,31.2,31.2,0,0,1,11-1.74q8.54,0,13.76,4.58t5.21,13.76v30a3.32,3.32,0,0,1-3.9,3.8h-5.58a4.2,4.2,0,0,1-3.06-.95,3.87,3.87,0,0,1-1-2.85V594.31q0-5.16-2.47-7.32t-7.54-2.16a16.76,16.76,0,0,0-6.69,1.37,13.39,13.39,0,0,0-5.22,3.79,8.56,8.56,0,0,0-2,5.59V623.5a4,4,0,0,1-.9,2.85,4.16,4.16,0,0,1-3.11.95h-5.48A4.19,4.19,0,0,1,2202.12,626.35Z"/><path class="cls-5" d="M2269.36,566.49a5.06,5.06,0,0,1-1.37-3.59v-2.21a4.89,4.89,0,0,1,5.27-5.06h4.53a5.22,5.22,0,0,1,3.95,1.48,5,5,0,0,1,1.42,3.58v2.21a5,5,0,0,1-1.42,3.59,5.25,5.25,0,0,1-3.95,1.47h-4.53A5.06,5.06,0,0,1,2269.36,566.49Zm.42,59.86a3.83,3.83,0,0,1-1-2.85V580.61a4,4,0,0,1,1-3,4.19,4.19,0,0,1,3-.95h5.48a4.2,4.2,0,0,1,3.06.95,4,4,0,0,1,1,3V623.5a4,4,0,0,1-.9,2.85,4.16,4.16,0,0,1-3.11.95h-5.48A4.19,4.19,0,0,1,2269.78,626.35Z"/><path class="cls-5" d="M2300.55,626.35a3.87,3.87,0,0,1-1-2.85V579.56a3.54,3.54,0,0,1,.53-2.22,2.87,2.87,0,0,1,2.21-.63h6c1.54,0,2.35.7,2.42,2.11L2311,583q7.16-7.9,20.55-7.9,8.53,0,13.75,4.58t5.22,13.76v30a3.33,3.33,0,0,1-3.9,3.8H2341a4.19,4.19,0,0,1-3.05-.95,3.83,3.83,0,0,1-.95-2.85V594.31q0-5.16-2.37-7.32c-1.59-1.44-4.13-2.16-7.64-2.16a16.21,16.21,0,0,0-9.75,3,9.16,9.16,0,0,0-4.17,7.75V623.5a4,4,0,0,1-.89,2.85,4.19,4.19,0,0,1-3.11.95h-5.48A4.2,4.2,0,0,1,2300.55,626.35Z"/><path class="cls-5" d="M2372.16,622q-7.85-6.9-7.85-19.76a27.44,27.44,0,0,1,3.59-14.13,24.5,24.5,0,0,1,10.27-9.53,33.83,33.83,0,0,1,15.65-3.43,43.55,43.55,0,0,1,11.28,1.26,27.46,27.46,0,0,1,8.64,4.11,1.75,1.75,0,0,1,1,1.37,2.9,2.9,0,0,1-.53,1.48l-2.84,4.95c-.42.71-.81,1.06-1.16,1.06a3,3,0,0,1-1.48-.64,29.28,29.28,0,0,0-6.48-3,25.74,25.74,0,0,0-7.64-1q-7.91,0-12.44,4.69t-4.53,12.81q0,8.53,4.53,12.8t13.28,4.27a25,25,0,0,0,7.7-1.06,26.42,26.42,0,0,0,6.32-3.05,2.84,2.84,0,0,1,1.37-.53c.42,0,.84.35,1.26,1.06l3.06,5.16a1.82,1.82,0,0,1,.42,1.16q0,.74-1.05,1.47a31.83,31.83,0,0,1-9.06,4.06,43.69,43.69,0,0,1-11.39,1.32Q2380,628.88,2372.16,622Z"/><path class="cls-5" d="M2429.13,625.93a4.62,4.62,0,0,1-1.27-3.27v-1.9a4.77,4.77,0,0,1,1.27-3.37,4.12,4.12,0,0,1,3.16-1.37h2a4.12,4.12,0,0,1,3.16,1.37,4.77,4.77,0,0,1,1.27,3.37v1.9a4.62,4.62,0,0,1-1.27,3.27,4.12,4.12,0,0,1-3.16,1.37h-2A4.12,4.12,0,0,1,2429.13,625.93Z"/><path class="cls-5" d="M2503.53,626a2.75,2.75,0,0,1,.43-1.37l30.66-58.7h-36.15a3.57,3.57,0,0,1-2.74-.84,4.34,4.34,0,0,1-.73-2.85v-3.16a3.94,3.94,0,0,1,.73-2.69,3.75,3.75,0,0,1,2.74-.79h48.38a5.6,5.6,0,0,1,3.53.84,3.71,3.71,0,0,1,1,3,8.3,8.3,0,0,1-.68,3.05,26.46,26.46,0,0,1-1.53,3.16,19.71,19.71,0,0,0-1.06,2l-30.24,58.17a2.55,2.55,0,0,1-1,1.16,3.51,3.51,0,0,1-1.64.32H2505C2504,627.3,2503.53,626.88,2503.53,626Z"/><path class="cls-5" d="M2567.94,551.22a9.73,9.73,0,0,1-2.25-6.81V532.67h-3a2,2,0,0,1-1.39-.36,2.1,2.1,0,0,1-.34-1.37v-1.41a2.2,2.2,0,0,1,.34-1.39,1.85,1.85,0,0,1,1.39-.39h3v-2.88a5.52,5.52,0,0,1,.39-2.07,20.59,20.59,0,0,1,1.23-2.44,1.38,1.38,0,0,1,1.63-1h1.72a1.74,1.74,0,0,1,1.34.44,2,2,0,0,1,.39,1.34v6.6h6.18a1.85,1.85,0,0,1,1.39.39,2.14,2.14,0,0,1,.34,1.39v1.41a2,2,0,0,1-.34,1.37,2,2,0,0,1-1.39.36h-6.18V544.2a5.69,5.69,0,0,0,.84,3.48,3.43,3.43,0,0,0,2.88,1.07,6.36,6.36,0,0,0,2-.28,8.47,8.47,0,0,0,1.84-1,.87.87,0,0,1,.57-.21c.21,0,.42.15.63.47l1.52,2.51a.92.92,0,0,1,.21.58c0,.24-.17.49-.52.73a14,14,0,0,1-7.76,2.1C2571.68,553.68,2569.44,552.86,2567.94,551.22Z"/><path class="cls-5" d="M2589.47,552.42A1.88,1.88,0,0,1,2589,551V518.69a1.71,1.71,0,0,1,.26-1.1,1.41,1.41,0,0,1,1.1-.32H2594a1.52,1.52,0,0,1,1.13.32,1.63,1.63,0,0,1,.29,1.1v11.73a11.08,11.08,0,0,1,4-2.59,15.42,15.42,0,0,1,5.45-.87,10,10,0,0,1,6.83,2.28q2.6,2.28,2.6,6.84V551a2,2,0,0,1-.45,1.41,2,2,0,0,1-1.49.47h-2.78a2.11,2.11,0,0,1-1.52-.47,1.92,1.92,0,0,1-.47-1.41V536.5a4.62,4.62,0,0,0-1.23-3.64,5.56,5.56,0,0,0-3.75-1.08,8.43,8.43,0,0,0-3.32.68,6.73,6.73,0,0,0-2.59,1.89,4.2,4.2,0,0,0-1,2.78V551a2,2,0,0,1-.44,1.41,2.11,2.11,0,0,1-1.55.47H2591A2.09,2.09,0,0,1,2589.47,552.42Z"/></g></g></svg>