<svg xmlns="http://www.w3.org/2000/svg" viewBox="0 0 2605.25 668.1"><defs><style>.cls-1{isolation:isolate;}.cls-2{fill:#f2bb13;}.cls-3{fill:#fb5f5f;}.cls-4{fill:#38adef;}.cls-5,.cls-7{fill:#333;}.cls-6{fill:#fff;}.cls-7{opacity:0.2;mix-blend-mode:overlay;}</style></defs><title>ProjectStack-logo-black_1</title><g class="cls-1"><g id="Layer_1" data-name="Layer 1"><polygon class="cls-2" points="256.72 172.55 514.14 386.83 256.72 601.11 -0.69 386.83 256.72 172.55"/><polygon class="cls-3" points="256.72 86.27 514.14 300.56 256.72 514.84 -0.69 300.56 256.72 86.27"/><polygon class="cls-4" points="256.72 0 514.14 214.28 256.72 428.56 -0.69 214.28 256.72 0"/><path class="cls-4" d="M1298,619.81H608.39a6.77,6.77,0,0,1-4.49-1.7L495.71,521.94a6.77,6.77,0,0,1,0-10.11L603.9,415.66a6.77,6.77,0,0,1,4.49-1.71H1298a6.78,6.78,0,0,1,4.5,1.71l108.18,96.17a6.76,6.76,0,0,1,0,10.11l-108.18,96.17A6.77,6.77,0,0,1,1298,619.81Z"/><path class="cls-5" d="M568.8,331.19V31.74q0-14.5,14.48-14.5H709.83q54.55,0,82.11,28T819.47,124q0,50.7-27.53,78.47t-82.6,27.77h-96.6v101c0,4.81-1.14,8.45-3.38,10.86s-6,3.62-11.1,3.62h-15Q568.79,345.67,568.8,331.19ZM709.34,195q33.81,0,50.23-17.63T776,124q0-36.22-16.43-53.87T709.34,52.49h-96.6V195Z"/><path class="cls-5" d="M873.55,331.19V31.74q0-14.5,14.49-14.5h129.43q50.23,0,78.49,25.11t28.26,73.9q0,33.81-17.41,57.71t-49.72,35l56.48,126.54a14.52,14.52,0,0,1,1,4.34c0,3.87-2.4,5.8-7.23,5.8h-25.63c-3.53,0-6.17-.55-7.94-1.69s-3.3-3.46-4.59-7l-53.62-122.69h-98v116.9c0,4.81-1.14,8.45-3.38,10.86s-6,3.62-11.11,3.62H888Q873.54,345.67,873.55,331.19Zm130.87-151.66q39.61,0,58-14.74t18.36-48.54q0-33.31-16.19-48.53t-50.47-15.23H917.5v127Z"/><path class="cls-5" d="M1220.83,307.76q-42.51-45.17-42.49-126.31t42.49-126.29Q1263.34,10,1340.58,10q76.82,0,119.29,45.16t42.53,126.29q0,81.17-42.53,126.31t-119.29,45.16Q1263.38,352.92,1220.83,307.76Zm207.44-23.92q31.13-35.25,31.13-102.39T1428.27,79.06q-31.2-35.25-87.69-35.25-57,0-88.11,35.25t-31.16,102.39q0,67.16,31.16,102.39t88.11,35.26Q1397.12,319.1,1428.27,283.84Z"/><path class="cls-6" d="M719.17,580.56q-11.14-2.5-17.8-7.07c-1.41-1-2.11-1.84-2.11-2.6a3,3,0,0,1,.65-1.95l5.36-8.45c.65-1,1.24-1.46,1.79-1.46a4.37,4.37,0,0,1,2.11.81,56.4,56.4,0,0,0,14,5.77,60.43,60.43,0,0,0,16.09,2.2q11.06,0,16.66-3.66t5.61-11.79a13,13,0,0,0-2.12-7.8,17.31,17.31,0,0,0-6.17-5q-4.07-2.1-13.17-5.68l-3.74-1.47a147.35,147.35,0,0,1-17.47-8.12A35.35,35.35,0,0,1,707.38,514a25.8,25.8,0,0,1-4.55-15.44q0-14.79,11.3-22.84t29.66-8.05a78.45,78.45,0,0,1,19.42,2.12,41.29,41.29,0,0,1,14.22,6.5c1.31,1,2,1.9,2,2.76a2.82,2.82,0,0,1-.65,1.79l-5.21,8.45q-1,1.47-1.62,1.47a4.71,4.71,0,0,1-2.11-1q-10.41-6.66-25.85-6.66-10.23,0-15.44,3.73t-5.2,11.87a13.28,13.28,0,0,0,2.2,8,17.15,17.15,0,0,0,6.42,5.12q4.22,2.11,13.65,5.69l4.06,1.63a133.75,133.75,0,0,1,18.53,8.69,29.81,29.81,0,0,1,10.32,9.92q3.66,5.92,3.66,15.2,0,14-10.48,22t-29.83,8A102.36,102.36,0,0,1,719.17,580.56Z"/><path class="cls-6" d="M829.28,579.18a6,6,0,0,1-1.46-4.39V486.05H799.38c-2.17,0-3.66-.43-4.47-1.3s-1.22-2.33-1.22-4.39V476a6.67,6.67,0,0,1,1.22-4.47c.81-.91,2.3-1.38,4.47-1.38h77.69c2.16,0,3.68.47,4.55,1.38a6.45,6.45,0,0,1,1.3,4.47v4.39c0,2.06-.44,3.53-1.3,4.39s-2.39,1.3-4.55,1.3H848.62v88.74a6.16,6.16,0,0,1-1.38,4.39q-1.38,1.47-4.79,1.47H834Q830.75,580.65,829.28,579.18Z"/><path class="cls-6" d="M878.2,578.21a5.45,5.45,0,0,1,.49-2.11L921.6,474.35a7.91,7.91,0,0,1,2.11-3.33,5.13,5.13,0,0,1,3.25-.9h8.94a5.11,5.11,0,0,1,3.34.9,8.56,8.56,0,0,1,2,3.33L984.18,576.1a5.42,5.42,0,0,1,.48,2.11c0,1.62-.92,2.44-2.76,2.44H967.76a5.89,5.89,0,0,1-3-.57,5.44,5.44,0,0,1-1.7-2.36L953.78,555H908.92l-9.1,22.75a5.37,5.37,0,0,1-1.71,2.36,5.84,5.84,0,0,1-3,.57H881C879.12,580.65,878.2,579.83,878.2,578.21Zm70.38-38.36-17.23-42.58-17.23,42.58Z"/><path class="cls-6" d="M1009.69,568.13q-15.11-15-15.11-42.75t14.87-42.74q14.87-15,42.5-15a87,87,0,0,1,20.48,2.28,51.15,51.15,0,0,1,15.93,6.5,2.69,2.69,0,0,1,1.46,2.11,4.5,4.5,0,0,1-.81,2.28l-4.55,7.8c-.65,1-1.25,1.46-1.79,1.46a6.22,6.22,0,0,1-2.28-.81q-10.23-6.18-26.16-6.17-18.37,0-28.77,10.56t-10.4,31.69q0,21.47,10.72,31.94t28.94,10.49q16.89,0,27.79-6.34a6.87,6.87,0,0,1,2.11-.82q1,0,2,1.47l5,8.45a3.91,3.91,0,0,1,.49,1.62c0,.65-.6,1.36-1.79,2.12q-12.51,8.78-37.87,8.77Q1024.81,583.08,1009.69,568.13Z"/><path class="cls-6" d="M1115.42,579.18a6.16,6.16,0,0,1-1.38-4.39V476.14a6.43,6.43,0,0,1,1.38-4.55q1.38-1.47,4.63-1.47h8.62q3.24,0,4.71,1.47a6.22,6.22,0,0,1,1.46,4.55v98.65a6.16,6.16,0,0,1-1.38,4.39q-1.38,1.47-4.79,1.47h-8.62Q1116.8,580.65,1115.42,579.18Zm65.5,1.14a4.76,4.76,0,0,1-1.87-1.46l-39.17-47.14a17.2,17.2,0,0,1-2.11-3.08,7.61,7.61,0,0,1-.65-3.42,7.28,7.28,0,0,1,.57-3.25,22,22,0,0,1,2.19-3.25l38.2-46.65a4.38,4.38,0,0,1,2-1.62,10.4,10.4,0,0,1,3.08-.33h15a2.42,2.42,0,0,1,1.78.65,2.21,2.21,0,0,1,.66,1.63,3.11,3.11,0,0,1-1,2.27l-42.1,50.55,43.08,50.88a3.1,3.1,0,0,1,1,2.27,2.24,2.24,0,0,1-.65,1.63,2.43,2.43,0,0,1-1.79.65H1183.6A8.18,8.18,0,0,1,1180.92,580.32Z"/><polygon class="cls-7" points="256.72 428.56 51.13 257.42 -0.69 300.56 256.72 514.84 514.14 300.56 462.32 257.42 256.72 428.56"/><polygon class="cls-7" points="256.72 0 514.14 214.28 256.72 428.56 -0.69 214.28 256.72 0"/><path class="cls-5" d="M1514.9,331.66c-2.56-1.59-3.86-3.38-3.86-5.31a11.29,11.29,0,0,1,1.46-4.83l10.61-17.4c1.3-2.55,2.91-3.85,4.83-3.85a7.78,7.78,0,0,1,4.84,1.93q12.09,7.73,29.71,12.32a143.62,143.62,0,0,0,36.44,4.58q28,0,41.07-15t13-45.87V31.74q0-14.5,15-14.5h14.46c5.15,0,8.89,1.21,11.13,3.63s3.38,6,3.38,10.87v226q0,43.49-24.41,69.32t-73.66,25.84Q1552.12,352.92,1514.9,331.66Z"/><path class="cls-5" d="M1768,331.19V31.74q0-14.5,14.51-14.5h200.92q7.72,0,10.85,2.9c2.08,1.93,3.15,5.31,3.15,10.14V38.5c0,5.15-1.07,8.76-3.15,10.87s-5.7,3.12-10.85,3.12H1812v111.1h128.93c5.14,0,8.88,1,11.12,3.14s3.38,5.54,3.38,10.38v7.72c0,4.84-1.14,8.37-3.38,10.63s-6,3.38-11.12,3.38H1812V310.41h171.45c5.15,0,8.77,1,10.85,3.15s3.15,5.72,3.15,10.86v8.2c0,4.83-1.07,8.21-3.15,10.16s-5.7,2.89-10.85,2.89H1782.49Q1768,345.67,1768,331.19Z"/><path class="cls-5" d="M2068.67,308q-43.76-44.94-43.71-126.55t43.43-126.54Q2111.91,10,2192.05,10a256.47,256.47,0,0,1,58,6.27q27,6.29,45.4,18.36c2.55,1.61,3.85,3.38,3.85,5.3a11.18,11.18,0,0,1-1.45,4.84l-10.15,16.9c-1.29,2.59-2.71,3.87-4.32,3.87a7.82,7.82,0,0,1-4.83-1.92q-14.51-8.7-35.77-14.25t-47.32-5.56q-59.37,0-93.47,34.05t-34,103.59q0,70.52,34.78,104.08t93.71,33.57q29,0,50.23-5.07a134,134,0,0,0,38.13-15.21,8.37,8.37,0,0,1,5.34-1.93c1.61,0,3,1.12,4.33,3.38l10.65,18.36a6.47,6.47,0,0,1,1.41,3.85,3.72,3.72,0,0,1-1.18,2.67,21,21,0,0,1-3.61,2.66q-37.68,25.11-109.19,25.11Q2112.39,352.92,2068.67,308Z"/><path class="cls-5" d="M2441.75,331.19V52.49h-89.34q-7.72,0-10.85-2.89c-2.12-1.92-3.14-5.3-3.14-10.14V31.25c0-4.84,1-8.37,3.14-10.63s5.7-3.38,10.85-3.38h222.66c5.15,0,8.85,1.14,11.13,3.38s3.38,5.79,3.38,10.63v8.21c0,4.84-1.14,8.22-3.38,10.14s-6,2.89-11.13,2.89h-89.34v278.7c0,4.81-1.14,8.45-3.38,10.86s-6,3.62-11.12,3.62h-14.5Q2441.75,345.67,2441.75,331.19Z"/><path class="cls-5" d="M1449.21,622.69a4,4,0,0,1-.89-2.83v-63.6a4.11,4.11,0,0,1,.89-2.93,3.94,3.94,0,0,1,3-1H1479q12.9,0,19.13,6.13t6.23,17.55q0,11.33-6.23,17.4T1479,599.53h-17.28v20.33a4,4,0,0,1-.89,2.83,4.15,4.15,0,0,1-3.09.94h-5.56A3.94,3.94,0,0,1,1449.21,622.69Zm29.18-33.32q6.39,0,9.53-3.3t3.14-10q0-6.81-3.14-10.11t-9.53-3.3h-16.66v26.72Z"/><path class="cls-5" d="M1517.1,618q-7.39-7.17-7.39-19.54t7.39-19.54q7.38-7.17,21-7.17t21.06,7.17q7.42,7.18,7.43,19.54T1559.17,618q-7.44,7.18-21.06,7.18T1517.1,618Zm32.32-7q3.88-4.3,3.88-12.58t-3.88-12.41c-2.58-2.83-6.36-4.24-11.31-4.24s-8.65,1.41-11.27,4.24-3.93,7-3.93,12.41,1.31,9.63,3.93,12.53,6.38,4.34,11.27,4.34S1546.84,613.92,1549.42,611.06Z"/><path class="cls-5" d="M1587.46,623.16a3.51,3.51,0,0,1-1-1.73l-14.25-45.89a2.71,2.71,0,0,1-.11-.84c0-.91.56-1.36,1.68-1.36h8.07a2.89,2.89,0,0,1,1.78.42,2.43,2.43,0,0,1,.73,1.46l9.12,32.07,10.37-27.56a4,4,0,0,1,.94-1.52,2.5,2.5,0,0,1,1.68-.47h4.5a2.47,2.47,0,0,1,1.63.42,4,4,0,0,1,.89,1.57l10.27,27.56,9.22-32.07a3.57,3.57,0,0,1,.73-1.46,2.62,2.62,0,0,1,1.78-.42h8.07c1.12,0,1.68.45,1.68,1.36a2.71,2.71,0,0,1-.11.84l-14.35,45.89a3.47,3.47,0,0,1-1,1.78,3.13,3.13,0,0,1-1.83.42h-6.08a2.5,2.5,0,0,1-1.68-.47,5,5,0,0,1-1-1.73l-10.48-28.18-10.48,28.18a4.55,4.55,0,0,1-1.1,1.73,2.71,2.71,0,0,1-1.73.47h-6A3.11,3.11,0,0,1,1587.46,623.16Z"/><path class="cls-5" d="M1665.09,622.43a23.34,23.34,0,0,1-10.53-8.6q-3.93-5.8-3.93-14.51,0-13.52,7.23-20.53t20.54-7q13.2,0,20,6.81t6.76,19.69q0,3.68-3.36,3.67h-38.45q0,6.91,4.82,10.64c3.21,2.48,7.69,3.72,13.41,3.72a29.4,29.4,0,0,0,14.88-3.78,2.7,2.7,0,0,1,1.15-.42c.49,0,.88.32,1.16.95l2.51,4.5a2.65,2.65,0,0,1,.32,1.16,1.73,1.73,0,0,1-1,1.36,33.26,33.26,0,0,1-9.27,3.87,47,47,0,0,1-11.47,1.26A38,38,0,0,1,1665.09,622.43ZM1693,594.19q0-6.5-3.61-10.16t-10.84-3.67q-7.34,0-11.27,3.77a13.29,13.29,0,0,0-3.93,10.06Z"/><path class="cls-5" d="M1720.31,622.69a3.84,3.84,0,0,1-.94-2.83V576.17a3.5,3.5,0,0,1,.52-2.2,2.84,2.84,0,0,1,2.2-.63h6a2.5,2.5,0,0,1,1.68.47,2.41,2.41,0,0,1,.63,1.62l.31,3.78a20.09,20.09,0,0,1,16.24-7.44c3.08,0,5.41.52,7,1.57a1.85,1.85,0,0,1,.79.89,1.76,1.76,0,0,1-.06,1.1l-1.88,6.29c-.21.69-.59,1-1.15,1l-.84-.21a13.84,13.84,0,0,0-5.76-1.15,13,13,0,0,0-8.8,3,10.16,10.16,0,0,0-3.46,8.12v27.45a4,4,0,0,1-.89,2.83,4.15,4.15,0,0,1-3.09.94h-5.45A4.16,4.16,0,0,1,1720.31,622.69Z"/><path class="cls-5" d="M1779.3,622.43a23.34,23.34,0,0,1-10.53-8.6q-3.93-5.8-3.93-14.51,0-13.52,7.23-20.53t20.53-7q13.2,0,20,6.81t6.76,19.69q0,3.68-3.35,3.67h-38.46q0,6.91,4.82,10.64t13.42,3.72a29.39,29.39,0,0,0,14.87-3.78,2.73,2.73,0,0,1,1.16-.42c.48,0,.87.32,1.15.95l2.51,4.5a2.65,2.65,0,0,1,.32,1.16,1.73,1.73,0,0,1-1,1.36,33.26,33.26,0,0,1-9.27,3.87,47,47,0,0,1-11.47,1.26A37.93,37.93,0,0,1,1779.3,622.43Zm27.87-28.24q0-6.5-3.62-10.16t-10.84-3.67q-7.34,0-11.27,3.77a13.29,13.29,0,0,0-3.93,10.06Z"/><path class="cls-5" d="M1831.47,598.38a30.34,30.34,0,0,1,3-13.88,22.27,22.27,0,0,1,8.75-9.38,26.15,26.15,0,0,1,13.46-3.35q11,0,15.93,4.92V556.26a4,4,0,0,1,.94-2.93,4.16,4.16,0,0,1,3-1h5.24a4.16,4.16,0,0,1,3,1,4,4,0,0,1,.94,2.93v62.13a33.72,33.72,0,0,1-10.69,4.87,49.61,49.61,0,0,1-13.93,1.94Q1831.47,625.2,1831.47,598.38Zm41.18,14.77V591.78c0-3.42-1.19-6-3.56-7.75a15.17,15.17,0,0,0-9.22-2.62q-7.65,0-11.42,4.61t-3.78,12.67q0,9,4.2,13t12.67,4Q1868.56,615.67,1872.65,613.15Z"/><path class="cls-5" d="M1957.83,623.26a33.63,33.63,0,0,1-10.79-4.87V556.26a4.11,4.11,0,0,1,.89-2.93,4,4,0,0,1,3-1h5.34a4.18,4.18,0,0,1,3,1,4,4,0,0,1,.94,2.93v20.43a18.22,18.22,0,0,1,7.12-3.67,34.55,34.55,0,0,1,9.43-1.25q11.85,0,18.23,6.49t6.4,18.23q0,13.62-7.5,21.17t-22.16,7.54A50.33,50.33,0,0,1,1957.83,623.26ZM1984,611q4.14-4.66,4.14-14.2,0-8-3.3-11.68t-11-3.72a16.82,16.82,0,0,0-9.43,2.67,8.73,8.73,0,0,0-4.09,7.8v21.27a15,15,0,0,0,4.82,1.84,27.91,27.91,0,0,0,6.08.68Q1979.83,615.67,1984,611Z"/><path class="cls-5" d="M2015.77,638.82a18.11,18.11,0,0,1-5.76-3.14,2,2,0,0,1-.84-1.36,1.82,1.82,0,0,1,.42-1.16l2.93-5q.63-1,1.26-1a2.12,2.12,0,0,1,1.26.63,13.06,13.06,0,0,0,3.4,1.88,12.1,12.1,0,0,0,4.14.63,6.2,6.2,0,0,0,4.93-2,24.69,24.69,0,0,0,3.66-6.86L2010,576.27a4.78,4.78,0,0,1-.42-1.46c0-1,.56-1.47,1.67-1.47h8.91a2.79,2.79,0,0,1,3.14,2l14,32.9,14-32.9a2.8,2.8,0,0,1,3.15-2h8.9q1.68,0,1.68,1.47a4.78,4.78,0,0,1-.42,1.46l-19.7,42a132,132,0,0,1-6.86,13,20,20,0,0,1-6.29,6.55,16.49,16.49,0,0,1-8.75,2.14A22.4,22.4,0,0,1,2015.77,638.82Z"/><path class="cls-5" d="M2140.87,622.69a3.84,3.84,0,0,1-.94-2.83V562.65h-18.34a3.87,3.87,0,0,1-2.88-.84,4.09,4.09,0,0,1-.79-2.83v-2.82a4.36,4.36,0,0,1,.79-2.89,3.74,3.74,0,0,1,2.88-.89h50.08a4,4,0,0,1,2.94.89,4.19,4.19,0,0,1,.83,2.89V559a3.94,3.94,0,0,1-.83,2.83,4.1,4.1,0,0,1-2.94.84h-18.33v57.21a4,4,0,0,1-.89,2.83,4.15,4.15,0,0,1-3.09.94h-5.45A4.16,4.16,0,0,1,2140.87,622.69Z"/><path class="cls-5" d="M2188.54,622.69a3.84,3.84,0,0,1-.94-2.83V555.21a3.52,3.52,0,0,1,.52-2.2,2.84,2.84,0,0,1,2.2-.63h7.23a3,3,0,0,1,2.25.63,3.24,3.24,0,0,1,.58,2.2v23.47a22.33,22.33,0,0,1,8.07-5.18,30.8,30.8,0,0,1,10.89-1.73q8.49,0,13.68,4.55T2238.2,590v29.86a4,4,0,0,1-.89,2.83,4,4,0,0,1-3,.94h-5.56a4.18,4.18,0,0,1-3-.94,3.88,3.88,0,0,1-.94-2.83v-29c0-3.43-.82-5.85-2.46-7.29s-4.14-2.14-7.49-2.14a16.78,16.78,0,0,0-6.66,1.36,13.31,13.31,0,0,0-5.18,3.77,8.46,8.46,0,0,0-2,5.55v27.77a4,4,0,0,1-.89,2.83,4.15,4.15,0,0,1-3.09.94h-5.45A4.16,4.16,0,0,1,2188.54,622.69Z"/><path class="cls-5" d="M2255.38,563.18a5.1,5.1,0,0,1-1.36-3.57v-2.2a4.86,4.86,0,0,1,5.24-5h4.51a5.22,5.22,0,0,1,3.93,1.47,5,5,0,0,1,1.41,3.56v2.2a5,5,0,0,1-1.41,3.57,5.25,5.25,0,0,1-3.93,1.46h-4.51A5.07,5.07,0,0,1,2255.38,563.18Zm.42,59.51a3.84,3.84,0,0,1-.94-2.83V577.22a4,4,0,0,1,.94-2.94,4.16,4.16,0,0,1,3-.94h5.45a4.16,4.16,0,0,1,3,.94,4,4,0,0,1,.94,2.94v42.64a4,4,0,0,1-.89,2.83,4.12,4.12,0,0,1-3.09.94h-5.45A4.16,4.16,0,0,1,2255.8,622.69Z"/><path class="cls-5" d="M2286.4,622.69a3.84,3.84,0,0,1-1-2.83V576.17a3.49,3.49,0,0,1,.53-2.2,2.84,2.84,0,0,1,2.2-.63h6c1.54,0,2.34.7,2.41,2.09l.21,4.2q7.13-7.86,20.43-7.86,8.49,0,13.67,4.55t5.19,13.68v29.86a3.3,3.3,0,0,1-3.88,3.77h-5.55a4.16,4.16,0,0,1-3-.94,3.84,3.84,0,0,1-.94-2.83v-29c0-3.43-.79-5.85-2.36-7.29s-4.1-2.14-7.59-2.14a16.14,16.14,0,0,0-9.7,3,9.11,9.11,0,0,0-4.13,7.7v27.77a4,4,0,0,1-.9,2.83,4.12,4.12,0,0,1-3.09.94h-5.44A4.16,4.16,0,0,1,2286.4,622.69Z"/><path class="cls-5" d="M2357.59,618.34q-7.8-6.86-7.81-19.65a27.24,27.24,0,0,1,3.57-14,24.41,24.41,0,0,1,10.21-9.48,33.73,33.73,0,0,1,15.56-3.4,43.51,43.51,0,0,1,11.21,1.25,26.84,26.84,0,0,1,8.59,4.09,1.73,1.73,0,0,1,.95,1.36,2.9,2.9,0,0,1-.53,1.47l-2.83,4.92c-.42.7-.8,1-1.15,1a3,3,0,0,1-1.47-.63,28.7,28.7,0,0,0-6.44-3,25.46,25.46,0,0,0-7.6-1c-5.23,0-9.36,1.56-12.36,4.66s-4.5,7.36-4.5,12.73q0,8.49,4.5,12.73t13.2,4.25a24.9,24.9,0,0,0,7.65-1,26,26,0,0,0,6.29-3,2.78,2.78,0,0,1,1.36-.52c.42,0,.84.35,1.26,1l3,5.14a1.85,1.85,0,0,1,.42,1.15c0,.49-.36,1-1.05,1.47a31.58,31.58,0,0,1-9,4,43.21,43.21,0,0,1-11.32,1.31Q2365.4,625.2,2357.59,618.34Z"/><path class="cls-5" d="M2414.22,622.27A4.62,4.62,0,0,1,2413,619v-1.89a4.76,4.76,0,0,1,1.26-3.35,4.1,4.1,0,0,1,3.14-1.36h2a4.1,4.1,0,0,1,3.15,1.36,4.75,4.75,0,0,1,1.25,3.35V619a4.61,4.61,0,0,1-1.25,3.25,4.1,4.1,0,0,1-3.15,1.36h-2A4.1,4.1,0,0,1,2414.22,622.27Z"/><path class="cls-5" d="M2488.19,622.37a2.77,2.77,0,0,1,.42-1.36l30.49-58.36h-35.94a3.49,3.49,0,0,1-2.72-.84,4.27,4.27,0,0,1-.74-2.83v-3.14a3.86,3.86,0,0,1,.74-2.67,3.66,3.66,0,0,1,2.72-.79h48.09a5.53,5.53,0,0,1,3.51.84,3.66,3.66,0,0,1,1,2.94,8.21,8.21,0,0,1-.68,3,27,27,0,0,1-1.52,3.15,20.43,20.43,0,0,0-1,2l-30.07,57.83a2.54,2.54,0,0,1-1,1.16,3.4,3.4,0,0,1-1.62.31h-10.16Q2488.19,623.63,2488.19,622.37Z"/><path class="cls-5" d="M2552.22,548a9.69,9.69,0,0,1-2.24-6.77V529.56h-3a1.9,1.9,0,0,1-1.38-.36,2,2,0,0,1-.34-1.36v-1.4a2.11,2.11,0,0,1,.34-1.38,1.8,1.8,0,0,1,1.38-.39h3V521.8a5.38,5.38,0,0,1,.39-2,20.57,20.57,0,0,1,1.23-2.43,2.07,2.07,0,0,1,.6-.8,2,2,0,0,1,1-.18h1.72a1.68,1.68,0,0,1,1.33.44,2,2,0,0,1,.39,1.33v6.56h6.14a1.8,1.8,0,0,1,1.38.39,2.11,2.11,0,0,1,.34,1.38v1.4a2,2,0,0,1-.34,1.36,1.9,1.9,0,0,1-1.38.36h-6.14V541a5.69,5.69,0,0,0,.83,3.46,3.44,3.44,0,0,0,2.87,1.07,6.36,6.36,0,0,0,2-.29,7.88,7.88,0,0,0,1.82-1,.87.87,0,0,1,.57-.21c.21,0,.42.16.63.47l1.51,2.5a.87.87,0,0,1,.21.57c0,.25-.18.49-.53.73a13.88,13.88,0,0,1-7.7,2.08Q2554.47,550.44,2552.22,548Z"/><path class="cls-5" d="M2573.62,549.19a1.91,1.91,0,0,1-.46-1.4V515.66a1.73,1.73,0,0,1,.26-1.1,1.43,1.43,0,0,1,1.09-.31h3.59a1.54,1.54,0,0,1,1.12.31,1.65,1.65,0,0,1,.29,1.1v11.66a11.08,11.08,0,0,1,4-2.57,15.24,15.24,0,0,1,5.41-.86,9.92,9.92,0,0,1,6.8,2.26q2.58,2.26,2.58,6.8v14.84a1.65,1.65,0,0,1-1.93,1.87h-2.76a2,2,0,0,1-1.51-.47,1.91,1.91,0,0,1-.47-1.4V533.36a4.63,4.63,0,0,0-1.22-3.62,5.57,5.57,0,0,0-3.73-1.06,8.36,8.36,0,0,0-3.3.67,6.75,6.75,0,0,0-2.58,1.88,4.21,4.21,0,0,0-1,2.76v13.8a2,2,0,0,1-.44,1.4,2,2,0,0,1-1.54.47h-2.71A2.06,2.06,0,0,1,2573.62,549.19Z"/></g></g></svg>