<svg width="207" height="860" viewBox="0 0 207 860" fill="none" xmlns="http://www.w3.org/2000/svg">
<path d="M20.213 5.72868e-05C18.7484 -3.80981e-05 17.3429 0.577667 16.3013 1.60786C15.2597 2.63805 14.6661 4.03762 14.6493 5.5029L14.6493 53.3815L25.8022 53.3815L25.8022 5.5029C25.7854 4.03318 25.1883 2.62977 24.1412 1.59886C23.0941 0.567947 21.682 -0.00677863 20.213 5.72868e-05Z" fill="white"/>
<path d="M67.2108 5.72868e-05C65.7462 -3.80981e-05 64.3407 0.577667 63.2991 1.60786C62.2575 2.63805 61.6639 4.03762 61.6471 5.5029L61.6471 53.3815L72.7617 53.3815L72.7617 5.5029C72.745 4.03983 72.1531 2.64217 71.1143 1.61234C70.0755 0.582508 68.6732 0.00331887 67.2108 5.72868e-05Z" fill="white"/>
<path d="M5.2253e-07 59.893C3.83947e-07 71.5144 4.61409 82.6598 12.8272 90.8774C21.0403 99.0949 32.1797 103.711 43.7948 103.711C55.41 103.711 66.5494 99.0949 74.7625 90.8774C82.9756 82.6598 87.5897 71.5144 87.5897 59.893L87.5897 36.4516L8.02066e-07 36.4516L5.2253e-07 59.893ZM49.4351 85.7985C49.425 86.8468 49.1051 87.8686 48.5158 88.7353C47.9264 89.602 47.0938 90.2748 46.123 90.669C45.1521 91.0632 44.0864 91.1611 43.0601 90.9504C42.0337 90.7397 41.0926 90.2299 40.3553 89.4851C39.618 88.7403 39.1175 87.7939 38.9167 86.765C38.716 85.7361 38.8241 84.6708 39.2273 83.7032C39.6306 82.7357 40.3109 81.9092 41.1828 81.3278C42.0546 80.7464 43.0789 80.4361 44.1266 80.4361C44.8281 80.4361 45.5226 80.5751 46.17 80.8452C46.8174 81.1153 47.4048 81.5111 47.8984 82.0098C48.3921 82.5084 48.782 83.1 49.0458 83.7503C49.3095 84.4006 49.4418 85.0967 49.4351 85.7985Z" fill="white"/>
<path d="M29.707 115.662L29.707 94.1485L58.5463 94.1485L58.5463 115.662C58.5513 116.232 58.4435 116.797 58.229 117.325C58.0145 117.853 57.6976 118.333 57.2966 118.738C56.8956 119.143 56.4184 119.464 55.8926 119.684C55.3668 119.903 54.8028 120.016 54.2331 120.016L34.0074 120.016C33.4388 120.014 32.8762 119.9 32.3518 119.68C31.8275 119.46 31.3518 119.138 30.9522 118.734C30.5525 118.329 30.2367 117.849 30.023 117.322C29.8094 116.795 29.7019 116.231 29.707 115.662Z" fill="white"/>
<rect x="40" y="120" width="8" height="357" fill="white"/>
<rect x="119" y="277" width="8" height="200" fill="white"/>
<rect x="198" y="277" width="8" height="583" fill="white"/>
<path d="M127.03 476.5C127.03 482.213 125.905 487.869 123.719 493.147C121.533 498.424 118.328 503.22 114.289 507.259C110.25 511.298 105.454 514.503 100.177 516.689C94.8991 518.875 89.2425 520 83.53 520C77.8175 520 72.1609 518.875 66.8833 516.689C61.6056 514.503 56.8102 511.298 52.7709 507.259C48.7315 503.22 45.5273 498.424 43.3412 493.147C41.1552 487.869 40.03 482.212 40.03 476.5H48.0296C48.0296 481.162 48.9479 485.778 50.7319 490.085C52.516 494.392 55.1309 498.306 58.4275 501.603C61.724 504.899 65.6375 507.514 69.9446 509.298C74.2517 511.082 78.868 512 83.53 512C88.192 512 92.8083 511.082 97.1154 509.298C101.422 507.514 105.336 504.899 108.633 501.603C111.929 498.306 114.544 494.392 116.328 490.085C118.112 485.778 119.03 481.162 119.03 476.5H127.03Z" fill="white"/>
<path d="M119.281 278.5C119.281 272.788 120.406 267.131 122.592 261.853C124.778 256.576 127.982 251.78 132.022 247.741C136.061 243.702 140.856 240.497 146.134 238.311C151.412 236.125 157.068 235 162.781 235C168.493 235 174.15 236.125 179.427 238.311C184.705 240.497 189.501 243.702 193.54 247.741C197.579 251.78 200.783 256.576 202.969 261.853C205.156 267.131 206.281 272.788 206.281 278.5L198.281 278.5C198.281 273.838 197.363 269.222 195.579 264.915C193.795 260.608 191.18 256.694 187.883 253.398C184.587 250.101 180.673 247.486 176.366 245.702C172.059 243.918 167.443 243 162.781 243C158.119 243 153.502 243.918 149.195 245.702C144.888 247.486 140.975 250.101 137.678 253.398C134.382 256.694 131.767 260.608 129.983 264.915C128.199 269.222 127.28 273.838 127.28 278.5L119.281 278.5Z" fill="white"/>
</svg>
